<?xml version="1.0" standalone="no"?>
<!DOCTYPE svg PUBLIC "-//W3C//DTD SVG 20010904//EN"
 "http://www.w3.org/TR/2001/REC-SVG-20010904/DTD/svg10.dtd">
<svg version="1.0" xmlns="http://www.w3.org/2000/svg"
 width="840.000000pt" height="840.000000pt" viewBox="0 0 840.000000 840.000000"
 preserveAspectRatio="xMidYMid meet">
<metadata>
Created by potrace 1.11, written by Peter Selinger 2001-2013
</metadata>
<g transform="translate(0.000000,840.000000) scale(0.100000,-0.100000)"
fill="#000000" stroke="none">
<path d="M1953 7788 l2 -493 -977 -977 -978 -978 225 -225 c124 -124 227 -225
229 -225 2 0 339 336 750 746 l746 747 0 -94 c1 -52 1 -255 0 -453 l0 -358
-975 -975 -975 -975 224 -224 c123 -123 226 -224 229 -224 4 0 342 335 752
745 643 643 745 742 745 718 0 -16 0 -1019 1 -2230 l0 -2203 319 0 320 0 1 43
c0 23 1 1022 1 2220 0 1197 3 2179 7 2181 4 3 339 -328 745 -735 407 -406 742
-739 746 -739 3 0 106 101 229 224 l224 225 -975 975 -975 975 -1 452 0 452
1608 -1608 1608 -1608 0 -1521 c1 -836 1 -1524 1 -1528 1 -5 145 -8 321 -8
l319 0 0 248 c0 136 0 824 1 1529 l0 1282 975 975 974 974 -225 227 c-125 124
-228 225 -230 223 -2 -2 -339 -338 -749 -748 l-745 -745 0 453 0 453 975 975
975 975 -224 225 c-124 123 -227 224 -229 224 -3 0 -340 -335 -750 -745 -410
-410 -749 -745 -753 -745 -4 0 -4 4 1 9 6 6 9 456 7 1195 l-2 1186 -320 0
c-298 0 -320 -1 -321 -17 0 -10 0 -549 0 -1197 l-1 -1179 -749 749 -748 748
-227 -226 -227 -227 975 -976 976 -976 0 -450 0 -451 -30 29 c-16 15 -740 738
-1608 1606 l-1578 1578 0 467 c0 257 -1 479 -1 495 l-1 27 -320 0 -320 0 3
-492z"/>
</g>
</svg>
