<svg height="840pt" preserveAspectRatio="xMidYMid meet" viewBox="0 0 840 840" width="840pt" xmlns="http://www.w3.org/2000/svg"><path d="m1949 8238c0-24 0-245-1-493v-450l-196-198c-109-109-547-549-974-978l-778-781 158-155c86-85 189-186 228-224l71-70 740 740c407 408 743 741 745 741 3 0 6-199 6-441v-442l-38-41c-21-23-459-464-974-981l-936-939 199-196c110-107 213-208 229-223l30-29 741 741c407 407 742 737 745 733 2-4 4-995 4-2202 1-1207 1-2205 1-2217l1-23h319 319v2221c0 1221 2 2223 5 2225 3 3 297-286 653-641 357-355 693-689 746-742l98-96 104 104c58 57 159 157 225 223 67 65 121 121 121 123s-439 444-976 980l-975 976v440c0 241 2 442 6 445 7 7 3188-3176 3201-3203 6-12 9-610 9-1538l-1-1517 320 2 321 3v1526 1525l977 977 978 978-159 157c-88 86-191 187-229 224l-70 68-743-740c-409-407-746-740-749-740s-5 200-5 444v444l978 978 977 978-162 159c-90 87-193 188-229 224l-66 65-742-739c-408-406-745-739-749-741-4-1-7 533-7 1188v1190h-320-321l1-1190c0-655-3-1189-8-1187-4 1-340 335-746 741l-739 739-95-94c-52-52-133-131-179-176-45-45-105-104-132-132l-49-50 641-643c353-354 791-794 974-978l333-335v-442c0-244-3-443-6-443s-727 721-1607 1602c-1528 1527-1602 1603-1602 1637-1 20-1 242-1 494v457h-320-319z" transform="matrix(.1 0 0 -.1 0 840)"/></svg>