<svg xmlns="http://www.w3.org/2000/svg" viewBox="0 0 414 82.8">
  <path fill="#f26122" d="M43.8 13h31.5v56.6H43.8z"/>
  <path fill="#ed1c24" d="M45.8 41.3c0-11.5 5.4-21.7 13.7-28.3-6.1-4.8-13.8-7.7-22.2-7.7-19.9 0-36 16.1-36 36s16.1 36 36 36c8.4 0 16.1-2.9 22.2-7.7-8.3-6.6-13.7-16.9-13.7-28.3z"/>
  <path d="M114.4 63.6v-1.2h.5v-.2h-1.2v.2h.5v1.2h.2zm2.3 0v-1.4h-.4l-.4 1-.4-1h-.4v1.4h.3v-1.1l.4.9h.3l.4-.9v1.1h.2z"/>
  <path fill="#f99f1c" d="M117.8 41.3c0 19.9-16.1 36-36 36-8.4 0-16.1-2.9-22.2-7.7C68 63 73.3 52.8 73.3 41.3S67.9 19.5 59.6 13c6.1-4.8 13.8-7.7 22.2-7.7 19.9 0 36 16.1 36 36z"/>
  <path d="M179.7 53.4v-15c0-5.7-3.6-9.5-9.4-9.5-3.1 0-6.2.9-8.4 4.3-1.7-2.7-4.3-4.3-7.9-4.3-2.6 0-5.1.8-7 3.6v-3h-5.2v23.9h5.3V40.1c0-4.2 2.3-6.4 5.9-6.4 3.5 0 5.2 2.3 5.2 6.3v13.3h5.3V40.1c0-4.2 2.4-6.4 5.9-6.4 3.6 0 5.3 2.3 5.3 6.3v13.3h5zm77.9-24H249v-7.3h-5.3v7.3h-4.9v4.8h4.9v10.9c0 5.6 2.2 8.9 8.3 8.9 2.3 0 4.9-.7 6.5-1.9l-1.5-4.5c-1.6.9-3.3 1.4-4.6 1.4-2.6 0-3.5-1.6-3.5-4V34.2h8.5v-4.8zm44.4-.6c-3 0-5 1.4-6.3 3.5v-2.9h-5.2v23.9h5.2V40c0-4 1.7-6.2 5.1-6.2 1.1 0 2.2.2 3.3.6l1.6-4.9c-1.2-.5-2.7-.7-3.7-.7zm-67.2 2.5c-2.5-1.7-6-2.5-9.8-2.5-6.1 0-10 2.9-10 7.7 0 3.9 2.9 6.3 8.3 7.1l2.5.4c2.9.4 4.2 1.2 4.2 2.5 0 1.9-1.9 2.9-5.5 2.9s-6.2-1.2-8-2.5L214 51c2.9 2.1 6.5 3.1 10.4 3.1 6.9 0 10.9-3.3 10.9-7.8 0-4.2-3.2-6.4-8.4-7.2l-2.5-.4c-2.3-.3-4.1-.8-4.1-2.4 0-1.8 1.7-2.8 4.6-2.8 3.1 0 6 1.2 7.5 2.1l2.4-4.3zm139.6-2.5c-3 0-5 1.4-6.3 3.5v-2.9h-5.2v23.9h5.2V40c0-4 1.7-6.2 5.1-6.2 1.1 0 2.2.2 3.3.6l1.6-4.9c-1.2-.5-2.7-.7-3.7-.7zm-67.2 12.6c0 7.3 5.1 12.6 12.8 12.6 3.6 0 6-.8 8.6-2.9l-2.5-4.2c-2 1.4-4 2.2-6.3 2.2-4.2 0-7.2-3.1-7.2-7.7s3.1-7.6 7.2-7.7c2.3 0 4.3.8 6.3 2.2l2.5-4.2c-2.6-2.1-5-2.9-8.6-2.9-7.7 0-12.8 5.3-12.8 12.6zm48.8 0v-12h-5.2v2.9c-1.7-2.2-4.2-3.5-7.6-3.5-6.7 0-12 5.3-12 12.6s5.3 12.6 12 12.6c3.4 0 5.9-1.4 7.6-3.5v2.9h5.2v-12zm-19.4 0c0-4.2 2.8-7.7 7.3-7.7 4.3 0 7.2 3.3 7.2 7.7s-2.9 7.7-7.2 7.7c-4.5 0-7.3-3.5-7.3-7.7zm-62.8-12.6c-7 0-11.9 5.1-11.9 12.6 0 7.6 5.1 12.6 12.3 12.6 3.6 0 6.9-.9 9.8-3.4l-2.6-3.9c-2 1.6-4.6 2.5-7 2.5-3.4 0-6.4-1.6-7.2-5.9H285c.1-.7.1-1.3.1-2 0-7.4-4.6-12.5-11.3-12.5zm-.1 4.7c3.4 0 5.5 2.1 6.1 5.8h-12.4c.5-3.4 2.6-5.8 6.3-5.8zm130.7 7.9V19.8h-5.2v12.5c-1.7-2.2-4.2-3.5-7.6-3.5-6.7 0-12 5.3-12 12.6s5.3 12.6 12 12.6c3.4 0 5.9-1.4 7.6-3.5v2.9h5.2v-12zm6.1 9.8c.2 0 .4 0 .6.1.2.1.4.2.5.3.1.1.3.3.3.5.1.2.1.4.1.6 0 .2 0 .4-.1.6-.1.2-.2.3-.3.5-.1.1-.3.2-.5.3-.2.1-.4.1-.6.1-.2 0-.4 0-.6-.1-.2-.1-.4-.2-.5-.3-.1-.1-.2-.3-.3-.5-.1-.2-.1-.4-.1-.6 0-.2 0-.4.1-.6.1-.2.2-.3.3-.5.1-.1.3-.2.5-.3.1-.1.3-.1.6-.1zm0 2.7c.2 0 .3 0 .5-.1.1-.1.3-.1.4-.3.1-.1.2-.2.3-.4.1-.1.1-.3.1-.5s0-.3-.1-.5c-.1-.1-.1-.3-.3-.4-.1-.1-.2-.2-.4-.3-.1-.1-.3-.1-.5-.1s-.3 0-.5.1c-.1.1-.3.1-.4.3-.1.1-.2.2-.3.4-.1.1-.1.3-.1.5s0 .3.1.5c.1.1.1.3.3.4.1.1.2.2.4.3.1 0 .3.1.5.1zm0-1.9c.2 0 .3 0 .4.1.1.1.1.2.1.3 0 .1 0 .2-.1.3-.1.1-.2.1-.3.1l.5.5h-.4l-.4-.5h-.1v.5h-.3V52h.6zm-.3.2v.4h.5l.1-.1c0-.1 0-.1-.1-.1h-.5zM385 41.4c0-4.2 2.8-7.7 7.3-7.7 4.3 0 7.2 3.3 7.2 7.7s-2.9 7.7-7.2 7.7c-4.6 0-7.3-3.5-7.3-7.7zm-175.9 0v-12h-5.2v2.9c-1.7-2.2-4.2-3.5-7.6-3.5-6.7 0-12 5.3-12 12.6s5.3 12.6 12 12.6c3.4 0 5.9-1.4 7.6-3.5v2.9h5.2v-12zm-19.4 0c0-4.2 2.8-7.7 7.3-7.7 4.3 0 7.2 3.3 7.2 7.7s-2.9 7.7-7.2 7.7c-4.6 0-7.3-3.5-7.3-7.7z"/>
</svg>