<?xml version="1.0" encoding="utf-8"?>
<!-- Generator: Adobe Illustrator 22.1.0, SVG Export Plug-In . SVG Version: 6.00 Build 0)  -->
<svg version="1.1" id="Layer_1" xmlns="http://www.w3.org/2000/svg" xmlns:xlink="http://www.w3.org/1999/xlink" x="0px" y="0px"
	 viewBox="0 0 484.1 101.9" style="enable-background:new 0 0 484.1 101.9;" xml:space="preserve">
<style type="text/css">
	.st0{fill:#FFFFFF;}
</style>
<g>
	<path class="st0" d="M104.7,16.8l-5.6-5.6L80.4,29.8V0h-8v29.8L53.7,11.2l-5.6,5.6l24.3,24.4v11.2L53.7,33.8L32.3,12.3V0h-8v12.3
		L0,36.7l5.6,5.6l18.7-18.6v11.2L0,59.3l5.6,5.6l18.7-18.6v55.6h8V46.3L51,64.9l5.6-5.6L32.3,34.9V23.7l15.8,15.7l1.6,1.6l1.3,1.3
		l21.4,21.5v38.1h8V63.8l24.3-24.4l-5.6-5.6L80.4,52.4V41.2L104.7,16.8z"/>
	<path class="st0" d="M127.4,76.4h9V55.3h22.5v-8.2h-22.5V33.7h23.8v-8.2h-32.8L127.4,76.4z"/>
	<path class="st0" d="M217.2,39.8c-1.3-3.2-3.2-6-5.6-8.4s-5.4-4.2-8.6-5.4c-3.5-1.3-7.2-1.9-10.9-1.8c-3.7,0-7.3,0.6-10.8,1.9
		c-3.2,1.2-6.1,3-8.5,5.4s-4.3,5.3-5.6,8.5c-1.4,3.5-2.1,7.3-2,11.1c-0.1,3.7,0.6,7.4,2,10.9c2.5,6.4,7.7,11.4,14.1,13.8
		c3.5,1.3,7.1,1.9,10.8,1.9s7.4-0.7,10.9-2c3.2-1.2,6.1-3.1,8.6-5.5c2.4-2.4,4.3-5.2,5.6-8.4c1.4-3.5,2.1-7.2,2-10.9
		C219.3,47.1,218.6,43.3,217.2,39.8z M208.5,58.2c-0.8,2.2-2,4.3-3.6,6c-1.5,1.7-3.4,3.1-5.5,4c-2.3,1-4.7,1.4-7.2,1.4
		c-2.5,0.1-4.9-0.4-7.2-1.4c-2.1-0.9-4-2.3-5.5-4c-1.6-1.7-2.8-3.8-3.6-6c-0.9-2.4-1.3-4.9-1.3-7.5c0-2.4,0.4-4.8,1.3-7.1
		c0.8-2.1,2-4.1,3.6-5.8c1.5-1.7,3.4-3,5.5-3.9c2.3-1,4.7-1.4,7.2-1.4s4.9,0.4,7.2,1.4c2.1,0.9,4,2.2,5.5,3.9
		c1.6,1.7,2.8,3.7,3.6,5.8c0.9,2.3,1.3,4.7,1.3,7.1C209.8,53.3,209.4,55.8,208.5,58.2z"/>
	<path class="st0" d="M259.8,49.4c2.1-2.6,3.2-5.9,3.1-9.3c0.1-2.5-0.5-4.9-1.6-7.1c-1-1.8-2.4-3.4-4.2-4.5
		c-1.9-1.1-3.9-1.9-6.1-2.3c-2.3-0.5-4.7-0.7-7.1-0.7h-17.7v50.9h9.1V54.9h6.6l11.8,21.6h10.9l-13.5-22.6
		C254.5,53.6,257.6,52,259.8,49.4z M246.2,46.9l-3.9,0.2h-7V33.3h7.8l3.6,0.2c1.1,0.1,2.3,0.4,3.3,0.9c1,0.4,1.8,1.1,2.4,2
		c0.7,1.1,1,2.3,0.9,3.6c0.1,1.4-0.3,2.7-1,3.9c-0.7,0.9-1.6,1.7-2.6,2.1C248.6,46.5,247.4,46.8,246.2,46.9z"/>
	<path class="st0" d="M279.9,54.4h23.4v-8.2h-23.4V33.7h24.7v-8.2h-33.7v50.9h35v-8.2h-26V54.4z"/>
	<path class="st0" d="M340,49.8c-1.8-1.1-3.8-2-5.8-2.6l-5.8-1.9c-1.6-0.6-3.1-1.4-4.5-2.4c-1.2-1-1.9-2.5-1.8-4c0-1,0.2-2.1,0.7-3
		c0.5-0.8,1.1-1.5,1.9-2s1.7-0.9,2.7-1.1c1-0.3,2.1-0.4,3.1-0.4c1.7,0,3.5,0.3,5.1,1c1.5,0.6,2.9,1.7,3.8,3.1l6.6-7
		c-1.9-1.8-4.3-3.2-6.8-4s-5.2-1.2-7.8-1.2c-2.3,0-4.7,0.3-6.9,0.9s-4.2,1.5-6,2.8c-1.7,1.3-3.2,2.9-4.2,4.8
		c-1.1,2.1-1.7,4.4-1.6,6.8c-0.1,2.5,0.5,5,1.8,7.2c1.2,1.8,2.7,3.2,4.5,4.3s3.8,2,5.8,2.6l5.8,2c1.6,0.6,3.2,1.5,4.5,2.6
		c1.2,1.1,1.9,2.7,1.8,4.3c0,1.1-0.3,2.2-0.8,3.1s-1.2,1.6-2.1,2.2s-1.9,1-2.9,1.3c-3,0.8-6.2,0.4-8.9-1c-1.7-0.9-3.2-2.3-4.3-3.9
		l-6.9,6.5c2,2.4,4.6,4.2,7.5,5.3s6,1.6,9.1,1.6c2.4,0,4.8-0.3,7.1-1c2.1-0.6,4.1-1.6,5.9-3c1.7-1.4,3.1-3.1,4.1-5.1
		c1.1-2.3,1.6-4.7,1.5-7.2c0.1-2.6-0.5-5.1-1.8-7.3C343.3,52.4,341.8,50.9,340,49.8L340,49.8z"/>
	<path class="st0" d="M350.1,33.7h15.6v42.7h9V33.7h15.6v-8.2h-40.2V33.7z"/>
	<path class="st0" d="M431.9,49.4c2.1-2.6,3.2-5.9,3.1-9.3c0.1-2.5-0.5-4.9-1.6-7.1c-1-1.8-2.4-3.4-4.2-4.5
		c-1.9-1.1-3.9-1.9-6.1-2.3c-2.3-0.5-4.7-0.7-7.1-0.7h-17.7v50.9h9.1V54.9h6.6l11.8,21.6h10.9l-13.5-22.6
		C426.6,53.6,429.7,52,431.9,49.4L431.9,49.4z M418.3,46.9l-3.9,0.2h-7V33.3h7.8l3.6,0.2c1.1,0.1,2.3,0.4,3.3,0.9
		c1,0.4,1.8,1.1,2.4,2c0.7,1.1,1,2.3,0.9,3.6c0.1,1.4-0.3,2.7-1,3.9c-0.7,0.9-1.6,1.7-2.6,2.1C420.7,46.5,419.5,46.8,418.3,46.9
		L418.3,46.9z"/>
	<path class="st0" d="M473.3,25.5l-12.7,20.3l-12.5-20.3h-11.3l19.1,29.1v21.8h9V54.6l19.2-29.1L473.3,25.5z"/>
</g>
</svg>
