<svg height="34" viewBox="0 0 28 34" width="28" xmlns="http://www.w3.org/2000/svg"><g fill="none" fill-rule="evenodd"><path d="m.50227728 6.67735499c.11534734 12.50224791 4.61259848 21.39362651 13.49772272 26.74077581 8.8851242-5.3471493 13.3823754-14.2385279 13.4977227-26.74077581-5.8674089-.10495688-10.3802901-2.06104839-13.4977227-5.8685102-3.1174326 3.80746181-7.63031384 5.76355332-13.49772272 5.8685102z" stroke="#979797"/><path d="m2.51595519 8.45775119c.39539674 9.92946121 4.22127122 17.39303481 11.48812431 22.43870211 7.2158191-4.8704048 11.0393111-12.3304417 11.4778827-22.43049012-4.7830329-.36797782-8.6165737-1.95091695-11.479295-4.75214727-2.7345663 2.70660186-6.57010894 4.28520377-11.48671201 4.74393528z" stroke="#dedede"/><path d="m9.92036306 16.4876469 3.21376524 3.5005321 6.8658717-6.988179" stroke="#58d471" stroke-linecap="round" stroke-linejoin="round"/></g></svg>