<svg height="26" viewBox="0 0 32 26" width="32" xmlns="http://www.w3.org/2000/svg"><g fill="none" fill-rule="evenodd" stroke-linecap="round" stroke-linejoin="round" transform="translate(0 1)"><g stroke="#979797"><g transform="translate(23)"><path d="m9 12.008086c-3.70746728-.1239674-5.56120092 1.1774877-5.56120092 3.9043653v4.3968983c.05294 2.4658243-1.09332636 3.6987364-3.43879908 3.6987364" transform="matrix(-1 0 0 -1 9 36.008086)"/><path d="m9 .00808598c-3.70746728-.1239674-5.56120092 1.1774877-5.56120092 3.90436531v4.39689833c.05294 2.46582428-1.09332636 3.69873638-3.43879908 3.69873638" transform="matrix(-1 0 0 1 9 0)"/></g><g transform="matrix(-1 0 0 1 9 0)"><path d="m9 12.008086c-3.70746728-.1239674-5.56120092 1.1774877-5.56120092 3.9043653v4.3968983c.05294 2.4658243-1.09332636 3.6987364-3.43879908 3.6987364" transform="matrix(-1 0 0 -1 9 36.008086)"/><path d="m9 .00808598c-3.70746728-.1239674-5.56120092 1.1774877-5.56120092 3.90436531v4.39689833c.05294 2.46582428-1.09332636 3.69873638-3.43879908 3.69873638" transform="matrix(-1 0 0 1 9 0)"/></g><path d="m11 18c1.0089341 1 2.2385763 2 5 2s4.042574-1 5-2"/><path d="m10 7c.3026802.5.6715729 1 1.5 1s1.2127722-.5 1.5-1" transform="matrix(1 0 0 -1 0 15)"/><path d="m19 7c.3026802.5.6715729 1 1.5 1s1.2127722-.5 1.5-1" transform="matrix(1 0 0 -1 0 15)"/></g><path d="m16 10.6862915 2.5 2.5-2.5 2.5" stroke="#58d471"/></g></svg>