<svg viewBox="0 0 28 35" xmlns="http://www.w3.org/2000/svg"><g fill-rule="evenodd"><path d="m12.657 16.658-1.314-1.316 15-15 1.314 1.316z"/><path d="m28 10h-2v-8h-8v-2h10z"/><path d="m23 28h-20c-1.654 0-3-1.346-3-3v-20c0-1.654 1.346-3 3-3h11v2h-11c-.552 0-1 .449-1 1v20c0 .551.448 1 1 1h20c.552 0 1-.449 1-1v-11h2v11c0 1.654-1.346 3-3 3"/></g><g font-family="'Helvetica Neue', Helvetica, Arial-Unicode, Arial, Sans-serif" font-size="5" font-weight="bold"><text y="43">Created by Bluetip Design</text><text y="48">from the Noun Project</text></g></svg>