<?xml version="1.0" encoding="utf-8"?>
<!-- Generator: Adobe Illustrator 22.0.1, SVG Export Plug-In . SVG Version: 6.00 Build 0)  -->
<svg version="1.1"
	 id="svg1936" inkscape:version="0.91 r13725" sodipodi:docname="Amazon logo without .com.svg" xmlns:cc="http://creativecommons.org/ns#" xmlns:dc="http://purl.org/dc/elements/1.1/" xmlns:inkscape="http://www.inkscape.org/namespaces/inkscape" xmlns:rdf="http://www.w3.org/1999/02/22-rdf-syntax-ns#" xmlns:sodipodi="http://sodipodi.sourceforge.net/DTD/sodipodi-0.dtd" xmlns:svg="http://www.w3.org/2000/svg"
	 xmlns="http://www.w3.org/2000/svg" xmlns:xlink="http://www.w3.org/1999/xlink" x="0px" y="0px" viewBox="0 0 602.3 181.5"
	 style="enable-background:new 0 0 602.3 181.5;" xml:space="preserve">
<style type="text/css">
	.st0{fill:#2D333A;}
</style>
<sodipodi:namedview  bordercolor="#666666" borderopacity="1" fit-margin-bottom="0" fit-margin-left="0" fit-margin-right="0" fit-margin-top="0" gridtolerance="10" guidetolerance="10" id="namedview3353" inkscape:current-layer="g1967" inkscape:cx="478.75888" inkscape:cy="90.74961" inkscape:pageopacity="0" inkscape:pageshadow="2" inkscape:window-height="705" inkscape:window-maximized="1" inkscape:window-width="1366" inkscape:window-x="-8" inkscape:window-y="-8" inkscape:zoom="1.241148" objecttolerance="10" pagecolor="#ffffff" showgrid="false">
	</sodipodi:namedview>
<g>
	<path class="st0" d="M368.6,133.8c-39.2,16.6-81.9,24.7-120.6,24.7c-57.5,0-113.2-15.8-158.2-41.9c-3.9-2.3-6.9,1.7-3.6,4.7
		c41.7,37.7,96.8,60.3,158.1,60.3c43.7,0,94.4-13.8,129.4-39.6C379.4,137.6,374.5,131.2,368.6,133.8z"/>
	<path class="st0" d="M346.5,119.2c-3.1,2.1-2.6,5.1,0.9,4.7c11.3-1.3,36.4-4.4,40.8,1.4c4.5,5.7-5,29.4-9.2,39.9
		c-1.3,3.2,1.5,4.5,4.4,2.1c18.8-15.7,23.6-48.6,19.8-53.4C399.3,109.2,366.5,105.1,346.5,119.2z"/>
	<path class="st0" d="M415,79.3c-10.7-6-23.1-7.8-34.9-7.5l31.7-45.3c2.9-4.1,4.6-6.6,4.6-8.6V6.1c0-2-1.6-3.5-3.5-3.5h-61.3
		c-1.9,0-3.5,1.4-3.5,3.5v13.7l0,0c0,2,1.6,3.4,3.5,3.4h32L346.9,76c-2.2,3.4-2.3,7.2-2.3,9.4v13.9c0,2,2.2,4.3,4.4,3.1
		c20.8-11.1,45.9-10,64.7-0.1c2.3,1.2,4.5-1.1,4.5-3.1V84.6C418.1,82.6,417.4,80.6,415,79.3z"/>
	<path class="st0" d="M106,105.2h18.6l0,0c2,0,3.6-1.5,3.6-3.5V51c0-11.1-0.5-26.4,12.9-26.4c13.2,0,11.5,15.7,11.5,26.4v50.7
		c0,1.8,1.5,3.3,3.4,3.5h18.6c2,0,3.6-1.5,3.6-3.5V51c0-5.4-0.2-13.5,1.7-18.3s6.6-7.8,11.1-7.8c5.4,0,9.6,1.8,11,8.2
		c0.9,3.8,0.5,13.9,0.5,17.9v50.7c0,1.8,1.5,3.3,3.4,3.5h18.6c2,0,3.6-1.5,3.6-3.5V41.3c0-10.3,1.2-21.9-4.7-30
		c-5.2-7.2-13.8-10.5-21.6-10.5c-11,0-21.2,5.6-25.7,17.7c-5.2-12.1-12.5-17.7-24.2-17.7c-11.5,0-20,5.6-24.5,17.7H127V6.1
		c-0.1-1.7-1.6-3.1-3.4-3.2h-17.4c-2,0-3.6,1.5-3.6,3.4V102C102.8,103.7,104.2,105.1,106,105.2z"/>
	<path class="st0" d="M469.2,0.9c-27,0-41.9,23.1-41.9,52.9c0,29.6,14.8,53.4,41.9,53.4c26.1,0,42.6-23.1,42.6-52.3
		C511.8,24.7,496.8,0.9,469.2,0.9z M469.2,87.5c-14.6,0-14.4-25-14.4-36.7s0.9-30.4,14.6-30.4l0,0c5.9,0,10.1,2.6,12.2,9.3
		c2.4,7.7,2.8,17.3,2.8,25.4C484.3,67.4,483.6,87.5,469.2,87.5z"/>
	<path class="st0" d="M597.4,12.2C592.2,3.9,584,0.9,575.6,0.9c-12.9,0-20.2,6.2-25.4,19.3h-0.3V5.6c-0.4-1.5-1.7-2.6-3.3-2.7h-17.3
		c-1.9,0-3.4,1.4-3.6,3.1v95.7c0,1.8,1.5,3.3,3.4,3.5h18.6c2,0,3.6-1.5,3.6-3.5V50.2c0-6.4,0.3-12.3,3-18.1
		c2.1-4.6,6.2-7.7,10.8-7.7c12.9,0,11.7,15.3,11.7,25.8v52c0.2,1.6,1.6,2.9,3.3,3h18.7c1.8,0,3.4-1.3,3.6-3V42
		C602.3,32.7,602.3,19.8,597.4,12.2z"/>
	<path class="st0" d="M299.3,40.5c-10.8,1.2-24.9,2-35.1,6.5c-11.7,5-19.9,15.3-19.9,30.5c0,19.4,12.2,29,27.9,29
		c13.2,0,20.5-3.1,30.7-13.6c3.4,4.9,4.5,7.3,10.7,12.4c1.4,0.7,3.2,0.7,4.4-0.4v0.1c3.7-3.3,10.5-9.2,14.3-12.4
		c1.5-1.3,1.3-3.3,0.1-5c-3.4-4.7-7-8.5-7-17.3v-29c0-12.3,0.9-23.6-8.2-32.1c-7.2-6.9-19-9.3-28.1-9.3c-17.7,0-37.5,6.6-41.7,28.5
		c-0.4,2.3,1.3,3.6,2.8,3.9l18.1,1.9c1.7-0.1,2.9-1.7,3.3-3.4c1.5-7.6,7.9-11.2,15-11.2c3.9,0,8.2,1.4,10.5,4.9
		c2.6,3.8,2.3,9.1,2.3,13.5L299.3,40.5L299.3,40.5z M295.8,79.3c-3,5.2-7.7,8.5-12.9,8.5c-7.2,0-11.4-5.5-11.4-13.5
		c0-15.9,14.2-18.8,27.7-18.8v4l0,0C299.3,66.8,299.5,72.8,295.8,79.3z"/>
	<path class="st0" d="M88.1,87.7c-3.4-4.7-7-8.5-7-17.3v-29c0-12.3,0.9-23.6-8.2-32.1C65.7,2.4,53.9,0,44.8,0
		C27.1,0,7.3,6.6,3.1,28.5c-0.4,2.3,1.3,3.6,2.8,3.9l18.1,2c1.7-0.1,2.9-1.7,3.2-3.4c1.5-7.6,7.9-11.2,15-11.2
		c3.8,0,8.2,1.4,10.5,4.9c2.6,3.8,2.3,9.1,2.3,13.5v2.4c-10.8,1.2-24.9,2-35.1,6.5C8.2,52,0,62.3,0,77.5c0,19.4,12.2,29,27.9,29
		c13.3,0,20.5-3.1,30.7-13.6c3.4,4.9,4.5,7.3,10.7,12.4c1.4,0.7,3.2,0.7,4.4-0.4l0,0l0,0l0.1,0.1c3.7-3.3,10.5-9.2,14.3-12.4
		C89.6,91.4,89.3,89.3,88.1,87.7z M51.4,79.3c-3,5.2-7.7,8.5-12.9,8.5c-7.2,0-11.3-5.5-11.3-13.5c0-15.9,14.2-18.8,27.7-18.8v4
		C54.9,66.8,55.1,72.8,51.4,79.3z"/>
	<line class="st0" x1="73.7" y1="104.9" x2="73.7" y2="104.9"/>
</g>
</svg>
