<?xml version="1.0" encoding="utf-8"?>
<!-- Generator: Adobe Illustrator 22.0.1, SVG Export Plug-In . SVG Version: 6.00 Build 0)  -->
<svg version="1.1" id="Layer_1" xmlns="http://www.w3.org/2000/svg" xmlns:xlink="http://www.w3.org/1999/xlink" x="0px" y="0px"
	 viewBox="0 0 443.4 63.3" style="enable-background:new 0 0 443.4 63.3;" xml:space="preserve">
<style type="text/css">
	.st0{fill:#69747C;}
	.st1{fill:none;}
	.st2{fill:url(#SVGID_1_);}
	.st3{fill:url(#SVGID_2_);}
	.st4{fill:url(#SVGID_3_);}
</style>
<title>Bitbucket-blue</title>
<path class="st0" d="M116.9,4.6c11.8,0,17.5,5.8,17.5,15.1c0,7-3.2,11.3-9.7,12.8c8.5,1.4,12.8,6.1,12.8,14.2
	c0,9.2-6.2,15.6-19.2,15.6H94.4V4.6H116.9z M102.4,12.1v17.2h13.5c7.5,0,10.6-3.4,10.6-9s-3.3-8.3-10.6-8.3L102.4,12.1z M102.4,36.4
	v18h16.2c7.6,0,11-2.7,11-8.5c0-6.2-3.3-9.5-11.2-9.5H102.4z"/>
<path class="st0" d="M150.4,1.5c2.7-0.2,5.1,1.9,5.3,4.6c0,0.2,0,0.5,0,0.7c0,2.9-2.4,5.3-5.3,5.3c-2.9,0-5.3-2.4-5.3-5.3
	c-0.2-2.7,1.9-5.1,4.6-5.3C149.9,1.5,150.2,1.5,150.4,1.5z M146.5,18.4h7.6v44h-7.6V18.4z"/>
<path class="st0" d="M183,55c1.6,0,3.2-0.3,4.8-0.6v7.3c-1.7,0.5-3.4,0.7-5.1,0.7c-9.4,0-14-5.5-14-13.7V25.4h-7.1v-7h7.1V9.1h7.4
	v9.3h11.7v7H176v23.1C176,52.4,178.3,55,183,55z"/>
<path class="st0" d="M218.9,63.3c-6.4,0-11.4-2.9-14-8.6v7.7h-7.6V0h7.6v26.3c2.8-5.8,8.1-8.8,14.9-8.8c11.7,0,17.6,9.9,17.6,22.9
	C237.4,52.8,231.3,63.3,218.9,63.3z M217.8,24.5c-6.8,0-12.8,4.3-12.8,14.1v3.5c0,9.8,5.5,14.1,12,14.1c8.5,0,12.9-5.6,12.9-15.8
	C229.9,29.8,225.6,24.5,217.8,24.5z"/>
<path class="st0" d="M245.4,18.4h7.6V45c0,7.9,3.2,11.4,10.4,11.4c7,0,11.9-4.7,11.9-13.5V18.4h7.6v44h-7.6v-7.2
	c-2.7,5.1-8.1,8.2-13.9,8.1c-10.1,0-15.9-7-15.9-19.1L245.4,18.4z"/>
<path class="st0" d="M325.2,61.2c-2.6,1.4-6.7,2-10.7,2c-15.7,0-23-9.5-23-23c0-13.3,7.3-22.8,23-22.8c3.6-0.1,7.2,0.6,10.5,2.2v7
	c-3.1-1.5-6.6-2.2-10-2.1c-11.4,0-16.1,7.2-16.1,15.8S303.6,56,315.2,56c3.4,0.1,6.8-0.4,10-1.6V61.2z"/>
<path class="st0" d="M333.9,62.4V0h7.6v39l18.9-20.6h9.9L349.5,40l21.6,22.4h-10.3l-19.4-20.6v20.6H333.9z"/>
<path class="st0" d="M396.2,63.3c-16.5,0-23.7-9.5-23.7-23c0-13.3,7.4-22.8,20.8-22.8c13.5,0,19,9.4,19,22.8v3.4h-32.1
	c1.1,7.5,5.9,12.3,16.3,12.3c4.6,0,9.1-0.8,13.4-2.4v7C406.2,62.6,400.7,63.3,396.2,63.3z M380.1,37.3h24.5
	c-0.4-8.2-4.1-12.9-11.7-12.9C384.9,24.4,380.9,29.6,380.1,37.3L380.1,37.3z"/>
<path class="st0" d="M438.7,55c1.6,0,3.2-0.3,4.8-0.6v7.3c-1.7,0.5-3.4,0.7-5.1,0.7c-9.4,0-14-5.5-14-13.7V25.4h-7.1v-7h7.1V9.1h7.4
	v9.3h11.7v7h-11.7v23.1C431.7,52.4,434,55,438.7,55z"/>
<polygon class="st1" points="24.7,43.5 37.8,43.5 40.9,25.1 21.2,25.1 "/>
<polygon class="st1" points="40.9,25.1 21.2,25.1 24.8,43.5 37.8,43.5 "/>
<path class="st0" d="M60.7,6.3c-0.1,0-0.2,0-0.3,0H2c-1.1,0-2,0.9-2,2c0,0.1,0,0.2,0,0.3l8.5,51.5c0.2,1.1,1.1,2,2.2,2.2
	c-0.5-0.1-0.9-0.3-1.3-0.6l15.3-18.2l-3.5-18.4h19.7h18.8l-2.5,15.1l5.2-31.6C62.5,7.5,61.8,6.5,60.7,6.3z"/>
<linearGradient id="SVGID_1_" gradientUnits="userSpaceOnUse" x1="59.5083" y1="1158.502" x2="28.4883" y2="1182.712" gradientTransform="matrix(1 0 0 1 0 -1134)">
	<stop  offset="0.18" style="stop-color:#000000"/>
	<stop  offset="1" style="stop-color:#000000;stop-opacity:0.8"/>
</linearGradient>
<path class="st2" d="M11.2,62.4c-0.2,0-0.3,0-0.5,0C10.8,62.4,11,62.4,11.2,62.4z"/>
<linearGradient id="SVGID_2_" gradientUnits="userSpaceOnUse" x1="70.7673" y1="1172.928" x2="39.7473" y2="1197.1379" gradientTransform="matrix(1 0 0 1 0 -1134)">
	<stop  offset="0.18" style="stop-color:#000000"/>
	<stop  offset="1" style="stop-color:#000000;stop-opacity:0.8"/>
</linearGradient>
<path class="st3" d="M51.9,62.4L51.9,62.4c1,0,1.9-0.7,2-1.7l3.3-20.5l-3.3,20.5C53.7,61.7,52.9,62.4,51.9,62.4z"/>
<linearGradient id="SVGID_3_" gradientUnits="userSpaceOnUse" x1="63.965" y1="1164.2123" x2="32.945" y2="1188.4222" gradientTransform="matrix(1 0 0 1 0 -1134)">
	<stop  offset="0.18" style="stop-color:#525B61"/>
	<stop  offset="1" style="stop-color:#69747C"/>
</linearGradient>
<path class="st4" d="M40.9,25.1l-3.2,18.4h-13L9.4,61.7c0.4,0.3,0.8,0.5,1.3,0.6c0.2,0,0.3,0,0.5,0h40.7c1,0,1.8-0.7,2-1.7l3.3-20.5
	L59.7,25H40.9V25.1z"/>
</svg>
