<?xml version="1.0" encoding="utf-8"?>
<!-- Generator: Adobe Illustrator 22.0.1, SVG Export Plug-In . SVG Version: 6.00 Build 0)  -->
<svg version="1.1" id="Layer_1" xmlns="http://www.w3.org/2000/svg" xmlns:xlink="http://www.w3.org/1999/xlink" x="0px" y="0px"
	 viewBox="0 0 102 40" style="enable-background:new 0 0 102 40;" xml:space="preserve">
<style type="text/css">
	.st0{fill:#2D333A;}
</style>
<title>FTP</title>
<desc>Created with Sketch.</desc>
<g id="Page-1">
	<path id="FTP" class="st0" d="M0.9,0.4h26.6v8.1H9.6v8.1h16.5v8.1H9.6V40H0.9V0.4z M45.1,8.1H33.8V0.4h31.4v7.7H53.8V40h-8.7V8.1z
		 M71.3,0.4H86c2.1,0,4,0.2,5.8,0.6s3.4,1,4.8,1.9C98,3.8,99.1,5,99.9,6.5c0.8,1.5,1.2,3.5,1.2,5.9c0,2.3-0.4,4.3-1.1,5.8
		c-0.7,1.6-1.8,2.8-3.1,3.8s-2.9,1.6-4.6,2s-3.7,0.6-5.8,0.6H80V40h-8.7V0.4z M80,17.2h5.8c0.8,0,1.5-0.1,2.3-0.2s1.4-0.4,2-0.8
		c0.6-0.4,1-0.8,1.4-1.5s0.5-1.4,0.5-2.3c0-1-0.2-1.8-0.7-2.4c-0.5-0.6-1.1-1.1-1.8-1.4S88,8,87.1,7.9c-0.9-0.1-1.8-0.1-2.6-0.1H80
		V17.2z"/>
</g>
</svg>
