<svg enable-background="new 0 0 168.7 31.6" viewBox="0 0 168.7 31.6" xmlns="http://www.w3.org/2000/svg"><path d="m99 23.7h-2.1v-23h7c5.7 0 7.7 3.3 7.7 6.9s-2 6.9-7.7 6.9h-4.9zm0-11.1h5.2c4.3 0 5.1-2.8 5.1-5s-.8-5-5.1-5h-5.2zm20.2-2.6c-2.1 0-3.4.4-4.6.8v-1.8c1.3-.6 3.1-.8 4.6-.8 4.6 0 5.8 2.1 5.8 5.1v10.5h-1.2l-.5-1.2c-1.4 1-3.1 1.5-4.6 1.5-4 0-5.4-2.4-5.4-4.9 0-2.6 1.4-4.5 5.4-4.8l4-.2v-.9c.1-2.3-.7-3.3-3.5-3.3zm-.6 6c-2.2.2-3.1 1.3-3.1 3.1 0 1.4.3 3 3.2 3 1.7 0 2.8-.5 4.1-1.2v-5.3zm13.1 3.4c-.3.3-.6.8-.6 1.1 0 .8.4 1.1 1.2 1.2l5.2.6c2.9.3 4.2 1.4 4.2 4.1 0 3.7-3.7 5.2-8 5.2s-6.9-1.3-6.9-4.6c0-2.1 1.4-3.5 3.2-4-.6-.4-1-1-1-2 0-.9.5-1.6 1.2-2.1-1.8-1-2.4-2.9-2.4-5 0-3.2 1.3-5.8 6-5.8.9 0 1.7.1 2.4.3h5.2v1.2l-2.6.7c.6 1 .9 2.2.9 3.6 0 3.2-1.3 5.8-6 5.8-.7-.1-1.4-.1-2-.3zm.9 4.2c-2 .5-3.7 1.4-3.7 3.4 0 2.3 1.7 2.9 4.9 2.9 3.1 0 5.9-.8 5.9-3.4 0-1.6-.7-2.2-2.6-2.4zm5.1-9.7c0-2-.4-3.9-4-3.9s-4 1.9-4 3.9.4 3.9 4 3.9 4-1.9 4-3.9zm11.5-5.8c5.2 0 5.8 3.6 5.8 8v1h-10.1c.1 2.7.8 5.1 4.3 5.1 2.2 0 3.6-.2 5.1-.9v1.8c-1.7.8-3.6.9-5.1.9-5.2 0-6.4-3.5-6.4-8s1.2-7.9 6.4-7.9zm-4.3 7.2h8c0-2.7-.2-5.3-3.7-5.3s-4.2 2.6-4.3 5.3zm18.3-.4c4.3.4 5.4 1.9 5.4 4.4 0 2.4-1.5 4.7-6.2 4.7-1.5 0-3.6-.4-4.6-.8v-1.8c.9.3 2.4.7 4.6.7 3.2 0 4-1.3 4-2.8 0-1.4-.4-2.4-3.5-2.6-4.4-.4-5.4-2-5.4-4.1 0-2.2 1.4-4.5 5.7-4.5 1.4 0 3.1.2 4.4.8v1.8c-1.2-.4-2.4-.7-4.4-.7-3 0-3.7 1.1-3.7 2.6.2 1.4.8 2.1 3.7 2.3zm-146-4.6h-7.5c-.2 0-.4.2-.4.4v3.7c0 .2.2.4.4.4h2.9v4.6s-.7.2-2.5.2c-2.1-.1-5.1-.9-5.1-7.5s3.1-7.4 6-7.4c2.5 0 3.6.4 4.3.7.2.1.4-.2.4-.3l.8-3.5c0-.1 0-.2-.1-.3-.2-.3-1.9-1.3-6.3-1.3-5 0-10.1 2.1-10.1 12.4 0 10.2 5.9 11.8 10.8 11.8 4.1 0 6.6-1.8 6.6-1.8.1-.1.1-.2.1-.3v-11.4c0-.2-.1-.4-.3-.4zm38.9-9.1c0-.2-.2-.4-.3-.4h-4.2c-.2 0-.3.2-.3.4v8.2h-6.6v-8.2c0-.2-.2-.4-.3-.4h-4.2c-.2 0-.3.2-.3.4v22.1c0 .2.2.4.3.4h4.2c.2 0 .3-.2.3-.4v-9.5h6.6v9.5c0 .2.2.4.3.4h4.2c.2 0 .3-.2.3-.4zm-30.8 2.9c0-1.5-1.2-2.7-2.7-2.7s-2.7 1.2-2.7 2.7 1.2 2.8 2.7 2.8 2.7-1.3 2.7-2.8zm-.3 14.6c0-.6 0-10.2 0-10.2 0-.2-.2-.4-.3-.4h-4.2c-.2 0-.4.2-.4.4v14.6c0 .4.3.6.6.6h3.8c.4 0 .5-.2.5-.6 0-.8 0-3.8 0-4.4zm47.5-10.6h-4.2c-.2 0-.3.2-.3.4v10.8s-1.1.8-2.6.8-1.9-.7-1.9-2.2 0-9.4 0-9.4c0-.2-.2-.4-.3-.4h-4.3c-.2 0-.3.2-.3.4v10.2s2.4 5.5 5.8 5.5c2.8 0 5-1.5 5-1.5s.1.8.2.9c0 .1.2.2.3.2h2.7c.2 0 .3-.2.3-.4v-14.8c0-.3-.2-.5-.4-.5zm11.7-.5c-2.4 0-4 1.1-4 1.1v-7.5c0-.2-.2-.4-.3-.4h-4.2c-.2 0-.3.2-.3.4v22.1c0 .2.2.4.3.4h2.9c.1 0 .2-.1.3-.2s.2-1 .2-1 1.7 1.6 5 1.6c3.8 0 6.1-2 6.1-8.8-.1-6.8-3.6-7.7-6-7.7zm-1.7 12.5c-1.5 0-2.4-.7-2.4-.7v-7s1-.6 2.2-.7c1.5-.1 3 .3 3 3.9-.1 3.8-.7 4.6-2.8 4.5zm-45.4-12h-3.2v-4.2c0-.2-.1-.2-.3-.2h-4.3c-.2 0-.3.1-.3.2v4.3s-2.2.5-2.3.6c-.1 0-.3.2-.3.3v2.7c0 .2.2.4.3.4h2.3v6.5c0 4.9 3.4 5.3 5.7 5.3 1 0 2.3-.3 2.5-.4.1 0 .2-.2.2-.3v-3c0-.2-.2-.4-.3-.4-.2 0-.7.1-1.1.1-1.6 0-2.1-.7-2.1-1.7 0-.9 0-6.2 0-6.2h3.2c.2 0 .3-.2.3-.4v-3.2c0-.2-.2-.4-.3-.4z" fill="#2d333a"/></svg>