<?xml version="1.0" encoding="utf-8"?>
<!-- Generator: Adobe Illustrator 22.0.1, SVG Export Plug-In . SVG Version: 6.00 Build 0)  -->
<svg version="1.1" id="Layer_1" xmlns="http://www.w3.org/2000/svg" xmlns:xlink="http://www.w3.org/1999/xlink" x="0px" y="0px"
	 viewBox="0 0 168 60" style="enable-background:new 0 0 168 60;" xml:space="preserve">
<style type="text/css">
	.st0{fill:#2D333A;}
</style>
<title>full-logo-light-simple</title>
<desc>Created with Sketch.</desc>
<g id="Press">
	<g id="press-v4" transform="translate(-756.000000, -1440.000000)">
		<g id="logo-resources" transform="translate(247.000000, 1109.000000)">
			<g id="Group-14" transform="translate(3.000000, 236.000000)">
				<g id="Group-14-Copy-5" transform="translate(480.000000, 0.000000)">
					<g id="full-logo-light-simple" transform="translate(26.000000, 95.000000)">
						<path id="Combined-Shape" class="st0" d="M42.4,21.3c0.3,0.2,0.6,0.4,0.8,0.6c0,0,0,0,0.1,0h0l5.9-2.5c0,0,0.1-0.1,0.1-0.1
							c0,0,0-0.1,0-0.1l-5.5-5.4c0,0-0.1,0-0.1,0h0c0,0-0.1,0-0.1,0.1L42.4,21.3C42.3,21.2,42.4,21.3,42.4,21.3z M30.2,16.3
							c0.3,0.4,0.5,0.9,0.5,1.4c0,0,0,0.1,0.1,0.1l8.7,3.7h0c0,0,0.1,0,0.1,0c0.3-0.2,0.6-0.4,0.9-0.5c0,0,0.1,0,0.1-0.1l1.4-8.8
							c0,0,0-0.1,0-0.1l-5.4-5.4c0,0,0,0-0.1,0s-0.1,0-0.1,0.1l-6.1,9.5C30.2,16.3,30.2,16.3,30.2,16.3z M60,30l-9.3-9.3
							c0,0-0.1,0-0.1,0h0l-6.3,2.7c0,0-0.1,0.1-0.1,0.1c0,0,0,0.1,0.1,0.1l15.6,6.6h0c0,0,0.1,0,0.1,0l0.1-0.1C60,30.1,60,30,60,30z
							 M58.4,31.5l-15-6.4h0c0,0-0.1,0-0.1,0c-0.4,0.6-1,0.9-1.7,1c0,0-0.1,0-0.1,0.1l-1.6,9.9c0,0,0,0.1,0,0.1
							c0.6,0.4,0.9,1.1,1,1.8c0,0.1,0,0.1,0.1,0.1l9.1,1.9h0c0,0,0.1,0,0.1,0l8.3-8.2C58.5,31.6,58.5,31.6,58.4,31.5
							C58.5,31.5,58.5,31.5,58.4,31.5z M38.6,23.1l-8.2-3.5h0c0,0-0.1,0-0.1,0.1c-0.6,0.9-1.5,1.4-2.5,1.4c-0.2,0-0.3,0-0.5-0.1h0
							c0,0-0.1,0-0.1,0.1l-6.7,10.5c0,0,0,0.1,0,0.1c0,0,0.1,0,0.1,0h0l18-7.7c0,0,0.1-0.1,0.1-0.1v-0.1v-0.1c0-0.2,0-0.3,0.1-0.4
							C38.6,23.1,38.6,23.1,38.6,23.1z M48.4,41.4l-8-1.6h0c0,0-0.1,0-0.1,0c-0.3,0.4-0.7,0.7-1.1,0.9c0,0-0.1,0.1-0.1,0.1
							l-1.9,11.7c0,0.1,0,0.1,0.1,0.1h0.1c0,0,0.1,0,0.1,0l11-11c0,0,0-0.1,0-0.1C48.5,41.4,48.5,41.4,48.4,41.4z M37.3,40.6
							c-0.8-0.3-1.3-1-1.5-1.8c0,0,0-0.1-0.1-0.1L21,35.7c0,0,0,0,0,0s-0.1,0-0.1,0.1c-0.1,0.1-0.1,0.2-0.2,0.3c0,0,0,0.1,0,0.1
							l13.4,19.5c0,0,0,0,0.1,0s0.1,0,0.1,0l0.8-0.8c0,0,0,0,0-0.1L37.3,40.6C37.4,40.6,37.4,40.6,37.3,40.6z M21.3,33.9
							C21.3,33.9,21.3,34,21.3,33.9L36,37h0c0,0,0.1,0,0.1-0.1c0.4-0.8,1.2-1.3,2.1-1.3c0.1,0,0.1,0,0.1-0.1l1.6-9.7
							c0,0,0-0.1-0.1-0.1c-0.1-0.1-0.2-0.2-0.3-0.3c0,0-0.1,0-0.1,0h0l-18.1,7.7c-0.1,0-0.1,0.1-0.1,0.1
							C21.2,33.5,21.3,33.7,21.3,33.9z M15.1,36.3C15,36.2,15,36.1,14.9,36c0,0-0.1-0.1-0.1-0.1h0l-6.3,2.7c0,0-0.1,0-0.1,0.1
							s0,0.1,0,0.1l3.1,3.1c0,0,0.1,0,0.1,0c0,0,0.1,0,0.1-0.1L15.1,36.3C15.1,36.4,15.1,36.4,15.1,36.3z M19.3,37.3
							C19.3,37.3,19.2,37.3,19.3,37.3l-0.1-0.1c-0.5,0.2-0.9,0.3-1.4,0.3c-0.4,0-0.7-0.1-1.1-0.2h0c0,0-0.1,0-0.1,0.1l-3.7,5.7l0,0
							c0,0,0,0.1,0,0.1L29.7,60c0,0,0.1,0,0.1,0c0,0,0.1,0,0.1,0l3-2.9c0,0,0-0.1,0-0.1L19.3,37.3z M16.9,30.7
							C17,30.8,17,30.8,16.9,30.7l0.1,0.1c0.3-0.1,0.5-0.1,0.8-0.1c0.3,0,0.6,0.1,0.9,0.1h0c0,0,0.1,0,0.1-0.1l6.8-10.6
							c0,0,0-0.1,0-0.1c-0.5-0.6-0.8-1.3-0.8-2.1c0-0.2,0-0.5,0.1-0.7c0-0.1,0-0.1-0.1-0.1c-0.9-0.4-8.5-3.6-8.5-3.6h0
							c0,0-0.1,0-0.1,0l-6.5,6.5c0,0,0,0.1,0,0.1L16.9,30.7z M17.7,12.3c0,0,7.7,3.3,8.1,3.4h0c0,0,0,0,0.1,0
							c0.5-0.4,1.2-0.7,1.9-0.7c0.3,0,0.7,0.1,1,0.2h0c0,0,0.1,0,0.1-0.1l6.3-9.8c0,0,0-0.1,0-0.1l-5.2-5.2c0,0,0,0-0.1,0
							s-0.1,0-0.1,0L17.7,12.1C17.6,12.2,17.6,12.2,17.7,12.3C17.6,12.3,17.6,12.3,17.7,12.3z M14.7,32.6
							C14.7,32.6,14.7,32.5,14.7,32.6c0.2-0.4,0.5-0.6,0.7-0.9c0,0,0-0.1,0-0.1c-0.1-0.1-7-10.1-7-10.1c0,0,0,0-0.1-0.1
							c0,0-0.1,0-0.1,0l-8,8c0,0,0,0.1,0,0.1s0,0.1,0.1,0.1L14.7,32.6C14.6,32.6,14.6,32.6,14.7,32.6z M14,34.3
							C14,34.3,14,34.2,14,34.3L1.4,31.6c0,0,0,0,0,0s-0.1,0-0.1,0.1s0,0.1,0,0.1l5.6,5.5c0,0,0.1,0,0.1,0h0l6.9-2.9
							C14,34.4,14,34.3,14,34.3z"/>
						<path id="Combined-Shape_1_" class="st0" d="M122,15.1h4.1v26.3H122V15.1z M80.3,22.5c-2.2,0-3.9,0.8-5.3,2.5l-0.1-2.1H71
							v18.5h4.1V28.2c0.8-1.5,2-2.3,3.7-2.3c1.1,0,1.9,0.3,2.4,0.9c0.5,0.6,0.7,1.4,0.7,2.6v12H86V29.1C86,24.7,84.1,22.5,80.3,22.5
							z M97.9,22.5c-1.6,0-3,0.4-4.2,1.2c-1.3,0.8-2.2,1.9-3,3.4c-0.7,1.5-1,3.1-1,4.9v0.5c0,2.7,0.8,5,2.4,6.6
							c1.6,1.7,3.7,2.5,6.3,2.5c1.5,0,2.9-0.3,4.1-0.9c1.2-0.6,2.2-1.5,2.9-2.6l-2.2-2.1c-1.2,1.5-2.7,2.3-4.6,2.3
							c-1.3,0-2.4-0.5-3.3-1.3c-0.9-0.9-1.4-2.1-1.5-3.6h11.9v-1.7c0-2.9-0.7-5.2-2-6.8C102.2,23.3,100.3,22.5,97.9,22.5z
							 M101.6,30.4h-7.8c0.2-1.4,0.6-2.5,1.3-3.3c0.7-0.8,1.6-1.2,2.7-1.2c1.1,0,2,0.4,2.6,1.1c0.6,0.7,1,1.8,1.1,3.2L101.6,30.4
							L101.6,30.4z M114.8,37.8c-0.3-0.3-0.4-0.8-0.4-1.5V25.9h3.2v-3.1h-3.2v-4.5h-4.1v4.5h-3v3.1h3v10.5c0,3.5,1.6,5.3,4.7,5.3
							c0.9,0,1.8-0.1,2.7-0.4v-3.2c-0.5,0.1-1,0.2-1.4,0.2C115.6,38.3,115.1,38.1,114.8,37.8z M132.3,22.9h4.1v18.5h-4.1V22.9z
							 M159.5,35.4l-3.8-12.6h-4.4l6.4,18.4l-0.6,1.6c-0.3,0.9-0.7,1.5-1.2,1.9c-0.5,0.4-1.3,0.6-2.3,0.6l-0.8-0.1v3.2
							c0.7,0.2,1.4,0.3,2,0.3c2.6,0,4.5-1.6,5.7-4.7l7.2-21.3h-4.4L159.5,35.4z M144.4,16.4c-1.1,1.1-1.7,2.7-1.7,4.8v1.7H140v3.1
							h2.8v15.4h4.1V25.9h3.7v-3.1h-3.7v-1.6c0-2,1-3.1,2.9-3.1c0.6,0,1.1,0.1,1.6,0.1l0.1-3.3c-0.8-0.2-1.6-0.3-2.3-0.3
							C147.1,14.7,145.5,15.3,144.4,16.4z M136.4,14.7v3.6h-4.1v-3.6H136.4z"/>
					</g>
				</g>
			</g>
		</g>
	</g>
</g>
</svg>
