<?xml version="1.0" encoding="utf-8"?>
<!-- Generator: Adobe Illustrator 22.0.1, SVG Export Plug-In . SVG Version: 6.00 Build 0)  -->
<svg version="1.1" id="Layer_1" xmlns="http://www.w3.org/2000/svg" xmlns:xlink="http://www.w3.org/1999/xlink" x="0px" y="0px"
	 viewBox="0 0 126 128.2" style="enable-background:new 0 0 126 128.2;" xml:space="preserve">
<style type="text/css">
	.st0{fill:#2D333A;}
</style>
<g id="Layer_1_1_">
</g>
<g id="Layer_3">
</g>
<g id="Layer_4">
</g>
<g id="Layer_2_1_">
	<g>
		
			<rect x="54.3" y="56.5" transform="matrix(0.9482 -0.3176 0.3176 0.9482 -17.3806 23.4067)" class="st0" width="17.6" height="17"/>
		<g>
			
				<rect x="54.3" y="56.5" transform="matrix(0.9482 -0.3176 0.3176 0.9482 -17.3806 23.4067)" class="st0" width="17.6" height="17"/>
			<path class="st0" d="M120.4,47.7c-12.9-43-31.5-53-74.5-40.1s-53,31.5-40.1,74.5s31.5,53,74.5,40.1S133.3,90.7,120.4,47.7z
				 M98.7,75.6l-8.1,2.7l2.8,8.4c1.1,3.4-0.7,7.1-4.1,8.2c-0.7,0.2-1.5,0.4-2.2,0.3c-2.6-0.1-5.1-1.8-6-4.4l-2.8-8.4L61.6,88
				l2.8,8.4c1.1,3.4-0.7,7.1-4.1,8.2c-0.7,0.2-1.5,0.4-2.2,0.3c-2.6-0.1-5.1-1.8-6-4.4l-2.8-8.4l-8.1,2.7c-0.7,0.2-1.5,0.4-2.2,0.3
				c-2.6-0.1-5.1-1.8-6-4.4c-1.1-3.4,0.7-7.1,4.1-8.2l8.1-2.7l-5.4-16.1l-8.1,2.7c-0.7,0.2-1.5,0.4-2.2,0.3c-2.6-0.1-5.1-1.8-6-4.4
				c-1.1-3.4,0.7-7.1,4.1-8.2l8.1-2.7L32.9,43c-1.1-3.4,0.7-7.1,4.1-8.2s7.1,0.7,8.2,4.1l2.8,8.4l16.7-5.6l-2.8-8.4
				c-1.1-3.4,0.7-7.1,4.1-8.2s7.1,0.7,8.2,4.1l2.8,8.4l8.1-2.7c3.4-1.1,7.1,0.7,8.2,4.1c1.1,3.4-0.7,7.1-4.1,8.2l-8.1,2.7L86.5,66
				l8.1-2.7c3.4-1.1,7.1,0.7,8.2,4.1C103.9,70.8,102.1,74.5,98.7,75.6z"/>
		</g>
	</g>
</g>
</svg>
