<svg enable-background="new 0 0 559 168" viewBox="0 0 559 168" xmlns="http://www.w3.org/2000/svg" xmlns:xlink="http://www.w3.org/1999/xlink"><mask id="a" height="167.5" maskUnits="userSpaceOnUse" width="167.5" x="0" y=".5"><path d="m167.5 167.9h-167.5v-83.7-83.7h167.5z" fill="#fff"/></mask><g fill="#2d333a"><path d="m133.3 74.8c-27-16-71.5-17.5-97.3-9.7-4.1 1.3-8.5-1.1-9.8-5.2s1.1-8.5 5.2-9.8c29.6-9 78.8-7.2 109.8 11.2 3.7 2.2 4.9 7 2.7 10.7-2.1 3.7-6.9 5-10.6 2.8zm-.9 23.7c-1.9 3.1-5.9 4-9 2.2-22.5-13.9-56.8-17.9-83.4-9.8-3.5 1-7.1-.9-8.1-4.3-1-3.5.9-7.1 4.4-8.1 30.4-9.2 68.2-4.8 94.1 11.1 2.9 1.8 3.9 5.8 2 8.9zm-10.3 22.8c-1.5 2.5-4.7 3.2-7.2 1.7-19.7-12-44.4-14.7-73.6-8.1-2.8.6-5.6-1.1-6.2-3.9s1.1-5.6 3.9-6.2c31.9-7.3 59.3-4.2 81.3 9.3 2.6 1.5 3.4 4.7 1.8 7.2zm-38.4-120.8c-46.2 0-83.7 37.5-83.7 83.8 0 46.2 37.5 83.7 83.7 83.7 46.3 0 83.7-37.5 83.7-83.7.1-46.3-37.4-83.8-83.7-83.8z" mask="url(#a)"/><path d="m227.8 77.8c-14.5-3.4-17-5.9-17-11 0-4.8 4.5-8 11.2-8 6.5 0 13 2.5 19.8 7.5.2.2.5.2.7.2.3 0 .5-.2.6-.4l7.1-10c.3-.4.2-1-.2-1.3-8.1-6.5-17.2-9.6-27.8-9.6-15.6 0-26.5 9.4-26.5 22.8 0 14.4 9.4 19.5 25.7 23.4 13.8 3.2 16.2 5.9 16.2 10.6 0 5.3-4.7 8.6-12.3 8.6-8.4 0-15.3-2.8-23-9.5-.2-.2-.5-.2-.7-.2-.3 0-.5.1-.6.3l-7.9 9.4c-.3.4-.3 1 .1 1.3 9 8 20 12.2 31.9 12.2 16.8 0 27.7-9.2 27.7-23.4-.2-11.9-7.3-18.6-25-22.9m75.1 16.1c0 10.2-6.3 17.2-15.2 17.2s-15.5-7.4-15.5-17.2 6.7-17.2 15.5-17.2 15.2 7.2 15.2 17.2zm-12.2-30.3c-7.3 0-13.3 2.9-18.2 8.8v-6.6c0-.5-.4-.9-.9-.9h-12.9c-.5 0-.9.4-.9.9v73.6c0 .5.4.9.9.9h12.9c.5 0 .9-.4.9-.9v-23.2c4.9 5.5 10.9 8.2 18.2 8.2 13.5 0 27.3-10.4 27.3-30.4s-13.8-30.4-27.3-30.4zm62.4 47.7c-9.3 0-16.3-7.5-16.3-17.3 0-9.9 6.8-17.1 16.1-17.1s16.4 7.5 16.4 17.4c0 9.8-6.8 17-16.2 17zm0-47.7c-17.4 0-31.1 13.4-31.1 30.6 0 17 13.6 30.3 30.9 30.3 17.5 0 31.2-13.4 31.2-30.5s-13.6-30.4-31-30.4zm68.3 1.1h-14.2v-14.5c0-.5-.4-.9-.9-.9h-12.9c-.5 0-.9.4-.9.9v14.6h-6.2c-.5 0-.9.4-.9.9v11.1c0 .5.4.9.9.9h6.2v28.8c0 11.6 5.8 17.5 17.2 17.5 4.6 0 8.5-1 12.1-3 .3-.2.5-.5.5-.8v-10.6c0-.3-.2-.6-.4-.8-.3-.2-.6-.2-.9 0-2.5 1.3-4.9 1.8-7.6 1.8-4.2 0-6-1.9-6-6.1v-26.7h14.2c.5 0 .9-.4.9-.9v-11.2c-.2-.5-.6-1-1.1-1m49.6.1v-1.8c0-5.3 2-7.6 6.5-7.6 2.7 0 4.9.5 7.3 1.3.3.1.6 0 .9-.1.2-.2.4-.5.4-.8v-10.9c0-.4-.3-.8-.7-.9-2.6-.8-5.8-1.5-10.8-1.5-12 0-18.3 6.7-18.3 19.5v2.7h-6.2c-.5 0-.9.4-.9.9v11.2c0 .5.4.9.9.9h6.2v44.4c0 .5.4.9.9.9h12.9c.5 0 .9-.4.9-.9v-44.3h12.1l18.5 44.4c-2.1 4.7-4.2 5.6-7 5.6-2.3 0-4.7-.7-7.1-2-.2-.1-.5-.1-.8-.1-.2.1-.5.3-.6.5l-4.4 9.6c-.2.5 0 1 .4 1.2 4.6 2.5 8.7 3.5 13.8 3.5 9.6 0 14.8-4.5 19.5-16.4l22.5-58c.1-.3.1-.6-.1-.9s-.5-.4-.8-.4h-13.5c-.4 0-.8.3-.9.6l-13.8 39.4-14.8-39.4c-.1-.4-.5-.6-.9-.6zm-28.7-.1h-12.9c-.5 0-.9.4-.9.9v56.5c0 .5.4.9.9.9h12.9c.5 0 .9-.4.9-.9v-56.4c0-.5-.4-1-.9-1m-6.5-25.7c-5.1 0-9.3 4.2-9.3 9.3s4.2 9.3 9.3 9.3 9.3-4.2 9.3-9.3-4.1-9.3-9.3-9.3m114 31.4h-2.4v3h2.4c1.2 0 1.9-.6 1.9-1.5 0-1-.7-1.5-1.9-1.5zm1.5 4.3 2.6 3.6h-2.2l-2.3-3.3h-2v3.3h-1.8v-9.6h4.3c2.2 0 3.7 1.1 3.7 3.1 0 1.5-1 2.5-2.3 2.9zm-2-9.2c-4.7 0-8.2 3.7-8.2 8.3 0 4.5 3.5 8.2 8.2 8.2s8.2-3.7 8.2-8.3c0-4.5-3.5-8.2-8.2-8.2zm0 17.4c-5.1 0-9.1-4.1-9.1-9.1s4-9.2 9.2-9.2c5.1 0 9.1 4.1 9.1 9.1-.1 5-4.1 9.2-9.2 9.2z"/></g></svg>