<svg width="195" height="38" viewBox="0 0 195 38" fill="none" xmlns="http://www.w3.org/2000/svg">
<path d="M33.559 15.1593C35.3439 15.0746 36.9237 16.4411 37.0779 18.2041C37.7454 26.7327 29.8365 36.2869 18.6912 36.5925C9.29891 36.8212 0.00970459 29.4002 0.00970459 18.1796C0.00970459 16.4112 1.49034 14.9778 3.2772 14.9778C5.06404 14.9778 6.51256 16.4112 6.51256 18.1796C6.51256 25.5604 12.5259 30.337 18.5319 30.1907C25.9259 29.9879 30.7325 23.6698 30.4825 18.5109C30.3968 16.7446 31.7743 15.2441 33.559 15.1593Z" fill="url(#paint0_linear)"/>
<path d="M25.4772 18.4283C25.4772 16.6178 26.9736 15.1501 28.8194 15.1501H33.69C35.5358 15.1501 37.0785 16.6178 37.0785 18.4283C37.0785 20.2386 35.5358 21.7063 33.69 21.7063H28.8194C26.9736 21.7063 25.4772 20.2386 25.4772 18.4283Z" fill="#00A672"/>
<path d="M15.2567 18.4331C15.2567 16.6199 16.7435 15.1501 18.5755 15.1501C20.4075 15.1501 21.8943 16.6199 21.8943 18.4331C21.8943 20.2461 20.4075 21.7158 18.5755 21.7158C16.7435 21.7158 15.2567 20.2461 15.2567 18.4331Z" fill="#00A672"/>
<path fill-rule="evenodd" clip-rule="evenodd" d="M21.8023 3.09468C21.8764 4.8615 20.4892 6.35325 18.7039 6.42664C10.997 6.74339 6.29203 12.7213 6.52105 18.3975C6.59234 20.1645 5.23174 21.6541 3.44631 21.7246C1.66088 21.7951 0.0907771 20.3691 0.0194872 18.6023C-0.353717 9.35231 7.4505 0.208026 18.4355 0.0284443C20.2208 -0.0449305 21.7281 1.32787 21.8023 3.09468Z" fill="#00A672"/>
<path d="M61.5304 20.5596H67.7733C67.4572 21.715 66.9588 22.7619 66.278 23.7007C65.6214 24.6153 64.7582 25.3496 63.6883 25.9031C62.6184 26.4568 61.3176 26.7336 59.7856 26.7336C58.1079 26.7336 56.5882 26.3484 55.2264 25.5781C53.8891 24.808 52.8314 23.7368 52.0532 22.3648C51.2752 20.9688 50.8861 19.356 50.8861 17.5267C50.8861 15.6732 51.2752 14.0726 52.0532 12.7247C52.8557 11.3527 53.9256 10.2936 55.2629 9.5474C56.6246 8.80122 58.1322 8.42813 59.7856 8.42813C61.5607 8.42813 63.0683 8.78919 64.3083 9.51129C65.5728 10.2334 66.5575 11.1962 67.2626 12.3997L70.7641 10.0529C69.6456 8.29574 68.1502 6.92374 66.278 5.93685C64.4299 4.94998 62.2658 4.45654 59.7856 4.45654C57.8646 4.45654 56.0775 4.78149 54.4241 5.43138C52.7949 6.05722 51.3724 6.94781 50.1566 8.10319C48.9652 9.25856 48.029 10.6426 47.3482 12.2553C46.6917 13.8439 46.3633 15.601 46.3633 17.5267C46.3633 19.4523 46.6917 21.2215 47.3482 22.8341C48.0048 24.4469 48.9287 25.843 50.1202 27.0224C51.336 28.2018 52.7585 29.1165 54.3875 29.7665C56.0167 30.3923 57.7918 30.7052 59.7127 30.7052C61.7552 30.7052 63.5667 30.3441 65.1472 29.6221C66.7277 28.8758 68.053 27.8649 69.1228 26.5891C70.1928 25.3134 70.9951 23.8572 71.5302 22.2204C72.0651 20.5596 72.3082 18.8025 72.2596 16.9491H62.0512L61.5304 20.5596Z" fill="#313131"/>
<path d="M84.1149 17.7434L86.0479 14.4217C85.6589 13.9884 85.1969 13.6755 84.662 13.4829C84.127 13.2904 83.5556 13.1941 82.9477 13.1941C82.2426 13.1941 81.5496 13.4107 80.8688 13.844C80.1878 14.2532 79.6043 14.8308 79.118 15.577V13.5551H75.2153V30.1637H79.118V20.8123C79.118 19.6088 79.3368 18.646 79.7745 17.9239C80.2122 17.2017 80.9173 16.8407 81.89 16.8407C82.3762 16.8407 82.7775 16.925 83.0936 17.0935C83.4097 17.2379 83.7501 17.4545 84.1149 17.7434Z" fill="#313131"/>
<path d="M88.0219 13.555V30.1635H91.888V13.555H88.0219ZM87.4748 7.46304C87.4748 8.13701 87.7179 8.70266 88.2043 9.16C88.6905 9.61733 89.2741 9.846 89.955 9.846C90.6601 9.846 91.2558 9.61733 91.7422 9.16C92.2285 8.70266 92.4716 8.13701 92.4716 7.46304C92.4716 6.78906 92.2285 6.22341 91.7422 5.76608C91.2558 5.30875 90.6601 5.08008 89.955 5.08008C89.2741 5.08008 88.6905 5.30875 88.2043 5.76608C87.7179 6.22341 87.4748 6.78906 87.4748 7.46304Z" fill="#313131"/>
<path d="M98.5023 21.8593C98.5023 20.1984 99.0008 18.9106 99.9977 17.9959C100.995 17.0572 102.174 16.5878 103.536 16.5878C104.289 16.5878 105.031 16.7925 105.761 17.2016C106.49 17.6109 107.098 18.2127 107.584 19.0069C108.071 19.7771 108.314 20.728 108.314 21.8593C108.314 22.9905 108.071 23.9533 107.584 24.7477C107.098 25.518 106.49 26.1077 105.761 26.5168C105.031 26.9261 104.289 27.1307 103.536 27.1307C102.174 27.1307 100.995 26.6733 99.9977 25.7586C99.0008 24.8199 98.5023 23.5201 98.5023 21.8593ZM94.4173 21.8593C94.4173 23.6886 94.7942 25.2532 95.548 26.553C96.3017 27.8286 97.2987 28.8155 98.5388 29.5136C99.7789 30.1876 101.128 30.5245 102.587 30.5245C103.803 30.5245 104.897 30.2598 105.87 29.7302C106.867 29.1767 107.681 28.4064 108.314 27.4195V30.1635H112.289V3.18652H108.314V16.299C107.681 15.3121 106.867 14.554 105.87 14.0244C104.897 13.4708 103.803 13.194 102.587 13.194C101.128 13.194 99.7789 13.543 98.5388 14.241C97.2987 14.915 96.3017 15.9018 95.548 17.2016C94.7942 18.4774 94.4173 20.0299 94.4173 21.8593Z" fill="#313131"/>
<path d="M116.766 24.1701L114.468 26.3725C115.247 27.6002 116.28 28.6231 117.569 29.4415C118.882 30.2599 120.353 30.6691 121.982 30.6691C123.757 30.6691 125.204 30.2478 126.322 29.4054C127.465 28.539 128.037 27.2271 128.037 25.47C128.037 24.4831 127.818 23.6766 127.38 23.0509C126.942 22.425 126.371 21.9075 125.666 21.4984C124.961 21.0651 124.207 20.692 123.404 20.3791C122.772 20.1144 122.128 19.8735 121.471 19.6569C120.839 19.4403 120.316 19.1876 119.903 18.8988C119.49 18.6098 119.283 18.2369 119.283 17.7795C119.283 17.2741 119.478 16.9129 119.867 16.6963C120.28 16.4557 120.827 16.3353 121.508 16.3353C122.189 16.3353 122.894 16.5279 123.623 16.9129C124.377 17.2981 125.034 17.7916 125.593 18.3932L127.781 16.1548C127.149 15.3123 126.249 14.6142 125.082 14.0606C123.939 13.4829 122.687 13.1941 121.325 13.1941C120.329 13.1941 119.392 13.3746 118.517 13.7357C117.642 14.0967 116.937 14.6142 116.402 15.2882C115.867 15.9622 115.599 16.7805 115.599 17.7434C115.599 18.7784 115.83 19.6209 116.292 20.2707C116.778 20.8966 117.386 21.402 118.116 21.7872C118.845 22.1723 119.599 22.5213 120.377 22.8342C121.35 23.1953 122.201 23.5804 122.93 23.9897C123.684 24.3988 124.061 24.9644 124.061 25.6866C124.061 26.2402 123.854 26.6615 123.441 26.9503C123.052 27.215 122.505 27.3474 121.8 27.3474C121.07 27.3474 120.243 27.0585 119.319 26.4809C118.42 25.8791 117.569 25.1088 116.766 24.1701Z" fill="#313131"/>
<path d="M133.732 21.8594C133.732 20.2948 134.206 19.0311 135.155 18.0683C136.127 17.1055 137.319 16.6241 138.729 16.6241C140.164 16.6241 141.355 17.1055 142.303 18.0683C143.251 19.0311 143.726 20.2948 143.726 21.8594C143.726 23.4 143.251 24.6635 142.303 25.6504C141.355 26.6132 140.164 27.0947 138.729 27.0947C137.319 27.0947 136.127 26.6132 135.155 25.6504C134.206 24.6635 133.732 23.4 133.732 21.8594ZM129.684 21.8594C129.684 23.5684 130.073 25.0728 130.851 26.3725C131.653 27.6724 132.735 28.6953 134.097 29.4415C135.483 30.1637 137.027 30.5247 138.729 30.5247C140.455 30.5247 141.999 30.1637 143.361 29.4415C144.723 28.6953 145.793 27.6724 146.57 26.3725C147.373 25.0728 147.774 23.5684 147.774 21.8594C147.774 20.1504 147.373 18.646 146.57 17.3463C145.793 16.0464 144.723 15.0354 143.361 14.3133C141.999 13.5672 140.455 13.1941 138.729 13.1941C137.027 13.1941 135.483 13.5672 134.097 14.3133C132.735 15.0354 131.653 16.0464 130.851 17.3463C130.073 18.646 129.684 20.1504 129.684 21.8594Z" fill="#313131"/>
<path d="M174.089 19.6209C174.089 17.5267 173.651 15.9382 172.776 14.8549C171.9 13.7477 170.551 13.1941 168.728 13.1941C167.609 13.1941 166.588 13.4589 165.665 13.9884C164.739 14.4939 163.998 15.2039 163.438 16.1186C162.686 14.1689 161.08 13.1941 158.625 13.1941C157.53 13.1941 156.582 13.4468 155.779 13.9523C155.001 14.4578 154.382 15.1317 153.919 15.9742V13.5551H150.053V30.1637H153.919V20.0541C153.919 18.9469 154.199 18.0563 154.759 17.3823C155.342 16.6842 156.168 16.3353 157.238 16.3353C158.26 16.3353 158.978 16.6602 159.39 17.3101C159.803 17.936 160.011 18.8506 160.011 20.0541V30.1637H163.986V20.0541C163.986 18.9469 164.265 18.0563 164.825 17.3823C165.408 16.6842 166.235 16.3353 167.306 16.3353C168.326 16.3353 169.044 16.6602 169.458 17.3101C169.895 17.936 170.114 18.8506 170.114 20.0541V30.1637H174.089V19.6209Z" fill="#313131"/>
<path d="M180.551 22.762H193.938C193.962 22.5694 193.974 22.3769 193.974 22.1844C193.998 21.9918 194.011 21.8232 194.011 21.6788C194.011 19.0551 192.892 16.9851 191.385 15.4688C189.902 13.9523 187.859 13.1941 185.257 13.1941C182.85 13.1941 180.892 13.8319 179.384 15.1076C177.901 16.3835 176.99 18.0442 176.649 20.0903C176.6 20.3791 176.565 20.6679 176.54 20.9567C176.515 21.2456 176.503 21.5465 176.503 21.8594C176.503 23.5203 176.856 25.0126 177.561 26.3365C178.266 27.6363 179.263 28.6593 180.551 29.4054C181.841 30.1516 183.348 30.5247 185.075 30.5247C187.166 30.5247 188.88 30.1155 190.218 29.2971C191.58 28.4787 193.037 27.3956 193.864 26.0476L190.071 24.6756C189.586 25.494 188.941 26.1438 188.138 26.6253C187.361 27.0826 186.4 27.3113 185.257 27.3113C183.968 27.3113 182.899 26.9382 182.047 26.1921C181.196 25.4218 180.698 24.2785 180.551 22.762ZM180.626 20.0541C180.795 18.8266 181.306 17.8757 182.157 17.2017C183.008 16.5038 184.029 16.1548 185.22 16.1548C186.485 16.1548 187.458 16.5038 188.138 17.2017C188.82 17.8998 189.233 18.8506 189.379 20.0541H180.626Z" fill="#313131"/>
<defs>
<linearGradient id="paint0_linear" x1="20.0279" y1="37.7868" x2="20.0279" y2="18.042" gradientUnits="userSpaceOnUse">
<stop stop-color="#007A55"/>
<stop offset="1" stop-color="#005037"/>
</linearGradient>
</defs>
</svg>
