<svg enable-background="new 0 0 511.6 405.6" viewBox="0 0 511.6 405.6" xmlns="http://www.w3.org/2000/svg"><g fill="#2d333a"><path d="m49.1 125.7c6.5 4.6 26 18.1 58.5 40.7s57.5 39.9 74.8 52.1c1.9 1.3 5.9 4.2 12.1 8.7s11.3 8.1 15.4 10.9 9 5.9 14.8 9.3 11.3 6 16.4 7.7 9.9 2.6 14.3 2.6h.3.3c4.4 0 9.1-.9 14.3-2.6 5.1-1.7 10.6-4.3 16.4-7.7s10.8-6.5 14.8-9.3c4.1-2.8 9.2-6.4 15.4-10.9s10.2-7.4 12.1-8.7c17.5-12.2 62.1-43.1 133.6-92.8 13.9-9.7 25.5-21.4 34.8-35.1s14-28.1 14-43.1c0-12.6-4.5-23.3-13.6-32.3-9-8.9-19.7-13.4-32.1-13.4h-420c-14.7 0-26 5-33.9 14.9-7.9 9.9-11.8 22.2-11.8 37.1 0 12 5.2 25 15.7 39 10.5 13.9 21.6 24.9 33.4 32.9z"/><path d="m483.1 156.3c-62.4 42.3-109.8 75.1-142.2 98.5-10.8 8-19.6 14.2-26.4 18.7s-15.7 9-27 13.7c-11.2 4.7-21.7 7-31.4 7h-.3-.3c-9.7 0-20.2-2.3-31.4-7s-20.2-9.2-27-13.7-15.6-10.7-26.4-18.7c-25.7-18.8-73-51.7-141.9-98.5-10.8-7.3-20.4-15.5-28.8-24.9v226.7c0 12.6 4.5 23.3 13.4 32.3 8.9 8.9 19.7 13.4 32.3 13.4h420.3c12.6 0 23.3-4.5 32.3-13.4 8.9-8.9 13.4-19.7 13.4-32.3v-226.7c-8.3 9.2-17.8 17.5-28.6 24.9z"/></g></svg>