<svg width="24" height="14" viewBox="0 0 24 14" fill="inherit" xmlns="http://www.w3.org/2000/svg">
<path fill-rule="evenodd" clip-rule="evenodd" d="M19.9007 10.7593C17.5474 12.7764 14.8963 14 11.9999 14C9.10363 14 6.45248 12.7764 4.09915 10.7593C3.28832 10.0643 2.57031 9.32149 1.95047 8.57768C1.57484 8.12692 1.31173 7.77045 1.1679 7.5547L0.798096 7L1.1679 6.4453C1.31173 6.22955 1.57484 5.87308 1.95047 5.42232C2.57031 4.67851 3.28832 3.93575 4.09915 3.24074C6.45248 1.22361 9.10363 0 11.9999 0C14.8963 0 17.5474 1.22361 19.9007 3.24074C20.7116 3.93575 21.4296 4.67851 22.0494 5.42232C22.4251 5.87308 22.6882 6.22955 22.832 6.4453L23.2018 7L22.832 7.5547C22.6882 7.77045 22.4251 8.12692 22.0494 8.57768C21.4296 9.32149 20.7116 10.0643 19.9007 10.7593ZM5.40074 4.75926C4.68032 5.37675 4.03896 6.04024 3.48692 6.70268C3.3984 6.80891 3.31763 6.90833 3.24481 7C3.31763 7.09167 3.3984 7.19109 3.48692 7.29732C4.03896 7.95976 4.68032 8.62325 5.40074 9.24074C7.42241 10.9736 9.64627 12 11.9999 12C14.3536 12 16.5775 10.9736 18.5992 9.24074C19.3196 8.62325 19.9609 7.95976 20.513 7.29732C20.6015 7.19109 20.6823 7.09167 20.7551 7C20.6823 6.90833 20.6015 6.80891 20.513 6.70268C19.9609 6.04024 19.3196 5.37675 18.5992 4.75926C16.5775 3.02639 14.3536 2 11.9999 2C9.64627 2 7.42241 3.02639 5.40074 4.75926Z"/>
<path fill-rule="evenodd" clip-rule="evenodd" d="M15 7C15 8.65685 13.6569 10 12 10C10.3431 10 9 8.65685 9 7C9 5.34315 10.3431 4 12 4C13.6569 4 15 5.34315 15 7ZM11 7C11 7.55228 11.4477 8 12 8C12.5523 8 13 7.55228 13 7C13 6.44772 12.5523 6 12 6C11.4477 6 11 6.44772 11 7Z"/>
</svg>
