<svg enable-background="new 0 0 484.1 101.9" viewBox="0 0 484.1 101.9" xmlns="http://www.w3.org/2000/svg"><path d="m104.7 16.8-5.6-5.6-18.7 18.6v-29.8h-8v29.8l-18.7-18.6-5.6 5.6 24.3 24.4v11.2l-18.7-18.6-21.4-21.5v-12.3h-8v12.3l-24.3 24.4 5.6 5.6 18.7-18.6v11.2l-24.3 24.4 5.6 5.6 18.7-18.6v55.6h8v-55.6l18.7 18.6 5.6-5.6-24.3-24.4v-11.2l15.8 15.7 1.6 1.6 1.3 1.3 21.4 21.5v38.1h8v-38.1l24.3-24.4-5.6-5.6-18.7 18.6v-11.2z"/><path d="m127.4 76.4h9v-21.1h22.5v-8.2h-22.5v-13.4h23.8v-8.2h-32.8z"/><path d="m211.6 31.4c-2.4-2.4-5.4-4.2-8.6-5.4-3.5-1.3-7.2-1.9-10.9-1.8-3.7 0-7.3.6-10.8 1.9-3.2 1.2-6.1 3-8.5 5.4s-4.3 5.3-5.6 8.5c-1.4 3.5-2.1 7.3-2 11.1-.1 3.7.6 7.4 2 10.9 2.5 6.4 7.7 11.4 14.1 13.8 3.5 1.3 7.1 1.9 10.8 1.9s7.4-.7 10.9-2c3.2-1.2 6.1-3.1 8.6-5.5 2.4-2.4 4.3-5.2 5.6-8.4 1.4-3.5 2.1-7.2 2-10.9.1-3.8-.6-7.6-2-11.1-1.3-3.2-3.2-6-5.6-8.4zm-3.1 26.8c-.8 2.2-2 4.3-3.6 6-1.5 1.7-3.4 3.1-5.5 4-2.3 1-4.7 1.4-7.2 1.4-2.5.1-4.9-.4-7.2-1.4-2.1-.9-4-2.3-5.5-4-1.6-1.7-2.8-3.8-3.6-6-.9-2.4-1.3-4.9-1.3-7.5 0-2.4.4-4.8 1.3-7.1.8-2.1 2-4.1 3.6-5.8 1.5-1.7 3.4-3 5.5-3.9 2.3-1 4.7-1.4 7.2-1.4s4.9.4 7.2 1.4c2.1.9 4 2.2 5.5 3.9 1.6 1.7 2.8 3.7 3.6 5.8.9 2.3 1.3 4.7 1.3 7.1 0 2.6-.4 5.1-1.3 7.5z"/><path d="m259.8 49.4c2.1-2.6 3.2-5.9 3.1-9.3.1-2.5-.5-4.9-1.6-7.1-1-1.8-2.4-3.4-4.2-4.5-1.9-1.1-3.9-1.9-6.1-2.3-2.3-.5-4.7-.7-7.1-.7h-17.7v50.9h9.1v-21.5h6.6l11.8 21.6h10.9l-13.5-22.6c3.4-.3 6.5-1.9 8.7-4.5zm-13.6-2.5-3.9.2h-7v-13.8h7.8l3.6.2c1.1.1 2.3.4 3.3.9 1 .4 1.8 1.1 2.4 2 .7 1.1 1 2.3.9 3.6.1 1.4-.3 2.7-1 3.9-.7.9-1.6 1.7-2.6 2.1-1.1.5-2.3.8-3.5.9z"/><path d="m279.9 54.4h23.4v-8.2h-23.4v-12.5h24.7v-8.2h-33.7v50.9h35v-8.2h-26z"/><path d="m340 49.8c-1.8-1.1-3.8-2-5.8-2.6l-5.8-1.9c-1.6-.6-3.1-1.4-4.5-2.4-1.2-1-1.9-2.5-1.8-4 0-1 .2-2.1.7-3 .5-.8 1.1-1.5 1.9-2s1.7-.9 2.7-1.1c1-.3 2.1-.4 3.1-.4 1.7 0 3.5.3 5.1 1 1.5.6 2.9 1.7 3.8 3.1l6.6-7c-1.9-1.8-4.3-3.2-6.8-4s-5.2-1.2-7.8-1.2c-2.3 0-4.7.3-6.9.9s-4.2 1.5-6 2.8c-1.7 1.3-3.2 2.9-4.2 4.8-1.1 2.1-1.7 4.4-1.6 6.8-.1 2.5.5 5 1.8 7.2 1.2 1.8 2.7 3.2 4.5 4.3s3.8 2 5.8 2.6l5.8 2c1.6.6 3.2 1.5 4.5 2.6 1.2 1.1 1.9 2.7 1.8 4.3 0 1.1-.3 2.2-.8 3.1s-1.2 1.6-2.1 2.2-1.9 1-2.9 1.3c-3 .8-6.2.4-8.9-1-1.7-.9-3.2-2.3-4.3-3.9l-6.9 6.5c2 2.4 4.6 4.2 7.5 5.3s6 1.6 9.1 1.6c2.4 0 4.8-.3 7.1-1 2.1-.6 4.1-1.6 5.9-3 1.7-1.4 3.1-3.1 4.1-5.1 1.1-2.3 1.6-4.7 1.5-7.2.1-2.6-.5-5.1-1.8-7.3-1.1-1.7-2.6-3.2-4.4-4.3z"/><path d="m350.1 33.7h15.6v42.7h9v-42.7h15.6v-8.2h-40.2z"/><path d="m431.9 49.4c2.1-2.6 3.2-5.9 3.1-9.3.1-2.5-.5-4.9-1.6-7.1-1-1.8-2.4-3.4-4.2-4.5-1.9-1.1-3.9-1.9-6.1-2.3-2.3-.5-4.7-.7-7.1-.7h-17.7v50.9h9.1v-21.5h6.6l11.8 21.6h10.9l-13.5-22.6c3.4-.3 6.5-1.9 8.7-4.5zm-13.6-2.5-3.9.2h-7v-13.8h7.8l3.6.2c1.1.1 2.3.4 3.3.9 1 .4 1.8 1.1 2.4 2 .7 1.1 1 2.3.9 3.6.1 1.4-.3 2.7-1 3.9-.7.9-1.6 1.7-2.6 2.1-1.1.5-2.3.8-3.5.9z"/><path d="m473.3 25.5-12.7 20.3-12.5-20.3h-11.3l19.1 29.1v21.8h9v-21.8l19.2-29.1z"/></svg>