<svg height="35" viewBox="0 0 35 35" width="35" xmlns="http://www.w3.org/2000/svg"><g fill="none" fill-rule="evenodd" transform="translate(3 3)"><path d="m15 4.3544649v18.8874418" stroke="#979797" stroke-linecap="round"/><rect fill="#fff" fill-rule="evenodd" height="8" rx="2" width="25" x="2" y="1"/><rect height="7" rx="2" stroke="#979797" width="24" x="2.5" y="1.5"/><rect fill="#fff" fill-rule="evenodd" height="8" rx="2" width="25" x="2" y="10"/><rect height="7" rx="2" stroke="#979797" width="24" x="2.5" y="10.5"/><rect fill="#fff" fill-rule="evenodd" height="8" rx="2" width="25" x="2" y="20"/><rect height="7" rx="2" stroke="#979797" width="24" x="2.5" y="20.5"/><g fill-rule="nonzero"><path d="m.50209141 29 28.49790859-28.49790859-.5020914-.50209141-28.4979086 28.4979086z" fill="#58d471" fill-rule="evenodd"/><path d="m.50209141 30.4142136-1.91630497-1.916305 29.91212216-29.91212216 1.916305 1.91630497z" stroke="#fff" stroke-width="2"/></g><g fill="#dedede"><path d="m23 22h2v1h-2z"/><path d="m23 12h2v1h-2z"/></g></g></svg>