<svg height="33" viewBox="0 0 33 33" width="33" xmlns="http://www.w3.org/2000/svg"><g fill="none" fill-rule="evenodd" transform="translate(-6 -9)"><g transform="matrix(.70710678 .70710678 -.70710678 .70710678 29.983633 .983633)"><path d="m6.46769187 8.36994056c2.15384819-5.57996037 4.00176013-8.36994056 5.54373593-8.36994056 1.5419757 0 3.3898877 2.78998019 5.5437359 8.36994056v18.99481604h-11.08747183z" fill="#fff" fill-rule="evenodd"/><path d="m6.86769185 8.44456696v18.52018964h10.28747185v-18.52018964c-2.0741259-5.35684679-3.8598171-8.04456698-5.1437359-8.04456698-1.2839189 0-3.06961008 2.68772019-5.14373595 8.04456775z" stroke="#979797" stroke-width=".8"/><path d="m18.4791196 15.3767558 5.5437359 11.7586956h-5.5437359z" fill="#fff" fill-rule="evenodd"/><path d="m18.8791196 17.1631823v9.5722691h4.5129268z" stroke="#979797" stroke-width=".8"/><g transform="matrix(-1 0 0 1 5.543736 0)"><path d="m0 15.3767558 5.54373589 11.7586956h-5.54373589z" fill="#fff" fill-rule="evenodd"/><path d="m.39999998 17.1631823v9.5722691h4.51292676z" stroke="#979797" stroke-width=".8"/></g><path d="m8.70462784 28.0399665h6.63215646c.4421438.9592122.6632157 1.9184244.6632157 2.8776366 0 3.5970457-3.2592966 9.3907575-3.9792939 9.3907575s-3.97929391-5.7937118-3.97929391-9.3907575c0-.9592122.22107188-1.9184244.66321565-2.8776366z" fill="#fff" fill-rule="evenodd"/><path d="m8.96525059 28.4399664c-.34988384.8295376-.52383842 1.6546155-.52383842 2.4776367 0 2.8815697 2.91231173 8.9907575 3.57929393 8.9907575s3.5792939-6.1091878 3.5792939-8.9907575c0-.8230212-.1739546-1.6480991-.5238384-2.4776367z" stroke="#979797" stroke-width=".8"/><circle cx="11.92264" cy="10.485281" r="2" stroke="#58d471"/></g><g stroke="#dedede" stroke-linecap="round"><path d="m8.5 32.5 3-3"/><path d="m15.5 39.5 3-3"/><path d="m6.5 41.5 2.12132034-2.1213203"/></g></g></svg>