<?xml version="1.0" encoding="UTF-8"?>
<svg width="33px" height="33px" viewBox="0 0 33 33" version="1.1" xmlns="http://www.w3.org/2000/svg" xmlns:xlink="http://www.w3.org/1999/xlink">
    <!-- Generator: Sketch 47.1 (45422) - http://www.bohemiancoding.com/sketch -->
    <title>Group 9</title>
    <desc>Created with Sketch.</desc>
    <defs>
        <path d="M6.46769187,8.36994056 C8.62154006,2.78998019 10.469452,0 12.0114278,0 C13.5534035,0 15.4013155,2.78998019 17.5551637,8.36994056 L17.5551637,27.3647566 L6.46769187,27.3647566 L6.46769187,8.36994056 Z" id="path-1"></path>
        <polygon id="path-2" points="18.4791196 15.3767558 24.0228555 27.1354514 18.4791196 27.1354514"></polygon>
        <polygon id="path-3" points="0 15.3767558 5.54373589 27.1354514 0 27.1354514"></polygon>
        <path d="M8.70462784,28.0399665 L15.3367843,28.0399665 C15.7789281,28.9991787 16,29.9583909 16,30.9176031 C16,34.5146488 12.7407034,40.3083606 12.0207061,40.3083606 C11.3007088,40.3083606 8.04141219,34.5146488 8.04141219,30.9176031 C8.04141219,29.9583909 8.26248407,28.9991787 8.70462784,28.0399665 Z" id="path-4"></path>
    </defs>
    <g id="Page-1" stroke="none" stroke-width="1" fill="none" fill-rule="evenodd">
        <g id="Landingpage" transform="translate(-289.000000, -1644.000000)">
            <g id="Group-9" transform="translate(283.000000, 1635.000000)">
                <g id="Group-5" transform="translate(24.326779, 24.318157) rotate(-315.000000) translate(-24.326779, -24.318157) translate(11.826779, 3.818157)">
                    <g id="Rectangle-10">
                        <use fill="#FFFFFF" fill-rule="evenodd" xlink:href="#path-1"></use>
                        <path stroke="#979797" stroke-width="0.799999952" d="M6.86769185,8.44456696 L6.86769185,26.9647566 L17.1551637,26.9647566 L17.1551637,8.44456696 C15.0810378,3.08772017 13.2953466,0.399999976 12.0114278,0.399999976 C10.7275089,0.399999976 8.94181772,3.08772017 6.86769185,8.44456773 Z"></path>
                    </g>
                    <g id="Rectangle-11">
                        <use fill="#FFFFFF" fill-rule="evenodd" xlink:href="#path-2"></use>
                        <path stroke="#979797" stroke-width="0.799999952" d="M18.8791196,17.1631823 L18.8791196,26.7354514 L23.3920464,26.7354514 L18.8791196,17.1631823 Z"></path>
                    </g>
                    <g id="Rectangle-11-Copy" transform="translate(2.771868, 21.256104) scale(-1, 1) translate(-2.771868, -21.256104) ">
                        <use fill="#FFFFFF" fill-rule="evenodd" xlink:href="#path-3"></use>
                        <path stroke="#979797" stroke-width="0.799999952" d="M0.399999976,17.1631823 L0.399999976,26.7354514 L4.91292674,26.7354514 L0.399999976,17.1631823 Z"></path>
                    </g>
                    <path d="" id="Path-4" stroke="#979797" stroke-width="0.799999952"></path>
                    <g id="Rectangle-12">
                        <use fill="#FFFFFF" fill-rule="evenodd" xlink:href="#path-4"></use>
                        <path stroke="#979797" stroke-width="0.799999952" d="M8.96525059,28.4399664 C8.61536675,29.269504 8.44141217,30.0945819 8.44141217,30.9176031 C8.44141217,33.7991728 11.3537239,39.9083606 12.0207061,39.9083606 C12.6876883,39.9083606 15.6,33.7991728 15.6,30.9176031 C15.6,30.0945819 15.4260454,29.269504 15.0761616,28.4399664 L8.96525059,28.4399664 Z"></path>
                    </g>
                    <circle id="Oval-2" stroke="#58D471" cx="11.9226404" cy="10.4852814" r="2"></circle>
                </g>
                <path d="M8.5,32.5 L11.5,29.5" id="Line-3" stroke="#DEDEDE" stroke-linecap="round"></path>
                <path d="M15.5,39.5 L18.5,36.5" id="Line-3-Copy-2" stroke="#DEDEDE" stroke-linecap="round"></path>
                <path d="M6.5,41.5 L8.62132034,39.3786797" id="Line-3-Copy" stroke="#DEDEDE" stroke-linecap="round"></path>
            </g>
        </g>
    </g>
</svg>