<?xml version="1.0" encoding="utf-8"?><svg xmlns="http://www.w3.org/2000/svg" xmlns:xlink="http://www.w3.org/1999/xlink"><symbol id="chevron-left" viewBox="0 0 256 512" xmlns="http://www.w3.org/2000/svg"><style>.aast0{fill:#20c997}</style><path class="aast0" d="M231.3 473.9l19.8-19.8c4.7-4.7 4.7-12.3 0-17L70.4 256 251.1 74.9c4.7-4.7 4.7-12.3 0-17l-19.8-19.8c-4.7-4.7-12.3-4.7-17 0L4.9 247.5c-4.7 4.7-4.7 12.3 0 17l209.4 209.4c4.7 4.7 12.3 4.7 17 0z"/></symbol><symbol id="chevron-right" viewBox="0 0 256 512" xmlns="http://www.w3.org/2000/svg"><style>.abst0{fill:#20c997}</style><path class="abst0" d="M24.7 38.1L4.9 57.9c-4.7 4.7-4.7 12.3 0 17L185.6 256 4.9 437.1c-4.7 4.7-4.7 12.3 0 17l19.8 19.8c4.7 4.7 12.3 4.7 17 0l209.4-209.4c4.7-4.7 4.7-12.3 0-17L41.7 38.1c-4.7-4.7-12.3-4.7-17 0z"/></symbol><symbol id="email" viewBox="0 0 511.6 405.6" xmlns="http://www.w3.org/2000/svg"><style>.acst0{fill:#2d333a}</style><path class="acst0" d="M49.1 125.7c6.5 4.6 26 18.1 58.5 40.7s57.5 39.9 74.8 52.1c1.9 1.3 5.9 4.2 12.1 8.7 6.2 4.5 11.3 8.1 15.4 10.9 4.1 2.8 9 5.9 14.8 9.3 5.8 3.4 11.3 6 16.4 7.7 5.1 1.7 9.9 2.6 14.3 2.6h.6c4.4 0 9.1-.9 14.3-2.6 5.1-1.7 10.6-4.3 16.4-7.7 5.8-3.4 10.8-6.5 14.8-9.3 4.1-2.8 9.2-6.4 15.4-10.9 6.2-4.5 10.2-7.4 12.1-8.7 17.5-12.2 62.1-43.1 133.6-92.8 13.9-9.7 25.5-21.4 34.8-35.1 9.3-13.7 14-28.1 14-43.1 0-12.6-4.5-23.3-13.6-32.3-9-8.9-19.7-13.4-32.1-13.4h-420c-14.7 0-26 5-33.9 14.9C3.9 26.6 0 38.9 0 53.8c0 12 5.2 25 15.7 39 10.5 13.9 21.6 24.9 33.4 32.9z"/><path class="acst0" d="M483.1 156.3c-62.4 42.3-109.8 75.1-142.2 98.5-10.8 8-19.6 14.2-26.4 18.7-6.8 4.5-15.7 9-27 13.7-11.2 4.7-21.7 7-31.4 7h-.6c-9.7 0-20.2-2.3-31.4-7s-20.2-9.2-27-13.7c-6.8-4.5-15.6-10.7-26.4-18.7-25.7-18.8-73-51.7-141.9-98.5C18 149 8.4 140.8 0 131.4v226.7c0 12.6 4.5 23.3 13.4 32.3 8.9 8.9 19.7 13.4 32.3 13.4H466c12.6 0 23.3-4.5 32.3-13.4 8.9-8.9 13.4-19.7 13.4-32.3V131.4c-8.3 9.2-17.8 17.5-28.6 24.9z"/></symbol><symbol viewBox="0 0 484.1 101.9" id="forestry-full" xmlns="http://www.w3.org/2000/svg"><title>Forestry Logotype</title><path fill="none" stroke="#181919" stroke-miterlimit="10" stroke-width="8" fill-rule="evenodd" d="M2.8 39.5L28.3 14l25.5 25.5"/><path fill="none" stroke="#181919" stroke-miterlimit="10" stroke-width="8" fill-rule="evenodd" d="M2.8 62.1l25.5-25.5 25.5 25.5M101.9 36.6L76.4 62.1 50.9 36.6"/><path fill="none" stroke="#181919" stroke-miterlimit="10" stroke-width="8" fill-rule="evenodd" d="M101.9 14L76.4 39.5 50.9 14"/><path fill="none" stroke="#181919" stroke-miterlimit="10" stroke-width="8" d="M28.3 101.9V0M76.4 101.9V0"/><path d="M127.4 76.4h9V55.3h22.5v-8.2h-22.5V33.7h23.8v-8.2h-32.8v50.9zM211.6 31.4A23.9 23.9 0 0 0 203 26a30.2 30.2 0 0 0-10.9-1.8 29.8 29.8 0 0 0-10.8 1.9 24.5 24.5 0 0 0-8.5 5.4 25 25 0 0 0-5.6 8.5 29.5 29.5 0 0 0-2 11.1 28.2 28.2 0 0 0 2 10.9 24.3 24.3 0 0 0 14.1 13.8 29.8 29.8 0 0 0 10.8 1.9 30.3 30.3 0 0 0 10.9-2 25.6 25.6 0 0 0 8.6-5.5 24.9 24.9 0 0 0 5.6-8.4 28.3 28.3 0 0 0 2-10.9 29.2 29.2 0 0 0-2-11.1 24.8 24.8 0 0 0-5.6-8.4zm-3.1 26.8a17.6 17.6 0 0 1-3.6 6 16.4 16.4 0 0 1-5.5 4 17.5 17.5 0 0 1-7.2 1.4 17.2 17.2 0 0 1-7.2-1.4 16.5 16.5 0 0 1-5.5-4 17.6 17.6 0 0 1-3.6-6 21.9 21.9 0 0 1-1.3-7.5 19.9 19.9 0 0 1 1.3-7.1 17.6 17.6 0 0 1 3.6-5.8 16.4 16.4 0 0 1 5.5-3.9 17.6 17.6 0 0 1 7.2-1.4 17.9 17.9 0 0 1 7.2 1.4 16.3 16.3 0 0 1 5.5 3.9 17.6 17.6 0 0 1 3.6 5.8 19.8 19.8 0 0 1 1.3 7.1 21.8 21.8 0 0 1-1.3 7.5zM259.8 49.4a14.2 14.2 0 0 0 3.1-9.3 14.3 14.3 0 0 0-1.6-7.1 12.2 12.2 0 0 0-4.2-4.5 18.2 18.2 0 0 0-6.1-2.3 36 36 0 0 0-7.1-.7h-17.7v50.9h9.1V54.9h6.6l11.8 21.6h10.9l-13.5-22.6a13.1 13.1 0 0 0 8.7-4.5zm-13.6-2.5l-3.9.2h-7V33.3h7.8l3.6.2a11.2 11.2 0 0 1 3.3.9 5.8 5.8 0 0 1 2.4 2 6.3 6.3 0 0 1 .9 3.6 6.6 6.6 0 0 1-1 3.9 6.1 6.1 0 0 1-2.6 2.1 11.8 11.8 0 0 1-3.5.9zM279.9 54.4h23.4v-8.2h-23.4V33.7h24.7v-8.2h-33.7v50.9h35v-8.2h-26V54.4zM340 49.8a23.7 23.7 0 0 0-5.8-2.6l-5.8-1.9a17.5 17.5 0 0 1-4.5-2.4 4.7 4.7 0 0 1-1.8-4 5.9 5.9 0 0 1 .7-3 6 6 0 0 1 1.9-2 8.3 8.3 0 0 1 2.7-1.1 12.8 12.8 0 0 1 3.1-.4 13.5 13.5 0 0 1 5.1 1 8.4 8.4 0 0 1 3.8 3.1l6.6-7a18.2 18.2 0 0 0-6.8-4 25.1 25.1 0 0 0-7.8-1.2 25.8 25.8 0 0 0-6.9.9 18.6 18.6 0 0 0-6 2.8 14.9 14.9 0 0 0-4.2 4.8 13.7 13.7 0 0 0-1.6 6.8 12.9 12.9 0 0 0 1.8 7.2 14.1 14.1 0 0 0 4.5 4.3 24.5 24.5 0 0 0 5.8 2.6l5.8 2a15.8 15.8 0 0 1 4.5 2.6 5.3 5.3 0 0 1 1.8 4.3 5.9 5.9 0 0 1-.8 3.1 6.7 6.7 0 0 1-2.1 2.2 9.9 9.9 0 0 1-2.9 1.3 12.2 12.2 0 0 1-8.9-1 11.4 11.4 0 0 1-4.3-3.9l-6.9 6.5a17.6 17.6 0 0 0 7.5 5.3 26.7 26.7 0 0 0 9.1 1.6 25 25 0 0 0 7.1-1 17.5 17.5 0 0 0 5.9-3 14.5 14.5 0 0 0 4.1-5.1 16 16 0 0 0 1.5-7.2 13.1 13.1 0 0 0-1.8-7.3 14.4 14.4 0 0 0-4.4-4.3zM350.1 33.7h15.6v42.7h9V33.7h15.6v-8.2h-40.2v8.2zM431.9 49.4a14.2 14.2 0 0 0 3.1-9.3 14.4 14.4 0 0 0-1.6-7.1 12.2 12.2 0 0 0-4.2-4.5 18.1 18.1 0 0 0-6.1-2.3 35.9 35.9 0 0 0-7.1-.7h-17.7v50.9h9.1V54.9h6.6l11.8 21.6h10.9l-13.5-22.6a13.1 13.1 0 0 0 8.7-4.5zm-13.6-2.5l-3.9.2h-7V33.3h7.8l3.6.2a11.3 11.3 0 0 1 3.3.9 5.8 5.8 0 0 1 2.4 2 6.3 6.3 0 0 1 .9 3.6 6.6 6.6 0 0 1-1 3.9 6.1 6.1 0 0 1-2.6 2.1 11.9 11.9 0 0 1-3.5.9zM473.3 25.5l-12.7 20.3-12.5-20.3h-11.3l19.1 29.1v21.8h9V54.6l19.2-29.1h-10.8z"/></symbol><symbol id="forestry-neg-full" viewBox="0 0 484.1 101.9" xmlns="http://www.w3.org/2000/svg"><style>.aest0{fill:none;stroke:#fff;stroke-width:8;stroke-miterlimit:10}.aest1{fill:#fff}</style><title>Forestry Logotype</title><path class="aest0" d="M2.8 39.5L28.3 14l25.5 25.5"/><path class="aest0" d="M2.8 62.1l25.5-25.5 25.5 25.5M101.9 36.6L76.4 62.1 50.9 36.6"/><path class="aest0" d="M101.9 14L76.4 39.5 50.9 14M28.3 101.9V0M76.4 101.9V0"/><path class="aest1" d="M127.4 76.4h9V55.3h22.5v-8.2h-22.5V33.7h23.8v-8.2h-32.8zM211.6 31.4c-2.4-2.4-5.4-4.2-8.6-5.4-3.5-1.3-7.2-1.9-10.9-1.8-3.7 0-7.3.6-10.8 1.9-3.2 1.2-6.1 3-8.5 5.4-2.4 2.4-4.3 5.3-5.6 8.5-1.4 3.5-2.1 7.3-2 11.1-.1 3.7.6 7.4 2 10.9 2.5 6.4 7.7 11.4 14.1 13.8 3.5 1.3 7.1 1.9 10.8 1.9 3.7 0 7.4-.7 10.9-2 3.2-1.2 6.1-3.1 8.6-5.5 2.4-2.4 4.3-5.2 5.6-8.4 1.4-3.5 2.1-7.2 2-10.9.1-3.8-.6-7.6-2-11.1-1.3-3.2-3.2-6-5.6-8.4zm-3.1 26.8c-.8 2.2-2 4.3-3.6 6-1.5 1.7-3.4 3.1-5.5 4-2.3 1-4.7 1.4-7.2 1.4-2.5.1-4.9-.4-7.2-1.4-2.1-.9-4-2.3-5.5-4-1.6-1.7-2.8-3.8-3.6-6-.9-2.4-1.3-4.9-1.3-7.5 0-2.4.4-4.8 1.3-7.1.8-2.1 2-4.1 3.6-5.8 1.5-1.7 3.4-3 5.5-3.9 2.3-1 4.7-1.4 7.2-1.4s4.9.4 7.2 1.4c2.1.9 4 2.2 5.5 3.9 1.6 1.7 2.8 3.7 3.6 5.8.9 2.3 1.3 4.7 1.3 7.1 0 2.6-.4 5.1-1.3 7.5zM259.8 49.4c2.1-2.6 3.2-5.9 3.1-9.3.1-2.5-.5-4.9-1.6-7.1-1-1.8-2.4-3.4-4.2-4.5-1.9-1.1-3.9-1.9-6.1-2.3-2.3-.5-4.7-.7-7.1-.7h-17.7v50.9h9.1V54.9h6.6l11.8 21.6h10.9l-13.5-22.6c3.4-.3 6.5-1.9 8.7-4.5zm-13.6-2.5l-3.9.2h-7V33.3h7.8l3.6.2c1.1.1 2.3.4 3.3.9 1 .4 1.8 1.1 2.4 2 .7 1.1 1 2.3.9 3.6.1 1.4-.3 2.7-1 3.9-.7.9-1.6 1.7-2.6 2.1-1.1.5-2.3.8-3.5.9zM279.9 54.4h23.4v-8.2h-23.4V33.7h24.7v-8.2h-33.7v50.9h35v-8.2h-26zM340 49.8c-1.8-1.1-3.8-2-5.8-2.6l-5.8-1.9c-1.6-.6-3.1-1.4-4.5-2.4-1.2-1-1.9-2.5-1.8-4 0-1 .2-2.1.7-3 .5-.8 1.1-1.5 1.9-2 .8-.5 1.7-.9 2.7-1.1 1-.3 2.1-.4 3.1-.4 1.7 0 3.5.3 5.1 1 1.5.6 2.9 1.7 3.8 3.1l6.6-7c-1.9-1.8-4.3-3.2-6.8-4-2.5-.8-5.2-1.2-7.8-1.2-2.3 0-4.7.3-6.9.9-2.2.6-4.2 1.5-6 2.8-1.7 1.3-3.2 2.9-4.2 4.8-1.1 2.1-1.7 4.4-1.6 6.8-.1 2.5.5 5 1.8 7.2 1.2 1.8 2.7 3.2 4.5 4.3 1.8 1.1 3.8 2 5.8 2.6l5.8 2c1.6.6 3.2 1.5 4.5 2.6 1.2 1.1 1.9 2.7 1.8 4.3 0 1.1-.3 2.2-.8 3.1-.5.9-1.2 1.6-2.1 2.2-.9.6-1.9 1-2.9 1.3-3 .8-6.2.4-8.9-1-1.7-.9-3.2-2.3-4.3-3.9l-6.9 6.5c2 2.4 4.6 4.2 7.5 5.3 2.9 1.1 6 1.6 9.1 1.6 2.4 0 4.8-.3 7.1-1 2.1-.6 4.1-1.6 5.9-3 1.7-1.4 3.1-3.1 4.1-5.1 1.1-2.3 1.6-4.7 1.5-7.2.1-2.6-.5-5.1-1.8-7.3-1.1-1.7-2.6-3.2-4.4-4.3zM350.1 33.7h15.6v42.7h9V33.7h15.6v-8.2h-40.2zM431.9 49.4c2.1-2.6 3.2-5.9 3.1-9.3.1-2.5-.5-4.9-1.6-7.1-1-1.8-2.4-3.4-4.2-4.5-1.9-1.1-3.9-1.9-6.1-2.3-2.3-.5-4.7-.7-7.1-.7h-17.7v50.9h9.1V54.9h6.6l11.8 21.6h10.9l-13.5-22.6c3.4-.3 6.5-1.9 8.7-4.5zm-13.6-2.5l-3.9.2h-7V33.3h7.8l3.6.2c1.1.1 2.3.4 3.3.9 1 .4 1.8 1.1 2.4 2 .7 1.1 1 2.3.9 3.6.1 1.4-.3 2.7-1 3.9-.7.9-1.6 1.7-2.6 2.1-1.1.5-2.3.8-3.5.9zM473.3 25.5l-12.7 20.3-12.5-20.3h-11.3l19.1 29.1v21.8h9V54.6l19.2-29.1z"/></symbol><symbol id="forestry-neg-symbol" viewBox="0 0 104.8 101.9" xmlns="http://www.w3.org/2000/svg"><style>.afst0{fill:none;stroke:#fff;stroke-width:8;stroke-miterlimit:10}</style><title>forestry-symbol</title><path class="afst0" d="M2.8 39.5L28.3 14l25.5 25.5"/><path class="afst0" d="M2.8 62.1l25.5-25.5 25.5 25.5M101.9 36.6L76.4 62.1 50.9 36.6"/><path class="afst0" d="M101.9 14L76.4 39.5 50.9 14M28.3 101.9V0M76.4 101.9V0"/></symbol><symbol id="forestry-symbol" viewBox="0 0 104.76 101.9" xmlns="http://www.w3.org/2000/svg"><defs><style>.agcls-1{fill:none;stroke:#181919;stroke-miterlimit:10;stroke-width:8px}</style></defs><title>forestry-symbol</title><path class="agcls-1" d="M2.83 39.5L28.33 14l25.5 25.5"/><path class="agcls-1" d="M2.83 62.1l25.5-25.5 25.5 25.5M101.93 36.6l-25.5 25.5-25.5-25.5"/><path class="agcls-1" d="M101.93 14l-25.5 25.5L50.93 14M28.33 101.9V0M76.43 101.9V0"/></symbol><symbol viewBox="0 0 33 33" id="icon-deploy" xmlns="http://www.w3.org/2000/svg"><title>Group 9</title><defs><path d="M6.468 8.37C8.622 2.79 10.469 0 12.01 0c1.542 0 3.39 2.79 5.544 8.37v18.995H6.468V8.37z" id="aha"/><path id="ahb" d="M18.48 15.377l5.543 11.758h-5.544z"/><path id="ahc" d="M0 15.377l5.544 11.758H0z"/><path d="M8.705 28.04h6.632c.442.96.663 1.918.663 2.878 0 3.597-3.26 9.39-3.98 9.39-.72 0-3.979-5.793-3.979-9.39 0-.96.221-1.919.664-2.878z" id="ahd"/></defs><g transform="translate(-6 -9)" fill="none" fill-rule="evenodd"><g transform="rotate(45 13.804 36.685)"><use fill="#FFF" xlink:href="#aha"/><path stroke="#979797" stroke-width=".8" d="M6.868 8.445v18.52h10.287V8.445C15.081 3.088 13.295.4 12.011.4c-1.283 0-3.07 2.688-5.143 8.045z"/><use fill="#FFF" xlink:href="#ahb"/><path stroke="#979797" stroke-width=".8" d="M18.88 17.163v9.572h4.512l-4.513-9.572z"/><g transform="matrix(-1 0 0 1 5.544 0)"><use fill="#FFF" xlink:href="#ahc"/><path stroke="#979797" stroke-width=".8" d="M.4 17.163v9.572h4.513L.4 17.163z"/></g><g><use fill="#FFF" xlink:href="#ahd"/><path stroke="#979797" stroke-width=".8" d="M8.965 28.44a6.33 6.33 0 0 0-.524 2.478c0 2.881 2.913 8.99 3.58 8.99.667 0 3.579-6.109 3.579-8.99a6.33 6.33 0 0 0-.524-2.478h-6.11z"/></g><circle stroke="#58D471" cx="11.923" cy="10.485" r="2"/></g><path d="M8.5 32.5l3-3M15.5 39.5l3-3M6.5 41.5l2.121-2.121" stroke="#DEDEDE" stroke-linecap="round"/></g></symbol><symbol viewBox="0 0 35 35" id="icon-nodb" xmlns="http://www.w3.org/2000/svg"><title>Group 6</title><defs><rect id="aia" x="2" y="1" width="25" height="8" rx="2"/><rect id="aib" x="2" y="10" width="25" height="8" rx="2"/><rect id="aic" x="2" y="20" width="25" height="8" rx="2"/><path id="aid" d="M.502 29L29 .502 28.498 0 0 28.498z"/></defs><g transform="translate(3 3)" fill="none" fill-rule="evenodd"><path d="M15 4.354v18.888" stroke="#979797" stroke-linecap="round"/><use fill="#FFF" xlink:href="#aia"/><rect stroke="#979797" x="2.5" y="1.5" width="24" height="7" rx="2"/><use fill="#FFF" xlink:href="#aib"/><rect stroke="#979797" x="2.5" y="10.5" width="24" height="7" rx="2"/><use fill="#FFF" xlink:href="#aic"/><rect stroke="#979797" x="2.5" y="20.5" width="24" height="7" rx="2"/><g fill-rule="nonzero"><use fill="#58D471" fill-rule="evenodd" xlink:href="#aid"/><path stroke="#FFF" stroke-width="2" d="M.502 30.414l-1.916-1.916L28.498-1.414 30.414.502.502 30.414z"/></g><path fill="#DEDEDE" d="M23 22h2v1h-2zM23 12h2v1h-2z"/></g></symbol><symbol viewBox="0 0 28 34" id="icon-secure" xmlns="http://www.w3.org/2000/svg"><title>Group 8</title><g fill="none" fill-rule="evenodd"><path d="M.502 6.677C.618 19.18 5.115 28.071 14 33.418c8.885-5.347 13.382-14.238 13.498-26.74C21.63 6.571 17.118 4.615 14 .807 10.883 4.617 6.37 6.573.502 6.679z" stroke="#979797"/><path d="M2.516 8.458c.395 9.93 4.221 17.393 11.488 22.438 7.216-4.87 11.04-12.33 11.478-22.43-4.783-.368-8.617-1.951-11.48-4.752-2.734 2.706-6.57 4.285-11.486 4.744z" stroke="#DEDEDE"/><path stroke="#58D471" stroke-linecap="round" stroke-linejoin="round" d="M9.92 16.488l3.214 3.5L20 13"/></g></symbol><symbol viewBox="0 0 32 26" id="icon-yourtools" xmlns="http://www.w3.org/2000/svg"><title>Group 10</title><g transform="translate(0 1)" fill="none" fill-rule="evenodd" stroke-linecap="round" stroke-linejoin="round"><g transform="translate(23)" stroke="#979797"><path d="M0 24c3.707.124 5.561-1.177 5.561-3.904v-4.397C5.508 13.233 6.655 12 9 12"/><path d="M0 .008c3.707-.124 5.561 1.178 5.561 3.904V8.31c-.053 2.466 1.094 3.7 3.439 3.7"/></g><g transform="matrix(-1 0 0 1 9 0)" stroke="#979797"><path d="M0 24c3.707.124 5.561-1.177 5.561-3.904v-4.397C5.508 13.233 6.655 12 9 12"/><path d="M0 .008c3.707-.124 5.561 1.178 5.561 3.904V8.31c-.053 2.466 1.094 3.7 3.439 3.7"/></g><path d="M11 18c1.009 1 2.239 2 5 2s4.043-1 5-2M10 8c.303-.5.672-1 1.5-1s1.213.5 1.5 1M19 8c.303-.5.672-1 1.5-1s1.213.5 1.5 1" stroke="#979797"/><path stroke="#58D471" d="M16 10.686l2.5 2.5-2.5 2.5"/></g></symbol><symbol viewBox="0 0 24 24" id="info-circle" xmlns="http://www.w3.org/2000/svg"><g fill="none" fill-rule="evenodd" stroke="#666" stroke-width="2"><circle cx="12" cy="12" r="11"/><path d="M12 18v-7m0-5v3"/></g></symbol><symbol id="logos--amazon" viewBox="0 0 602.3 181.5" xmlns="http://www.w3.org/2000/svg"><style>.amst0{fill:#2d333a}</style><path class="amst0" d="M368.6 133.8c-39.2 16.6-81.9 24.7-120.6 24.7-57.5 0-113.2-15.8-158.2-41.9-3.9-2.3-6.9 1.7-3.6 4.7 41.7 37.7 96.8 60.3 158.1 60.3 43.7 0 94.4-13.8 129.4-39.6 5.7-4.4.8-10.8-5.1-8.2z"/><path class="amst0" d="M346.5 119.2c-3.1 2.1-2.6 5.1.9 4.7 11.3-1.3 36.4-4.4 40.8 1.4 4.5 5.7-5 29.4-9.2 39.9-1.3 3.2 1.5 4.5 4.4 2.1 18.8-15.7 23.6-48.6 19.8-53.4-3.9-4.7-36.7-8.8-56.7 5.3zM415 79.3c-10.7-6-23.1-7.8-34.9-7.5l31.7-45.3c2.9-4.1 4.6-6.6 4.6-8.6V6.1c0-2-1.6-3.5-3.5-3.5h-61.3c-1.9 0-3.5 1.4-3.5 3.5v13.7c0 2 1.6 3.4 3.5 3.4h32L346.9 76c-2.2 3.4-2.3 7.2-2.3 9.4v13.9c0 2 2.2 4.3 4.4 3.1 20.8-11.1 45.9-10 64.7-.1 2.3 1.2 4.5-1.1 4.5-3.1V84.6c-.1-2-.8-4-3.2-5.3zM106 105.2h18.6c2 0 3.6-1.5 3.6-3.5V51c0-11.1-.5-26.4 12.9-26.4 13.2 0 11.5 15.7 11.5 26.4v50.7c0 1.8 1.5 3.3 3.4 3.5h18.6c2 0 3.6-1.5 3.6-3.5V51c0-5.4-.2-13.5 1.7-18.3s6.6-7.8 11.1-7.8c5.4 0 9.6 1.8 11 8.2.9 3.8.5 13.9.5 17.9v50.7c0 1.8 1.5 3.3 3.4 3.5h18.6c2 0 3.6-1.5 3.6-3.5V41.3c0-10.3 1.2-21.9-4.7-30C218.2 4.1 209.6.8 201.8.8c-11 0-21.2 5.6-25.7 17.7C170.9 6.4 163.6.8 151.9.8c-11.5 0-20 5.6-24.5 17.7h-.4V6.1c-.1-1.7-1.6-3.1-3.4-3.2h-17.4c-2 0-3.6 1.5-3.6 3.4V102c.2 1.7 1.6 3.1 3.4 3.2zM469.2.9c-27 0-41.9 23.1-41.9 52.9 0 29.6 14.8 53.4 41.9 53.4 26.1 0 42.6-23.1 42.6-52.3 0-30.2-15-54-42.6-54zm0 86.6c-14.6 0-14.4-25-14.4-36.7s.9-30.4 14.6-30.4c5.9 0 10.1 2.6 12.2 9.3 2.4 7.7 2.8 17.3 2.8 25.4-.1 12.3-.8 32.4-15.2 32.4zM597.4 12.2C592.2 3.9 584 .9 575.6.9c-12.9 0-20.2 6.2-25.4 19.3h-.3V5.6c-.4-1.5-1.7-2.6-3.3-2.7h-17.3c-1.9 0-3.4 1.4-3.6 3.1v95.7c0 1.8 1.5 3.3 3.4 3.5h18.6c2 0 3.6-1.5 3.6-3.5V50.2c0-6.4.3-12.3 3-18.1 2.1-4.6 6.2-7.7 10.8-7.7 12.9 0 11.7 15.3 11.7 25.8v52c.2 1.6 1.6 2.9 3.3 3h18.7c1.8 0 3.4-1.3 3.6-3V42c-.1-9.3-.1-22.2-5-29.8zM299.3 40.5c-10.8 1.2-24.9 2-35.1 6.5-11.7 5-19.9 15.3-19.9 30.5 0 19.4 12.2 29 27.9 29 13.2 0 20.5-3.1 30.7-13.6 3.4 4.9 4.5 7.3 10.7 12.4 1.4.7 3.2.7 4.4-.4v.1c3.7-3.3 10.5-9.2 14.3-12.4 1.5-1.3 1.3-3.3.1-5-3.4-4.7-7-8.5-7-17.3v-29c0-12.3.9-23.6-8.2-32.1-7.2-6.9-19-9.3-28.1-9.3-17.7 0-37.5 6.6-41.7 28.5-.4 2.3 1.3 3.6 2.8 3.9l18.1 1.9c1.7-.1 2.9-1.7 3.3-3.4 1.5-7.6 7.9-11.2 15-11.2 3.9 0 8.2 1.4 10.5 4.9 2.6 3.8 2.3 9.1 2.3 13.5l-.1 2.5zm-3.5 38.8c-3 5.2-7.7 8.5-12.9 8.5-7.2 0-11.4-5.5-11.4-13.5 0-15.9 14.2-18.8 27.7-18.8v4c.1 7.3.3 13.3-3.4 19.8zM88.1 87.7c-3.4-4.7-7-8.5-7-17.3v-29c0-12.3.9-23.6-8.2-32.1C65.7 2.4 53.9 0 44.8 0 27.1 0 7.3 6.6 3.1 28.5c-.4 2.3 1.3 3.6 2.8 3.9l18.1 2c1.7-.1 2.9-1.7 3.2-3.4 1.5-7.6 7.9-11.2 15-11.2 3.8 0 8.2 1.4 10.5 4.9 2.6 3.8 2.3 9.1 2.3 13.5v2.4c-10.8 1.2-24.9 2-35.1 6.5C8.2 52 0 62.3 0 77.5c0 19.4 12.2 29 27.9 29 13.3 0 20.5-3.1 30.7-13.6 3.4 4.9 4.5 7.3 10.7 12.4 1.4.7 3.2.7 4.4-.4l.1.1c3.7-3.3 10.5-9.2 14.3-12.4 1.5-1.2 1.2-3.3 0-4.9zm-36.7-8.4c-3 5.2-7.7 8.5-12.9 8.5-7.2 0-11.3-5.5-11.3-13.5 0-15.9 14.2-18.8 27.7-18.8v4c0 7.3.2 13.3-3.5 19.8zM73.7 104.9"/></symbol><symbol id="logos--apple" viewBox="0 0 138 163.4" xmlns="http://www.w3.org/2000/svg"><style>.anst0{fill:#2d333a}</style><path class="anst0" d="M134.4 127.2c-2.4 5.7-5.4 10.9-8.7 15.7-4.6 6.5-8.3 11.1-11.2 13.6-4.5 4.1-9.3 6.2-14.4 6.4-3.7 0-8.1-1.1-13.3-3.2-5.2-2.1-10-3.2-14.3-3.2-4.6 0-9.5 1.1-14.7 3.2-5.3 2.1-9.5 3.2-12.7 3.4-4.9.2-9.8-2-14.7-6.5-3.1-2.7-7-7.4-11.7-14-5-7.1-9.2-15.3-12.4-24.7C2.8 107.8 1.1 98 1.1 88.5c0-10.9 2.3-20.2 7-28.1 3.4-6.4 8.3-11.4 14.5-15s12.8-5.5 19.9-5.6c3.9 0 9 1.2 15.4 3.6 6.4 2.4 10.4 3.6 12.2 3.6 1.3 0 5.9-1.4 13.6-4.2 7.3-2.6 13.4-3.7 18.4-3.3 13.6 1.1 23.9 6.5 30.7 16.2-12.2 7.4-18.2 17.7-18.1 31 .1 10.3 3.9 18.9 11.2 25.8 3.3 3.2 7.1 5.6 11.2 7.4-.8 2.4-1.7 4.9-2.7 7.3zm-31.3-123c0 8.1-3 15.7-8.9 22.7-7.1 8.3-15.7 13.1-25 12.4-.1-1-.2-2-.2-3.1 0-7.8 3.4-16.1 9.4-22.9 3-3.4 6.8-6.3 11.4-8.6 4.6-2.3 9-3.5 13.1-3.7.2 1.1.2 2.1.2 3.2z"/></symbol><symbol id="logos--aws" viewBox="0 0 304 182" xmlns="http://www.w3.org/2000/svg"><style>.aost0{fill:#2d333a}</style><path class="aost0" d="M86.4 66.4c0 3.7.4 6.7 1.1 8.9.8 2.2 1.8 4.6 3.2 7.2.5.8.7 1.6.7 2.3 0 1-.6 2-1.9 3L83.2 92c-.9.6-1.8.9-2.6.9-1 0-2-.5-3-1.4-1.4-1.5-2.6-3.1-3.6-4.7-1-1.7-2-3.6-3.1-5.9-7.8 9.2-17.6 13.8-29.4 13.8-8.4 0-15.1-2.4-20-7.2-4.9-4.8-7.4-11.2-7.4-19.2 0-8.5 3-15.4 9.1-20.6s14.2-7.8 24.5-7.8c3.4 0 6.9.3 10.6.8s7.5 1.3 11.5 2.2v-7.3c0-7.6-1.6-12.9-4.7-16-3.2-3.1-8.6-4.6-16.3-4.6-3.5 0-7.1.4-10.8 1.3s-7.3 2-10.8 3.4c-1.6.7-2.8 1.1-3.5 1.3-.7.2-1.2.3-1.6.3-1.4 0-2.1-1-2.1-3.1v-4.9c0-1.6.2-2.8.7-3.5s1.4-1.4 2.8-2.1c3.5-1.8 7.7-3.3 12.6-4.5C41 1.9 46.2 1.3 51.7 1.3c11.9 0 20.6 2.7 26.2 8.1 5.5 5.4 8.3 13.6 8.3 24.6v32.4h.2zM45.8 81.6c3.3 0 6.7-.6 10.3-1.8 3.6-1.2 6.8-3.4 9.5-6.4 1.6-1.9 2.8-4 3.4-6.4s1-5.3 1-8.7v-4.2c-2.9-.7-6-1.3-9.2-1.7s-6.3-.6-9.4-.6c-6.7 0-11.6 1.3-14.9 4-3.3 2.7-4.9 6.5-4.9 11.5 0 4.7 1.2 8.2 3.7 10.6 2.4 2.5 5.9 3.7 10.5 3.7zm80.3 10.8c-1.8 0-3-.3-3.8-1-.8-.6-1.5-2-2.1-3.9L96.7 10.2c-.6-2-.9-3.3-.9-4 0-1.6.8-2.5 2.4-2.5h9.8c1.9 0 3.2.3 3.9 1 .8.6 1.4 2 2 3.9l16.8 66.2 15.6-66.2c.5-2 1.1-3.3 1.9-3.9.8-.6 2.2-1 4-1h8c1.9 0 3.2.3 4 1 .8.6 1.5 2 1.9 3.9l15.8 67 17.3-67c.6-2 1.3-3.3 2-3.9.8-.6 2.1-1 3.9-1h9.3c1.6 0 2.5.8 2.5 2.5 0 .5-.1 1-.2 1.6-.1.6-.3 1.4-.7 2.5l-24.1 77.3c-.6 2-1.3 3.3-2.1 3.9s-2.1 1-3.8 1h-8.6c-1.9 0-3.2-.3-4-1s-1.5-2-1.9-4L156 23l-15.4 64.4c-.5 2-1.1 3.3-1.9 4-.8.7-2.2 1-4 1h-8.6zm128.5 2.7c-5.2 0-10.4-.6-15.4-1.8-5-1.2-8.9-2.5-11.5-4-1.6-.9-2.7-1.9-3.1-2.8-.4-.9-.6-1.9-.6-2.8v-5.1c0-2.1.8-3.1 2.3-3.1.6 0 1.2.1 1.8.3.6.2 1.5.6 2.5 1 3.4 1.5 7.1 2.7 11 3.5 4 .8 7.9 1.2 11.9 1.2 6.3 0 11.2-1.1 14.6-3.3 3.4-2.2 5.2-5.4 5.2-9.5 0-2.8-.9-5.1-2.7-7-1.8-1.9-5.2-3.6-10.1-5.2L246 52c-7.3-2.3-12.7-5.7-16-10.2-3.3-4.4-5-9.3-5-14.5 0-4.2.9-7.9 2.7-11.1s4.2-6 7.2-8.2c3-2.3 6.4-4 10.4-5.2s8.2-1.7 12.6-1.7c2.2 0 4.5.1 6.7.4 2.3.3 4.4.7 6.5 1.1 2 .5 3.9 1 5.7 1.6 1.8.6 3.2 1.2 4.2 1.8 1.4.8 2.4 1.6 3 2.5.6.8.9 1.9.9 3.3v4.7c0 2.1-.8 3.2-2.3 3.2-.8 0-2.1-.4-3.8-1.2-5.7-2.6-12.1-3.9-19.2-3.9-5.7 0-10.2.9-13.3 2.8s-4.7 4.8-4.7 8.9c0 2.8 1 5.2 3 7.1 2 1.9 5.7 3.8 11 5.5l14.2 4.5c7.2 2.3 12.4 5.5 15.5 9.6s4.6 8.8 4.6 14c0 4.3-.9 8.2-2.6 11.6-1.8 3.4-4.2 6.4-7.3 8.8-3.1 2.5-6.8 4.3-11.1 5.6-4.5 1.4-9.2 2.1-14.3 2.1zM273.5 143.7c-32.9 24.3-80.7 37.2-121.8 37.2-57.6 0-109.5-21.3-148.7-56.7-3.1-2.8-.3-6.6 3.4-4.4 42.4 24.6 94.7 39.5 148.8 39.5 36.5 0 76.6-7.6 113.5-23.2 5.5-2.5 10.2 3.6 4.8 7.6z"/><path class="aost0" d="M287.2 128.1c-4.2-5.4-27.8-2.6-38.5-1.3-3.2.4-3.7-2.4-.8-4.5 18.8-13.2 49.7-9.4 53.3-5 3.6 4.5-1 35.4-18.6 50.2-2.7 2.3-5.3 1.1-4.1-1.9 4-9.9 12.9-32.2 8.7-37.5z"/></symbol><symbol id="logos--bitbucket" viewBox="0 0 443.4 63.3" xmlns="http://www.w3.org/2000/svg"><style>.apst0{fill:#69747c}.apst1{fill:none}.apst2{fill:url(#apSVGID_1_)}.apst3{fill:url(#apSVGID_2_)}.apst4{fill:url(#apSVGID_3_)}</style><title>Bitbucket-blue</title><path class="apst0" d="M116.9 4.6c11.8 0 17.5 5.8 17.5 15.1 0 7-3.2 11.3-9.7 12.8 8.5 1.4 12.8 6.1 12.8 14.2 0 9.2-6.2 15.6-19.2 15.6H94.4V4.6h22.5zm-14.5 7.5v17.2h13.5c7.5 0 10.6-3.4 10.6-9s-3.3-8.3-10.6-8.3l-13.5.1zm0 24.3v18h16.2c7.6 0 11-2.7 11-8.5 0-6.2-3.3-9.5-11.2-9.5h-16zM150.4 1.5c2.7-.2 5.1 1.9 5.3 4.6v.7c0 2.9-2.4 5.3-5.3 5.3s-5.3-2.4-5.3-5.3c-.2-2.7 1.9-5.1 4.6-5.3h.7zm-3.9 16.9h7.6v44h-7.6v-44zM183 55c1.6 0 3.2-.3 4.8-.6v7.3c-1.7.5-3.4.7-5.1.7-9.4 0-14-5.5-14-13.7V25.4h-7.1v-7h7.1V9.1h7.4v9.3h11.7v7H176v23.1c0 3.9 2.3 6.5 7 6.5zM218.9 63.3c-6.4 0-11.4-2.9-14-8.6v7.7h-7.6V0h7.6v26.3c2.8-5.8 8.1-8.8 14.9-8.8 11.7 0 17.6 9.9 17.6 22.9 0 12.4-6.1 22.9-18.5 22.9zm-1.1-38.8c-6.8 0-12.8 4.3-12.8 14.1v3.5c0 9.8 5.5 14.1 12 14.1 8.5 0 12.9-5.6 12.9-15.8 0-10.6-4.3-15.9-12.1-15.9zM245.4 18.4h7.6V45c0 7.9 3.2 11.4 10.4 11.4 7 0 11.9-4.7 11.9-13.5V18.4h7.6v44h-7.6v-7.2c-2.7 5.1-8.1 8.2-13.9 8.1-10.1 0-15.9-7-15.9-19.1l-.1-25.8zM325.2 61.2c-2.6 1.4-6.7 2-10.7 2-15.7 0-23-9.5-23-23 0-13.3 7.3-22.8 23-22.8 3.6-.1 7.2.6 10.5 2.2v7c-3.1-1.5-6.6-2.2-10-2.1-11.4 0-16.1 7.2-16.1 15.8S303.6 56 315.2 56c3.4.1 6.8-.4 10-1.6v6.8zM333.9 62.4V0h7.6v39l18.9-20.6h9.9L349.5 40l21.6 22.4h-10.3l-19.4-20.6v20.6h-7.5zM396.2 63.3c-16.5 0-23.7-9.5-23.7-23 0-13.3 7.4-22.8 20.8-22.8 13.5 0 19 9.4 19 22.8v3.4h-32.1c1.1 7.5 5.9 12.3 16.3 12.3 4.6 0 9.1-.8 13.4-2.4v7c-3.7 2-9.2 2.7-13.7 2.7zm-16.1-26h24.5c-.4-8.2-4.1-12.9-11.7-12.9-8 0-12 5.2-12.8 12.9zM438.7 55c1.6 0 3.2-.3 4.8-.6v7.3c-1.7.5-3.4.7-5.1.7-9.4 0-14-5.5-14-13.7V25.4h-7.1v-7h7.1V9.1h7.4v9.3h11.7v7h-11.7v23.1c-.1 3.9 2.2 6.5 6.9 6.5z"/><path class="apst1" d="M24.7 43.5h13.1l3.1-18.4H21.2z"/><path class="apst1" d="M40.9 25.1H21.2l3.6 18.4h13z"/><path class="apst0" d="M60.7 6.3H2c-1.1 0-2 .9-2 2v.3l8.5 51.5c.2 1.1 1.1 2 2.2 2.2-.5-.1-.9-.3-1.3-.6l15.3-18.2-3.5-18.4h38.5l-2.5 15.1 5.2-31.6c.1-1.1-.6-2.1-1.7-2.3z"/><linearGradient id="apSVGID_1_" gradientUnits="userSpaceOnUse" x1="59.508" y1="1158.502" x2="28.488" y2="1182.712" gradientTransform="translate(0 -1134)"><stop offset=".18"/><stop offset="1" stop-opacity=".8"/></linearGradient><path class="apst2" d="M11.2 62.4h-.5.5z"/><linearGradient id="apSVGID_2_" gradientUnits="userSpaceOnUse" x1="70.767" y1="1172.928" x2="39.747" y2="1197.138" gradientTransform="translate(0 -1134)"><stop offset=".18"/><stop offset="1" stop-opacity=".8"/></linearGradient><path class="apst3" d="M51.9 62.4c1 0 1.9-.7 2-1.7l3.3-20.5-3.3 20.5c-.2 1-1 1.7-2 1.7z"/><linearGradient id="apSVGID_3_" gradientUnits="userSpaceOnUse" x1="63.965" y1="1164.212" x2="32.945" y2="1188.422" gradientTransform="translate(0 -1134)"><stop offset=".18" stop-color="#525b61"/><stop offset="1" stop-color="#69747c"/></linearGradient><path class="apst4" d="M40.9 25.1l-3.2 18.4h-13L9.4 61.7c.4.3.8.5 1.3.6h41.2c1 0 1.8-.7 2-1.7l3.3-20.5L59.7 25H40.9v.1z"/></symbol><symbol id="logos--fastly" viewBox="0 0 2500 972" xmlns="http://www.w3.org/2000/svg"><style>.aqst0{fill:#2d333a}</style><path class="aqst0" d="M1701.4 99.5v652.3h195.9v-99.7h-64.7V.2h-131.2v99.3zM0 652.1h66.6V337.4H0v-86.5l66.6-11v-87.6C66.6 46.2 89.7.2 225 .2c29.2 0 63.9 4.3 94.2 9.8l-18 106.7c-20.5-3.3-30.7-3.8-43.7-3.8-47.7 0-59.7 4.8-59.7 51.3V240h99v97.5h-99v314.7h65.9v99.6H0v-99.7zm1634.6-31.5c-20.5 4.3-38.5 3.8-51.5 4.1-54 1.3-49.3-16.4-49.3-67.3v-220h102.7v-97.5h-102.7V.2h-131.2v584.5c0 114.8 28.3 167.1 151.8 167.1 29.2 0 69.4-7.5 99.7-14l-19.5-117.2zm-395.7-283.3v-17.5c-39.7-7.2-79.1-7.3-100.5-7.3-61.1 0-68.5 32.4-68.5 49.9 0 24.8 8.5 38.3 74.6 52.7 96.7 21.7 193.8 44.4 193.8 164.2 0 113.7-58.5 172.4-181.7 172.4-82.4 0-162.4-17.7-223.4-33.2v-98h99.4l-.1 17.4c42.8 8.3 87.6 7.4 111 7.4 65.1 0 75.7-35 75.7-53.6 0-25.8-18.7-38.2-79.7-50.6-115-19.6-206.3-58.9-206.3-175.8 0-110.6 74-154 197.1-154 83.4 0 146.9 12.9 207.9 28.4V337l-99.3.3zm-664.7 283v-15.4h-15.7v15.4c-70.4-4.1-126.7-60.7-130.4-131.2h15.6v-15.7h-15.5c4.2-70 60.3-126.1 130.3-130.2v15.5h15.7v-15.5c69.1 3.7 124.7 57.9 130.7 126.3v4.5h-15.7v15.7H705v4.3c-6 68.4-61.7 122.7-130.8 126.3zm262 .3l-.1-408.3H704.9v38.3c-27.5-16.5-57.7-27.9-89.2-33.8h.7v-45.3h16v-33.3H500.3v33.3h16v45.3h.9c-125.5 23.1-220.6 133-220.6 265.2 0 149 120.7 269.7 269.7 269.7 49 .1 97-13.3 139-38.5l23.6 38.6h138.6V620.6h-31.3zm1393.2-380.7H2500v97.4h-64.7l-166 408.3c-47.6 114.7-125.7 222.6-244.7 222.6-29.3 0-68.2-3.2-95.2-9.7l11.9-119.1c17.3 3.2 40 5.4 51.9 5.4 55.2 0 117.4-34.2 136.9-93.7L1962 337.3h-64.7v-97.4h270.8v97.4h-64.7l95.3 234.4 95.3-234.4h-64.5l-.1-97.4zM635.2 423.4l-10-10-50.7 44.2c-2.6-.9-5.4-1.4-8.2-1.4-13.7 0-24.8 11.4-24.8 25.4 0 14.1 11.1 25.5 24.8 25.5s24.8-11.4 24.8-25.5c0-2.7-.4-5.2-1.1-7.7l45.2-50.5"/></symbol><symbol id="logos--ftp" viewBox="0 0 102 40" xmlns="http://www.w3.org/2000/svg"><style>.arst0{fill:#2d333a}</style><title>FTP</title><g id="arPage-1"><path id="arFTP" class="arst0" d="M.9.4h26.6v8.1H9.6v8.1h16.5v8.1H9.6V40H.9V.4zm44.2 7.7H33.8V.4h31.4v7.7H53.8V40h-8.7V8.1zM71.3.4H86c2.1 0 4 .2 5.8.6s3.4 1 4.8 1.9c1.4.9 2.5 2.1 3.3 3.6.8 1.5 1.2 3.5 1.2 5.9 0 2.3-.4 4.3-1.1 5.8-.7 1.6-1.8 2.8-3.1 3.8s-2.9 1.6-4.6 2-3.7.6-5.8.6H80V40h-8.7V.4zM80 17.2h5.8c.8 0 1.5-.1 2.3-.2s1.4-.4 2-.8c.6-.4 1-.8 1.4-1.5s.5-1.4.5-2.3c0-1-.2-1.8-.7-2.4-.5-.6-1.1-1.1-1.8-1.4S88 8 87.1 7.9c-.9-.1-1.8-.1-2.6-.1H80v9.4z"/></g></symbol><symbol id="logos--github" viewBox="0 0 34.8 33" xmlns="http://www.w3.org/2000/svg"><style>.asst0{fill:#69747c}</style><path class="asst0" d="M17.4.6C8.4.6 1.1 7.9 1.1 16.9c0 7.2 4.7 13.3 11.1 15.5.8.1 1.1-.4 1.1-.8v-2.8c-4.5 1-5.5-2.2-5.5-2.2-.7-1.8-1.8-2.3-1.8-2.3-1.5-1 .1-1 .1-1 1.6.1 2.5 1.7 2.5 1.7 1.5 2.5 3.8 1.8 4.7 1.4.1-1.1.6-1.8 1-2.2-3.5-.5-7.3-1.9-7.3-8.1 0-1.8.6-3.2 1.7-4.4-.2-.4-.7-2.1.2-4.3 0 0 1.4-.4 4.5 1.7 1.3-.4 2.7-.5 4.1-.5s2.8.2 4.1.5c3.1-2.1 4.5-1.7 4.5-1.7.9 2.2.3 3.9.2 4.3 1 1.1 1.7 2.6 1.7 4.4 0 6.3-3.8 7.6-7.4 8 .6.5 1.1 1.5 1.1 3v4.5c0 .4.3.9 1.1.8 6.5-2.2 11.1-8.3 11.1-15.5C33.7 7.9 26.4.6 17.4.6z"/></symbol><symbol id="logos--github-pages" viewBox="0 0 168.7 31.6" xmlns="http://www.w3.org/2000/svg"><style>.atst0{fill:#2d333a}</style><path class="atst0" d="M99 23.7h-2.1V.7h7c5.7 0 7.7 3.3 7.7 6.9s-2 6.9-7.7 6.9H99v9.2zm0-11.1h5.2c4.3 0 5.1-2.8 5.1-5s-.8-5-5.1-5H99v10zm20.2-2.6c-2.1 0-3.4.4-4.6.8V9c1.3-.6 3.1-.8 4.6-.8 4.6 0 5.8 2.1 5.8 5.1v10.5h-1.2l-.5-1.2c-1.4 1-3.1 1.5-4.6 1.5-4 0-5.4-2.4-5.4-4.9 0-2.6 1.4-4.5 5.4-4.8l4-.2v-.9c.1-2.3-.7-3.3-3.5-3.3zm-.6 6c-2.2.2-3.1 1.3-3.1 3.1 0 1.4.3 3 3.2 3 1.7 0 2.8-.5 4.1-1.2v-5.3l-4.2.4zm13.1 3.4c-.3.3-.6.8-.6 1.1 0 .8.4 1.1 1.2 1.2l5.2.6c2.9.3 4.2 1.4 4.2 4.1 0 3.7-3.7 5.2-8 5.2s-6.9-1.3-6.9-4.6c0-2.1 1.4-3.5 3.2-4-.6-.4-1-1-1-2 0-.9.5-1.6 1.2-2.1-1.8-1-2.4-2.9-2.4-5 0-3.2 1.3-5.8 6-5.8.9 0 1.7.1 2.4.3h5.2v1.2l-2.6.7c.6 1 .9 2.2.9 3.6 0 3.2-1.3 5.8-6 5.8-.7-.1-1.4-.1-2-.3zm.9 4.2c-2 .5-3.7 1.4-3.7 3.4 0 2.3 1.7 2.9 4.9 2.9 3.1 0 5.9-.8 5.9-3.4 0-1.6-.7-2.2-2.6-2.4l-4.5-.5zm5.1-9.7c0-2-.4-3.9-4-3.9s-4 1.9-4 3.9.4 3.9 4 3.9 4-1.9 4-3.9zm11.5-5.8c5.2 0 5.8 3.6 5.8 8v1h-10.1c.1 2.7.8 5.1 4.3 5.1 2.2 0 3.6-.2 5.1-.9v1.8c-1.7.8-3.6.9-5.1.9-5.2 0-6.4-3.5-6.4-8s1.2-7.9 6.4-7.9zm-4.3 7.2h8c0-2.7-.2-5.3-3.7-5.3s-4.2 2.6-4.3 5.3zm18.3-.4c4.3.4 5.4 1.9 5.4 4.4 0 2.4-1.5 4.7-6.2 4.7-1.5 0-3.6-.4-4.6-.8v-1.8c.9.3 2.4.7 4.6.7 3.2 0 4-1.3 4-2.8 0-1.4-.4-2.4-3.5-2.6-4.4-.4-5.4-2-5.4-4.1 0-2.2 1.4-4.5 5.7-4.5 1.4 0 3.1.2 4.4.8v1.8c-1.2-.4-2.4-.7-4.4-.7-3 0-3.7 1.1-3.7 2.6.2 1.4.8 2.1 3.7 2.3zm-146-4.6H9.7c-.2 0-.4.2-.4.4v3.7c0 .2.2.4.4.4h2.9v4.6s-.7.2-2.5.2C8 19.5 5 18.7 5 12.1s3.1-7.4 6-7.4c2.5 0 3.6.4 4.3.7.2.1.4-.2.4-.3l.8-3.5c0-.1 0-.2-.1-.3C16.2 1 14.5 0 10.1 0 5.1 0 0 2.1 0 12.4c0 10.2 5.9 11.8 10.8 11.8 4.1 0 6.6-1.8 6.6-1.8.1-.1.1-.2.1-.3V10.7c0-.2-.1-.4-.3-.4zm38.9-9.1c0-.2-.2-.4-.3-.4h-4.2c-.2 0-.3.2-.3.4v8.2h-6.6V1.2c0-.2-.2-.4-.3-.4h-4.2c-.2 0-.3.2-.3.4v22.1c0 .2.2.4.3.4h4.2c.2 0 .3-.2.3-.4v-9.5h6.6v9.5c0 .2.2.4.3.4h4.2c.2 0 .3-.2.3-.4V1.2zM25.3 4.1c0-1.5-1.2-2.7-2.7-2.7s-2.7 1.2-2.7 2.7 1.2 2.8 2.7 2.8c1.5 0 2.7-1.3 2.7-2.8zM25 18.7V8.5c0-.2-.2-.4-.3-.4h-4.2c-.2 0-.4.2-.4.4v14.6c0 .4.3.6.6.6h3.8c.4 0 .5-.2.5-.6v-4.4zM72.5 8.1h-4.2c-.2 0-.3.2-.3.4v10.8s-1.1.8-2.6.8-1.9-.7-1.9-2.2V8.5c0-.2-.2-.4-.3-.4h-4.3c-.2 0-.3.2-.3.4v10.2c0 4.4 2.4 5.5 5.8 5.5 2.8 0 5-1.5 5-1.5s.1.8.2.9c0 .1.2.2.3.2h2.7c.2 0 .3-.2.3-.4V8.6c0-.3-.2-.5-.4-.5zm11.7-.5c-2.4 0-4 1.1-4 1.1V1.2c0-.2-.2-.4-.3-.4h-4.2c-.2 0-.3.2-.3.4v22.1c0 .2.2.4.3.4h2.9c.1 0 .2-.1.3-.2.1-.1.2-1 .2-1s1.7 1.6 5 1.6c3.8 0 6.1-2 6.1-8.8-.1-6.8-3.6-7.7-6-7.7zm-1.7 12.5c-1.5 0-2.4-.7-2.4-.7v-7s1-.6 2.2-.7c1.5-.1 3 .3 3 3.9-.1 3.8-.7 4.6-2.8 4.5zm-45.4-12h-3.2V3.9c0-.2-.1-.2-.3-.2h-4.3c-.2 0-.3.1-.3.2v4.3s-2.2.5-2.3.6c-.1 0-.3.2-.3.3v2.7c0 .2.2.4.3.4H29v6.5c0 4.9 3.4 5.3 5.7 5.3 1 0 2.3-.3 2.5-.4.1 0 .2-.2.2-.3v-3c0-.2-.2-.4-.3-.4-.2 0-.7.1-1.1.1-1.6 0-2.1-.7-2.1-1.7v-6.2h3.2c.2 0 .3-.2.3-.4V8.5c0-.2-.2-.4-.3-.4z"/></symbol><symbol id="logos--gitlab" viewBox="0 0 494 455" xmlns="http://www.w3.org/2000/svg"><style>.aust0{fill:#7a858c}.aust1{fill:#525b61}.aust2{opacity:.8}.aust3{opacity:.6}</style><path class="aust0" d="M2.6 261.2c-2.5 7.7.2 16.2 6.8 21l238.5 173.3L30.1 176.4 2.6 261.2z"/><path class="aust0" d="M493.3 261.2l-27.6-84.8-217.8 279.1 217.8-279.1L411 8.3c-2.9-8.6-15.1-8.6-17.9 0l-54.6 168.1H157.2L102.6 8.3c-2.8-8.6-15-8.6-17.9 0L30.1 176.4l217.7 279v.1l238.6-173.3c6.7-4.8 9.4-13.3 6.9-21z"/><g id="augitlab_logo" transform="translate(-359 -360)"><g id="aug10" transform="matrix(1 0 0 -1 0 1174.333)"><g id="aug16"><g id="aug18-Clipped"><g transform="translate(358.667 358.667)" id="aug18"><g id="aug48" transform="translate(155.198 1.16)"><path id="aupath50" class="aust1" d="M92 0l90.7 279.1H1.3L92 0z"/></g><g id="aug56" transform="translate(28.531 1.16)" class="aust2"><path id="aupath58" class="aust1" d="M218.7 0L128 279.1H.9L218.7 0z"/></g><g id="aug64" transform="translate(.089 .256)" class="aust3"><path id="aupath66" class="aust1" d="M29.3 280L1.8 195.2c-2.5-7.7.2-16.2 6.8-21L247.1.9 29.3 280z"/></g><g id="aug72" transform="translate(29.422 280.256)"><path id="aupath74" class="aust1" d="M0 0h127.1L72.5 168.1c-2.8 8.6-15 8.6-17.9 0L0 0z"/></g><g id="aug76" transform="translate(247.198 1.16)" class="aust2"><path id="aupath78" class="aust1" d="M0 0l90.7 279.1h127.1L0 0z"/></g><g id="aug80" transform="translate(246.307 .256)" class="aust3"><path id="aupath82" class="aust1" d="M218.7 280l27.6-84.8c2.5-7.7-.2-16.2-6.8-21L.9.9 218.7 280z"/></g><g id="aug84" transform="translate(336.974 280.256)"><path id="aupath86" class="aust1" d="M128 0H.9l54.6 168.1c2.8 8.6 15 8.6 17.9 0L128 0z"/></g></g></g></g></g></g></symbol><symbol id="logos--hugo" viewBox="0 0 1500 410" xmlns="http://www.w3.org/2000/svg"><style>.avst0{fill:#69747c}</style><path class="avst0" d="M348.4 137.4V132.2l-.1-.4v-.1l-.1-.4v-.1l-.1-.4v-.1l-.1-.4-.1-.4-.1-.4v-.1l-.1-.4-.1-.4-.1-.4-.1-.4v-.1l-.1-.4-.1-.4-.1-.4v-.1l-.1-.4v-.1l-.1-.4-.1-.4-.1-.4v-.1l-.1-.4v-.1l-.1-.4-.1-.4-.1-.4-.1-.4-.1-.4-.1-.4-.1-.4-.1-.4-.1-.4-.1-.4-.1-.4-.1-.4-.1-.4-.2-.4-.2-.4v-.1l-.2-.4v-.1l-.2-.4-.2-.4-.2-.4-.2-.4-.2-.4-.2-.4-.2-.4-.2-.4-.2-.4-.2-.4v-.1l-.2-.4-.2-.4v-.1l-.2-.4-.2-.4-.2-.3-.2-.4-.2-.3v-.1l-.2-.3-.2-.4-.2-.3-.2-.3-.2-.3-.2-.3-2.1-2.7-.2-.3-.2-.3v-.1l-.2-.3-.2-.3v-.1l-.2-.3-.2-.3-.2-.3-.3-.3-.3-.3-.3-.3-.3-.3-.3-.3-.3-.3-.3-.3-.3-.3-.3-.3-.3-.3-.3-.3-.3-.3-.3-.3-.3-.3-.3-.3-.3-.3-.3-.3-.3-.3-.3-.3-.3-.3-.3-.3-.3-.3-.3-.3-.3-.3-.3-.3-.3-.3-.3-.3-.3-.3-.3-.3-.2-.1-.2-.1-.2-.1-.2-.1-.2-.1-.2-.1-.2-.1-.2-.1-.2-.1-.2-.1-.2-.1-.2-.1-.2-.1-.2-.1-.2-.1-.2-.1-.2-.1-.2-.1-.2-.1-.2-.1-.2-.1-.2-.1-.2-.1-.2-.1-.2-.1-.2-.1-.2-.1-.2-.1-.2-.1-.2-.1-.2-.1-.2-.1-.2-.1-.2-.1-114.7-69-.2-.1-.2-.1-.2-.1-.2-.1-.2-.1-.2-.1-.2-.1-.2-.1-.2-.1-.2-.1-.2-.1-.2-.1-.2-.1-.2-.1-.2-.1-.2-.1-.2-.1-.2-.1-.2-.1-.2-.1-.2-.1-.2-.1-.2-.1-.2-.1-.2-.1-.2-.1-.2-.1-.2-.1-.2-.1-.2-.1-.2-.1-.2-.1-.2-.1-.2-.1-.2-.1-.2-.1-2.2-1-.2-.1-.2-.1-.2-.1-.2-.1-.2-.1-.2-.1-.2-.1-.2-.1-.2-.1-.2-.1-.2-.1-.2-.1-.2-.1-.2-.1-.2-.1-.2-.1-.2-.1-.2-.1-.2-.1-.2-.1-.2-.1-.2-.1-.2-.1-.2-.1-.2-.1-.2-.1-.2-.1-.2-.1-.2-.1-.2-.1-.2-.1-.2-.1-.2-.1h-.4l-.2-.1-.2-.1-.2-.1h-.2l-.2-.1H178.9l-.1.1H162.4l-.2.1-.2.1h-.2l-.2.1-.2.1-.2.1-.2.1-.2.1-.2.1-.2.1-.2.1-.2.1-.2.1-.2.1-.2.1-.2.1-.2.1-.2.1-.2.1-.2.1-.2.1-.2.1-.2.1-.2.1-.2.1-.2.1-.2.1-.2.1-.2.1-.2.1-.2.1-.2.1-.2.1-.2.1-.2.1-.2.1-.2.1-.2.1-.2.1-.2.1-.2.1-.2.1-.2.1-.2.1-.2.1-.2.1-.2.1-.2.1-.2.1-.2.1-.2.1-7.2.6-.2.1-.2.1-.2.1-.2.1-.2.1-.2.1-.2.1-.6.3-.2.1-.2.1-.2.1-.2.1-.2.1-.2.1-.2.1-.6.3-.2.1-.2.1-.2.1-.2.1-.2.1-.2.1-.2.1-.2.1-.2.1-.2.1-.2.1-100.5 62-.2.1-.2.1-.9.8-.2.1-.2.1-.2.1-.4.3-.2.2-.2.1-.2.1-.2.1-.2.2-.2.2-.2.1-.4.3-.2.1-.2.2-.2.2-.2.1-.4.2-.3.2-.2.1-.2.2-.2.2-.2.2-.2.2-.3.1-.2.2-.2.2-.2.2-.2.2-.2.2-.4.1-.2.2-.2.2-.2.2-.2.2-.3.1-.2.2-.2.2-.2.2-.2.2-.2.2-.2.2-.2.2-.2.2-.3.1-.2.2-.2.1-.2.2-.2.2-.2.2-.2.2-.2.2-.2.2-.2.2-.2.2-.2.2-.2.2-.2.2-.2.2-.2.2-.2.2-.2.2-.2.2-.2.2-.2.3-.2.2-.2.2-.2.2-.2.2-.2.2-.2.2-.2.2-.2.2-.2.2-.2.2-.2.2-.2.2-.2.2-.2.2-.2.2-.2.2-.2.2-.2.2-.2.2-.2.2-.2.2-.2.2-.2.2-.2.2-.1.2-.2.2-.2.2-.1.2-.1.2-.2.2-.1.2-.1.2-.2.2-.1.2-.2.2-.2.2-.1.2-.1.2-.1.2-.1.2-.1.2-.1.2-.1.2-.1.2-.1.2-.1.2-.1.2-.1.2-.1.2-.1.2-.1.2-.1.2-.1.2-.1.2-.1.2-.1.2-.1.2-.1.2-.1.2-.1.2-.1.2-.1.2-.1.2-.1.2-.1.2-.1.2-.1.2-.1.2-.1.2-.1.2-.1.2-.1.2-.1.2-.1.2-.1.2-.1.2-.1.2-.1.2-.1.2-.1.2-.1.2-.1.2-.1.2-.1.2-.1.2-.1.2-1.8 3.1-.1.2-.1.2-.1.2-.1.2-.1.2-.1.6-.1.2-.1.2-.1.2-.1.2-.1.2-.1.2-.1.2-.1.2-.2.8v.2l-.1.2-.1.2-.1.4-.1.2-.1.2-.1.2-.1.2-.1.2-.1.2-.1.2v.8l-.1.2-.1.2-.1.2-.1.2-.1.2-.1.2v.6l-.1.2-.1.2-.1.2-.1.2V128.7l-.1.3-.1.2-.1.2-.1.2-.1.2-.1.2-.1.2-.1.2-.1.2-.1.2v1.5l-.1.2v.2l-.1.3V281.9l.1.3.1.2.1.2V283.7l.1.2v.2l.1.2.1.2.1.2.1.2.1.2.1.2.1.2.1.2.1.2.1.2.1.2.1.2.1.2.1.2.1.2.1.2.1.2.1.2.1.2.1.2L7 292l.1.2.1.2.1.2.1.2.1.2.1.2.1.2.1.2.1.2.1.2.1.2.1.2.1.2.1.2.1.2.1.2.1.2.1.2.1.2.1.2.1.2.1.2.1.2.1.2.1.2.1.2.1.2.1.2.1.2.1.2.1.2.1.2.1.2.1.2.1.2.1.2.1.2.1.2.1.2.1.2.1.2.1.2.1.2.1.2.1.2.1.2.1.2.1.2.1.2.1.2.1.2.1.2.1.2.1.2.1.2.1.2.1.2.1.2.1.2.1.2.1.2.1.2.1.2.1.2.1.2.1.2.1.2.1.2.1.2.1.2.1.2.1.2.1.2.1.2.1.2.1.2.1.2.2.2.2.2.1.2.2.2.1.2.2.2.2.2.1.2.2.2.2.2.1.2.2.2.2.2.2.2.2.2.2.2.2.2.2.2.2.2.2.2.2.2.2.2.2.2.2.2.2.2.2.2.2.2.2.2.2.2.2.2.2.2.2.2.2.2.2.2.2.2L23 319l.2.2.2.2.2.2.2.2.2.2.2.2.2.2.2.2.2.2.2.2.2.2.2.2.2.2.2.2.2.2.2.2.2.2.2.2.2.2.2.2.2.2.2.2.2.2.2.2.2.2.2.2.2.2.2.2.2.2.2.2.2.2.2.2.2.2.2.2.2.2.2.2.2.2.2.2.2.2.2.2.2.2.8-.2.2.2.2.1.2.1.2.1.2.2.2.2.2.2.2.2.2.2.2.2.2.2.2.1.2.1.2.1.2.1.2.1.2.1h-.1l.2.1.2.1.2.1.2.1.2.1.2.1.2.1.2.1.2.1.2.1 104.8 61.2.2.1.2.1.2.1.2.1.2.1.2.1.2.1.2.1.2.1.2.1.2.1.2.1.2.1.2.1.2.1.2.1.2.1.2.1.2.1.2.1.2.1.2.1.2.1.2.1.2.1.2.1.2.1.2.1.2.1.2.1.2.1.2.1.2.1.2.1.2.1.2.1.2.1.2.1.2.1.2.1.2.1.2.1.2.1.2.1.2.1.2.1.2.1.2.1.2.1.2.1.2.1.2.1.4.1h.1l.4.1.4.1.4.1h.1l.4.1.4.1.4.1.4.1h.1l.4.1.4.1h.1l.4.1.4.1h.1l.4.1.4.1h.1l.4.1.4.1h.1l.4.1h.1l.4.1.4.1.4.1.4.1.4.1.4.1H176.6l.4-.1.4-.1.4-.1.4-.1.4-.1.4-.1.4-.1.4-.1.4-.1.4-.1h.1l.4-.1.4-.1.4-.1h.1l.4-.1.4-.1h.1l.4-.1.4-.1.4-.1.4-.1h.1l.4-.1.4-.1.2-.1.2-.1.2-.1.2-.1.2-.1.2-.1.2-.1.2-.1.2-.1.2-.1.2-.1.2-.1.2-.1.2-.1.2-.1.2-.1.2-.1.2-.1.2-.1.2-.1.2-.1.2-.1.2-.1.2-.1.2-.1.2-.1.2-.1.2-.1.2-.1.2-.1.2-.1.2-.1.2-.1.2-.1.2-.1.2-.1.2-.1.2-.1.2-.1.2-.1.2-.1.2-.1.2-.1.2-.1.2-.1.2-.1.2-.1.2-.1.2-.1.2-.1.2-.1.2-.1 115.9-64.6.2-.1.2-.1.2-.1.2-.1.2-.1.2-.1.2-.1.2-.1.2-.1.2-.1.2-.1.2-.1.2-.1.2-.1.2-.1.2-.1.2-.1.2-.1.2-.1.2-.1.2-.1.2-.1.2-.1.2-.1.2-.1.2-.1.2-.1.2-.1.2-.1.2-.1.2-.1.2-.1.2-.1.2-.1.2-.1.2-.1.2-.1.2-.1.2-.1.2-.1.2-.1.2-.1.2-.1.2-.1.2-.1.2-.1.2-.2.2-.2.2-.2.2-.1.2-.1.2-.2.2-.1.2-.1.2-.1.2-.2.2-.2.2-.2.2-.2.2-.2.2-.2.2-.2.2-.2.2-.2.2-.2.2-.2.1-.2.1-.2.2-.2.1-.2.1-.2.1-.2.1-.2.1-.2.1-.2.1-.2.1-.2.1-.2.2-.2.1-.2.1-.2.1-.2.1-.2.1-.2.1-.2.1-.2.2-.2.1-.2.1-.2.1-.2.1-.2.1-.2.1-.2.1-.2.1-.2.1-.2.1-.2.1-.2.1-.2.1-.2.1-.2.1-.2.1-.2.1-.2.1-.2.1-.2.1-.2.1-.2.1-.2.1-.2.1-.2.1-.2.1-.2.1-.2.1-.2.1-.2.1-.2.1-.2.1-.2.1-.2.1-.2.1-.2.1-.2.1-.2.1-.2.1-.2.1-.2.1-.2.1-.2.1-.2.1-.2.1-.2.1-.2.1-.2.1-.2.1-.2.1-.2.1-.2.1-.2.1-.2.1-.2.1-.2.1-.2.1-.2.1-.2.1-.2.1-.2.1-.2.1-.2.1-.2.1-.2.1-.2.1-.2.1-.2.1-.2.1-.2.1-.2.1-.2.1-.2.1-.2.1-.2.1-.2.1-.2.1-.2.1-.2.1-.2.1-.2.1-.2.1-.2.1-.2.1-.2.1-.2.1-.2.1-.2.1-.2.1-.2.1-.2.1-.2.1-.2.1-.2.1-.2.1-.2.1-.2.1-.2.1-.2.1-.2.1-.2.1-.2.1-.2.1-.2.1-.2.1-.2.1-.2.1-.2.1-.2v-.2l.1-.2V137.6l10.2-.2zm-92.7 172.5h-43.5v-90.6h-71.9v90.6H96.9V102.7h43.4v75.5h71.9v-75.5h43.5v207.2zM729.2 134.5V129.1l-.1-.4-.1-.4v-.1l-.1-.4v-.1l-.1-.4-.1-.4v-.1l-.1-.4v-.1l-.1-.4v-.1l-.1-.4-.1-.4-.1-.4-.1-.4-.1-.4v-.1l-.1-.4-.1-.4-.1-.4-.1-.4-.1-.4-.1-.4-.1-.4v-.1l-.1-.4v-.1l-.1-.4v-.1l-.1-.4v-.1l-.1-.4v-.1l-.1-.4v-.1l-.1-.4v-.1l-.1-.4v-.1l-.1-.4v-.1l-.1-.4-.1-.4-.2-.4-.2-.4-.2-.4-.2-.4-.2-.4v-.1l-.2-.4v-.1l-.2-.4-.2-.4-.2-.4-.2-.4-.2-.4v-.1l-.2-.4-.2-.4-.2-.4-.2-.4-.2-.4-.2-.4-.2-.4-.2-.4v-.1l-.2-.3-.2-.4-.2-.3v-.1l-.2-.3-.2-.4-.2-.3v-.1l-.2-.3-.2-.3-.2-.3-.2-.3v-.1l-.2-.3-.2-.3-.2-.3-.2-.3-.2-.3-.2-.3-.2-.3-.2-.3-.2-.3-.3-.3-.3-.3-.3-.3-.3-.3-.3-.3-.3-.3-.3-.3-.3-.3-.3-.3-.3-.3-.3-.3-.3-.3-.3-.3-.3-.3-.3-.3-.3-.3-.3-.3-.3-.3-.3-.3-.3-.3-.3-.3-.3-.3-.3-.3-.3-.3-.3-.3-.3-.3-.3-.3-.3-.3-.3-.3-.3-.2-.3-.2-.3-.2-.3-.2-.3-.2-.3-.2-.3-.2-.3-.2-.3-.2-.2-.1-.2-.1-.2-.1-.2-.1-.2-.1-.2-.1-.2-.1-.2-.1-.2-.1-.2-.1-.2-.1-.2-.1-.2-.1-.2-.1-117.3-70-.2-.1-.2-.1-.2-.1-.2-.1-.2-.1-.2-.1-.2-.1-.2-.1-.2-.1-.2-.1-.2-.1-.2-.1-.2-.1-.2-.1-.2-.1-.2-.1-.2-.1-.2-.1-.2-.1-.2-.1-.2-.1-.2-.1-.2-.1-.2-.1-.2-.1-.2-.1-.2-.1-.2-.1-.2-.1-.2-.1-.2-.1-.2-.1-.2-.1-.2-.1-.2-.1-.2-.1-.2-.1-.2-.1-.2-.1-.2-.1-.2-.1-.2-.1-.2-.1-.2-.1-.2-.1-.2-.1-.2-.1-.2-.1-.2-.1-.2-.1-.2-.1-.2-.1-.2-.1-.2-.1-.2-.1-.2-.1-.2-.1-.2-.1-.2-.1-.2-.1-.2-.1-.2-.1-.2-.1-.2-.1-.2-.1-.2-.1-.2-.1-.2-.1-.2-.1-.2-.1-.2-.1-.2-.1-.2-.1-.2-.1H554v-.1H544l-.2.1H543.2l-.2.1-.2.1-.2.1-.2.1-.2.1-.2.1-.2.1-.2.1-.2.1-.2.1-.2.1-.2.1-.2.1-.2.1-.2.1-.2.1-.2.1-.2.1-.2.1-.2.1-.2.1-5-.6-.2.1-.2.1-.2.1-.2.1-.2.1-.2.1-.2.1-.2.1-.2.1-.2.1h-1l-.2.1-.2.1-.2.1-.2.1-.2.1-.2.1-.2.1-.2.1-.2.1-.2.1-.2.1-.2.1-.2.1-.2.1-.2.1-.2.1-.2.1-.2.1-.2.1-.2.1-.2.1-.2.1-.2.1-.2.1-.2.1-.2.1-1.8.4-.2.1-.2.1-.2.1-.2.1-.2.1-.2.1-.2.1-.2.1-.2.1-.2.1-.2.1-.2.1-.2.1-.2.1-.2.1-.2.1-.2.1-.2.1-.2.1-.2.1-96.2 59.3-.2.2-.2.2-.3.2-.2.2-.2.2-.2.2-.2.2-.2.2-.2.2-.2.2-.2.2-.2.2-.2.2-.2.2-.2.2-.2.2-.2.2-.2.2-.2.2-.2.2-.2.2-.2.2-.2.2-.2.2-.2.2-.2.2-.2.2-.2.2-.2.2-.2.2-.2.2-.2.2-.2.2-.2.2-.2.2-.2.2-.2.2-.2.2-.2.2-.2.2-.2.2-.2.2-.2.2-.2.2-.2.2-.2.2-.2.2-.2.2-.2.2-3.9.9-.2.2-.2.2-.2.2-.2.2-.2.2-.2.2-.2.2-.2.2-.2.2-.2.2-.2.2-.2.2-.2.2-.2.2-.2.2-.2.2-.2.2-.2.2-.2.2-.2.2-.2.2-.2.2-.2.2-.2.2-.2.2-.2.2-.2.2-.2.2-.2.2-.2.2-.2.2-.2.2-.2.2-.2.2-.2.2-.2.2-.2.2-.2.2-.2.2-.2.2-.2.2-.2.2-.2.2-.2.2-.2.2-.2.2-.2.2-.2.2-.2.2-.2.2-.2.2-.2.2-.2.2-.2.2-.2.2-.2.2-.2.2-.2.2-.2.2-.2.2-.2.2-.2.2-.2.2-.2.2-.2.2-.1.2-.1.2-.2.2-.1.2-.1.2-.2.2-.2.2-.1.2-.2.2-.1.3-.2.2-.1.2-.1.3-.1.2-.1.2-.1.3-.1.3-.1.2-.1.3-.1.3-.1.3-.1.3-.1.3-.1.3-.1.3-.1.3-.1.3-.1.3-.1.3-.1.3-.1.3-.1.3-.1.3-.1.3-.1.3-.1.3-.1.3-.1.3-.1.3-.1.3-.1.3-.1.3-.1.3-.1.3-.1.3-.1.3-.1.3-.1.3-.1.3-.1.3-.1.3-.1.3-.1.3-.1.3-.1.3-.1.3-.1.3-.1.3-.1.3-.1.3-.1.3-.1.3-.1.3-.1.3-.1.3-.1.3-.1.3-.1.3-.1.3-.1.3-.1.3-.1.3-.1.3-.1.3-.1.3-.1.3-.1.3-.1.3-.1.3-.1.3-.1.3-.1.3-.1.3-.1.3-.1.3-.1.3-.1.3-.1.3-.1.3-.1.3-.1.3V277.4l.1.2.1.2.1.2.1.2.1.2.1.2.1.2.1.2.1.2.1.2.1.2.1.2.1.2.1.2.1.2.1.2.1.2.1.2.1.2.1.2.1.2.1.2.1.2.1.2.1.2.1.2.1.2.1.2.1.2.1.2.1.2.1.2.1.2.1.2.1.2.1.2.1.2.1.2.1.2.1.2.1.2.1.2.1.2.1.2.1.2.1.2.1.2.1.2.1.2.1.2.1.2.1.2.1.2.1.2.1.2.1.2.1.2.1.2.1.2.1.2.1.2.1.2.1.2.1.2.1.2.1.2.1.2.1.2.1.2.1.2.1.2.1.2.1.2.1.2.1.2.1.2.1.2.1.2.1.2.1.2.1.2.1.2.1.2.1.2.1.2.1.2.1.2.1.2.1.2.1.2.1.2.1.2.1.2.1.2.1.2.1.2.1.2.2.2.2.2.1.2.1.2.2.2.2.2.1.2.1.2.1.2.1.2.2.2.2.2.2.2.1.2.2.2.2.2.2.2.2.2.2.2.2.2.2.2.2.2.2.2.2.2.2.2.2.2.2.2.2.2.2.2.2.2.2.2.2.2.2.2.2.2.2.2.2.2.2.2.2.2.2.2.2.2.2.2.2.2.2.2.2.2.2.2.2.2.2.2.2.2.2.2.2.2.2.2.2.2.2.2.2.2.2.2.2.2.2.2.2.2.2.2.2.2.2.2.2.2.2.2.2.2.2.2.2.2.2.2.2.2.2.2.2.2.2.2.2.2.2.2.2.2.2.2.2.2.2.2.2.2.2.2.2.1.2.2.2.1.2.2.2.1.2.1.2.1.2.2.2.2.2.2.2.1.2.1.2.1.2.1.2.1.2.1.2.1.2.1.2.1.2.1.2.1.2.1.2.1.2.1.2.1.2.1.2.1.2.1 104.8 61.2.2.1.2.1.2.1.2.1.2.1.2.1.2.1.2.1.2.1.2.1.2.1.2.1.2.1.2.1.2.1.2.1.2.1.2.1.2.1.2.1.2.1.2.1.2.1.2.1.2.1.2.1.2.1.2.1.2.1.2.1.2.1.2.1.2.1.2.1.2.1.2.1.2.1.2.1.2.1.2.1.2.1.2.1.2.1.2.1.2.1.2.1.2.1.2.1.2.1.2.1.2.1.2.1.4.1.4.1.4.1h.1l.4.1.4.1.4.1.4.1.4.1h.1l.4.1h.1l.4.1.4.1.4.1.4.1.4.1h.1l.4.1.4.1.4.1.4.1.4.1.4.1.4.1.4.1.4.1H556.1l.4-.1.4-.1.4-.1h.1l.4-.1.4-.1.4-.1.4-.1.4-.1.4-.1.4-.1.4-.1.4-.1h.1l.4-.1h.1l.4-.1h.1l.4-.1.4-.1.4-.1.4-.1h.1l.4-.1h.1l.4-.1.4-.1.2-.1.2-.1.2-.1.2-.1.2-.1.2-.1.2-.1.2-.1.2-.1.2-.1.2-.1.2-.1.2-.1.2-.1.2-.1.2-.1.2-.1.2-.1.2-.1.2-.1.2-.1.2-.1.2-.1.2-.1.2-.1.2-.1.2-.1.2-.1.2-.1.2-.1.2-.1.2-.1.2-.1.2-.1.2-.1.2-.1.2-.1.2-.1.2-.1.2-.1.2-.1.2-.1.2-.1.2-.1.2-.1.2-.1.2-.1.2-.1.2-.1.2-.1.2-.1.2-.1 116-64.6.2-.1.2-.1.2-.1.2-.1.2-.1.2-.1.2-.1.2-.1.2-.1.2-.1.2-.1.2-.1.2-.1.2-.1.2-.1.2-.1.2-.1.2-.1.2-.1.2-.1.2-.1.2-.1.2-.1.2-.1.2-.1.2-.1.2-.1.2-.1.2-.1.2-.1.2-.1.2-.1.2-.1.2-.1.2-.1.2-.1.2-.1.2-.1.2-.1.2-.1.2-.1.2-.1.2-.1.2-.1.2-.1.2-.1.2-.1.2-.1.2-.1.2-.2.2-.1.2-.2.2-.1.2-.1.2-.1.2-.1.2-.1.2-.1.2-.2.2-.1.2-.1.2-.1.2-.1.2-.2.2-.1.2-.1.2-.2.2-.2.2-.2.2-.2.2-.2.2-.2.2-.2.2-.2.2-.2.2-.2.2-.2.2-.2.2-.2.2-.2.1-.2.2-.2.2-.2.2-.2.1-.2.1-.2.1-.2.1-.2.1-.2.1-.2.1-.2.1-.2.1-.2.1-.2.1-.2.1-.2.1-.2.1-.2.1-.2.1-.2.1-.2.1-.2.1-.2.1-.2.1-.2.1-.2.1-.2.1-.2.1-.2.1-.2.1-.2.1-.2.1-.2.1-.2.1-.2.1-.2.1-.2.1-.2.1-.2.1-.2.1-.2.1-.2.1-.2.1-.2.1-.2.1-.2.1-.2.1-.2.1-.2.1-.2.1-.2.1-.2.1-.2.1-.2.1-.2.1-.2.1-.2.1-.2.1-.2.1-.2.1-.2.1-.2.1-.2.1-.2.1-.2.1-.2.1-.2.1-.2.1-.2.1-.2.1-.2.1-.2.1-.2.1-.2.1-.2.1-.2.1-.2.1-.2.1-.2.1-.2.1-.2.1-.2.1-.2.1-.2.1-.2.1-.2.1-.2.1-.2.1-.2.1-.2.1-.2.1-.2.1-.2.1-.2.1-.2.1-.2.1-.2.1-.2.1-.2.1-.2.1-.2.1-.2.1-.2.1-.2.1-.2.1-.2.1-.2.1-.2.1-.2.1-.2.1-.2.1-.2.1-.2.1-.2v-.2l.1-.2v-.4l.1-.2V134.5zm-95.8 83.7c0 24.9-1.1 42.4-3.2 52.7-2.1 10.3-6.1 18.9-11.8 26-5.7 7.1-13.4 12.7-23 16.9-9.6 4.2-22.2 6.3-37.7 6.3-18.7 0-32.9-2.3-42.5-6.8-9.7-4.6-17.3-10.5-22.9-17.8-5.6-7.3-9.3-15-11.1-23-2.6-11.9-3.9-29.4-3.9-52.6V109.4h42.3v112.2c0 17.8.5 29.3 1.5 34.6 1.7 8.5 4.8 14.4 11.2 19.5 6.4 5.1 13.8 6.6 24.8 6.6 11.2 0 15-1.7 20.7-6.6 5.7-4.9 9.1-9.5 10.3-16.5 1.2-7.1 3.1-18.8 3.1-35.2V109.4h42.3v108.8zM1113.3 135.8V127.9l-.1-.4v-.1l-.1-.4v-.1l-.1-.4v-.1l-.1-.4v-.1l-.1-.4-.1-.4v-.1l-.1-.4-.1-.4v-.1l-.1-.4-.1-.4-.1-.4v-.1l-.1-.4-.1-.4v-.1l-.1-.4v-.1l-.1-.4v-.1l-.1-.4-.1-.4-.1-.4-.1-.4v-.1l-.1-.4-.1-.4-.2-.4-.2-.4-.2-.4-.2-.4-.2-.4-.2-.4v-.1l-.2-.4-.2-.4v-.1l-.2-.4v-.1l-.2-.4-.2-.4-.2-.4v-.1l-.2-.4-.2-.4-.2-.4-.2-.4-.2-.4v-.1l-.2-.4-.2-.4-.2-.4-.2-.4-.2-.3v-.1l-.2-.4-.2-.4-.2-.4-.2-.4-.2-.3v-.1l-.2-.3-.2-.4-.2-.3-.2-.3v-.1l-.2-.3-.2-.3-.2-.3-.2-.3-.2-.3-.2-.3-.3-.3-.3-.3-.3-.3-.3-.3-.3-.3-.3-.3-.3-.3-.3-.3v-.1l-.3-.3-.3-.3-.3-.3-.3-.3-.3-.3-.3-.3-.3-.3-.3-.3-.3-.3-.3-.3-.3-.3-.3-.3h-.1l-.3-.3-.3-.3h-.1l-.3-.3-.3-.3-.3-.3-.3-.3-.2-.1-.2-.1-.2-.1-.2-.1-.2-.1-.2-.1-.2-.1-.2-.1-.2-.1-.2-.1-.2-.1-.2-.1-.2-.1-.2-.1-.2-.1-.2-.1-.2-.1-.2-.1-.2-.1-3-4.1-.2-.1-.2-.1-.2-.1-.2-.1-.2-.1-.2-.1-.2-.1-.2-.1-.2-.1-.2-.1-.2-.1-.2-.1-.2-.1-.2-.1-.2-.1-.2-.1-.2-.1-.2-.1-.2-.1-.2-.1-.2-.1-.2-.1-.2-.1-.4-.7-113.6-64.9-.2-.1-.2-.1-.2-.1-.2-.1-.2-.1-.2-.1-.2-.1-.2-.1-.2-.1-.2-.1-.2-.1-.2-.1-.2-.1-.2-.1-.2-.1-.2-.1-.2-.1-.2-.1-.2-.1-.2-.1-.2-.1-.2-.1-.2-.1-.2-.1-.2-.1-.2-.1-.2-.1-.2-.1-.2-.1-.2-.1-.2-.1-.2-.1-.2-.1-.2-.1-.2-.1-.2-.1-.2-.1-.2-.1-.2-.1-.2-.1-.2-.1-.2-.1-.2-.1-.2-.1-.2-.1-.2-.1-.2-.1-.2-.1-.2-.1-.2-.1-.2-.1-.2-.1-.2-.1-.2-.1-.2-.1-.2-.1-.2-.1-.2-.1-.2-.1-.2-.1-.2-.1-.2-.1-.2-.1-.2-.1-.2-.1-.2-.1-.2-.1-.2-.1-.2-.1h-1.4l-.2-.1h-.8l-.2-.1H945.3v.2H926.4l-.2.1h-.4l-.2.1-.2.1-.2.1-.2.1-.2.1-.2.1-.2.1-.2.1-.2.1-.2.1-.2.1-.2.1-.2.1-4.2-.6-.2.1-.2.1-.2.1-.2.1-.2.1-.2.1-.2.1-.2.1-.2.1-.2.1-.2.1-.2.1-.2.1-.2.1-.2.1-.2.1-.2.1-.2.1-.2.1-.2.1-.2.1-.2.1-1.6-.2-.2.1-.2.1-.2.1-.2.1-.2.1-.2.1-.2.1-.2.1-.2.1-.2.1-.2.1-.2.1-.2.1-.2.1-.2.1-.2.1-.2.1-.2.1-.2.1-.2.1-.2.1-.2.1-.2.1-.2.1-.2.1-.2.1-.2.1-.2.1-.2.1-.2.1-.2.1-.2.1-.2.1-.2.1-.2.1-.2.1-.2.1-.2.1-.2.1-96 57.5-.2.1-.3.2-.3.2-.3.2-.3.2-.2.2-.3.2-.3.2-.2.2-.2.2-.2.2-.2.2-.2.2-.2.2-.2.2-.2.2-.2.2-.2.2-.2.2-.2.2-.2.2-.2.2-.2.2-.2.2-.2.2-.2.2-.2.2-.2.2-.2.2-.2.2-.2.2-.2.2-.2.2-.2.2-.2.2-.2.2-.2.2-.2.2-.2.2-.2.2-.2.2-.2.2-.2.2-.2.2-.2.2-.2.2-.2.2-.2.2-.2.2-.2.2-.2.2-.2.2-.2.2-.2.2-.2.2-.2.2-.2.2-.2.2-.2.2-.2.2-.2.2-.2.2-.2.2-.2.2-.2.2-.2.2-.2.2-.2.2-.2.2-.2.2-.2.2-.2.2-.2.2-.2.2-.2.2-.2.2-.2.2-.2.2-.2.2-.2.2-.2.2-.2.2-.2.2-.2.2-.2.2-.2.2-.2.2-.2.2-.2.2-.2.2-.2.2-.2.2-.2.2-.2.2-.2.2-.2.2-.2.2-.2.2-.2.2-.2.2-.2.2-.2.2-.2.2-.2.2-.2.2-.2.2-.2.2-.2.2-.2.2-.2.2-.2.2-.2.2-.2.2-.2.2-.2.2-.2.2-.2.2-.2.2-.2.2-.2.2-.2.2-.2.2-.2.2-.2.2-.2.2-.2.3-.1.3-.2.3-.2.3-.1.2-.1.3-.1.2-.1.3-.1.3-.1.3-.1.3-.1.3-.1.3-.1.3-.1.3-.1.3-.1.3-.1.3-.1.3-.1.3-.1.3-.1.3-.1.3-.1.3-.1.3-.1.3-.1.3-.1.3-.1.3-.1.3-.1.3-.1.3-.1.3-.1.3-.1.3-.1.3-.1.3-.1.3-.1.3-.1.3-.1.3-.1.3-.1.3-.1.3-.1.3-.1.3-.1.3-.1.3-.1.3-.1.3-.1.3-.1.3-.1.3-.1.3-.1.3-.1.3-.1.3-.1.3-.1.3-.1.3-.1.3-.1.3-.1.3-.1.3-.1.3-.1.3-.1.3-.1.3-.1.3-.1.3-.1.3-.1.3-.1.3-.1.3-.1.3-.1.3-.1.3-.1.3-.1.3-.1.3-.1.3-.1.3-.1.3-.1.3v.6l-.1.3V277.1l.1.2.1.2.1.2.1.2.1.2.1.2.1.2.1.2.1.2.1.2.1.2.1.2.1.2.1.2.1.2.1.2.1.2.1.2.1.2.1.2.1.2.1.2.1.2.1.2.1.2.1.2.1.2.1.2.1.2.1.2.1.2.1.2.1.2.1.2.1.2.1.2.1.2.1.2.1.2.1.2.1.2.1.2.1.2.1.2.1.2.1.2.1.2.1.2.1.2.1.2.1.2.1.2.1.2.1.2.1.2.1.2.1.2.1.2.1.2.1.2.1.2.1.2.1.2.1.2.1.2.1.2.1.2.1.2.1.2.1.2.1.2.1.2.1.2.1.2.1.2.1.2.1.2.1.2.1.2.1.2.1.2.1.2.1.2.1.2.1.2.1.2.1.2.1.2.1.2.1.2.1.2.1.2.1.2.1.2.1.2.1.2.1.2.1.2.2.2.2.2.2.2.1.2.1.2.2.2.2.2.2.2.2.2.2.2.2.2.2.2.2.2.2.2.2.2.2.2.2.2.2.2.2.2.2.2.2.2.2.2.2.2.2.2.2.2.2.2.2.2.2.2.2.2.2.2.2.2.2.2.2.2.2.2.2.2.2.2.2.2.2.2.2.2.2.2.2.2.2.2.2.2.2.2.2.2.2.2.2.2.2.2.2.2.2.2.2.2.2.2.2.2.2.2.2.2.2.2.2.2.2.2.2.2.2.2.2.2.2.2.2.2.2.2.2.2.2.2.2.2.2.2.2.2.2.2.2.2.2.2.2.2.2.2.2.2.2.2.2.2.2.2.2.2.2.2.2.2.2.2.2.2.2.1.2.2.2.2.2.1.2.1.2.2.2.2.2.2.2.2.2.1.2.2.2.2.2.1.2.1.2.1.2.1.2.1.2.1.2.1.2.1.2.1.2.1.2.1.2.1 105 61.2.2.1.2.1.2.1.2.1.2.1.2.1.2.1.2.1.2.1.2.1.2.1.2.1.2.1.2.1.2.1.2.1.2.1.2.1.2.1.2.1.2.1.2.1.2.1.2.1.2.1.2.1.2.1.2.1.2.1.2.1.2.1.2.1.2.1.2.1.2.1.2.1.2.1.2.1.2.1.2.1.2.1.2.1.2.1.2.1.2.1.2.1.2.1.2.1.2.1.2.1.2.1.2.1.4.1.4.1.4.1.4.1.4.1.4.1.4.1.4.1.4.1.4.1.4.1.4.1.4.1h.1l.4.1h.1l.4.1.4.1.4.1h.1l.4.1.4.1h.1l.4.1h.1l.4.1.4.1h.1l.4.1H945.3l.4-.1.4-.1h.1l.4-.1.4-.1.4-.1.4-.1.4-.1.4-.1.4-.1.4-.1h.1l.4-.1h.1l.4-.1.4-.1h.1l.4-.1h.1l.4-.1.4-.1h.1l.4-.1.4-.1.4-.1.4-.1.4-.1.2-.1h.1l.2-.1.2-.1.2-.1.2-.1.2-.1.2-.1.2-.1.2-.1.2-.1.2-.1.2-.1.2-.1.2-.1.2-.1.2-.1.2-.1.2-.1.2-.1.2-.1.2-.1.2-.1.2-.1.2-.1.2-.1.2-.1.2-.1.2-.1.2-.1.2-.1.2-.1.2-.1.2-.1.2-.1.2-.1.2-.1.2-.1.2-.1.2-.1.2-.1.2-.1.2-.1.2-.1.2-.1.2-.1.2-.1.2-.1.2-.1.2-.1.2-.1.2-.1.2-.1 116-64.6.2-.1.2-.1.2-.1.2-.1.2-.1.2-.1.2-.1.2-.1.2-.1.2-.1.2-.1.2-.1.2-.1.2-.1.2-.1.2-.1.2-.1.2-.1.2-.1.2-.1.2-.1.2-.1.2-.1.2-.1.2-.1.2-.1.2-.1.2-.1.2-.1.2-.1.2-.1.2-.1.2-.1.2-.1.2-.1.2-.1.2-.1.2-.1.2-.1.2-.1.2-.1.2-.1.2-.1.2-.1.2-.1.2-.1.2-.2.2-.1.2-.2.2-.2.2-.1.2-.2.2-.2.2-.1.2-.1.2-.1.2-.1.2-.1.2-.1.2-.1.2-.1.2-.1.2-.2.2-.2.2-.1.2-.2.2-.2.2-.2.2-.2.2-.2.2-.2.2-.2.2-.2.2-.2.2-.2.2-.2.2-.2.2-.2.2-.2.1-.2.2-.2.1-.2.1-.2.2-.2.1-.2.1-.2.1-.2.2-.2.1-.2.1-.2.1-.2.1-.2.1-.2.1-.2.1-.2.1-.2.1-.2.1-.2.1-.2.1-.2.1-.2.1-.2.1-.2.1-.2.1-.2.1-.2.1-.2.1-.2.1-.2.1-.2.1-.2.1-.2.1-.2.1-.2.1-.2.1-.2.1-.2.1-.2.1-.2.1-.2.1-.2.1-.2.1-.2.1-.2.1-.2.1-.2.1-.2.1-.2.1-.2.1-.2.1-.2.1-.2.1-.2.1-.2.1-.2.1-.2.1-.2.1-.2.1-.2.1-.2.1-.2.1-.2.1-.2.1-.2.1-.2.1-.2.1-.2.1-.2.1-.2.1-.2.1-.2.1-.2.1-.2.1-.2.1-.2.1-.2.1-.2.1-.2.1-.2.1-.2.1-.2.1-.2.1-.2.1-.2.1-.2.1-.2.1-.2.1-.2.1-.2.1-.2.1-.2.1-.2.1-.2.1-.2.1-.2.1-.2.1-.2.1-.2.1-.2.1-.2.1-.2.1-.2.1-.2.1-.2.1-.2.1-.2.1-.2.1-.2.1-.2.1-.2.1-.2.1-.2.1-.2.1-.2.1-.2.1-.2.1-.2.1-.2.1-.2.1-.2.1-.2.1-.2.1-.2.1-.2.1-.2v-.2l.1-.2V135.8zm-100.2 148.8c-17.9 19.6-41.6 27.6-71.1 27.6-27 0-48.8-9.6-67.6-26.2-20.9-18.4-36.1-47-36.1-78.9 0-31.4 11.7-58.5 32.5-78.7 18.2-17.7 45.3-29.2 73.3-29.2 33.8 0 68.8 16 90.4 47.5l-31.7 26.8c-13.5-25-32.9-33.5-60.8-34.3-30.8-.9-64.8 28.5-62.2 67.8 1.4 21.9 11.7 59.7 61 66.6 25.9 3.6 55.4-24 55.4-39h-48.7V197h92.5v7c-.1 47.2-9 61-26.9 80.6zM1323.7 138.7c-37 0-66.9 30-66.9 66.9s30 66.9 66.9 66.9 66.9-30 66.9-66.9-29.9-66.9-66.9-66.9z"/><path class="avst0" d="M1495.8 136.5V128.2l-.1-.4-.1-.4v-.1l-.1-.4v-.1l-.1-.4v-.1l-.1-.4-.1-.4v-.1l-.1-.4v-.1l-.1-.4v-.1l-.1-.4-.1-.4-.1-.4-.1-.4-.1-.4-.1-.4-.1-.4-.1-.4v-.1l-.1-.4v-.1l-.1-.4v-.1l-.1-.4v-.1l-.1-.4v-.1l-.1-.4v-.1l-.1-.4v-.1l-.2-.4-.2-.4-.2-.4-.2-.4v-.1l-.2-.4v-.1l-.2-.4-.2-.4-.2-.4-.2-.4-.2-.4-.2-.4-.2-.4v-.1l-.2-.4-.2-.4-.2-.4v-.1l-.2-.4-.2-.4v-.1l-.2-.4-.2-.4v-.1l-.2-.3-.2-.4v-.1l-.2-.4-.2-.4-.2-.3-.2-.4-.2-.4-.2-.3v-.1l-.2-.3-.2-.3-.2-.3-.2-.3v-.1l-.2-.3-.2-.3-.2-.3v-.1l-.2-.3-.2-.3-.3-.3-.3-.3-.3-.3-.3-.3-.3-.3-.3-.3-.3-.3-.3-.3-.3-.3-.3-.3-.3-.3-.3-.3-.3-.3-.3-.3-.3-.3-.3-.3-.3-.3-.3-.3-.3-.3-.3-.3-.3-.3-.3-.3-.3-.3-.3-.3-.3-.3-.3-.3-.2-.1-.2-.1-.2-.1-.2-.1-.2-.1-.2-.1-.2-.1-.2-.1-.2-.1-.2-.1-.2-.1-.2-.1-.2-.1-.2-.1-.2-.1-.2-.1-.2-.1-.2-.1-.2-.1-.2-.1-.2-.1-.2-.1-.2-.1-.2-.1-.2-.1-.2-.1-.2-.1-.2-.1-.2-.1-.2-.1-.2-.1-.2-.1-.2-.1-.2-.1-.2-.1-.2-.1-.2-.1-.2-.1-3-4.3-.2-.1-.2-.1-.2-.1-.2-.1-.2-.1-113.7-65-.2-.1-.2-.1-.2-.1-.2-.1-.2-.1-.2-.1-.2-.1-.2-.1-.2-.1-.2-.1-.2-.1-.2-.1-.2-.1-.2-.1-.2-.1-.2-.1-.2-.1-.2-.1-.2-.1-.2-.1-.2-.1-.2-.1-.2-.1-.2-.1-.2-.1-.2-.1-.2-.1-.2-.1-.2-.1-.2-.1-.2-.1-.2-.1-.2-.1-.2-.1-.2-.1-.2-.1-2.1-.9-.2-.1-.2-.1-.2-.1-.2-.1-.2-.1-.2-.1-.2-.1-.2-.1-.2-.1-.2-.1-.2-.1-.2-.1-.2-.1-.2-.1-.2-.1-.2-.1-.2-.1-.2-.1-.2-.1-.2-.1-.2-.1-.2-.1-.2-.1-.2-.1-.2-.1-.2-.1-.2-.1-.2-.1-.2-.1-.2-.1-.2-.1h-.2l-.2-.1H1336.8l-.2-.1-.2-.1-.2-.1-.2-.1h-9.7l-.5-.2h-9.7l-.2.1H1314.3l-.2.1-.2.1-.2.1-.2.1-.2.1-.2.1-.2.1-.2.1-.2.1-.2.1-.2.1-.2.1-.2.1-.2.1-.2.1-.2.1-.2.1-.2.1-.2.1-.2.1-.2.1-.2.1-.2.1-.2.1-.2.1-.2.1-.2.1-.2.1-.2.1-.2.1-.2.1-.2.1-.2.1-.2.1-.2.1-.2.1-.2.1-.2.1-.2.1-.2.1-.2.1-.2.1-.2.1-.2.1-.2.1-.2.1-.2.1-.2.1-.2.1-.2.1-.2.1-.2.1-.2.1-.2.1-.2.1-.2.1-.2.1-.2.1-.2.1-.2.1-.2.1-.2.1-.2.1-.2.1-.2.1-.2.1-.2.1-.2.1-.2.1-.2.1-.2.1-.2.1-.2.1-.2.1-.2.1-96 57.6-.2.2-.3.2-.3.2-.3.2-.3.2-.3.2-.3.2-.3.2-.2.2-.2.2-.2.2-.2.2-.2.2-.2.2-.2.2-.2.2-.2.2-.2.2-.2.2-.2.2-.2.2-.2.2-.2.2-.2.2-.2.2-.2.2-.2.2-.2.2-.2.2-.2.2-.2.2-.2.2-.2.2-.2.2-.2.2-.2.2-.2.2-.2.2-.2.2-.2.2-.2.2-.2.2-.2.2-.2.2-.2.2-.2.2-.2.2-.2.2-.2.2-.2.2-.2.2-.2.2-.2.2-.2.2-.2.2-.2.2-.2.2-.2.2-.2.2-.2.2-.2.2-.2.2-.2.2-.2.2-.2.2-.2.2-.2.2-.2.2-.2.2-.2.2-.2.2-.2.2-.2.2-.2.2-.2.2-.2.2-.2.2-.2.2-.2.2-.2.2-.2.2-.2.2-.2.2-.2.2-.2.2-.2.2-.2.2-.2.2-.2.2-.2.2-.2.2-.2.2-.2.2-.2.2-.2.2-.2.2-.2.2-.2.2-.2.2-.2.2-.2.2-.2.2-.2.2-.2.2-.2.2-.2.2-.2.2-.2.2-.2.2-.2.2-.2.2-.2.2-.2.2-.2.2-.2.2-.2.2-.2.2-.2.2-.2.2-.2.2-.2.2-.2.3-.2.2-.2.3-.2.3-.2.3-.1.2-.2.2-.2.2-.1.3-.1.3-.1.2-.1.3-.1.3-.1.3-.1.3-.1.3-.1.3-.1.3-.1.3-.1.3-.1.3-.1.3-.1.3-.1.3-.1.3-.1.3-.1.3-.1.3-.1.3-.1.3-.1.3-.1.3-.1.3-.1.3-.1.3-.1.3-.1.3-.1.3-.1.3-.1.3-.1.3-.1.3-.1.3-.1.3-.1.3-.1.3-.1.3-.1.3-.1.3-.1.3-.1.3-.1.3-.1.3-.1.3-.1.3-.1.3-.1.3-.1.3-.1.3-.1.3-.1.3-.1.3-.1.3-.1.3-.1.3-.1.3-.1.3-.1.3-.1.3-.1.3-.1.3-.1.3-.1.3-.1.3-.1.3-.1.3-.1.3-.1.3-.1.3-.1.3-.1.3-.1.3-.1.3-.1.3-.1.3-.1.3-.1.3-.1.3-.1.3-.1.3-.1.3-.1.3-.1.3-.1.3-.1.3-.1.3v.6l-.1.3V274.9l.1.3v.4l.1.2.1.2.1.2.1.2.1.2.1.3.1.2.1.2.1.2.1.2.1.2.1.2.1.2.1.2.1.2.1.2.1.2.1.2.1.2.1.2.1.2.1.2.1.2.1.2.1.2.1.2.1.2.1.2.1.2.1.2.1.2.1.2.1.2.1.2.1.2.1.2.1.2.1.2.1.2.1.2.1.2.1.2.1.2.1.2.1.2.1.2.1.2.1.2.1.2.1.2.1.2.1.2.1.2.1.2.1.2.1.2.1.2.1.2.1.2.1.2.1.2.1.2.1.2.1.2.1.2.1.2.1.2.1.2.1.2.1.2.1.2.1.2.1.2.1.2.1.2.1.2.1.2.1.2.1.2.1.2.1.2.1.2.1.2.1.2.1.2.1.2.1.2.1.2.1.2.1.2.1.2.1.2.1.2.1.2.1.2.1.2.1.2.1.2.1.2.1.2.1.2.1.2.1.2.1.2.1.2.1.2.1.2.1.2.2.2.2.2.2.2.2.2.2.2.2.2.2.2.2.2.2.2.2.2.2.2.2.2.2.2.2.2.2.2.2.2.2.2.2.2.2.2.2.2.2.2.2.2.2.2.2.2.2.2.2.2.2.2.2.2.2.2.2.2.2.2.2.2.2.2.2.2.2.2.2.2.2.2.2.2.2.2.2.2.2.2.2.2.2.2.2.2.2.2.2.2.2.2.2.2.2.2.2.2.2.2.2.2.2.2.2.2.2.2.2.2.2.2.2.2.2.2.2.2.2.2.2.2.2.2.2.2.2.2.2.2.2.2.2.2.2.2.2.2.2.2.2.2.2.2.2.2.2.2.2.2.2.1.2.2.2.1.2.2.2.1.2.1.2.1.2.1.2.1.2.1.2.1.2.1.2.1.2.1.2.1.2.1.2.1.2.2.2.1.2.1.2.1.2.1.2.1.2.1.2.1.2.1.2.1.2.1.2.1 104.7 61.2.2.1.2.1.2.1.2.1.2.1.2.1.2.1.2.1.2.1.2.1.2.1.2.1.2.1.2.1.2.1.2.1.2.1.2.1.2.1.2.1.2.1.2.1.2.1.2.1.2.1.2.1.2.1.2.1.2.1.2.1.2.1.2.1.2.1.2.1.2.1.2.1.2.1.2.1.2.1.2.1.2.1.2.1.2.1.2.1.2.1.2.1.2.1.2.1.2.1.2.1.2.1.2.1.4.1h.1l.4.1h.1l.4.1h.1l.4.1h.1l.4.1h.1l.4.1h.1l.4.1h.1l.4.1h.1l.4.1h.1l.4.1h.1l.4.1h.1l.4.1h.1l.4.1h.1l.4.1h.1l.4.1h.1l.4.1h.1l.4.1h.1l.4.1h.1l.4.1h.1l.4.1h.1l.4.1h.1l.4.1h.1l.4.1h15.9l.4-.1h.1l.4-.1h.1l.4-.1h.1l.4-.1h.1l.4-.1h.1l.4-.1h.1l.4-.1h.1l.4-.1h.1l.4-.1h.1l.4-.1h.1l.4-.1h.1l.4-.1h.1l.4-.1h.1l.4-.1h.1l.4-.1h.1l.4-.1h.1l.4-.1h.1l.4-.1h.1l.4-.1h.1l.4-.1h.1l.4-.1.2-.1.2-.1.2-.1.2-.1.2-.1.2-.1.2-.1.2-.1.2-.1.2-.1.2-.1.2-.1.2-.1.2-.1.2-.1.2-.1.2-.1.2-.1.2-.1.2-.1.2-.1.2-.1.2-.1.2-.1.2-.1.2-.1.2-.1.2-.1.2-.1.2-.1.2-.1.2-.1.2-.1.2-.1.2-.1.2-.1.2-.1.2-.1.2-.1.2-.1.2-.1.2-.1.2-.1.2-.1.2-.1.2-.1.2-.1.2-.1.2-.1.2-.1.2-.1.2-.1 116-64.6.2-.1.2-.1.2-.1.2-.1.2-.1.2-.1.2-.1.2-.1.2-.1.2-.1.2-.1.2-.1.2-.1.2-.1.2-.1.2-.1.2-.1.2-.1.2-.1.2-.1.2-.1.2-.1.2-.1.2-.1.2-.1.2-.1.2-.1.2-.1.2-.1.2-.1.2-.1.2-.1.2-.1.2-.1.2-.1.2-.1.2-.1.2-.1.2-.1.2-.1.2-.1.2-.1.2-.1.2-.1.2-.1.2-.1.2-.1.2-.2.2-.2.2-.2.2-.1.2-.1.2-.1.2-.2.2-.2.2-.2.2-.2.2-.2.2-.2.2-.2.2-.2.2-.2.2-.1.2-.2.2-.1.2-.2.2-.2.2-.2.2-.1.2-.2.2-.2.2-.2.2-.2.2-.2.2-.2.2-.2.2-.2.2-.2.2-.2.2-.2.2-.2.1-.2.1-.2.1-.2.1-.2.1-.2.1-.2.1-.2.1-.2.1-.2.1-.2.1-.2.1-.2.1-.2.1-.2.1-.2.1-.2.1-.2.1-.2.1-.2.1-.2.1-.2.1-.2.1-.2.1-.2.1-.2.1-.2.1-.2.1-.2.1-.2.1-.2.1-.2.1-.2.1-.2.1-.2.1-.2.1-.2.1-.2.1-.2.1-.2.1-.2.1-.2.1-.2.1-.2.1-.2.1-.2.1-.2.1-.2.1-.2.1-.2.1-.2.1-.2.1-.2.1-.2.1-.2.1-.2.1-.2.1-.2.1-.2.1-.2.1-.2.1-.2.1-.2.1-.2.1-.2.1-.2.1-.2.1-.2.1-.2.1-.2.1-.2.1-.2.1-.2.1-.2.1-.2.1-.2.1-.2.1-.2.1-.2.1-.2.1-.2.1-.2.1-.2.1-.2.1-.2.1-.2.1-.2.1-.2.1-.2.1-.2.1-.2.1-.2.1-.2.1-.2.1-.2.1-.2.1-.2.1-.2.1-.2.1-.2.1-.2.1-.2.1-.2.1-.2.1-.2.1-.2.1-.2.1-.2.1-.2.1-.2.1-.2.1-.2.1-.2.1-.2.1-.2.1-.2.1-.2.1-.2.1-.2.1-.2.1-.2.1-.2.1-.2.1-.2v-.2l.1-.2.1-.2.1-.2v-.2l.1-.2.1-.2V136.7l-12.3-.2zm-172.1 175.7c-58.8 0-106.5-47.7-106.5-106.5s47.7-106.5 106.5-106.5 106.5 47.7 106.5 106.5-47.7 106.5-106.5 106.5z"/></symbol><symbol id="logos--jekyll" viewBox="0 0 853.2 347.5" xmlns="http://www.w3.org/2000/svg"><style>.awst0{fill:#69747c}.awst1{display:none}.awst2{display:inline}.awst3{fill:#c00}</style><g id="awlogo-black"><g id="awtest-tube_1_"><path id="awtube_1_" class="awst0" d="M698.1 345.5c-5 0-9.9-.9-14.6-2.7-19.7-7.5-30.1-28.9-24.7-48.7l-.2-.1 1.3-3.4L760 30.6c1.5-3.8.8-13 .1-18.1-.2-1.2-.2-2.3.1-3.4l.1-.2c.1-.2.1-.4.2-.6C762.1 4.1 767 2 775 2c9.6 0 22.9 3 36.5 8.2 11.4 4.4 21.8 9.9 29.1 15.4 8.6 6.5 12 12.3 10.1 17.3l-.3.6-.1.2c-.5 1-1.2 1.8-2.1 2.5-4.4 3.9-10.9 10.5-12 13.5L734.9 323.2l-.2-.1c-7.1 13.7-21.1 22.4-36.6 22.4zm-31.3-53.3l-.3.7c-6.4 17.2 2.3 36.6 19.5 43.2 3.9 1.5 7.9 2.2 12 2.2 13.9 0 26.2-8.3 31.3-21.3l.4-.9 99.6-258.9c2.1-5.6 12-14.5 14-16.3l.2-.2c.2-.1.3-.2.3-.3l.1-.1c.1-.7-.8-3.8-7.8-9.2-6.7-5.1-16.4-10.2-27.3-14.4-12.6-4.9-25.4-7.8-34-7.8-5.7 0-7.6 1.2-7.9 1.8v.6c.2 1.5 2.1 14.8-.5 21.7l-99.6 259.2z"/><path id="awliquid_1_" class="awst0" d="M794.9 127.6s-13.8 15.9-26.4 21.6c-12.5 5.6-21.9 4.2-33.2 10.8s-17 15.8-17 15.8l-46 119.7c-5 13.5 2.4 29.3 16.1 34.6 13.7 5.3 29.2-1.7 34.5-15.1l72-187.4zm-46.4 69.1c2.2-1 4.8 0 5.7 2.2 1 2.2 0 4.8-2.2 5.7-2.2 1-4.8 0-5.7-2.2-1-2.2 0-4.8 2.2-5.7zM730.1 177c1.5-.6 3.2 0 3.8 1.5s0 3.2-1.5 3.8-3.2 0-3.8-1.5.1-3.2 1.5-3.8zm-20.3 67.7c-2.2 1-4.8 0-5.7-2.2-1-2.2 0-4.8 2.2-5.7 2.2-1 4.8 0 5.7 2.2 1 2.2 0 4.7-2.2 5.7zm4-15.7c-1.8-4.1 0-8.9 4.1-10.8 4.1-1.8 8.9 0 10.8 4.1 1.8 4.1 0 8.9-4.1 10.8-4.2 1.8-9 0-10.8-4.1zm10.5 41.5c1.5-.6 3.2 0 3.8 1.5s0 3.2-1.5 3.8c-1.5.6-3.2 0-3.8-1.5-.6-1.4 0-3.1 1.5-3.8z"/><ellipse id="awtop_1_" transform="rotate(-68.96 804.254 28.373)" class="awst0" cx="804.2" cy="28.4" rx="7.3" ry="27.8"/></g><path id="awjekyll-text" class="awst0" d="M194.9 160.8c4.4 3.5 12.4 1.5 17.8-4.4 5.6-6.2 6.5-14.1 2.1-17.7-4.4-3.5-12.4-1.5-17.8 4.7-5.7 6.2-6.6 13.8-2.1 17.4zm-13 11.5c-1.2 0-3.2 2.1-1.5 2.9 2.4.9 3.5 2.9 3.5 5.9-2.1 12.1-17.1 26-23.1 30.7-1.5 1.5.6 4.7 2.1 3.5 3.2-2.6 10-7.9 15.6-15-9.1 20.4-26.9 46.6-33.7 55.8-26.6 36.9-67 70.8-94.8 70.8-22.2 0-41-15-45.1-37.2-.3-2.4-3.5-2.9-2.9.3 5 30.4 28.4 42.1 56.7 42.1 31 0 67.4-22.5 87.4-45.4 32.4-37.2 53.5-79.9 47.8-104.1-2.3-9.1-8.5-10.6-12-10.3zm199.2 80.8c8.5-2.1 15.6-6.8 15.6-14.2 0-.7-1.5-.7-1.5 0 0 4.4-5 8-10.6 8.9-13.2 2.1-39.5-13.5-51.9-29.5 13.2 5 40.4-2.3 53.2-11.4 11.8-8.5 16.5-18 17.5-25.7 1.5-12.6-12.4-20.1-31.6-12.6-12.4 5-27.2 15.9-42.5 36.3 16.2-26.9 48.1-70.5 79.4-98.5 38.1-33.9 60.2-27.4 26 8.5-14.1 14.7-40.7 33.9-59.1 42.2-5.6 2.4-2.9 5.6 1.2 3.8 19.5-8.5 45.4-26.3 61.1-41 46.3-44.5 7.7-78.1-43.7-31-34.8 32.2-57.6 65.8-77.3 109.4-6.8 8.2-11.8 15-18.1 20.4-.7.6-1.3 1.3-1.8 1.9-17 14.6-43.8 34.3-60.5 34.6-11.8.3-16.8-8.5-14.7-20.1 3.2-18 21.9-39.2 37.8-46.6 20.7-9.4 32.8 8.8 5.6 23.6-10.3 5.3-22.8 8.2-27.8 8.2-5.9 0-5.3 2.4-.3 2.6 8.2.3 21.6-3.2 30.4-7.4 27.8-13.2 29.5-38-.6-38.9-32.8-1.2-72 26.9-71.7 62 .3 15.9 13 24.5 30.4 24.5 29-.3 54.9-22.4 76-41.7 3-2.5 6-5.3 8.9-8.2-7.4 18.9-11.2 36.3-9.4 49.2 1.2 9.4 6.5 13.8 10.6 17.3.9.6 2.6 0 1.5-1.8-6.2-7.4-4.4-29.3 4.1-50.4 7.1 14.2 34.8 32.1 63.8 25.6zm-34.8-61.5c33.9-30.4 47.2-3.2 25.7 13.2-11.2 8.5-33.4 15-40.4 10.9l-1.5-.9c-.9-1.5-1.8-2.9-2.4-4.4 5.5-6.7 12-12.8 18.6-18.8zm188.3-34.4c13.5 1.5 7.9-15-5.9-10.9-6.2 1.8-12.1 13.5-16.5 23.9-13.5 20.4-36.3 48-52.3 62.5-14.1 12.1-27.2 15.3-11.2-7.4 6.5-9.1 14.7-18.9 19.5-28.6 11.2-24.5-12.7-35.4-31.9-20.7-11.2 8.5-26.3 26.3-38.1 36-3.2 2.6-2.4 6.5.9 3.8 9.4-7.6 26-25.1 40.1-35.4 11.8-9.1 16.5-3.2 9.7 4.4-9.4 10.9-26 29.8-30.1 41.9-5.9 18 1.2 26 12.9 26 16.2 0 40.4-25.4 56.7-45.4 5.3-6.8 11.2-14.7 16.2-22.4-14.1 27.4-28.9 55.2-47.2 80.2-26 35.4-58.5 62-89.2 62-22.2 0-41.3-15-45.4-37.2-.3-2.4-3.2-2.9-2.9.3 5 30.4 28.4 42.1 56.7 42.1 31 0 60.8-18 81.7-40.1 42.2-44.5 47.2-94.7 60.2-122.7 6.1-12.3 11.7-12.9 16.1-12.3zm171.6-43c6.2-10.6 5.9-18.9-8.5-18.9-10.9.3-30.7 7.9-39.8 15-2.1 2.1-1.2 3.2 1.5 2.1 1.8-.6 3.8-1.8 5.9-2.6 10.3-5.6 6.2 6.2 3.8 10.6-12.4 21.6-34.2 51.9-45.7 67-5.5 7.4-11.7 14.8-17.8 21.1-11.1 10.5-33 29.2-49.5 35.4-53.8 20.1 14.7-71.4 20.4-78.7 12.7-15.9 41-43.6 49.5-57.5 6.2-10.6 5.9-18.9-8.5-18.9-10.9.3-30.7 7.9-39.8 15-2.1 2.1-1.2 3.2 1.5 2.1 1.8-.6 3.8-1.8 5.9-2.6 10.3-5.6 6.2 6.2 3.8 10.6-12.4 21.6-34.2 51.9-45.7 67-9.4 12.6-21 25.4-29.8 32.4-3.5 2.9-1.5 5.6 2.1 3.2 3.2-2.1 7.9-6.8 13.2-12.4-9.7 19.5-17.8 46.9 7.9 50.1 21.9 3 47.9-19.4 64.7-35.9 1.8-1.8 3.9-3.8 6-6l1.5-1.5c-9.7 19.5-17.7 46.8 8 50 28.1 3.8 62.9-33.9 76.4-47.7 2.6-2.6 1.8-7.1-2.6-2.6-7.9 8.2-34.8 32.7-54.4 40.1-53.8 20.1 14.7-71.4 20.4-78.7 12.7-16.1 41.1-43.7 49.6-57.7z"/></g><g id="awlogo-black-red" class="awst1"><g id="awtest-tube_2_" class="awst2"><path id="awtube_2_" d="M698.1 345.5c-5 0-9.9-.9-14.6-2.7-19.7-7.5-30.1-28.9-24.7-48.7l-.2-.1 1.3-3.4L760 30.6c1.5-3.8.8-13 .1-18.1-.2-1.2-.2-2.3.1-3.4l.1-.2c.1-.2.1-.4.2-.6C762.1 4.1 767 2 775 2c9.6 0 22.9 3 36.5 8.2 11.4 4.4 21.8 9.9 29.1 15.4 8.6 6.5 12 12.3 10.1 17.3l-.3.6-.1.2c-.5 1-1.2 1.8-2.1 2.5-4.4 3.9-10.9 10.5-12 13.5L734.9 323.2l-.2-.1c-7.1 13.7-21.1 22.4-36.6 22.4zm-31.3-53.3l-.3.7c-6.4 17.2 2.3 36.6 19.5 43.2 3.9 1.5 7.9 2.2 12 2.2 13.9 0 26.2-8.3 31.3-21.3l.4-.9 99.6-258.9c2.1-5.6 12-14.5 14-16.3l.2-.2c.2-.1.3-.2.3-.3l.1-.1c.1-.7-.8-3.8-7.8-9.2-6.7-5.1-16.4-10.2-27.3-14.4-12.6-4.9-25.4-7.8-34-7.8-5.7 0-7.6 1.2-7.9 1.8v.6c.2 1.5 2.1 14.8-.5 21.7l-99.6 259.2z"/><path id="awliquid_2_" class="awst3" d="M794.9 127.6s-13.8 15.9-26.4 21.6c-12.5 5.6-21.9 4.2-33.2 10.8s-17 15.8-17 15.8l-46 119.7c-5 13.5 2.4 29.3 16.1 34.6 13.7 5.3 29.2-1.7 34.5-15.1l72-187.4zm-46.4 69.1c2.2-1 4.8 0 5.7 2.2 1 2.2 0 4.8-2.2 5.7-2.2 1-4.8 0-5.7-2.2-1-2.2 0-4.8 2.2-5.7zM730.1 177c1.5-.6 3.2 0 3.8 1.5s0 3.2-1.5 3.8-3.2 0-3.8-1.5.1-3.2 1.5-3.8zm-20.3 67.7c-2.2 1-4.8 0-5.7-2.2-1-2.2 0-4.8 2.2-5.7 2.2-1 4.8 0 5.7 2.2 1 2.2 0 4.7-2.2 5.7zm4-15.7c-1.8-4.1 0-8.9 4.1-10.8 4.1-1.8 8.9 0 10.8 4.1 1.8 4.1 0 8.9-4.1 10.8-4.2 1.8-9 0-10.8-4.1zm10.5 41.5c1.5-.6 3.2 0 3.8 1.5s0 3.2-1.5 3.8c-1.5.6-3.2 0-3.8-1.5-.6-1.4 0-3.1 1.5-3.8z"/><ellipse id="awtop_2_" transform="rotate(-68.96 804.254 28.373)" cx="804.2" cy="28.4" rx="7.3" ry="27.8"/></g><path id="awjekyll-text_1_" class="awst2" d="M194.9 160.8c4.4 3.5 12.4 1.5 17.8-4.4 5.6-6.2 6.5-14.1 2.1-17.7-4.4-3.5-12.4-1.5-17.8 4.7-5.7 6.2-6.6 13.8-2.1 17.4zm-13 11.5c-1.2 0-3.2 2.1-1.5 2.9 2.4.9 3.5 2.9 3.5 5.9-2.1 12.1-17.1 26-23.1 30.7-1.5 1.5.6 4.7 2.1 3.5 3.2-2.6 10-7.9 15.6-15-9.1 20.4-26.9 46.6-33.7 55.8-26.6 36.9-67 70.8-94.8 70.8-22.2 0-41-15-45.1-37.2-.3-2.4-3.5-2.9-2.9.3 5 30.4 28.4 42.1 56.7 42.1 31 0 67.4-22.5 87.4-45.4 32.4-37.2 53.5-79.9 47.8-104.1-2.3-9.1-8.5-10.6-12-10.3zm199.2 80.8c8.5-2.1 15.6-6.8 15.6-14.2 0-.7-1.5-.7-1.5 0 0 4.4-5 8-10.6 8.9-13.2 2.1-39.5-13.5-51.9-29.5 13.2 5 40.4-2.3 53.2-11.4 11.8-8.5 16.5-18 17.5-25.7 1.5-12.6-12.4-20.1-31.6-12.6-12.4 5-27.2 15.9-42.5 36.3 16.2-26.9 48.1-70.5 79.4-98.5 38.1-33.9 60.2-27.4 26 8.5-14.1 14.7-40.7 33.9-59.1 42.2-5.6 2.4-2.9 5.6 1.2 3.8 19.5-8.5 45.4-26.3 61.1-41 46.3-44.5 7.7-78.1-43.7-31-34.8 32.2-57.6 65.8-77.3 109.4-6.8 8.2-11.8 15-18.1 20.4-.7.6-1.3 1.3-1.8 1.9-17 14.6-43.8 34.3-60.5 34.6-11.8.3-16.8-8.5-14.7-20.1 3.2-18 21.9-39.2 37.8-46.6 20.7-9.4 32.8 8.8 5.6 23.6-10.3 5.3-22.8 8.2-27.8 8.2-5.9 0-5.3 2.4-.3 2.6 8.2.3 21.6-3.2 30.4-7.4 27.8-13.2 29.5-38-.6-38.9-32.8-1.2-72 26.9-71.7 62 .3 15.9 13 24.5 30.4 24.5 29-.3 54.9-22.4 76-41.7 3-2.5 6-5.3 8.9-8.2-7.4 18.9-11.2 36.3-9.4 49.2 1.2 9.4 6.5 13.8 10.6 17.3.9.6 2.6 0 1.5-1.8-6.2-7.4-4.4-29.3 4.1-50.4 7.1 14.2 34.8 32.1 63.8 25.6zm-34.8-61.5c33.9-30.4 47.2-3.2 25.7 13.2-11.2 8.5-33.4 15-40.4 10.9l-1.5-.9c-.9-1.5-1.8-2.9-2.4-4.4 5.5-6.7 12-12.8 18.6-18.8zm188.3-34.4c13.5 1.5 7.9-15-5.9-10.9-6.2 1.8-12.1 13.5-16.5 23.9-13.5 20.4-36.3 48-52.3 62.5-14.1 12.1-27.2 15.3-11.2-7.4 6.5-9.1 14.7-18.9 19.5-28.6 11.2-24.5-12.7-35.4-31.9-20.7-11.2 8.5-26.3 26.3-38.1 36-3.2 2.6-2.4 6.5.9 3.8 9.4-7.6 26-25.1 40.1-35.4 11.8-9.1 16.5-3.2 9.7 4.4-9.4 10.9-26 29.8-30.1 41.9-5.9 18 1.2 26 12.9 26 16.2 0 40.4-25.4 56.7-45.4 5.3-6.8 11.2-14.7 16.2-22.4-14.1 27.4-28.9 55.2-47.2 80.2-26 35.4-58.5 62-89.2 62-22.2 0-41.3-15-45.4-37.2-.3-2.4-3.2-2.9-2.9.3 5 30.4 28.4 42.1 56.7 42.1 31 0 60.8-18 81.7-40.1 42.2-44.5 47.2-94.7 60.2-122.7 6.1-12.3 11.7-12.9 16.1-12.3zm171.6-43c6.2-10.6 5.9-18.9-8.5-18.9-10.9.3-30.7 7.9-39.8 15-2.1 2.1-1.2 3.2 1.5 2.1 1.8-.6 3.8-1.8 5.9-2.6 10.3-5.6 6.2 6.2 3.8 10.6-12.4 21.6-34.2 51.9-45.7 67-5.5 7.4-11.7 14.8-17.8 21.1-11.1 10.5-33 29.2-49.5 35.4-53.8 20.1 14.7-71.4 20.4-78.7 12.7-15.9 41-43.6 49.5-57.5 6.2-10.6 5.9-18.9-8.5-18.9-10.9.3-30.7 7.9-39.8 15-2.1 2.1-1.2 3.2 1.5 2.1 1.8-.6 3.8-1.8 5.9-2.6 10.3-5.6 6.2 6.2 3.8 10.6-12.4 21.6-34.2 51.9-45.7 67-9.4 12.6-21 25.4-29.8 32.4-3.5 2.9-1.5 5.6 2.1 3.2 3.2-2.1 7.9-6.8 13.2-12.4-9.7 19.5-17.8 46.9 7.9 50.1 21.9 3 47.9-19.4 64.7-35.9 1.8-1.8 3.9-3.8 6-6l1.5-1.5c-9.7 19.5-17.7 46.8 8 50 28.1 3.8 62.9-33.9 76.4-47.7 2.6-2.6 1.8-7.1-2.6-2.6-7.9 8.2-34.8 32.7-54.4 40.1-53.8 20.1 14.7-71.4 20.4-78.7 12.7-16.1 41.1-43.7 49.6-57.7z"/></g></symbol><symbol id="logos--netlify" viewBox="0 0 168 60" xmlns="http://www.w3.org/2000/svg"><style>.axst0{fill:#2d333a}</style><title>full-logo-light-simple</title><g id="axPress"><g id="axpress-v4" transform="translate(-756 -1440)"><g id="axlogo-resources" transform="translate(247 1109)"><g id="axGroup-14" transform="translate(3 236)"><g id="axGroup-14-Copy-5" transform="translate(480)"><g id="axfull-logo-light-simple" transform="translate(26 95)"><path id="axCombined-Shape" class="axst0" d="M42.4 21.3c.3.2.6.4.8.6h.1l5.9-2.5.1-.1v-.1l-5.5-5.4h-.1s-.1 0-.1.1l-1.2 7.4c-.1-.1 0 0 0 0zm-12.2-5c.3.4.5.9.5 1.4 0 0 0 .1.1.1l8.7 3.7h.1c.3-.2.6-.4.9-.5 0 0 .1 0 .1-.1l1.4-8.8V12l-5.4-5.4h-.1c-.1 0-.1 0-.1.1l-6.1 9.5-.1.1zM60 30l-9.3-9.3h-.1l-6.3 2.7-.1.1s0 .1.1.1l15.6 6.6h.1l.1-.1c-.1 0-.1-.1-.1-.1zm-1.6 1.5l-15-6.4h-.1c-.4.6-1 .9-1.7 1 0 0-.1 0-.1.1l-1.6 9.9v.1c.6.4.9 1.1 1 1.8 0 .1 0 .1.1.1l9.1 1.9h.1l8.3-8.2c0-.2 0-.2-.1-.3.1 0 .1 0 0 0zm-19.8-8.4l-8.2-3.5s-.1 0-.1.1c-.6.9-1.5 1.4-2.5 1.4-.2 0-.3 0-.5-.1 0 0-.1 0-.1.1l-6.7 10.5v.1h.1l18-7.7.1-.1v-.2c0-.2 0-.3.1-.4l-.2-.2zm9.8 18.3l-8-1.6h-.1c-.3.4-.7.7-1.1.9l-.1.1-1.9 11.7c0 .1 0 .1.1.1h.2l11-11v-.1c0-.1 0-.1-.1-.1zm-11.1-.8c-.8-.3-1.3-1-1.5-1.8 0 0 0-.1-.1-.1l-14.7-3s-.1 0-.1.1c-.1.1-.1.2-.2.3v.1l13.4 19.5h.2l.8-.8v-.1l2.2-14.2c.1 0 .1 0 0 0zm-16-6.7s0 .1 0 0L36 37s.1 0 .1-.1c.4-.8 1.2-1.3 2.1-1.3.1 0 .1 0 .1-.1l1.6-9.7s0-.1-.1-.1l-.3-.3h-.1l-18.1 7.7c-.1 0-.1.1-.1.1 0 .3.1.5.1.7zm-6.2 2.4c-.1-.1-.1-.2-.2-.3l-.1-.1-6.3 2.7s-.1 0-.1.1v.1l3.1 3.1h.1s.1 0 .1-.1l3.4-5.5c0 .1 0 .1 0 0zm4.2 1s-.1 0 0 0l-.1-.1c-.5.2-.9.3-1.4.3-.4 0-.7-.1-1.1-.2 0 0-.1 0-.1.1l-3.7 5.7v.1L29.7 60h.2l3-2.9V57L19.3 37.3zm-2.4-6.6c.1.1.1.1 0 0l.1.1c.3-.1.5-.1.8-.1.3 0 .6.1.9.1 0 0 .1 0 .1-.1l6.8-10.6V20c-.5-.6-.8-1.3-.8-2.1 0-.2 0-.5.1-.7 0-.1 0-.1-.1-.1-.9-.4-8.5-3.6-8.5-3.6h-.1L9.7 20v.1l7.2 10.6zm.8-18.4s7.7 3.3 8.1 3.4h.1c.5-.4 1.2-.7 1.9-.7.3 0 .7.1 1 .2 0 0 .1 0 .1-.1l6.3-9.8v-.1L30 0h-.2L17.7 12.1c-.1.1-.1.1 0 .2-.1 0-.1 0 0 0zm-3 20.3s0-.1 0 0c.2-.4.5-.6.7-.9v-.1c-.1-.1-7-10.1-7-10.1l-.1-.1h-.1l-8 8v.1s0 .1.1.1l14.4 3c-.1 0-.1 0 0 0zm-.7 1.7s0-.1 0 0L1.4 31.6s-.1 0-.1.1v.1l5.6 5.5H7l6.9-2.9c.1 0 .1-.1.1-.1z"/><path id="axCombined-Shape_1_" class="axst0" d="M122 15.1h4.1v26.3H122V15.1zm-41.7 7.4c-2.2 0-3.9.8-5.3 2.5l-.1-2.1H71v18.5h4.1V28.2c.8-1.5 2-2.3 3.7-2.3 1.1 0 1.9.3 2.4.9.5.6.7 1.4.7 2.6v12H86V29.1c0-4.4-1.9-6.6-5.7-6.6zm17.6 0c-1.6 0-3 .4-4.2 1.2-1.3.8-2.2 1.9-3 3.4-.7 1.5-1 3.1-1 4.9v.5c0 2.7.8 5 2.4 6.6 1.6 1.7 3.7 2.5 6.3 2.5 1.5 0 2.9-.3 4.1-.9 1.2-.6 2.2-1.5 2.9-2.6l-2.2-2.1c-1.2 1.5-2.7 2.3-4.6 2.3-1.3 0-2.4-.5-3.3-1.3-.9-.9-1.4-2.1-1.5-3.6h11.9v-1.7c0-2.9-.7-5.2-2-6.8-1.5-1.6-3.4-2.4-5.8-2.4zm3.7 7.9h-7.8c.2-1.4.6-2.5 1.3-3.3.7-.8 1.6-1.2 2.7-1.2s2 .4 2.6 1.1c.6.7 1 1.8 1.1 3.2l.1.2zm13.2 7.4c-.3-.3-.4-.8-.4-1.5V25.9h3.2v-3.1h-3.2v-4.5h-4.1v4.5h-3v3.1h3v10.5c0 3.5 1.6 5.3 4.7 5.3.9 0 1.8-.1 2.7-.4v-3.2c-.5.1-1 .2-1.4.2-.7 0-1.2-.2-1.5-.5zm17.5-14.9h4.1v18.5h-4.1V22.9zm27.2 12.5l-3.8-12.6h-4.4l6.4 18.4-.6 1.6c-.3.9-.7 1.5-1.2 1.9-.5.4-1.3.6-2.3.6l-.8-.1v3.2c.7.2 1.4.3 2 .3 2.6 0 4.5-1.6 5.7-4.7l7.2-21.3h-4.4l-3.8 12.7zm-15.1-19c-1.1 1.1-1.7 2.7-1.7 4.8v1.7H140V26h2.8v15.4h4.1V25.9h3.7v-3.1h-3.7v-1.6c0-2 1-3.1 2.9-3.1.6 0 1.1.1 1.6.1l.1-3.3c-.8-.2-1.6-.3-2.3-.3-2.1.1-3.7.7-4.8 1.8zm-8-1.7v3.6h-4.1v-3.6h4.1z"/></g></g></g></g></g></g></symbol><symbol id="logos--nwa" viewBox="0 0 52.3 20.9" xmlns="http://www.w3.org/2000/svg"><style>.ayst0{fill:#2d333a}</style><path class="ayst0" d="M10.5.1c-.6-.3-1.4 0-1.6.6L.1 19.1c-.3.6-.1 1.3.5 1.6.2.1.4.1.5.1.4 0 .9-.2 1.1-.7L11 1.7c.3-.6.1-1.3-.5-1.6zM41.3 4.2c-.6-.3-1.3 0-1.6.6l-6.3 13.3c-.1.2-.2.3-.3.4-.1 0-.2-.1-.3-.3l-1.9-4c-.6-1-1.4-1.5-2.4-1.5-.9 0-1.8.7-2.3 1.7l-1.7 3.7c-.1.1-.1.2-.2.3 0-.1-.1-.2-.1-.3l-3-6.2c-.3-.6-1-.8-1.6-.5s-.8 1-.5 1.6l3 6.3c.5 1.1 1.4 1.6 2.3 1.6.9 0 1.8-.5 2.3-1.6l1.7-3.8c.1-.3.3-.4.3-.4s.1.1.3.4l1.9 4c.6.9 1.4 1.5 2.3 1.5h.1c.9-.1 1.8-.7 2.3-1.7L41.9 6c.2-.8 0-1.5-.6-1.8zM52.1 19.1L43.4.7c-.3-.6-1-.8-1.6-.5s-.8 1-.5 1.6L50 20.2c.2.4.6.7 1.1.7.2 0 .4 0 .5-.1.6-.4.8-1.1.5-1.7z"/><path class="ayst0" d="M22.6 2.5c.1.1.1.1.2.3l4.1 8.6c.3.6 1.1.7 1.7.4s.7-1.1.4-1.7l-4.1-8.6C24.3.5 23.4 0 22.5 0c-.9.1-1.7.7-2.2 1.8l-7.7 16.3c-.1.1-.1.2-.1.3 0-.1-.1-.1-.2-.3l-3-6.2c-.3-.6-1.1-.8-1.6-.5-.7.3-.9 1.1-.6 1.6l3 6.2c.6 1 1.4 1.6 2.3 1.6h.1c.9 0 1.7-.7 2.2-1.8l7.7-16.3c.1-.1.1-.2.2-.2zM46 14.2c-.6-.3-1.3-.1-1.6.5l-1.6 3.4c-.1.2-.2.3-.2.3-.1 0-.1-.1-.2-.3l-1.6-3.4c-.3-.6-1-.8-1.6-.5s-.8 1-.5 1.6l1.6 3.4c.6 1 1.4 1.6 2.3 1.6.9 0 1.8-.6 2.3-1.6l1.6-3.4c.3-.6.1-1.3-.5-1.6z"/></symbol><symbol viewBox="0 0 130 21" id="logos--search-by-algolia" xmlns="http://www.w3.org/2000/svg"><title>search-by-algolia-white</title><path d="M96.667 15.57c0 1.719-.44 2.974-1.327 3.773-.887.799-2.24 1.197-4.066 1.197-.666 0-2.051-.129-3.159-.373l.408-1.997c.925.193 2.15.245 2.79.245 1.017 0 1.741-.206 2.175-.618.433-.412.647-1.023.647-1.835v-.413a7.533 7.533 0 0 1-.99.374c-.408.123-.88.186-1.411.186-.7 0-1.333-.11-1.91-.328a4 4 0 0 1-1.482-.966 4.424 4.424 0 0 1-.958-1.596c-.227-.637-.343-1.778-.343-2.615 0-.785.123-1.77.363-2.427a4.638 4.638 0 0 1 1.068-1.694c.466-.47 1.035-.83 1.703-1.094a6.276 6.276 0 0 1 2.299-.431c.822 0 1.58.103 2.317.225a18.7 18.7 0 0 1 1.877.393v9.993h-.001zm-7.037-4.971c0 1.055.233 2.227.7 2.717.466.489 1.068.733 1.806.733.402 0 .783-.057 1.139-.167.356-.11.64-.24.867-.393V7.237c-.18-.039-.938-.192-1.67-.212-.919-.026-1.617.347-2.11.946-.486.6-.732 1.649-.732 2.628zm19.051 0a6.07 6.07 0 0 1-.376 2.195 5.186 5.186 0 0 1-1.068 1.797c-.46.496-1.01.881-1.657 1.152-.648.27-1.644.425-2.143.425-.498-.005-1.489-.147-2.13-.425a4.831 4.831 0 0 1-1.65-1.152 5.302 5.302 0 0 1-1.074-1.797 5.953 5.953 0 0 1-.39-2.195c0-.85.118-1.668.377-2.363a5.233 5.233 0 0 1 1.087-1.783 4.855 4.855 0 0 1 1.657-1.147c.64-.27 1.346-.4 2.11-.4.764 0 1.47.136 2.117.4.648.271 1.204.65 1.657 1.147.46.496.815 1.088 1.074 1.783.272.695.408 1.513.408 2.363h.001zm-2.59.005c0-1.088-.24-1.996-.705-2.627-.465-.637-1.12-.952-1.954-.952-.836 0-1.49.315-1.955.952-.466.637-.693 1.539-.693 2.627 0 1.102.233 1.842.7 2.48.466.644 1.12.96 1.955.96s1.489-.322 1.954-.96c.466-.644.7-1.378.7-2.48h-.001zm8.229 5.563c-4.15.02-4.15-3.335-4.15-3.869L110.164.399 112.696 0v11.822c0 .302 0 2.222 1.625 2.227v2.118h-.001zm4.46 0h-2.545V5.3l2.545-.4v11.268zM117.505 3.71c.848 0 1.54-.684 1.54-1.526a1.53 1.53 0 0 0-1.54-1.526 1.53 1.53 0 0 0-1.541 1.526c0 .844.692 1.526 1.54 1.526zm7.6 1.197c.835 0 1.541.103 2.11.31.57.205 1.03.496 1.367.862.337.368.575.869.718 1.397.15.528.22 1.107.22 1.744v6.478c-.389.084-.977.18-1.767.297-.79.115-1.677.173-2.66.173a8.07 8.07 0 0 1-1.793-.186 3.797 3.797 0 0 1-1.392-.6 2.901 2.901 0 0 1-.9-1.068c-.213-.437-.323-1.055-.323-1.7 0-.618.123-1.01.363-1.435.246-.426.575-.773.99-1.044.42-.27.9-.463 1.45-.579a8.359 8.359 0 0 1 1.722-.174c.279 0 .57.02.88.052.311.032.635.09.985.174v-.412c0-.29-.032-.567-.104-.824a1.756 1.756 0 0 0-.363-.69 1.694 1.694 0 0 0-.686-.462 2.997 2.997 0 0 0-1.082-.193c-.582 0-1.113.07-1.599.155a7.43 7.43 0 0 0-1.191.29l-.304-2.068c.317-.11.79-.218 1.398-.328.609-.11 1.262-.168 1.962-.168l-.001-.001zm.214 9.136c.776 0 1.353-.045 1.754-.123v-2.562a6.024 6.024 0 0 0-1.49-.187c-.278 0-.563.02-.848.064a2.561 2.561 0 0 0-.77.226 1.38 1.38 0 0 0-.551.463c-.143.2-.207.316-.207.618 0 .593.207.934.583 1.16.381.231.886.341 1.528.341zM75.33 4.971c.836 0 1.542.103 2.111.31.57.205 1.03.496 1.366.862.343.374.576.869.719 1.397a6.4 6.4 0 0 1 .22 1.744v6.478c-.39.084-.978.18-1.767.297-.79.115-1.677.173-2.66.173a8.07 8.07 0 0 1-1.793-.186 3.797 3.797 0 0 1-1.392-.6 2.901 2.901 0 0 1-.9-1.068c-.214-.437-.324-1.055-.324-1.7 0-.618.123-1.01.363-1.435.246-.426.576-.773.99-1.044.421-.27.9-.463 1.45-.579a8.359 8.359 0 0 1 1.723-.174c.279 0 .57.02.88.052.304.032.635.09.985.174V9.26c0-.29-.032-.567-.104-.824a1.756 1.756 0 0 0-.363-.69 1.694 1.694 0 0 0-.687-.462 2.997 2.997 0 0 0-1.081-.193 9.17 9.17 0 0 0-1.6.155 7.43 7.43 0 0 0-1.19.29l-.304-2.068c.316-.11.79-.218 1.398-.328a10.507 10.507 0 0 1 1.962-.168l-.002-.001zm.22 9.142c.777 0 1.353-.045 1.754-.123v-2.562a6.024 6.024 0 0 0-1.49-.187c-.278 0-.563.02-.848.064a2.561 2.561 0 0 0-.77.226 1.38 1.38 0 0 0-.55.463c-.144.2-.208.316-.208.618 0 .592.207.934.583 1.16.376.225.886.341 1.528.341h.001zm10.26 2.054c-4.149.02-4.149-3.335-4.149-3.869L81.657.399 84.188 0v11.822c0 .302 0 2.222 1.625 2.227v2.118h-.001zM6.524 12.713c0 .906-.328 1.617-.984 2.133-.654.515-1.558.774-2.71.774-1.153 0-2.096-.178-2.83-.536v-1.576c.464.219.958.39 1.48.515.523.126 1.01.188 1.462.188.659 0 1.146-.125 1.46-.375.313-.251.47-.588.47-1.01a1.27 1.27 0 0 0-.432-.97c-.288-.265-.883-.578-1.784-.94-.93-.377-1.585-.807-1.966-1.29C.31 9.143.118 8.562.118 7.884c0-.851.303-1.52.907-2.008.604-.488 1.414-.732 2.432-.732.976 0 1.946.214 2.913.642l-.53 1.36c-.906-.381-1.714-.573-2.425-.573-.538 0-.947.117-1.226.352-.28.236-.419.545-.419.93 0 .265.056.492.168.68.111.188.296.366.55.533.256.168.716.388 1.381.662.748.31 1.297.601 1.645.87.349.27.604.575.767.914.163.34.244.74.244 1.199h-.001zm5.164 2.906c-1.198 0-2.137-.35-2.813-1.05-.676-.7-1.014-1.662-1.014-2.89 0-1.259.314-2.248.941-2.968.628-.72 1.49-1.08 2.586-1.08 1.018 0 1.821.308 2.412.927.59.618.885 1.467.885 2.551v.885H9.548c.024.748.226 1.324.606 1.726.38.402.918.602 1.61.602.455 0 .88-.042 1.271-.128a6.69 6.69 0 0 0 1.265-.43v1.331c-.4.19-.804.325-1.213.405a7.42 7.42 0 0 1-1.4.118h.001zm-.3-6.747c-.52 0-.937.165-1.252.495-.313.33-.5.81-.56 1.443h3.498c-.009-.637-.163-1.12-.46-1.446-.297-.328-.706-.492-1.226-.492zm9.98 6.607l-.327-1.073h-.055c-.373.47-.746.789-1.123.959-.376.17-.86.254-1.45.254-.758 0-1.349-.205-1.774-.613-.426-.41-.638-.987-.638-1.735 0-.795.295-1.395.885-1.8.59-.403 1.489-.624 2.697-.66l1.33-.042v-.412c0-.492-.114-.86-.345-1.105-.23-.243-.586-.366-1.07-.366a3.7 3.7 0 0 0-1.135.174 8.434 8.434 0 0 0-1.046.411l-.53-1.171a5.723 5.723 0 0 1 1.374-.499c.498-.113.967-.17 1.408-.17.98 0 1.72.214 2.219.642.5.428.75 1.099.75 2.014v5.192h-1.172.002zm-2.439-1.115c.595 0 1.072-.167 1.433-.499.36-.332.54-.798.54-1.397V11.8l-.99.042c-.771.028-1.331.157-1.682.386-.351.23-.526.582-.526 1.055 0 .344.101.61.306.798.204.188.51.283.92.283zm9.807-6.733c.33 0 .601.024.815.07l-.16 1.527a3.109 3.109 0 0 0-.725-.084c-.655 0-1.186.214-1.593.641-.406.428-.61.984-.61 1.667v4.029h-1.638V7.77h1.283l.216 1.36h.084c.255-.46.588-.825 1-1.095.41-.27.853-.404 1.327-.404V7.63zm5.352 7.988c-1.166 0-2.052-.34-2.659-1.021-.606-.68-.91-1.658-.91-2.931 0-1.297.317-2.293.952-2.99.634-.697 1.55-1.046 2.75-1.046.813 0 1.544.151 2.196.453L35.92 9.4c-.692-.27-1.263-.404-1.714-.404-1.334 0-2.001.885-2.001 2.656 0 .864.166 1.514.498 1.947.333.435.82.652 1.461.652.73 0 1.42-.181 2.07-.544v1.429a3.259 3.259 0 0 1-.936.37 5.618 5.618 0 0 1-1.21.11v.002zm10.74-.14h-1.644V10.74c0-.594-.12-1.038-.36-1.33-.238-.293-.619-.44-1.139-.44-.688 0-1.192.206-1.516.617-.323.411-.485 1.1-.485 2.067v3.827h-1.638V4.635h1.638V7.39c0 .442-.028.913-.084 1.414h.104c.224-.372.533-.66.93-.864.398-.204.86-.306 1.391-.306 1.869 0 2.803.941 2.803 2.824v5.025-.003zm9.926-7.848c.962 0 1.71.349 2.247 1.046.537.697.805 1.675.805 2.934 0 1.264-.272 2.248-.815 2.953-.544.704-1.299 1.055-2.266 1.055-.976 0-1.733-.351-2.272-1.053h-.111l-.3.913h-1.227V4.634h1.638v2.579c0 .19-.01.474-.029.85l-.041.718h.07c.52-.767 1.287-1.15 2.3-1.15zm-.426 1.338c-.66 0-1.134.194-1.425.581-.29.388-.44 1.038-.45 1.948v.111c0 .938.15 1.618.446 2.039.298.42.783.63 1.458.63.58 0 1.02-.23 1.32-.69.301-.46.45-1.123.45-1.993 0-1.752-.6-2.627-1.799-2.627zm4.21-1.199h1.784l1.569 4.37c.237.624.394 1.209.474 1.757h.055c.041-.255.118-.566.23-.93.112-.365.703-2.097 1.77-5.197h1.771l-3.297 8.734c-.6 1.603-1.599 2.405-2.997 2.405a4.71 4.71 0 0 1-1.059-.118v-1.297c.246.056.527.084.844.084.79 0 1.345-.457 1.666-1.373l.286-.724-3.095-7.71h-.001z" fill="#4D9ABF" fill-rule="evenodd"/></symbol><symbol id="logos--slack" viewBox="0 0 444.4 128.2" xmlns="http://www.w3.org/2000/svg"><style>.bast0{fill:#2d333a}</style><g id="baLayer_2_1_"><path class="bast0" d="M201.9 35.7c3.9 1.7 4.2 3 1.1 8.8-3.1 6-3.9 6.3-7.7 4.8-4.8-2.1-11-3.6-15-3.6-6.5 0-10.9 2.3-10.9 5.9 0 11.7 37.4 5.4 37.4 30.4 0 12.6-10.8 21-27 21-8.5 0-19-2.8-26.3-6.5-3.6-1.8-3.8-2.9-.7-8.9 2.7-5.3 3.6-5.8 7.5-4.2 6.2 2.7 14 4.8 19.3 4.8 6 0 9.9-2.4 9.9-6 0-11.4-38.1-6-38.1-30.2 0-12.9 10.7-21.5 26.8-21.5 7.6-.1 17.1 2.2 23.7 5.2zM232.1 6v93.2c0 1.4-1.5 2.9-3.6 2.9h-9.8c-2.1 0-3.6-1.5-3.6-2.9V6c0-4.6 1.3-5 8.5-5 8.2-.1 8.5.5 8.5 5zM301.8 58.4v40.1c0 2.1-1.5 3.6-3.6 3.6h-9.7c-2.2 0-3.8-1.6-3.6-3.8l.1-4.3c-5.3 5.8-12.8 8.9-20.3 8.9-14.6 0-24.4-8.5-24.4-21.1 0-13.4 11.1-22.5 27.7-22.5 6.3 0 12.1 1.1 16.8 3.1v-4.6c0-7.4-5.8-11.8-15.7-11.8-4.6 0-10.3 1.8-14.8 4.5-3.5 2-4.3 1.8-8.1-3.8-3.7-5.6-3.6-6.7 0-9 6.8-4.4 16.1-7.2 24.6-7.2 19-.1 31 10.3 31 27.9zm-45.2 23.2c0 4.8 4 8 10.2 8 7.4 0 14.1-3.6 18-9.6v-6.3c-3.9-1.5-8.7-2.3-12.9-2.3-9.2 0-15.3 4.3-15.3 10.2zM368.3 35.8c3.6 2.1 3.7 3.2-.2 9.2-3.7 5.7-4.3 6-8.2 4-3-1.6-7.7-2.9-11.7-2.9-12.3 0-20.5 8.1-20.5 20.3 0 12.7 8.2 21.2 20.5 21.2 4.3 0 9.6-1.6 13.1-3.6 3.6-2.1 4.3-1.9 8.1 3.6 3.4 5.1 3.3 6.3.3 8.5-5.5 3.8-14.1 6.7-21.7 6.7-22.7 0-37.9-14.6-37.9-36.4 0-21.7 15.2-36.1 38.1-36.1 6.8.1 15 2.5 20.1 5.5zM442.5 93.3c2.8 3.6 1.7 4.9-5.4 7.5-7.2 2.6-8.2 2.5-10.8-.9L406 72.8l-9.1 8.8v17.6c0 1.4-1.5 2.9-3.6 2.9h-9.9c-2.1 0-3.6-1.5-3.6-2.9V6c0-4.6 1.3-5 8.5-5 8.2 0 8.5.6 8.5 5v53l27.8-26.7c3.1-2.9 4.8-2.7 10.2.9 6 3.9 6.5 5 3.6 7.8l-20.7 20.2 24.8 32.1z"/><g><path transform="rotate(-18.522 63.13 65.01)" class="bast0" d="M54.3 56.5h17.6v17H54.3z"/><path transform="rotate(-18.522 63.13 65.01)" class="bast0" d="M54.3 56.5h17.6v17H54.3z"/><path class="bast0" d="M120.4 47.7c-12.9-43-31.5-53-74.5-40.1s-53 31.5-40.1 74.5 31.5 53 74.5 40.1 53-31.5 40.1-74.5zM98.7 75.6l-8.1 2.7 2.8 8.4c1.1 3.4-.7 7.1-4.1 8.2-.7.2-1.5.4-2.2.3-2.6-.1-5.1-1.8-6-4.4l-2.8-8.4L61.6 88l2.8 8.4c1.1 3.4-.7 7.1-4.1 8.2-.7.2-1.5.4-2.2.3-2.6-.1-5.1-1.8-6-4.4l-2.8-8.4-8.1 2.7c-.7.2-1.5.4-2.2.3-2.6-.1-5.1-1.8-6-4.4-1.1-3.4.7-7.1 4.1-8.2l8.1-2.7-5.4-16.1-8.1 2.7c-.7.2-1.5.4-2.2.3-2.6-.1-5.1-1.8-6-4.4-1.1-3.4.7-7.1 4.1-8.2l8.1-2.7-2.8-8.4c-1.1-3.4.7-7.1 4.1-8.2s7.1.7 8.2 4.1l2.8 8.4 16.7-5.6-2.8-8.4c-1.1-3.4.7-7.1 4.1-8.2s7.1.7 8.2 4.1l2.8 8.4 8.1-2.7c3.4-1.1 7.1.7 8.2 4.1 1.1 3.4-.7 7.1-4.1 8.2l-8.1 2.7L86.5 66l8.1-2.7c3.4-1.1 7.1.7 8.2 4.1 1.1 3.4-.7 7.1-4.1 8.2z"/></g></g></symbol><symbol id="logos--slack-symbol" viewBox="0 0 126 128.2" xmlns="http://www.w3.org/2000/svg"><style>.bbst0{fill:#2d333a}</style><g id="bbLayer_2_1_"><path transform="rotate(-18.522 63.095 65.015)" class="bbst0" d="M54.3 56.5h17.6v17H54.3z"/><path transform="rotate(-18.522 63.095 65.015)" class="bbst0" d="M54.3 56.5h17.6v17H54.3z"/><path class="bbst0" d="M120.4 47.7c-12.9-43-31.5-53-74.5-40.1s-53 31.5-40.1 74.5 31.5 53 74.5 40.1 53-31.5 40.1-74.5zM98.7 75.6l-8.1 2.7 2.8 8.4c1.1 3.4-.7 7.1-4.1 8.2-.7.2-1.5.4-2.2.3-2.6-.1-5.1-1.8-6-4.4l-2.8-8.4L61.6 88l2.8 8.4c1.1 3.4-.7 7.1-4.1 8.2-.7.2-1.5.4-2.2.3-2.6-.1-5.1-1.8-6-4.4l-2.8-8.4-8.1 2.7c-.7.2-1.5.4-2.2.3-2.6-.1-5.1-1.8-6-4.4-1.1-3.4.7-7.1 4.1-8.2l8.1-2.7-5.4-16.1-8.1 2.7c-.7.2-1.5.4-2.2.3-2.6-.1-5.1-1.8-6-4.4-1.1-3.4.7-7.1 4.1-8.2l8.1-2.7-2.8-8.4c-1.1-3.4.7-7.1 4.1-8.2s7.1.7 8.2 4.1l2.8 8.4 16.7-5.6-2.8-8.4c-1.1-3.4.7-7.1 4.1-8.2s7.1.7 8.2 4.1l2.8 8.4 8.1-2.7c3.4-1.1 7.1.7 8.2 4.1 1.1 3.4-.7 7.1-4.1 8.2l-8.1 2.7L86.5 66l8.1-2.7c3.4-1.1 7.1.7 8.2 4.1 1.1 3.4-.7 7.1-4.1 8.2z"/></g></symbol><symbol id="logos--spotify" viewBox="0 0 559 168" enable-background="new 0 0 559 168" xmlns="http://www.w3.org/2000/svg"><style>.bcst0{filter:url(#bcAdobe_OpacityMaskFilter)}.bcst1{fill:#fff}.bcst2{mask:url(#bcspotify_logo_rgb_black-b_1_)}.bcst2,.bcst3{fill:#2d333a}</style><defs><filter id="bcAdobe_OpacityMaskFilter" filterUnits="userSpaceOnUse" x="0" y=".5" width="167.5" height="167.5"><feColorMatrix values="1 0 0 0 0 0 1 0 0 0 0 0 1 0 0 0 0 0 1 0"/></filter></defs><mask maskUnits="userSpaceOnUse" x="0" y=".5" width="167.5" height="167.5" id="bcspotify_logo_rgb_black-b_1_"><g class="bcst0"><path id="bcspotify_logo_rgb_black-a_1_" class="bcst1" d="M167.5 167.9H0V.5h167.5z"/></g></mask><path class="bcst2" d="M133.3 74.8c-27-16-71.5-17.5-97.3-9.7-4.1 1.3-8.5-1.1-9.8-5.2-1.3-4.1 1.1-8.5 5.2-9.8 29.6-9 78.8-7.2 109.8 11.2 3.7 2.2 4.9 7 2.7 10.7-2.1 3.7-6.9 5-10.6 2.8zm-.9 23.7c-1.9 3.1-5.9 4-9 2.2-22.5-13.9-56.8-17.9-83.4-9.8-3.5 1-7.1-.9-8.1-4.3-1-3.5.9-7.1 4.4-8.1 30.4-9.2 68.2-4.8 94.1 11.1 2.9 1.8 3.9 5.8 2 8.9zm-10.3 22.8c-1.5 2.5-4.7 3.2-7.2 1.7-19.7-12-44.4-14.7-73.6-8.1-2.8.6-5.6-1.1-6.2-3.9-.6-2.8 1.1-5.6 3.9-6.2 31.9-7.3 59.3-4.2 81.3 9.3 2.6 1.5 3.4 4.7 1.8 7.2zM83.7.5C37.5.5 0 38 0 84.3 0 130.5 37.5 168 83.7 168c46.3 0 83.7-37.5 83.7-83.7C167.5 38 130 .5 83.7.5z"/><path class="bcst3" d="M227.8 77.8c-14.5-3.4-17-5.9-17-11 0-4.8 4.5-8 11.2-8 6.5 0 13 2.5 19.8 7.5.2.2.5.2.7.2.3 0 .5-.2.6-.4l7.1-10c.3-.4.2-1-.2-1.3-8.1-6.5-17.2-9.6-27.8-9.6-15.6 0-26.5 9.4-26.5 22.8 0 14.4 9.4 19.5 25.7 23.4 13.8 3.2 16.2 5.9 16.2 10.6 0 5.3-4.7 8.6-12.3 8.6-8.4 0-15.3-2.8-23-9.5-.2-.2-.5-.2-.7-.2-.3 0-.5.1-.6.3l-7.9 9.4c-.3.4-.3 1 .1 1.3 9 8 20 12.2 31.9 12.2 16.8 0 27.7-9.2 27.7-23.4-.2-11.9-7.3-18.6-25-22.9m75.1 16.1c0 10.2-6.3 17.2-15.2 17.2-8.9 0-15.5-7.4-15.5-17.2 0-9.8 6.7-17.2 15.5-17.2s15.2 7.2 15.2 17.2zm-12.2-30.3c-7.3 0-13.3 2.9-18.2 8.8v-6.6c0-.5-.4-.9-.9-.9h-12.9c-.5 0-.9.4-.9.9v73.6c0 .5.4.9.9.9h12.9c.5 0 .9-.4.9-.9v-23.2c4.9 5.5 10.9 8.2 18.2 8.2 13.5 0 27.3-10.4 27.3-30.4s-13.8-30.4-27.3-30.4zm62.4 47.7c-9.3 0-16.3-7.5-16.3-17.3 0-9.9 6.8-17.1 16.1-17.1s16.4 7.5 16.4 17.4c0 9.8-6.8 17-16.2 17zm0-47.7C335.7 63.6 322 77 322 94.2c0 17 13.6 30.3 30.9 30.3 17.5 0 31.2-13.4 31.2-30.5s-13.6-30.4-31-30.4zm68.3 1.1h-14.2V50.2c0-.5-.4-.9-.9-.9h-12.9c-.5 0-.9.4-.9.9v14.6h-6.2c-.5 0-.9.4-.9.9v11.1c0 .5.4.9.9.9h6.2v28.8c0 11.6 5.8 17.5 17.2 17.5 4.6 0 8.5-1 12.1-3 .3-.2.5-.5.5-.8v-10.6c0-.3-.2-.6-.4-.8-.3-.2-.6-.2-.9 0-2.5 1.3-4.9 1.8-7.6 1.8-4.2 0-6-1.9-6-6.1V77.8h14.2c.5 0 .9-.4.9-.9V65.7c-.2-.5-.6-1-1.1-1m49.6.1V63c0-5.3 2-7.6 6.5-7.6 2.7 0 4.9.5 7.3 1.3.3.1.6 0 .9-.1.2-.2.4-.5.4-.8V44.9c0-.4-.3-.8-.7-.9-2.6-.8-5.8-1.5-10.8-1.5-12 0-18.3 6.7-18.3 19.5v2.7h-6.2c-.5 0-.9.4-.9.9v11.2c0 .5.4.9.9.9h6.2v44.4c0 .5.4.9.9.9h12.9c.5 0 .9-.4.9-.9V77.8h12.1l18.5 44.4c-2.1 4.7-4.2 5.6-7 5.6-2.3 0-4.7-.7-7.1-2-.2-.1-.5-.1-.8-.1-.2.1-.5.3-.6.5l-4.4 9.6c-.2.5 0 1 .4 1.2 4.6 2.5 8.7 3.5 13.8 3.5 9.6 0 14.8-4.5 19.5-16.4l22.5-58c.1-.3.1-.6-.1-.9-.2-.3-.5-.4-.8-.4h-13.5c-.4 0-.8.3-.9.6l-13.8 39.4L494 65.4c-.1-.4-.5-.6-.9-.6H471m-28.7-.1h-12.9c-.5 0-.9.4-.9.9v56.5c0 .5.4.9.9.9h12.9c.5 0 .9-.4.9-.9V65.7c0-.5-.4-1-.9-1M435.8 39c-5.1 0-9.3 4.2-9.3 9.3 0 5.1 4.2 9.3 9.3 9.3 5.1 0 9.3-4.2 9.3-9.3 0-5.1-4.1-9.3-9.3-9.3m114 31.4h-2.4v3h2.4c1.2 0 1.9-.6 1.9-1.5 0-1-.7-1.5-1.9-1.5zm1.5 4.3l2.6 3.6h-2.2l-2.3-3.3h-2v3.3h-1.8v-9.6h4.3c2.2 0 3.7 1.1 3.7 3.1 0 1.5-1 2.5-2.3 2.9zm-2-9.2c-4.7 0-8.2 3.7-8.2 8.3 0 4.5 3.5 8.2 8.2 8.2 4.7 0 8.2-3.7 8.2-8.3 0-4.5-3.5-8.2-8.2-8.2zm0 17.4c-5.1 0-9.1-4.1-9.1-9.1s4-9.2 9.2-9.2c5.1 0 9.1 4.1 9.1 9.1-.1 5-4.1 9.2-9.2 9.2z"/></symbol><symbol id="logos--twitter" viewBox="0 0 251 204.6" xmlns="http://www.w3.org/2000/svg"><style>.bdst0{fill:none}.bdst1{fill:#2d333a}</style><title>Twitter_Logo_Blue</title><path class="bdst0" d="M-74.6-97.7h400v400h-400z"/><path class="bdst1" d="M79 203.9c94.4 0 146-78.2 146-145.9 0-2.2 0-4.4-.1-6.6 10-7.3 18.7-16.3 25.6-26.5-9.4 4.1-19.3 6.9-29.5 8.1 10.7-6.4 18.7-16.5 22.5-28.4-10.1 6-21.1 10.2-32.6 12.4-19.4-20.7-51.9-21.7-72.6-2.3-13.3 12.5-19 31.2-14.8 49-41.2-2.1-79.7-21.5-105.7-53.6-13.6 23.5-6.7 53.4 15.9 68.5-8.2-.2-16.1-2.4-23.3-6.4v.6c0 24.4 17.2 45.4 41.2 50.3-7.6 2.1-15.5 2.4-23.2.9 6.7 20.9 26 35.2 47.9 35.6-18.2 14.3-40.6 22-63.7 22-4.1 0-8.2-.3-12.2-.7 23.4 15 50.7 23 78.6 23"/></symbol><symbol id="logos--twitter-blue" viewBox="0 0 251 204.6" xmlns="http://www.w3.org/2000/svg"><style>.best0{fill:none}.best1{fill:#1da1f2}</style><title>Twitter_Logo_Blue</title><path class="best0" d="M-74.6-97.7h400v400h-400z"/><path class="best1" d="M79 203.9c94.4 0 146-78.2 146-145.9 0-2.2 0-4.4-.1-6.6 10-7.3 18.7-16.3 25.6-26.5-9.4 4.1-19.3 6.9-29.5 8.1 10.7-6.4 18.7-16.5 22.5-28.4-10.1 6-21.1 10.2-32.6 12.4-19.4-20.7-51.9-21.7-72.6-2.3-13.3 12.5-19 31.2-14.8 49-41.2-2.1-79.7-21.5-105.7-53.6-13.6 23.5-6.7 53.4 15.9 68.5-8.2-.2-16.1-2.4-23.3-6.4v.6c0 24.4 17.2 45.4 41.2 50.3-7.6 2.1-15.5 2.4-23.2.9 6.7 20.9 26 35.2 47.9 35.6-18.2 14.3-40.6 22-63.7 22-4.1 0-8.2-.3-12.2-.7 23.4 15 50.7 23 78.6 23"/></symbol><symbol viewBox="0 0 16 16" id="navtoggle-close" xmlns="http://www.w3.org/2000/svg"><title>Group</title><g fill-rule="nonzero" fill="#212529"><path d="M1.636 15.778L15.778 1.636 14.364.222.222 14.364z"/><path d="M15.778 14.364L1.636.222.222 1.636l14.142 14.142z"/></g></symbol><symbol id="navtoggle-light-open" viewBox="0 0 20 14" xmlns="http://www.w3.org/2000/svg"><style>.bgst0{fill:#fff}</style><title>Group 2</title><g id="bgPage-1"><g id="bgGroup-2"><path id="bgRectangle-4" class="bgst0" d="M0 2h20V0H0z"/><path id="bgRectangle-4-Copy-7" class="bgst0" d="M0 8h20V6H0z"/><path id="bgRectangle-4-Copy-8" class="bgst0" d="M0 14h20v-2H0z"/></g></g></symbol><symbol viewBox="0 0 20 14" id="navtoggle-open" xmlns="http://www.w3.org/2000/svg"><title>Group 2</title><g fill-rule="nonzero" fill="#212529"><path d="M0 2h20V0H0zM0 8h20V6H0zM0 14h20v-2H0z"/></g></symbol><symbol viewBox="0 0 28 35" id="popup" xmlns="http://www.w3.org/2000/svg"><title>Group 21</title><g fill="#000" fill-rule="evenodd"><path d="M12.657 16.658l-1.314-1.316 15-15 1.314 1.316-15 15"/><path d="M28 10h-2V2h-8V0h10v10M23 28H3c-1.654 0-3-1.346-3-3V5c0-1.654 1.346-3 3-3h11v2H3c-.552 0-1 .449-1 1v20c0 .551.448 1 1 1h20c.552 0 1-.449 1-1V14h2v11c0 1.654-1.346 3-3 3"/></g><text y="43" font-size="5" font-weight="bold" font-family="'Helvetica Neue', Helvetica, Arial-Unicode, Arial, Sans-serif">Created by Bluetip Design</text><text y="48" font-size="5" font-weight="bold" font-family="'Helvetica Neue', Helvetica, Arial-Unicode, Arial, Sans-serif">from the Noun Project</text></symbol><symbol viewBox="0 0 512 512" id="search" xmlns="http://www.w3.org/2000/svg"><path d="M508.5 468.9L387.1 347.5c-2.3-2.3-5.3-3.5-8.5-3.5h-13.2c31.5-36.5 50.6-84 50.6-136C416 93.1 322.9 0 208 0S0 93.1 0 208s93.1 208 208 208c52 0 99.5-19.1 136-50.6v13.2c0 3.2 1.3 6.2 3.5 8.5l121.4 121.4c4.7 4.7 12.3 4.7 17 0l22.6-22.6c4.7-4.7 4.7-12.3 0-17zM208 368c-88.4 0-160-71.6-160-160S119.6 48 208 48s160 71.6 160 160-71.6 160-160 160z"/></symbol></svg>