<?xml version="1.0" encoding="utf-8"?>
<!-- Generator: Adobe Illustrator 22.0.1, SVG Export Plug-In . SVG Version: 6.00 Build 0)  -->
<svg version="1.1" id="Layer_1" xmlns="http://www.w3.org/2000/svg" xmlns:xlink="http://www.w3.org/1999/xlink" x="0px" y="0px"
	 viewBox="0 0 138 163.4" style="enable-background:new 0 0 138 163.4;" xml:space="preserve">
<style type="text/css">
	.st0{fill:#2D333A;}
</style>
<path class="st0" d="M134.4,127.2c-2.4,5.7-5.4,10.9-8.7,15.7c-4.6,6.5-8.3,11.1-11.2,13.6c-4.5,4.1-9.3,6.2-14.4,6.4
	c-3.7,0-8.1-1.1-13.3-3.2c-5.2-2.1-10-3.2-14.3-3.2c-4.6,0-9.5,1.1-14.7,3.2c-5.3,2.1-9.5,3.2-12.7,3.4c-4.9,0.2-9.8-2-14.7-6.5
	c-3.1-2.7-7-7.4-11.7-14c-5-7.1-9.2-15.3-12.4-24.7c-3.5-10.1-5.2-19.9-5.2-29.4c0-10.9,2.3-20.2,7-28.1C11.5,54,16.4,49,22.6,45.4
	s12.8-5.5,19.9-5.6c3.9,0,9,1.2,15.4,3.6c6.4,2.4,10.4,3.6,12.2,3.6c1.3,0,5.9-1.4,13.6-4.2c7.3-2.6,13.4-3.7,18.4-3.3
	c13.6,1.1,23.9,6.5,30.7,16.2c-12.2,7.4-18.2,17.7-18.1,31c0.1,10.3,3.9,18.9,11.2,25.8c3.3,3.2,7.1,5.6,11.2,7.4
	C136.3,122.3,135.4,124.8,134.4,127.2L134.4,127.2z M103.1,4.2c0,8.1-3,15.7-8.9,22.7C87.1,35.2,78.5,40,69.2,39.3
	c-0.1-1-0.2-2-0.2-3.1c0-7.8,3.4-16.1,9.4-22.9c3-3.4,6.8-6.3,11.4-8.6c4.6-2.3,9-3.5,13.1-3.7C103.1,2.1,103.1,3.1,103.1,4.2
	L103.1,4.2z"/>
</svg>
