<?xml version="1.0" encoding="utf-8"?>
<!-- Generator: Adobe Illustrator 22.0.1, SVG Export Plug-In . SVG Version: 6.00 Build 0)  -->
<svg version="1.1" id="Layer_1" xmlns="http://www.w3.org/2000/svg" xmlns:xlink="http://www.w3.org/1999/xlink" x="0px" y="0px"
	 viewBox="0 0 2500 972" style="enable-background:new 0 0 2500 972;" xml:space="preserve">
<style type="text/css">
	.st0{fill:#2D333A;}
</style>
<path class="st0" d="M1701.4,99.5v652.3h195.9v-99.7h-64.7V0.2h-131.2L1701.4,99.5L1701.4,99.5z M0,652.1h66.6V337.4H0v-86.5
	l66.6-11v-87.6C66.6,46.2,89.7,0.2,225,0.2c29.2,0,63.9,4.3,94.2,9.8l-18,106.7c-20.5-3.3-30.7-3.8-43.7-3.8
	c-47.7,0-59.7,4.8-59.7,51.3V240h99v97.5h-99v314.7h65.9v99.6H0V652.1L0,652.1z M1634.6,620.6c-20.5,4.3-38.5,3.8-51.5,4.1
	c-54,1.3-49.3-16.4-49.3-67.3v-220h102.7v-97.5h-102.7V0.2h-131.2v584.5c0,114.8,28.3,167.1,151.8,167.1c29.2,0,69.4-7.5,99.7-14
	L1634.6,620.6L1634.6,620.6z M1238.9,337.3v-17.5c-39.7-7.2-79.1-7.3-100.5-7.3c-61.1,0-68.5,32.4-68.5,49.9
	c0,24.8,8.5,38.3,74.6,52.7c96.7,21.7,193.8,44.4,193.8,164.2c0,113.7-58.5,172.4-181.7,172.4c-82.4,0-162.4-17.7-223.4-33.2v-98
	h99.4l-0.1,17.4c42.8,8.3,87.6,7.4,111,7.4c65.1,0,75.7-35,75.7-53.6c0-25.8-18.7-38.2-79.7-50.6c-115-19.6-206.3-58.9-206.3-175.8
	c0-110.6,74-154,197.1-154c83.4,0,146.9,12.9,207.9,28.4V337L1238.9,337.3L1238.9,337.3z M574.2,620.3v-15.4h-15.7v15.4
	c-70.4-4.1-126.7-60.7-130.4-131.2h15.6v-15.7h-15.5c4.2-70,60.3-126.1,130.3-130.2v15.5h15.7v-15.5
	c69.1,3.7,124.7,57.9,130.7,126.3v4.5h-15.7v15.7H705v4.3C699,562.4,643.3,616.7,574.2,620.3L574.2,620.3z M836.2,620.6l-0.1-408.3
	H704.9v38.3c-27.5-16.5-57.7-27.9-89.2-33.8h0.7v-45.3h16v-33.3H500.3v33.3h16v45.3h0.9c-125.5,23.1-220.6,133-220.6,265.2
	c0,149,120.7,269.7,269.7,269.7c49,0.1,97-13.3,139-38.5l23.6,38.6h138.6V620.6H836.2L836.2,620.6z M2229.4,239.9H2500v97.4h-64.7
	l-166,408.3c-47.6,114.7-125.7,222.6-244.7,222.6c-29.3,0-68.2-3.2-95.2-9.7l11.9-119.1c17.3,3.2,40,5.4,51.9,5.4
	c55.2,0,117.4-34.2,136.9-93.7L1962,337.3h-64.7v-97.4h270.8v97.4h-64.7l95.3,234.4l95.3-234.4h-64.5L2229.4,239.9L2229.4,239.9z
	 M635.2,423.4l-10-10l-50.7,44.2c-2.6-0.9-5.4-1.4-8.2-1.4c-13.7,0-24.8,11.4-24.8,25.4c0,14.1,11.1,25.5,24.8,25.5
	s24.8-11.4,24.8-25.5c0-2.7-0.4-5.2-1.1-7.7L635.2,423.4"/>
</svg>
