<?xml version="1.0" encoding="utf-8"?>
<!-- Generator: Adobe Illustrator 22.0.1, SVG Export Plug-In . SVG Version: 6.00 Build 0)  -->
<svg version="1.1" id="Layer_2" xmlns="http://www.w3.org/2000/svg" xmlns:xlink="http://www.w3.org/1999/xlink" x="0px" y="0px"
	 viewBox="0 0 1500 410" style="enable-background:new 0 0 1500 410;" xml:space="preserve">
<style type="text/css">
	.st0{fill:#69747C;}
</style>
<g>
	<path class="st0" d="M348.4,137.4l0-0.2v0l0-0.2v0l0-0.2v0l0-0.2v0l0-0.2v0l0-0.2v0l0-0.2v0l0-0.2v0l0-0.2v0l0-0.2v0l0-0.2v0l0-0.2
		v0l0-0.2v0l0-0.2v0l0-0.2l0,0l0-0.2l0,0l0-0.2v0l0-0.2l0,0l0-0.2l0,0l0-0.2v0l0-0.2l0,0l0-0.2v0l0-0.2v0l0-0.2v0l0-0.2v0l0-0.2v0
		l-0.1-0.4l0-0.1l-0.1-0.4l0-0.1l-0.1-0.4l0-0.1l-0.1-0.4l0,0l-0.1-0.4l0,0l-0.1-0.4l0-0.1l-0.1-0.4l0,0l-0.1-0.4l0,0l-0.1-0.4l0,0
		l-0.1-0.4l0-0.1l-0.1-0.4l0,0l-0.1-0.4l0,0l-0.1-0.4l0-0.1l-0.1-0.4l0-0.1l-0.1-0.4l0,0l-0.1-0.4l0,0l-0.1-0.4l0-0.1l-0.1-0.4
		l0-0.1l-0.1-0.4l0,0l-0.1-0.4l0,0l-0.1-0.4l0,0l-0.1-0.4l0,0l-0.1-0.4l0,0l-0.1-0.4l0,0l-0.1-0.4l0,0l-0.1-0.4l0,0l-0.1-0.4l0,0
		l-0.1-0.4l0,0l-0.1-0.4l0,0l-0.1-0.4l0,0l-0.1-0.4l0,0l-0.2-0.4l0,0l-0.2-0.4l0-0.1l-0.2-0.4l0-0.1l-0.2-0.4l0,0l-0.2-0.4l0,0
		l-0.2-0.4l0,0l-0.2-0.4l0,0l-0.2-0.4l0,0l-0.2-0.4l0,0l-0.2-0.4l0,0l-0.2-0.4l0,0l-0.2-0.4l0,0l-0.2-0.4l0-0.1l-0.2-0.4l0,0
		l-0.2-0.4l0-0.1l-0.2-0.4l0,0l-0.2-0.4l0,0l-0.2-0.3l0,0l-0.2-0.4l0,0l-0.2-0.3l0-0.1l-0.2-0.3l0,0l-0.2-0.4l0,0l-0.2-0.3l0,0
		l-0.2-0.3l0,0l-0.2-0.3l0,0l-0.2-0.3l0,0L338,106l0,0l-0.2-0.3l0,0l-0.2-0.3l0-0.1l-0.2-0.3l0,0l-0.2-0.3l0-0.1l-0.2-0.3l0,0
		l-0.2-0.3l0,0l-0.2-0.3l0,0l-0.3-0.3l0,0l-0.3-0.3l0,0l-0.3-0.3l0,0l-0.3-0.3l0,0l-0.3-0.3l0,0l-0.3-0.3l0,0l-0.3-0.3l0,0l-0.3-0.3
		l0,0l-0.3-0.3l0,0l-0.3-0.3l0,0l-0.3-0.3l0,0l-0.3-0.3l0,0l-0.3-0.3l0,0l-0.3-0.3l0,0l-0.3-0.3l0,0l-0.3-0.3l0,0l-0.3-0.3l0,0
		l-0.3-0.3l0,0l-0.3-0.3l0,0l-0.3-0.3l0,0l-0.3-0.3l0,0l-0.3-0.3l0,0l-0.3-0.3l0,0l-0.3-0.3l0,0l-0.3-0.3l0,0l-0.3-0.3l0,0l-0.3-0.3
		l0,0l-0.3-0.3l0,0l-0.3-0.3l0,0l-0.2-0.1l0,0l-0.2-0.1l0,0l-0.2-0.1l0,0l-0.2-0.1l0,0l-0.2-0.1l0,0l-0.2-0.1l0,0l-0.2-0.1l0,0
		l-0.2-0.1l0,0l-0.2-0.1l0,0l-0.2-0.1l0,0l-0.2-0.1l0,0l-0.2-0.1l0,0l-0.2-0.1l0,0l-0.2-0.1l0,0l-0.2-0.1l0,0l-0.2-0.1l0,0l-0.2-0.1
		l0,0l-0.2-0.1l0,0l-0.2-0.1l0,0l-0.2-0.1l0,0l-0.2-0.1l0,0l-0.2-0.1l0,0l-0.2-0.1l0,0l-0.2-0.1l0,0l-0.2-0.1l0,0l-0.2-0.1l0,0
		l-0.2-0.1l0,0l-0.2-0.1l0,0l-0.2-0.1l0,0l-0.2-0.1l0,0l-0.2-0.1l0,0l-0.2-0.1l0,0l-0.2-0.1l0,0l-0.2-0.1L206.4,22.6h0l-0.2-0.1l0,0
		l-0.2-0.1l0,0l-0.2-0.1l0,0l-0.2-0.1l0,0l-0.2-0.1l0,0l-0.2-0.1l0,0l-0.2-0.1l0,0l-0.2-0.1l0,0l-0.2-0.1l0,0l-0.2-0.1l0,0l-0.2-0.1
		l0,0l-0.2-0.1l0,0l-0.2-0.1l0,0l-0.2-0.1l0,0l-0.2-0.1l0,0l-0.2-0.1l0,0l-0.2-0.1l0,0l-0.2-0.1l0,0l-0.2-0.1l0,0l-0.2-0.1l0,0
		l-0.2-0.1l0,0l-0.2-0.1l0,0l-0.2-0.1l0,0l-0.2-0.1l0,0l-0.2-0.1l0,0l-0.2-0.1l0,0l-0.2-0.1l0,0l-0.2-0.1l0,0l-0.2-0.1l0,0l-0.2-0.1
		l0,0l-0.2-0.1l0,0l-0.2-0.1l0,0l-0.2-0.1l0,0l-0.2-0.1l0,0l-0.2-0.1l0,0l-0.2-0.1l0,0L197,18l0,0l-0.2-0.1l0,0l-0.2-0.1l0,0
		l-0.2-0.1l0,0l-0.2-0.1l0,0l-0.2-0.1l0,0l-0.2-0.1l0,0l-0.2-0.1l0,0l-0.2-0.1l0,0l-0.2-0.1l0,0l-0.2-0.1l0,0l-0.2-0.1l0,0l-0.2-0.1
		l0,0l-0.2-0.1l0,0l-0.2-0.1h0l-0.2-0.1h0l-0.2-0.1l0,0l-0.2-0.1l0,0l-0.2-0.1l0,0l-0.2-0.1l0,0l-0.2-0.1l0,0l-0.2-0.1l0,0l-0.2-0.1
		l0,0l-0.2-0.1l0,0l-0.2-0.1h0l-0.2-0.1l0,0l-0.2-0.1h0l-0.2-0.1h0l-0.2-0.1l0,0l-0.2-0.1l0,0l-0.2-0.1l0,0l-0.2-0.1l0,0l-0.2-0.1h0
		l-0.2-0.1l0,0l-0.2,0l0,0l-0.2,0l0,0l-0.2-0.1h0l-0.2-0.1l0,0l-0.2-0.1h0l-0.2,0l0,0l-0.2-0.1h0l-0.2,0h0l-0.2,0h0l-0.2,0h0l-0.2,0
		h0l-0.2,0h0l-0.2,0l0,0l-0.2,0l0,0l-0.2,0h0l-0.2,0h0l-0.2,0h0l-0.2,0h0l-0.2,0h0l-0.2,0h0l-0.2,0l0,0l-0.2,0h0l-0.2,0h0l-0.2,0h0
		l-0.2,0h0l-0.2,0h0l-0.2,0h0l-0.2,0h0l-0.2,0h0l-0.2,0h0l-0.2,0h0l-0.2,0h0l-0.2,0h0l-0.2,0h0l-0.2,0h0l-0.2,0h0l-0.2,0h0l-0.2,0h0
		l-0.2,0h0l-0.2,0h0l-0.2,0h0l-0.2,0h0l-0.2,0h0l-0.2,0h0l-0.2,0h0l-0.2,0h0l-0.2,0h0l-0.2,0h-1.4l-0.2,0h-0.3l-0.1,0.1h-0.6l-0.2,0
		H172l-0.2,0h0l-0.2,0h0l-0.2,0h0l-0.2,0h0l-0.2,0h0l-0.2,0l0,0l-0.2,0h0l-0.2,0h0l-0.2,0h0l-0.2,0h0l-0.2,0h0l-0.2,0l0,0l-0.2,0
		l0,0l-0.2,0h0l-0.2,0h0l-0.2,0h0l-0.2,0l0,0l-0.2,0l0,0l-0.2,0h0l-0.2,0h0l-0.2,0h0l-0.2,0h0l-0.2,0h0l-0.2,0h0l-0.2,0l0,0l-0.2,0
		l0,0l-0.2,0h0l-0.2,0h0l-0.2,0h0l-0.2,0h0l-0.2,0h0l-0.2,0l0,0l-0.2,0h0l-0.2,0h0l-0.2,0l0,0l-0.2,0l0,0l-0.2,0h0l-0.2,0l0,0
		l-0.2,0l0,0l-0.2,0h0l-0.2,0l0,0l-0.2,0l0,0l-0.2,0l0,0l-0.2,0h0l-0.2,0l0,0l-0.2,0h0l-0.2,0l0,0l-0.2,0h0l-0.2,0.1l0,0l-0.2,0.1
		l0,0l-0.2,0l0,0l-0.2,0.1h0l-0.2,0.1h0l-0.2,0.1l0,0l-0.2,0.1l0,0l-0.2,0.1h0l-0.2,0.1h0l-0.2,0.1l0,0l-0.2,0.1l0,0l-0.2,0.1l0,0
		l-0.2,0.1l0,0l-0.2,0.1l0,0l-0.2,0.1l0,0l-0.2,0.1l0,0l-0.2,0.1l0,0l-0.2,0.1l0,0l-0.2,0.1h0l-0.2,0.1l0,0l-0.2,0.1l0,0l-0.2,0.1
		l0,0l-0.2,0.1l0,0l-0.2,0.1l0,0l-0.2,0.1l0,0l-0.2,0.1l0,0l-0.2,0.1l0,0l-0.2,0.1l0,0l-0.2,0.1l0,0l-0.2,0.1l0,0l-0.2,0.1l0,0
		l-0.2,0.1l0,0l-0.2,0.1l0,0l-0.2,0.1l0,0l-0.2,0.1l0,0l-0.2,0.1l0,0l-0.2,0.1l0,0l-0.2,0.1l0,0l-0.2,0.1l0,0l-0.2,0.1l0,0l-0.2,0.1
		l0,0l-0.2,0.1l0,0l-0.2,0.1l0,0l-0.2,0.1l0,0l-0.2,0.1l0,0l-0.2,0.1l0,0l-0.2,0.1l0,0l-0.2,0.1l0,0l-0.2,0.1l0,0l-0.2,0.1l0,0
		l-0.2,0.1l0,0L145,20l0,0l-0.2,0.1l0,0l-0.2,0.1l0,0l-0.2,0.1l0,0l-0.2,0.1l0,0l-0.2,0.1l0,0l-0.2,0.1l0,0l-0.2,0.1l0,0L143,21l0,0
		l-0.2,0.1l0,0l-0.2,0.1l0,0l-0.2,0.1l0,0l-0.2,0.1l0,0l-0.2,0.1l0,0l-0.2,0.1l0,0l-0.2,0.1l0,0L141,22l0,0l-0.2,0.1l0,0l-0.2,0.1
		l0,0l-0.2,0.1l0,0l-0.2,0.1l0,0l-0.2,0.1l0,0l-0.2,0.1l0,0l-0.2,0.1l0,0l-0.2,0.1l0,0l-0.2,0.1l0,0l-0.2,0.1l0,0l-0.2,0.1l0,0
		l-100.5,62h0l-0.2,0.1l0,0l-0.2,0.1l0,0L37,86.1l0,0l-0.2,0.1l0,0l-0.2,0.1l0,0l-0.2,0.1l0,0L36,86.7l0,0l-0.2,0.2l0,0L35.6,87l0,0
		l-0.2,0.1l0,0l-0.2,0.1l0,0l-0.2,0.2l0,0l-0.2,0.2l0,0l-0.2,0.1l0,0L34.2,88l0,0l-0.2,0.1l0,0l-0.2,0.2l0,0l-0.2,0.2l0,0l-0.2,0.1
		l0,0L33,88.8l0,0L32.7,89l0,0l-0.2,0.1l0,0l-0.2,0.2l0,0l-0.2,0.2l0,0l-0.2,0.2l0,0l-0.2,0.2l0,0L31.4,90l0,0l-0.2,0.2l0,0
		l-0.2,0.2l0,0l-0.2,0.2l0,0l-0.2,0.2l0,0l-0.2,0.2l0,0L30,91.1l0,0l-0.2,0.2l0,0l-0.2,0.2l0,0l-0.2,0.2l0,0l-0.2,0.2l0,0L28.9,92
		l0,0l-0.2,0.2l0,0l-0.2,0.2l0,0l-0.2,0.2l0,0l-0.2,0.2l0,0l-0.2,0.2l0,0l-0.2,0.2l0,0l-0.2,0.2l0,0l-0.2,0.2l0,0L27,93.7l0,0
		l-0.2,0.2l0,0L26.6,94l0,0l-0.2,0.2l0,0l-0.2,0.2l0,0L26,94.6l0,0l-0.2,0.2l0,0L25.6,95l0,0l-0.2,0.2l0,0l-0.2,0.2l0,0L25,95.6l0,0
		l-0.2,0.2l0,0L24.6,96l0,0l-0.2,0.2l0,0l-0.2,0.2l0,0L24,96.6l0,0l-0.2,0.2l0,0L23.6,97l0,0l-0.2,0.2l0,0l-0.2,0.2l0,0L23,97.7l0,0
		l-0.2,0.2l0,0l-0.2,0.2l0,0l-0.2,0.2l0,0l-0.2,0.2l0,0L22,98.7l0,0l-0.2,0.2l0,0l-0.2,0.2l0,0l-0.2,0.2l0,0l-0.2,0.2l0,0l-0.2,0.2
		l0,0l-0.2,0.2l0,0l-0.2,0.2l0,0l-0.2,0.2l0,0l-0.2,0.2l0,0l-0.2,0.2l0,0l-0.2,0.2l0,0l-0.2,0.2l0,0l-0.2,0.2l0,0l-0.2,0.2l0,0
		l-0.2,0.2l0,0l-0.2,0.2l0,0l-0.2,0.2l0,0l-0.2,0.2l0,0l-0.2,0.2l0,0l-0.1,0.2l0,0l-0.2,0.2l0,0l-0.2,0.2l0,0l-0.1,0.2l0,0l-0.1,0.2
		l0,0l-0.2,0.2l0,0l-0.1,0.2l0,0l-0.1,0.2l0,0l-0.2,0.2l0,0l-0.1,0.2l0,0l-0.2,0.2l0,0l-0.2,0.2l0,0l-0.1,0.2l0,0l-0.1,0.2l0,0
		l-0.1,0.2l0,0l-0.1,0.2l0,0l-0.1,0.2l0,0l-0.1,0.2l0,0l-0.1,0.2l0,0l-0.1,0.2l0,0l-0.1,0.2l0,0l-0.1,0.2l0,0l-0.1,0.2l0,0l-0.1,0.2
		l0,0l-0.1,0.2l0,0l-0.1,0.2l0,0l-0.1,0.2l0,0l-0.1,0.2l0,0l-0.1,0.2l0,0l-0.1,0.2l0,0l-0.1,0.2l0,0l-0.1,0.2l0,0l-0.1,0.2l0,0
		l-0.1,0.2l0,0l-0.1,0.2l0,0l-0.1,0.2l0,0l-0.1,0.2l0,0l-0.1,0.2l0,0l-0.1,0.2l0,0l-0.1,0.2l0,0l-0.1,0.2l0,0l-0.1,0.2l0,0l-0.1,0.2
		l0,0l-0.1,0.2l0,0l-0.1,0.2l0,0l-0.1,0.2l0,0l-0.1,0.2l0,0l-0.1,0.2l0,0l-0.1,0.2l0,0l-0.1,0.2l0,0l-0.1,0.2l0,0l-0.1,0.2l0,0
		l-0.1,0.2l0,0l-0.1,0.2l0,0l-0.1,0.2l0,0l-0.1,0.2l0,0l-0.1,0.2l0,0l-0.1,0.2l0,0l-0.1,0.2l0,0l-0.1,0.2l0,0l-0.1,0.2l0,0l-0.1,0.2
		l0,0L9.6,118l0,0l-0.1,0.2l0,0l-0.1,0.2l0,0l-0.1,0.2l0,0l-0.1,0.2l0,0l-0.1,0.2l0,0L9,119.6l0,0l-0.1,0.2l0,0l-0.1,0.2l0,0
		l-0.1,0.2l0,0l-0.1,0.2l0,0l-0.1,0.2l0,0l-0.1,0.2l0,0l-0.1,0.2v0l-0.1,0.2l0,0L8,122l0,0L8,122.2l0,0l-0.1,0.2l0,0l-0.1,0.2l0,0
		L7.7,123l0,0l-0.1,0.2l0,0l-0.1,0.2l0,0l-0.1,0.2l0,0l-0.1,0.2v0l-0.1,0.2v0l-0.1,0.2l0,0l-0.1,0.2l0,0L7,125.2l0,0l-0.1,0.2l0,0
		l-0.1,0.2l0,0l-0.1,0.2l0,0l-0.1,0.2l0,0l-0.1,0.2l0,0l-0.1,0.2l0,0L6.4,127l0,0l-0.1,0.2v0l-0.1,0.2l0,0l-0.1,0.2v0l-0.1,0.2v0
		L6,128.4l0,0L6,128.7v0L5.9,129l0,0l-0.1,0.2v0l-0.1,0.2l0,0l-0.1,0.2v0l-0.1,0.2l0,0l-0.1,0.2l0,0l-0.1,0.2v0l-0.1,0.2l0,0
		l-0.1,0.2l0,0l-0.1,0.2v0l0,0.2v0l0,0.2l0,0l0,0.2l0,0l0,0.2l0,0l0,0.2l0,0l0,0.3v0l0,0.2v0l-0.1,0.2v0l0,0.2l0,0l-0.1,0.3v0l0,0.2
		l0,0l0,0.2v0l0,0.3v0l0,0.3l0,0l0,0.3l0,0l0,0.2l0,0l0,0.3v0l0,0.3v0l0,0.2l0,0l0,0.3v0l0,0.3v0l0,0.2v0l0,0.3l0,0l0,0.3v0l0,0.3v0
		l0,0.3v0l0,0.3l0,0l0,0.3v0l0,0.3v0l0,0.3l0,0l0,0.3v0l0,0.3v0l0,0.3v0l0,0.3v0l0,0.3v0l0,0.3v0l0,0.3v0l0,0.3v0l0,0.3v0l0,0.3v0
		l0,0.3v0l0,0.3v0l0,0.3v0l0,0.3v0l0,0.3v0l0,0.3v0.9l0,0.3v0.3l0,0.2v126.6l0,0.3v0l0,0.3v0.3l0,0.3l0,0l0,0.3v0l0,0.3v0l0,0.3v0.3
		l0,0.3v0l0,0.3v0l0,0.3l0,0.3v0l0,0.3v0l0,0.3l0,0l0,0.3v0l0,0.3l0,0l0,0.3v0l0,0.3l0,0.3l0,0l0,0.3v0l0,0.3l0,0l0,0.3v0l0,0.3l0,0
		l0,0.3v0l0,0.2l0,0l0,0.3v0l0,0.2v0l0,0.3v0l0,0.2v0l0,0.2v0l0,0.2v0l0,0.2v0l0,0.2l0,0l0,0.2v0l0,0.2v0l0,0.2l0,0l0,0.2l0,0l0,0.3
		l0,0l0.1,0.3v0l0.1,0.2l0,0l0.1,0.2v0l0,0.3v0l0,0.2l0,0.2l0,0l0,0.2l0,0l0,0.2l0,0l0.1,0.2l0,0l0,0.2l0,0l0.1,0.2l0,0l0.1,0.2l0,0
		l0.1,0.2l0,0l0.1,0.2l0,0l0.1,0.2l0,0l0.1,0.2h0l0.1,0.2l0,0l0.1,0.2l0,0l0.1,0.2v0l0.1,0.2v0l0.1,0.2l0,0l0.1,0.2l0,0l0.1,0.2l0,0
		l0.1,0.2l0,0l0.1,0.2l0,0l0.1,0.2l0,0l0.1,0.2l0,0l0.1,0.2l0,0l0.1,0.2l0,0l0.1,0.2l0,0L7,292l0,0l0.1,0.2l0,0l0.1,0.2l0,0l0.1,0.2
		l0,0l0.1,0.2l0,0l0.1,0.2l0,0l0.1,0.2l0,0l0.1,0.2l0,0l0.1,0.2l0,0l0.1,0.2l0,0l0.1,0.2l0,0l0.1,0.2l0,0l0.1,0.2l0,0l0.1,0.2l0,0
		l0.1,0.2l0,0l0.1,0.2l0,0l0.1,0.2l0,0l0.1,0.2l0,0l0.1,0.2l0,0l0.1,0.2l0,0l0.1,0.2l0,0l0.1,0.2l0,0l0.1,0.2l0,0l0.1,0.2l0,0
		l0.1,0.2l0,0l0.1,0.2l0,0l0.1,0.2l0,0l0.1,0.2l0,0l0.1,0.2l0,0l0.1,0.2l0,0l0.1,0.2l0,0l0.1,0.2l0,0l0.1,0.2l0,0l0.1,0.2l0,0
		l0.1,0.2l0,0l0.1,0.2l0,0l0.1,0.2l0,0l0.1,0.2l0,0l0.1,0.2v0l0.1,0.2l0,0l0.1,0.2l0,0l0.1,0.2l0,0l0.1,0.2l0,0l0.1,0.2l0,0l0.1,0.2
		l0,0l0.1,0.2l0,0l0.1,0.2l0,0l0.1,0.2l0,0l0.1,0.2l0,0l0.1,0.2l0,0l0.1,0.2l0,0l0.1,0.2l0,0l0.1,0.2l0,0l0.1,0.2l0,0l0.1,0.2l0,0
		l0.1,0.2l0,0l0.1,0.2l0,0l0.1,0.2l0,0l0.1,0.2l0,0l0.1,0.2l0,0l0.1,0.2l0,0l0.1,0.2l0,0l0.1,0.2l0,0l0.1,0.2l0,0l0.1,0.2l0,0
		l0.1,0.2l0,0l0.1,0.2l0,0l0.1,0.2l0,0l0.1,0.2l0,0l0.1,0.2l0,0l0.1,0.2l0,0l0.1,0.2l0,0l0.1,0.2l0,0l0.1,0.2l0,0l0.1,0.2l0,0
		l0.1,0.2l0,0l0.1,0.2l0,0l0.1,0.2l0,0l0.2,0.2l0,0l0.2,0.2l0,0l0.1,0.2l0,0l0.2,0.2l0,0l0.1,0.2l0,0l0.2,0.2l0,0l0.2,0.2l0,0
		l0.1,0.2l0,0l0.2,0.2l0,0l0.2,0.2l0,0l0.1,0.2l0,0l0.2,0.2l0,0l0.2,0.2l0,0l0.2,0.2l0,0l0.2,0.2l0,0l0.2,0.2l0,0l0.2,0.2l0,0
		l0.2,0.2l0,0l0.2,0.2l0,0l0.2,0.2l0,0l0.2,0.2l0,0l0.2,0.2l0,0l0.2,0.2l0,0l0.2,0.2l0,0l0.2,0.2l0,0l0.2,0.2l0,0l0.2,0.2l0,0
		l0.2,0.2l0,0l0.2,0.2l0,0l0.2,0.2l0,0l0.2,0.2l0,0l0.2,0.2l0,0l0.2,0.2l0,0l0.2,0.2l0,0l0.2,0.2l0,0L23,319l0,0l0.2,0.2l0,0
		l0.2,0.2l0,0l0.2,0.2l0,0l0.2,0.2l0,0l0.2,0.2l0,0l0.2,0.2l0,0l0.2,0.2l0,0l0.2,0.2l0,0l0.2,0.2l0,0L25,321l0,0l0.2,0.2l0,0
		l0.2,0.2l0,0l0.2,0.2l0,0l0.2,0.2l0,0l0.2,0.2l0,0l0.2,0.2l0,0l0.2,0.2l0,0l0.2,0.2l0,0l0.2,0.2l0,0l0.2,0.2l0,0l0.2,0.2l0,0
		l0.2,0.2l0,0l0.2,0.2l0,0l0.2,0.2l0,0l0.2,0.2l0,0l0.2,0.2l0,0l0.2,0.2l0,0l0.2,0.2l0,0l0.2,0.2l0,0l0.2,0.2l0,0l0.2,0.2l0,0
		l0.2,0.2l0,0l0.2,0.2l0,0l0.2,0.2l0,0l0.2,0.2l0,0l0.2,0.2l0,0l0.2,0.2l0,0l0.2,0.2l0,0l0.2,0.2l0,0l0.2,0.2l0,0l0.2,0.2l0,0
		L32,327l0,0l0.2,0.2l0,0l0.2,0.1l0,0l0.2,0.1l0,0l0.2,0.1l0,0l0.2,0.2l0,0l0.2,0.2l0,0l0.2,0.2l0,0l0.2,0.2l0,0l0.2,0.2l0,0
		l0.2,0.2l0,0l0.2,0.2l0,0l0.2,0.1l0,0l0.2,0.1l0,0l0.2,0.1l0,0l0.2,0.1l0,0l0.2,0.1l0,0l0.2,0.1h-0.1l0.2,0.1l0,0l0.2,0.1l0,0
		l0.2,0.1l0,0l0.2,0.1l0,0l0.2,0.1l0,0l0.2,0.1l0,0l0.2,0.1l0,0l0.2,0.1l0,0l0.2,0.1l0,0l0.2,0.1l0,0l104.8,61.2l0,0l0.2,0.1l0,0
		l0.2,0.1l0,0l0.2,0.1l0,0l0.2,0.1l0,0l0.2,0.1l0,0l0.2,0.1l0,0l0.2,0.1l0,0l0.2,0.1l0,0l0.2,0.1l0,0l0.2,0.1l0,0l0.2,0.1l0,0
		l0.2,0.1l0,0l0.2,0.1l0,0l0.2,0.1l0,0l0.2,0.1l0,0l0.2,0.1l0,0l0.2,0.1l0,0l0.2,0.1l0,0l0.2,0.1l0,0l0.2,0.1l0,0l0.2,0.1l0,0
		l0.2,0.1l0,0l0.2,0.1l0,0l0.2,0.1l0,0l0.2,0.1l0,0l0.2,0.1l0,0l0.2,0.1l0,0l0.2,0.1l0,0l0.2,0.1l0,0l0.2,0.1l0,0l0.2,0.1l0,0
		l0.2,0.1l0,0l0.2,0.1l0,0l0.2,0.1l0,0l0.2,0.1l0,0l0.2,0.1l0,0l0.2,0.1l0,0l0.2,0.1l0,0l0.2,0.1l0,0l0.2,0.1l0,0l0.2,0.1l0,0
		l0.2,0.1l0,0l0.2,0.1l0,0l0.2,0.1l0,0l0.2,0.1l0,0l0.2,0.1l0,0l0.2,0.1l0,0l0.2,0.1l0,0l0.2,0.1l0,0l0.2,0.1l0,0l0.2,0.1h0l0.2,0.1
		l0,0l0.4,0.1l0.1,0l0.4,0.1l0,0l0.4,0.1l0,0l0.4,0.1l0.1,0l0.4,0.1l0,0l0.4,0.1l0,0l0.4,0.1l0,0l0.4,0.1l0.1,0l0.4,0.1l0,0l0.4,0.1
		l0.1,0l0.4,0.1l0,0l0.4,0.1l0.1,0l0.4,0.1l0,0l0.4,0.1l0.1,0l0.4,0.1l0,0l0.4,0.1l0.1,0l0.4,0.1l0.1,0l0.4,0.1h0l0.4,0.1l0,0
		l0.4,0.1l0,0l0.4,0.1l0,0l0.4,0.1l0,0l0.4,0.1l0.1,0l0.4,0h0.1l0.4,0l0,0l0.4,0h0l0.4,0l0,0l0.4,0l0.1,0l0.4,0l0.1,0l0.4,0l0,0
		l0.4,0h0l0.4,0l0,0l0.4,0h0l0.4,0l0,0l0.4,0h0l0.4,0h0.1l0.4,0l0.4,0h1.5l0.4,0h0l0.4,0h0l0.4,0h0.1l0.4,0h0l0.4,0h0.1l0.4,0l0.1,0
		l0.4,0h0l0.4,0h0l0.4,0l0,0l0.4,0h0l0.4,0l0.4,0l0.1,0l0.4,0l0,0l0.4,0l0.1,0l0.4-0.1l0,0l0.4-0.1l0,0l0.4-0.1l0,0l0.4-0.1l0,0
		l0.4-0.1l0,0l0.4-0.1l0,0l0.4-0.1l0,0l0.4-0.1l0,0l0.4-0.1l0,0l0.4-0.1l0.1,0l0.4-0.1l0,0l0.4-0.1l0,0l0.4-0.1l0.1,0l0.4-0.1l0,0
		l0.4-0.1l0.1,0l0.4-0.1l0,0l0.4-0.1l0,0l0.4-0.1l0,0l0.4-0.1l0.1,0l0.4-0.1l0,0l0.4-0.1l0,0l0.2-0.1l0,0l0.2-0.1l0,0l0.2-0.1l0,0
		l0.2-0.1l0,0l0.2-0.1l0,0l0.2-0.1l0,0l0.2-0.1l0,0l0.2-0.1l0.2-0.1l0,0l0.2-0.1l0,0l0.2-0.1l0,0l0.2-0.1l0,0l0.2-0.1l0,0l0.2-0.1
		l0,0l0.2-0.1l0,0l0.2-0.1l0,0l0.2-0.1l0,0l0.2-0.1l0,0l0.2-0.1l0,0l0.2-0.1l0,0l0.2-0.1l0,0l0.2-0.1l0,0l0.2-0.1l0,0l0.2-0.1l0,0
		l0.2-0.1l0,0l0.2-0.1l0,0l0.2-0.1l0,0l0.2-0.1l0,0l0.2-0.1l0,0l0.2-0.1l0,0l0.2-0.1l0,0l0.2-0.1l0,0l0.2-0.1l0,0l0.2-0.1l0,0
		l0.2-0.1l0,0l0.2-0.1l0,0l0.2-0.1l0,0l0.2-0.1l0,0l0.2-0.1l0,0l0.2-0.1l0,0l0.2-0.1l0,0l0.2-0.1l0,0l0.2-0.1l0,0l0.2-0.1l0,0
		l0.2-0.1l0,0l0.2-0.1l0,0l0.2-0.1l0,0l0.2-0.1l0,0l0.2-0.1l0,0l0.2-0.1l0,0l0.2-0.1l0,0l0.2-0.1h0l115.9-64.6l0,0l0.2-0.1l0,0
		l0.2-0.1l0,0l0.2-0.1l0,0l0.2-0.1l0,0l0.2-0.1l0,0l0.2-0.1l0,0l0.2-0.1l0,0l0.2-0.1l0,0l0.2-0.1l0,0l0.2-0.1l0,0l0.2-0.1l0,0
		l0.2-0.1l0,0l0.2-0.1l0,0l0.2-0.1l0,0l0.2-0.1l0,0l0.2-0.1l0,0l0.2-0.1l0,0l0.2-0.1l0,0l0.2-0.1l0,0l0.2-0.1l0,0l0.2-0.1l0,0
		l0.2-0.1l0,0l0.2-0.1l0,0l0.2-0.1l0,0l0.2-0.1l0,0l0.2-0.1l0,0l0.2-0.1l0,0l0.2-0.1l0,0l0.2-0.1l0,0l0.2-0.1l0,0l0.2-0.1l0,0
		l0.2-0.1l0,0l0.2-0.1l0,0l0.2-0.1l0,0l0.2-0.1l0,0l0.2-0.1l0,0l0.2-0.1l0,0l0.2-0.1l0,0l0.2-0.1l0,0l0.2-0.1l0,0l0.2-0.1l0,0
		l0.2-0.1l0,0l0.2-0.1l0,0l0.2-0.1l0,0l0.2-0.1l0,0l0.2-0.1l0,0l0.2-0.2l0,0l0.2-0.2l0,0l0.2-0.2l0,0l0.2-0.1l0,0l0.2-0.1l0,0
		l0.2-0.2l0,0l0.2-0.1l0,0l0.2-0.1l0,0l0.2-0.1l0,0l0.2-0.2l0,0l0.2-0.2l0,0l0.2-0.2l0,0l0.2-0.2l0,0l0.2-0.2l0,0l0.2-0.2l0,0
		l0.2-0.2l0,0l0.2-0.2l0,0l0.2-0.2l0,0l0.2-0.2l0,0l0.2-0.2l0,0l0.1-0.2l0,0l0.1-0.2l0,0l0.2-0.2l0,0l0.1-0.2l0,0l0.1-0.2l0,0
		l0.1-0.2l0,0l0.1-0.2l0,0l0.1-0.2l0,0l0.1-0.2l0,0l0.1-0.2l0,0l0.1-0.2l0,0l0.1-0.2l0,0l0.2-0.2l0,0l0.1-0.2l0,0l0.1-0.2l0,0
		l0.1-0.2l0,0l0.1-0.2l0,0l0.1-0.2l0,0l0.1-0.2l0,0l0.1-0.2l0,0l0.2-0.2l0,0l0.1-0.2l0,0l0.1-0.2l0,0l0.1-0.2l0,0l0.1-0.2l0,0
		l0.1-0.2l0,0l0.1-0.2l0,0l0.1-0.2l0,0l0.1-0.2l0,0l0.1-0.2l0,0l0.1-0.2l0,0l0.1-0.2l0,0l0.1-0.2l0,0l0.1-0.2l0,0l0.1-0.2l0,0
		l0.1-0.2l0,0l0.1-0.2l0,0l0.1-0.2l0,0l0.1-0.2l0,0l0.1-0.2l0,0l0.1-0.2l0,0l0.1-0.2l0,0l0.1-0.2l0,0l0.1-0.2l0,0l0.1-0.2l0,0
		l0.1-0.2l0,0l0.1-0.2l0,0l0.1-0.2l0,0l0.1-0.2l0,0l0.1-0.2l0,0l0.1-0.2l0,0l0.1-0.2l0,0l0.1-0.2l0,0l0.1-0.2l0,0l0.1-0.2l0,0
		l0.1-0.2l0,0l0.1-0.2l0,0l0.1-0.2l0,0l0.1-0.2l0,0l0.1-0.2l0,0l0.1-0.2l0,0l0.1-0.2l0,0l0.1-0.2l0,0l0.1-0.2l0,0l0.1-0.2l0,0
		l0.1-0.2l0,0l0.1-0.2l0,0l0.1-0.2l0,0l0.1-0.2l0,0l0.1-0.2l0,0l0.1-0.2l0,0l0.1-0.2l0,0l0.1-0.2l0,0l0.1-0.2l0,0l0.1-0.2l0,0
		l0.1-0.2l0,0l0.1-0.2l0,0l0.1-0.2l0,0l0.1-0.2l0,0l0.1-0.2l0,0l0.1-0.2l0,0l0.1-0.2l0,0l0.1-0.2l0,0l0.1-0.2l0,0l0.1-0.2l0,0
		l0.1-0.2l0,0l0.1-0.2l0,0l0.1-0.2l0,0l0.1-0.2l0,0l0.1-0.2l0,0l0.1-0.2l0,0l0.1-0.2l0,0l0.1-0.2l0,0l0.1-0.2l0,0l0.1-0.2l0,0
		l0.1-0.2l0,0l0.1-0.2l0,0l0.1-0.2l0,0l0.1-0.2l0,0l0.1-0.2l0,0l0.1-0.2l0,0l0.1-0.2l0,0l0.1-0.2l0,0l0.1-0.2l0,0l0.1-0.2l0,0
		l0.1-0.2l0,0l0.1-0.2l0,0l0.1-0.2l0,0l0.1-0.2l0,0l0.1-0.2l0,0l0.1-0.2l0,0l0.1-0.2l0,0l0.1-0.2l0,0l0.1-0.2l0,0l0.1-0.2l0,0
		l0.1-0.2l0,0l0.1-0.2l0,0l0.1-0.2l0,0l0.1-0.2l0,0l0.1-0.2l0,0l0.1-0.2l0,0l0.1-0.2l0,0l0.1-0.2l0,0l0.1-0.2l0,0l0.1-0.2l0,0
		l0.1-0.2v0l0.1-0.2l0,0l0.1-0.2v0l0.1-0.2l0,0l0-0.2l0,0l0.1-0.2l0,0l0-0.2l0,0l0-0.2l0,0l0-0.2l0,0l0-0.2l0,0l0-0.2v0l0-0.2v0
		l0-0.2l0,0l0-0.2v0l0-0.2v0l0-0.2v0l0-0.2v0l0-0.2l0,0l0-0.2l0,0l0-0.2l0,0l0-0.2v0l0-0.2v0l0-0.2v0l0-0.2v0l0-0.2l0,0l0-0.2l0,0
		l0-0.2v0l0-0.2v0l0-0.2l0,0l0-0.2l0,0l0-0.2v0l0-0.2v0l0-0.2l0,0l0-0.2l0,0l0-0.2l0,0l0-0.2v0l0-0.2v0l0-0.2v0l0-0.2l0,0l0-0.2v0
		l0-0.2l0,0l0-0.2l0,0l0-0.2v0l0-0.2v0l0-0.2v0l0-0.2v0l0-0.2v0l0-0.2v0l0-0.2v0l0-0.2v0l0-0.2v0l0-0.2v0l0-0.2l0,0l0-0.2v0l0-0.2v0
		l0-0.2v0l0-0.2v0l0-0.2v0l0-0.2v-0.3l0-0.2V137.6L348.4,137.4L348.4,137.4z M255.7,309.9h-43.5v-90.6h-71.9v90.6H96.9v0V102.7h43.4
		v75.5h71.9v-75.5h43.5V309.9z"/>
	<path class="st0" d="M729.2,134.5l0-0.2v0l0-0.2v0l0-0.2v0l0-0.2v0l0-0.2v0l0-0.2v0l0-0.4v-0.1l0-0.4l0-0.1l0-0.4l0,0l0-0.4v-0.1
		l0-0.4l0,0l0-0.4l0,0l0-0.4v-0.1l0-0.4l0-0.1l0-0.4l0-0.1l-0.1-0.4l0,0l-0.1-0.4l0-0.1l-0.1-0.4l0-0.1l-0.1-0.4l0,0l-0.1-0.4v-0.1
		l-0.1-0.4l0-0.1l-0.1-0.4l0-0.1l-0.1-0.4l0,0l-0.1-0.4l0,0l-0.1-0.4l0,0l-0.1-0.4l0,0l-0.1-0.4l0-0.1l-0.1-0.4l0,0l-0.1-0.4l0,0
		l-0.1-0.4l0,0l-0.1-0.4l0,0l-0.1-0.4l0,0l-0.1-0.4l0,0l-0.1-0.4l0-0.1l-0.1-0.4l0-0.1l-0.1-0.4l0-0.1l-0.1-0.4l0-0.1l-0.1-0.4
		l0-0.1l-0.1-0.4l0-0.1l-0.1-0.4l0-0.1l-0.1-0.4l0-0.1l-0.1-0.4l0-0.1l-0.1-0.4l0,0l-0.1-0.4l0,0l-0.2-0.4l0,0l-0.2-0.4l0,0
		l-0.2-0.4l0,0l-0.2-0.4l0,0l-0.2-0.4l0-0.1l-0.2-0.4l0-0.1l-0.2-0.4l0,0l-0.2-0.4l0,0l-0.2-0.4l0,0l-0.2-0.4l0,0l-0.2-0.4l0-0.1
		l-0.2-0.4l0,0l-0.2-0.4l0,0l-0.2-0.4l0,0l-0.2-0.4l0,0l-0.2-0.4l0,0l-0.2-0.4l0,0l-0.2-0.4l0,0l-0.2-0.4l0-0.1l-0.2-0.3l0,0
		l-0.2-0.4l0,0l-0.2-0.3l0-0.1l-0.2-0.3l0,0l-0.2-0.4l0,0l-0.2-0.3l0-0.1l-0.2-0.3l0,0l-0.2-0.3l0,0l-0.2-0.3l0,0l-0.2-0.3l0-0.1
		l-0.2-0.3l0,0l-0.2-0.3l0,0l-0.2-0.3l0,0l-0.2-0.3l0,0l-0.2-0.3l0,0l-0.2-0.3l0,0l-0.2-0.3l0,0l-0.2-0.3l0,0l-0.2-0.3l0,0l-0.3-0.3
		l0,0l-0.3-0.3l0,0l-0.3-0.3l0,0l-0.3-0.3l0,0l-0.3-0.3l0,0l-0.3-0.3l0,0l-0.3-0.3l0,0l-0.3-0.3l0,0l-0.3-0.3l0,0l-0.3-0.3l0,0
		l-0.3-0.3l0,0l-0.3-0.3l0,0l-0.3-0.3l0,0l-0.3-0.3l0,0l-0.3-0.3l0,0l-0.3-0.3l0,0l-0.3-0.3l0,0l-0.3-0.3l0,0l-0.3-0.3l0,0l-0.3-0.3
		l0,0l-0.3-0.3l0,0l-0.3-0.3l0,0l-0.3-0.3l0,0l-0.3-0.3l0,0l-0.3-0.3l0,0l-0.3-0.3l0,0l-0.3-0.3l0,0l-0.3-0.3l0,0l-0.3-0.3l0,0
		l-0.3-0.2l0,0l-0.3-0.2l0,0l-0.3-0.2l0,0l-0.3-0.2l0,0l-0.3-0.2l0,0l-0.3-0.2l0,0l-0.3-0.2l0,0l-0.3-0.2l0,0l-0.3-0.2l0,0l-0.2-0.1
		l0,0l-0.2-0.1l0,0l-0.2-0.1l0,0l-0.2-0.1l0,0l-0.2-0.1l0,0l-0.2-0.1l0,0l-0.2-0.1l0,0l-0.2-0.1l0,0l-0.2-0.1l0,0l-0.2-0.1l0,0
		l-0.2-0.1l0,0l-0.2-0.1l0,0l-0.2-0.1l0,0l-0.2-0.1L587.2,19.9l-0.2-0.1l0,0l-0.2-0.1l0,0l-0.2-0.1l0,0l-0.2-0.1l0,0l-0.2-0.1l0,0
		l-0.2-0.1l0,0l-0.2-0.1l0,0l-0.2-0.1l0,0l-0.2-0.1l0,0l-0.2-0.1l0,0l-0.2-0.1l0,0l-0.2-0.1l0,0l-0.2-0.1l0,0l-0.2-0.1l0,0l-0.2-0.1
		l0,0l-0.2-0.1l0,0l-0.2-0.1l0,0l-0.2-0.1l0,0l-0.2-0.1l0,0l-0.2-0.1l0,0l-0.2-0.1l0,0l-0.2-0.1l0,0l-0.2-0.1l0,0l-0.2-0.1l0,0
		l-0.2-0.1l0,0l-0.2-0.1l0,0l-0.2-0.1l0,0l-0.2-0.1l0,0l-0.2-0.1l0,0l-0.2-0.1l0,0l-0.2-0.1l0,0l-0.2-0.1l0,0l-0.2-0.1l0,0l-0.2-0.1
		l0,0l-0.2-0.1l0,0l-0.2-0.1l0,0l-0.2-0.1l0,0l-0.2-0.1l0,0l-0.2-0.1l0,0l-0.2-0.1l0,0l-0.2-0.1l0,0l-0.2-0.1l0,0l-0.2-0.1l0,0
		l-0.2-0.1l0,0l-0.2-0.1l0,0l-0.2-0.1l0,0l-0.2-0.1l0,0l-0.2-0.1l0,0l-0.2-0.1l0,0l-0.2-0.1h0l-0.2-0.1l0,0l-0.2-0.1l0,0l-0.2-0.1
		l0,0l-0.2-0.1l0,0l-0.2-0.1l0,0l-0.2-0.1l0,0l-0.2-0.1l0,0l-0.2-0.1l0,0l-0.2-0.1h0l-0.2-0.1l0,0l-0.2-0.1l0,0l-0.2-0.1l0,0
		l-0.2-0.1h0l-0.2-0.1h0l-0.2-0.1l0,0l-0.2-0.1h0l-0.2-0.1l0,0l-0.2-0.1l0,0l-0.2-0.1h0l-0.2-0.1l0,0l-0.2-0.1l0,0l-0.2-0.1h0
		l-0.2-0.1h0l-0.2-0.1h0l-0.2,0h0l-0.2,0h0l-0.2,0l0,0l-0.2,0l0,0l-0.2,0l0,0l-0.2,0h0l-0.2,0h0l-0.2,0h0l-0.2,0h0l-0.2,0h0l-0.2,0
		h0l-0.2,0h0l-0.2,0h0l-0.2,0h0l-0.2,0h0l-0.2,0h0l-0.2,0h0l-0.2,0h0l-0.2,0h0l-0.2,0h0l-0.2,0h0l-0.2,0h0l-0.2,0h0l-0.2,0h0l-0.2,0
		h0l-0.2,0h0l-0.2,0h0l-0.2,0h0l-0.2,0h0l-0.2,0h0l-0.2,0l0,0l-0.2,0l0,0l-0.2,0l0,0l-0.2,0h0l-0.2,0h0l-0.2,0l0,0l-0.2,0h0l-0.2,0
		l0,0l-0.2,0h0l-0.2,0l0,0l-0.2,0l0,0l-0.2,0h0l-0.2,0h0l-0.2,0h0l-0.2,0h0l-0.2,0h0l-0.2,0h0l-0.2,0h0l-0.2,0h0l-0.2,0H554l0-0.1
		h-2l-0.2,0h0l-0.2,0h0l-0.2,0h0l-0.2,0h0l-0.2,0h0l-0.2,0h0l-0.2,0h0l-0.2,0h0l-0.2,0h0l-0.2,0h0l-0.2,0h0l-0.2,0h0l-0.2,0h0
		l-0.2,0h0l-0.2,0h0l-0.2,0h0l-0.2,0h0l-0.2,0h0l-0.2,0h0l-0.2,0h0l-0.2,0h0l-0.2,0h0l-0.2,0h0l-0.2,0h0l-0.2,0h0l-0.2,0h0l-0.2,0h0
		l-0.2,0h0l-0.2,0h0l-0.2,0l0,0l-0.2,0l0,0l-0.2,0l0,0l-0.2,0h0l-0.2,0l0,0l-0.2,0h0l-0.2,0l0,0l-0.2,0l0,0l-0.2,0l0,0l-0.2,0h0
		l-0.2,0h0l-0.2,0.1h0l-0.2,0l0,0l-0.2,0l0,0l-0.2,0l0,0l-0.2,0.1l0,0l-0.2,0.1l0,0l-0.2,0.1l0,0l-0.2,0.1l0,0l-0.2,0.1l0,0
		l-0.2,0.1l0,0l-0.2,0.1h0l-0.2,0.1l0,0l-0.2,0.1l0,0l-0.2,0.1l0,0l-0.2,0.1l0,0l-0.2,0.1l0,0l-0.2,0.1l0,0l-0.2,0.1l0,0l-0.2,0.1h0
		l-0.2,0.1h0l-0.2,0.1l0,0l-0.2,0.1h0l-0.2,0.1l0,0l-0.2,0.1l0,0l-0.2,0.1l0,0L534,14l0,0l-0.2,0.1l0,0l-0.2,0.1l0,0l-0.2,0.1l0,0
		l-0.2,0.1l0,0l-0.2,0.1l0,0l-0.2,0.1l0,0l-0.2,0.1l0,0l-0.2,0.1l0,0l-0.2,0.1h0l-0.2,0.1l0,0L531,15l0,0l-0.2,0.1l0,0l-0.2,0.1l0,0
		l-0.2,0.1l0,0l-0.2,0.1l0,0l-0.2,0.1l0,0l-0.2,0.1l0,0l-0.2,0.1l0,0l-0.2,0.1l0,0l-0.2,0.1l0,0l-0.2,0.1l0,0l-0.2,0.1l0,0l-0.2,0.1
		l0,0l-0.2,0.1l0,0l-0.2,0.1l0,0l-0.2,0.1l0,0l-0.2,0.1l0,0l-0.2,0.1l0,0l-0.2,0.1l0,0l-0.2,0.1l0,0l-0.2,0.1l0,0l-0.2,0.1l0,0
		l-0.2,0.1l0,0l-0.2,0.1l0,0l-0.2,0.1l0,0l-0.2,0.1l0,0l-0.2,0.1l0,0L524,18l0,0l-0.2,0.1l0,0l-0.2,0.1l0,0l-0.2,0.1l0,0l-0.2,0.1
		l0,0l-0.2,0.1l0,0l-0.2,0.1l0,0l-0.2,0.1l0,0l-0.2,0.1l0,0l-0.2,0.1l0,0l-0.2,0.1l0,0l-0.2,0.1l0,0l-0.2,0.1l0,0l-0.2,0.1l0,0
		l-0.2,0.1l0,0l-0.2,0.1l0,0l-0.2,0.1l0,0l-0.2,0.1l0,0l-0.2,0.1l0,0l-0.2,0.1l0,0l-0.2,0.1l0,0l-96.2,59.3l0,0l-0.2,0.2l0,0
		l-0.2,0.2l0,0l-0.3,0.2l0,0l-0.2,0.2l0,0l-0.2,0.2l0,0l-0.2,0.2l0,0l-0.2,0.2l0,0l-0.2,0.2l0,0l-0.2,0.2l0,0l-0.2,0.2l0,0l-0.2,0.2
		l0,0l-0.2,0.2l0,0l-0.2,0.2l0,0l-0.2,0.2l0,0l-0.2,0.2l0,0l-0.2,0.2l0,0l-0.2,0.2l0,0l-0.2,0.2l0,0l-0.2,0.2l0,0l-0.2,0.2l0,0
		l-0.2,0.2l0,0l-0.2,0.2l0,0l-0.2,0.2l0,0l-0.2,0.2l0,0l-0.2,0.2l0,0l-0.2,0.2l0,0l-0.2,0.2l0,0l-0.2,0.2l0,0l-0.2,0.2l0,0l-0.2,0.2
		l0,0l-0.2,0.2l0,0l-0.2,0.2l0,0l-0.2,0.2l0,0l-0.2,0.2l0,0l-0.2,0.2l0,0l-0.2,0.2l0,0l-0.2,0.2l0,0l-0.2,0.2l0,0l-0.2,0.2l0,0
		l-0.2,0.2l0,0l-0.2,0.2l0,0l-0.2,0.2l0,0l-0.2,0.2l0,0l-0.2,0.2l0,0l-0.2,0.2l0,0l-0.2,0.2l0,0l-0.2,0.2l0,0l-0.2,0.2l0,0l-0.2,0.2
		l0,0L410,90l0,0l-0.2,0.2l0,0l-0.2,0.2l0,0l-0.2,0.2l0,0l-0.2,0.2l0,0l-0.2,0.2l0,0l-0.2,0.2l0,0l-0.2,0.2l0,0l-0.2,0.2l0,0
		l-0.2,0.2l0,0l-0.2,0.2l0,0l-0.2,0.2l0,0l-0.2,0.2l0,0l-0.2,0.2l0,0l-0.2,0.2l0,0l-0.2,0.2l0,0l-0.2,0.2l0,0l-0.2,0.2l0,0l-0.2,0.2
		l0,0l-0.2,0.2l0,0l-0.2,0.2l0,0l-0.2,0.2l0,0l-0.2,0.2l0,0l-0.2,0.2l0,0l-0.2,0.2l0,0l-0.2,0.2l0,0l-0.2,0.2l0,0l-0.2,0.2l0,0
		l-0.2,0.2l0,0l-0.2,0.2l0,0l-0.2,0.2l0,0l-0.2,0.2l0,0l-0.2,0.2l0,0l-0.2,0.2l0,0l-0.2,0.2l0,0l-0.2,0.2l0,0l-0.2,0.2l0,0l-0.2,0.2
		l0,0l-0.2,0.2l0,0l-0.2,0.2l0,0l-0.2,0.2l0,0l-0.2,0.2l0,0l-0.2,0.2l0,0l-0.2,0.2l0,0l-0.2,0.2l0,0l-0.2,0.2l0,0l-0.2,0.2l0,0
		l-0.2,0.2l0,0l-0.2,0.2l0,0l-0.2,0.2l0,0l-0.2,0.2l0,0l-0.2,0.2l0,0l-0.2,0.2l0,0l-0.2,0.2l0,0l-0.2,0.2l0,0l-0.2,0.2l0,0l-0.2,0.2
		l0,0l-0.2,0.2l0,0l-0.2,0.2l0,0l-0.2,0.2l0,0l-0.2,0.2l0,0l-0.2,0.2l0,0l-0.2,0.2l0,0l-0.2,0.2l0,0l-0.2,0.2l0,0l-0.2,0.2l0,0
		l-0.1,0.2l0,0l-0.1,0.2l0,0l-0.2,0.2l0,0l-0.1,0.2l0,0l-0.1,0.2l0,0l-0.2,0.2l0,0l-0.2,0.2l0,0l-0.1,0.2l0,0l-0.2,0.2l0,0l-0.1,0.3
		l0,0l-0.2,0.2l0,0l-0.1,0.2l0,0l-0.1,0.3l0,0l-0.1,0.2l0,0l-0.1,0.2l0,0l-0.1,0.3l0,0l-0.1,0.3l0,0l-0.1,0.2l0,0l-0.1,0.3l0,0
		l-0.1,0.3l0,0l-0.1,0.3l0,0l-0.1,0.3l0,0l-0.1,0.3l0,0l-0.1,0.3l0,0l-0.1,0.3l0,0l-0.1,0.3l0,0l-0.1,0.3l0,0l-0.1,0.3l0,0l-0.1,0.3
		l0,0l-0.1,0.3l0,0l-0.1,0.3l0,0l-0.1,0.3l0,0l-0.1,0.3l0,0l-0.1,0.3l0,0l-0.1,0.3l0,0l-0.1,0.3l0,0l-0.1,0.3l0,0l-0.1,0.3l0,0
		l-0.1,0.3l0,0l-0.1,0.3l0,0l-0.1,0.3l0,0l-0.1,0.3l0,0l-0.1,0.3l0,0l-0.1,0.3l0,0l-0.1,0.3l0,0l-0.1,0.3l0,0l-0.1,0.3l0,0l-0.1,0.3
		l0,0l-0.1,0.3l0,0l-0.1,0.3l0,0l-0.1,0.3l0,0l-0.1,0.3l0,0l-0.1,0.3l0,0l-0.1,0.3l0,0l-0.1,0.3l0,0l-0.1,0.3l0,0l-0.1,0.3l0,0
		l-0.1,0.3l0,0l-0.1,0.3l0,0l-0.1,0.3l0,0l-0.1,0.3l0,0l-0.1,0.3l0,0l-0.1,0.3v0l-0.1,0.3l0,0l-0.1,0.3v0l-0.1,0.3l0,0l-0.1,0.3l0,0
		l-0.1,0.3l0,0l-0.1,0.3l0,0l-0.1,0.3l0,0l-0.1,0.3l0,0l-0.1,0.3v0l-0.1,0.3l0,0l-0.1,0.3l0,0l-0.1,0.3v0l-0.1,0.3l0,0l-0.1,0.3v0
		l-0.1,0.3l0,0l-0.1,0.3l0,0l-0.1,0.3v0l-0.1,0.3l0,0l-0.1,0.3l0,0l-0.1,0.3v0l-0.1,0.3v0l-0.1,0.3l0,0l-0.1,0.3l0,0l-0.1,0.3v0
		l-0.1,0.3l0,0l-0.1,0.3l0,0l-0.1,0.3v0l-0.1,0.3l0,0l0,0.3v0l0,0.3l0,0l0,0.3l0,0l0,0.3l0,0l0,0.3v0l0,0.3l0,0l0,0.3v0l0,0.3v0
		l0,0.3v0l0,0.3l0,0l0,0.3l0,0l0,0.3v0l0,0.3v0l0,0.3v0l0,0.3v0l0,0.3v0l0,0.3l0,0l0,0.3l0,0l0,0.3v0l0,0.3l0,0l0,0.3l0,0l0,0.3v0
		l0,0.3v0l0,0.3v0l0,0.3v0l0,0.3v0.1l0,0.3v0l0,0.3v0l0,0.3l0,0l0,0.3v0l0,0.3v0l0,0.3v0l0,0.3v0l0,0.3v0l0,0.3v0l0,0.3v0l0,0.3v0
		l0,0.3v0l0,0.3v0l0,0.3v0l0,0.3v0l0,0.3v0l0,0.3v0l0,0.3v0l0,0.3v0l0,0.3v0l0,0.3v0l0,0.3v121.8l0,0.3v0l0,0.3v0l0,0.3v0l0,0.3v0.3
		l0,0l0,0.3v0l0,0.3l0,0.3v0l0,0.3v0l0,0.3v0l0,0.3v0l0,0.3v0l0,0.3v0l0,0.3v0l0,0.3l0,0l0,0.3l0,0l0,0.3v0l0,0.3v0l0,0.3v0l0,0.3v0
		l0,0.2v0l0,0.2l0,0l0,0.2v0l0,0.2v0l0,0.2l0,0.2v0l0,0.2l0,0l0,0.3l0,0.3l0,0l0,0.3v0l0,0.2l0,0l0,0.2l0,0.2v0l0,0.3v0l0,0.2l0,0
		l0,0.2l0,0l0,0.2v0l0,0.2l0,0l0,0.3v0l0,0.3v0l0,0.2l0,0l0,0.2l0,0l0,0.2l0,0.2l0,0l0,0.2l0,0l0,0.2v0l0,0.2l0,0l0,0.2l0,0l0.1,0.2
		l0,0l0.1,0.2l0,0l0.1,0.2l0,0l0.1,0.2v0l0.1,0.2l0,0l0.1,0.2l0,0l0.1,0.2l0,0l0.1,0.2l0,0l0.1,0.2v0l0.1,0.2v0l0.1,0.2l0,0l0.1,0.2
		l0,0l0.1,0.2l0,0l0.1,0.2l0,0l0.1,0.2l0,0l0.1,0.2l0,0l0.1,0.2l0,0l0.1,0.2l0,0l0.1,0.2l0,0l0.1,0.2l0,0l0.1,0.2l0,0l0.1,0.2l0,0
		l0.1,0.2v0l0.1,0.2v0l0.1,0.2l0,0l0.1,0.2l0,0l0.1,0.2l0,0l0.1,0.2l0,0l0.1,0.2l0,0l0.1,0.2l0,0l0.1,0.2l0,0l0.1,0.2l0,0l0.1,0.2
		l0,0l0.1,0.2l0,0l0.1,0.2l0,0l0.1,0.2l0,0l0.1,0.2l0,0l0.1,0.2l0,0l0.1,0.2l0,0l0.1,0.2l0,0l0.1,0.2l0,0l0.1,0.2l0,0l0.1,0.2l0,0
		l0.1,0.2l0,0l0.1,0.2l0,0l0.1,0.2l0,0l0.1,0.2l0,0l0.1,0.2l0,0l0.1,0.2l0,0l0.1,0.2l0,0l0.1,0.2l0,0l0.1,0.2l0,0l0.1,0.2l0,0
		l0.1,0.2l0,0l0.1,0.2l0,0l0.1,0.2l0,0l0.1,0.2l0,0l0.1,0.2l0,0l0.1,0.2l0,0l0.1,0.2l0,0l0.1,0.2l0,0l0.1,0.2l0,0l0.1,0.2l0,0
		l0.1,0.2l0,0l0.1,0.2l0,0l0.1,0.2l0,0l0.1,0.2l0,0l0.1,0.2l0,0l0.1,0.2l0,0l0.1,0.2l0,0l0.1,0.2l0,0l0.1,0.2l0,0l0.1,0.2l0,0
		l0.1,0.2l0,0l0.1,0.2l0,0l0.1,0.2l0,0l0.1,0.2l0,0l0.1,0.2l0,0l0.1,0.2l0,0l0.1,0.2l0,0l0.1,0.2l0,0l0.1,0.2l0,0l0.1,0.2l0,0
		l0.1,0.2l0,0l0.1,0.2l0,0l0.1,0.2l0,0l0.1,0.2l0,0l0.1,0.2l0,0l0.1,0.2l0,0l0.1,0.2l0,0l0.1,0.2l0,0l0.1,0.2l0,0l0.1,0.2l0,0
		l0.1,0.2l0,0l0.1,0.2l0,0l0.1,0.2l0,0l0.1,0.2l0,0l0.2,0.2l0,0l0.2,0.2l0,0l0.1,0.2l0,0l0.1,0.2l0,0l0.2,0.2l0,0l0.2,0.2l0,0
		l0.1,0.2l0,0l0.1,0.2l0,0l0.1,0.2l0,0l0.1,0.2l0,0l0.2,0.2l0,0l0.2,0.2l0,0l0.2,0.2l0,0l0.1,0.2l0,0l0.2,0.2l0,0l0.2,0.2l0,0
		l0.2,0.2l0,0l0.2,0.2l0,0l0.2,0.2l0,0l0.2,0.2l0,0l0.2,0.2l0,0l0.2,0.2l0,0l0.2,0.2l0,0l0.2,0.2l0,0l0.2,0.2l0,0l0.2,0.2l0,0
		l0.2,0.2l0,0l0.2,0.2l0,0l0.2,0.2l0,0l0.2,0.2l0,0l0.2,0.2l0,0l0.2,0.2l0,0l0.2,0.2l0,0l0.2,0.2l0,0l0.2,0.2l0,0l0.2,0.2l0,0
		l0.2,0.2l0,0l0.2,0.2l0,0l0.2,0.2l0,0l0.2,0.2l0,0l0.2,0.2l0,0l0.2,0.2l0,0l0.2,0.2l0,0l0.2,0.2l0,0l0.2,0.2l0,0l0.2,0.2l0,0
		l0.2,0.2l0,0l0.2,0.2l0,0l0.2,0.2l0,0l0.2,0.2l0,0l0.2,0.2l0,0l0.2,0.2l0,0l0.2,0.2l0,0l0.2,0.2l0,0l0.2,0.2l0,0l0.2,0.2l0,0
		l0.2,0.2l0,0l0.2,0.2l0,0l0.2,0.2l0,0l0.2,0.2l0,0l0.2,0.2l0,0l0.2,0.2l0,0l0.2,0.2l0,0l0.2,0.2l0,0l0.2,0.2l0,0l0.2,0.2l0,0
		l0.2,0.2l0,0l0.2,0.2l0,0l0.2,0.2l0,0l0.2,0.2l0,0l0.2,0.2l0,0l0.2,0.2l0,0l0.2,0.2l0,0l0.2,0.2l0,0l0.2,0.2l0,0l0.2,0.2l0,0
		l0.2,0.2l0,0l0.2,0.2l0,0l0.2,0.2l0,0l0.2,0.1l0,0l0.2,0.2l0,0l0.2,0.1l0,0l0.2,0.2l0,0l0.2,0.1l0,0l0.2,0.1l0,0l0.2,0.1l0,0
		l0.2,0.2l0,0l0.2,0.2l0,0l0.2,0.2l0,0l0.2,0.1l0,0l0.2,0.1l0,0l0.2,0.1l0,0l0.2,0.1l0,0l0.2,0.1l0,0l0.2,0.1l0,0l0.2,0.1l0,0
		l0.2,0.1l0,0l0.2,0.1l0,0l0.2,0.1l0,0l0.2,0.1l0,0l0.2,0.1l0,0l0.2,0.1l0,0l0.2,0.1l0,0l0.2,0.1l0,0l0.2,0.1l0,0l0.2,0.1l0,0
		l0.2,0.1l0,0l104.8,61.2l0,0l0.2,0.1l0,0l0.2,0.1l0,0l0.2,0.1l0,0l0.2,0.1l0,0l0.2,0.1l0,0l0.2,0.1l0,0l0.2,0.1l0,0l0.2,0.1l0,0
		l0.2,0.1l0,0l0.2,0.1l0,0l0.2,0.1l0,0l0.2,0.1l0,0l0.2,0.1l0,0l0.2,0.1l0,0l0.2,0.1l0,0l0.2,0.1l0,0l0.2,0.1l0,0l0.2,0.1l0,0
		l0.2,0.1l0,0l0.2,0.1l0,0l0.2,0.1l0,0l0.2,0.1l0,0l0.2,0.1l0,0l0.2,0.1l0,0l0.2,0.1l0,0l0.2,0.1l0,0l0.2,0.1l0,0l0.2,0.1l0,0
		l0.2,0.1l0,0l0.2,0.1l0,0l0.2,0.1l0,0l0.2,0.1l0,0l0.2,0.1l0,0l0.2,0.1l0,0l0.2,0.1l0,0l0.2,0.1l0,0l0.2,0.1l0,0l0.2,0.1l0,0
		l0.2,0.1l0,0l0.2,0.1l0,0l0.2,0.1l0,0l0.2,0.1l0,0l0.2,0.1l0,0l0.2,0.1l0,0l0.2,0.1l0,0l0.2,0.1l0,0l0.2,0.1l0,0l0.2,0.1l0,0
		l0.2,0.1l0,0l0.2,0.1l0,0l0.2,0.1l0,0l0.2,0.1l0,0l0.4,0.1l0,0l0.4,0.1l0,0l0.4,0.1l0.1,0l0.4,0.1l0,0l0.4,0.1l0,0l0.4,0.1l0,0
		l0.4,0.1l0,0l0.4,0.1l0.1,0l0.4,0.1l0.1,0l0.4,0.1l0,0l0.4,0.1l0,0l0.4,0.1l0,0l0.4,0.1l0,0l0.4,0.1l0.1,0l0.4,0.1l0,0l0.4,0.1l0,0
		l0.4,0.1l0,0l0.4,0.1l0,0l0.4,0.1l0,0l0.4,0.1l0,0l0.4,0.1l0,0l0.4,0.1l0,0l0.4,0.1h0l0.4,0h0l0.4,0l0,0l0.4,0l0,0l0.4,0l0,0l0.4,0
		h0l0.4,0l0,0l0.4,0h0l0.4,0h0l0.4,0l0,0l0.4,0h0l0.4,0h0l0.4,0l0,0l0.4,0h0l0.4,0h0.1l0.4,0h1l0.4,0h0.1l0.4,0l0.4,0h0l0.4,0h0
		l0.4,0l0,0l0.4,0h0.1l0.4,0l0.1,0l0.4,0l0,0l0.4,0h0l0.4,0h0l0.4,0l0.1,0l0.4,0h0l0.4,0l0,0l0.4,0l0,0l0.4,0l0,0l0.4-0.1h0l0.4-0.1
		l0,0l0.4-0.1h0.1l0.4-0.1l0,0l0.4-0.1l0,0l0.4-0.1l0,0l0.4-0.1l0,0l0.4-0.1l0,0l0.4-0.1l0,0l0.4-0.1l0,0l0.4-0.1l0,0l0.4-0.1l0.1,0
		l0.4-0.1l0.1,0l0.4-0.1l0.1,0l0.4-0.1l0,0l0.4-0.1l0,0l0.4-0.1l0,0l0.4-0.1l0.1,0l0.4-0.1l0.1,0l0.4-0.1l0,0l0.4-0.1l0,0l0.2-0.1h0
		l0.2-0.1l0,0l0.2-0.1l0,0l0.2-0.1l0,0l0.2-0.1l0,0l0.2-0.1l0,0l0.2-0.1l0,0l0.2-0.1l0,0l0.2-0.1l0,0l0.2-0.1l0,0l0.2-0.1l0,0
		l0.2-0.1l0,0l0.2-0.1l0,0l0.2-0.1l0,0l0.2-0.1l0,0l0.2-0.1l0,0l0.2-0.1l0,0l0.2-0.1l0,0l0.2-0.1l0,0l0.2-0.1l0,0l0.2-0.1l0,0
		l0.2-0.1l0,0l0.2-0.1l0,0l0.2-0.1l0,0l0.2-0.1l0,0l0.2-0.1l0,0l0.2-0.1l0,0l0.2-0.1l0,0l0.2-0.1l0,0l0.2-0.1l0,0l0.2-0.1l0,0
		l0.2-0.1l0,0l0.2-0.1l0,0l0.2-0.1l0,0l0.2-0.1l0,0l0.2-0.1l0,0l0.2-0.1l0,0l0.2-0.1l0,0l0.2-0.1l0,0l0.2-0.1l0,0l0.2-0.1l0,0
		l0.2-0.1l0,0l0.2-0.1l0,0l0.2-0.1l0,0l0.2-0.1l0,0l0.2-0.1l0,0l0.2-0.1l0,0l0.2-0.1l0,0l0.2-0.1l0,0l0.2-0.1l0,0l0.2-0.1l0,0
		l0.2-0.1l0,0l116-64.6l0,0l0.2-0.1l0,0l0.2-0.1l0,0l0.2-0.1l0,0l0.2-0.1l0,0l0.2-0.1l0,0l0.2-0.1l0,0l0.2-0.1l0,0l0.2-0.1l0,0
		l0.2-0.1l0,0l0.2-0.1l0,0l0.2-0.1l0,0l0.2-0.1l0,0l0.2-0.1l0,0l0.2-0.1l0,0l0.2-0.1l0,0l0.2-0.1l0,0l0.2-0.1l0,0l0.2-0.1l0,0
		l0.2-0.1l0,0l0.2-0.1l0,0l0.2-0.1l0,0l0.2-0.1l0,0l0.2-0.1l0,0l0.2-0.1l0,0l0.2-0.1l0,0l0.2-0.1l0,0l0.2-0.1l0,0l0.2-0.1l0,0
		l0.2-0.1l0,0l0.2-0.1l0,0l0.2-0.1l0,0l0.2-0.1l0,0l0.2-0.1l0,0l0.2-0.1l0,0l0.2-0.1l0,0l0.2-0.1l0,0l0.2-0.1l0,0l0.2-0.1l0,0
		l0.2-0.1l0,0l0.2-0.1l0,0l0.2-0.1l0,0l0.2-0.1l0,0l0.2-0.1l0,0l0.2-0.1l0,0l0.2-0.1l0,0l0.2-0.1l0,0l0.2-0.1l0,0l0.2-0.1l0,0
		l0.2-0.1l0,0l0.2-0.2l0,0l0.2-0.1l0,0l0.2-0.2l0,0l0.2-0.1l0,0l0.2-0.1l0,0l0.2-0.1l0,0l0.2-0.1l0,0l0.2-0.1l0,0l0.2-0.1l0,0
		l0.2-0.2l0,0l0.2-0.1l0,0l0.2-0.1l0,0l0.2-0.1l0,0l0.2-0.1l0,0l0.2-0.2l0,0l0.2-0.1l0,0l0.2-0.1l0,0l0.2-0.2l0,0l0.2-0.2l0,0
		l0.2-0.2l0,0l0.2-0.2l0,0l0.2-0.2l0,0l0.2-0.2l0,0l0.2-0.2l0,0l0.2-0.2l0,0l0.2-0.2l0,0l0.2-0.2l0,0l0.2-0.2l0,0l0.2-0.2l0,0
		l0.2-0.2l0,0l0.2-0.2l0,0l0.1-0.2l0,0l0.2-0.2l0,0l0.2-0.2l0,0l0.2-0.2l0,0l0.1-0.2l0,0l0.1-0.2l0,0l0.1-0.2l0,0l0.1-0.2l0,0
		l0.1-0.2l0,0l0.1-0.2l0,0l0.1-0.2l0,0l0.1-0.2l0,0l0.1-0.2l0,0l0.1-0.2l0,0l0.1-0.2l0,0l0.1-0.2l0,0l0.1-0.2l0,0l0.1-0.2l0,0
		l0.1-0.2l0,0l0.1-0.2l0,0l0.1-0.2l0,0l0.1-0.2l0,0l0.1-0.2l0,0l0.1-0.2l0,0l0.1-0.2l0,0l0.1-0.2l0,0l0.1-0.2l0,0l0.1-0.2l0,0
		l0.1-0.2l0,0l0.1-0.2l0,0l0.1-0.2l0,0l0.1-0.2l0,0l0.1-0.2l0,0l0.1-0.2l0,0l0.1-0.2l0,0l0.1-0.2l0,0l0.1-0.2l0,0l0.1-0.2l0,0
		l0.1-0.2l0,0l0.1-0.2l0,0l0.1-0.2l0,0l0.1-0.2l0,0l0.1-0.2l0,0l0.1-0.2l0,0l0.1-0.2l0,0l0.1-0.2l0,0l0.1-0.2l0,0l0.1-0.2l0,0
		l0.1-0.2l0,0l0.1-0.2l0,0l0.1-0.2l0,0l0.1-0.2l0,0l0.1-0.2l0,0l0.1-0.2l0,0l0.1-0.2l0,0l0.1-0.2l0,0l0.1-0.2l0,0l0.1-0.2l0,0
		l0.1-0.2l0,0l0.1-0.2l0,0l0.1-0.2l0,0l0.1-0.2l0,0l0.1-0.2l0,0l0.1-0.2l0,0l0.1-0.2l0,0l0.1-0.2l0,0l0.1-0.2l0,0l0.1-0.2l0,0
		l0.1-0.2l0,0l0.1-0.2l0,0l0.1-0.2l0,0l0.1-0.2l0,0l0.1-0.2l0,0l0.1-0.2l0,0l0.1-0.2l0,0l0.1-0.2l0,0l0.1-0.2l0,0l0.1-0.2l0,0
		l0.1-0.2l0,0l0.1-0.2l0,0l0.1-0.2l0,0l0.1-0.2l0,0l0.1-0.2l0,0l0.1-0.2l0,0l0.1-0.2l0,0l0.1-0.2l0,0l0.1-0.2l0,0l0.1-0.2l0,0
		l0.1-0.2l0,0l0.1-0.2l0,0l0.1-0.2l0,0l0.1-0.2l0,0l0.1-0.2l0,0l0.1-0.2l0,0l0.1-0.2l0,0l0.1-0.2l0,0l0.1-0.2l0,0l0.1-0.2l0,0
		l0.1-0.2l0,0l0.1-0.2l0,0l0.1-0.2l0,0l0.1-0.2l0,0l0.1-0.2l0,0l0.1-0.2l0,0l0.1-0.2l0,0l0.1-0.2l0,0l0.1-0.2l0,0l0.1-0.2l0,0
		l0.1-0.2l0,0l0.1-0.2v0l0.1-0.2v0l0.1-0.2l0,0l0.1-0.2v0l0.1-0.2l0,0l0-0.2l0,0l0.1-0.2v0l0-0.2l0,0l0-0.2l0,0l0.1-0.2l0,0l0-0.2
		l0,0l0-0.2l0,0l0-0.2l0,0l0-0.2v0l0-0.2v0l0-0.2l0,0l0-0.2l0,0l0-0.2l0,0l0-0.2l0,0l0-0.2v0l0-0.2l0,0l0-0.2l0,0l0-0.2v0l0-0.2l0,0
		l0-0.2v0l0-0.2v0l0-0.2v0l0-0.2l0,0l0-0.2l0,0l0-0.2v0l0-0.2v0l0-0.2v0l0-0.2v0l0-0.2v0l0-0.2l0,0l0-0.2l0,0l0-0.2l0,0l0-0.2v0
		l0-0.2v0l0-0.2v0l0-0.2v0l0-0.2l0,0l0-0.2l0,0l0-0.2v0l0-0.2v0l0-0.2l0,0l0-0.2v0l0-0.2v0l0-0.2v0l0-0.2v0l0-0.2v0l0-0.2l0,0l0-0.2
		v0l0-0.2v0l0-0.2v0l0-0.2l0,0l0-0.2v0l0-0.2v0l0-0.2v0l0-0.2v0l0-0.2v-0.3l0-0.2v0l0-0.2V134.9l0-0.2V134.5z M633.4,218.2
		c0,24.9-1.1,42.4-3.2,52.7c-2.1,10.3-6.1,18.9-11.8,26c-5.7,7.1-13.4,12.7-23,16.9c-9.6,4.2-22.2,6.3-37.7,6.3
		c-18.7,0-32.9-2.3-42.5-6.8c-9.7-4.6-17.3-10.5-22.9-17.8c-5.6-7.3-9.3-15-11.1-23c-2.6-11.9-3.9-29.4-3.9-52.6V109.4l0,0h42.3
		v112.2c0,17.8,0.5,29.3,1.5,34.6c1.7,8.5,4.8,14.4,11.2,19.5c6.4,5.1,13.8,6.6,24.8,6.6c11.2,0,15-1.7,20.7-6.6
		c5.7-4.9,9.1-9.5,10.3-16.5c1.2-7.1,3.1-18.8,3.1-35.2V109.4h42.3V218.2z"/>
	<path class="st0" d="M1113.3,135.8l0-0.2v-0.3l0-0.2v0l0-0.2v0l0-0.2v0l0-0.2v0l0-0.2v0l0-0.2l0,0l0-0.2v0l0-0.2v0l0-0.2v0l0-0.2
		l0,0l0-0.2v0l0-0.2l0,0l0-0.2l0,0l0-0.2l0,0l0-0.2v0l0-0.2v0l0-0.2v0l0-0.2l0,0l0-0.2v0l0-0.2v0l0-0.2l0,0l0-0.2v0l0-0.2v0l0-0.2v0
		l0-0.2v0l0-0.2l0,0l0-0.2l0,0l0-0.2v0l0-0.2l0,0l0-0.2l0,0l0-0.2l0,0l0-0.2l0,0l0-0.2l0,0l0-0.2l0,0l0-0.2l0,0l0-0.2v0l0-0.2l0,0
		l-0.1-0.4l0-0.1l-0.1-0.4l0-0.1l-0.1-0.4l0-0.1l-0.1-0.4l0-0.1l-0.1-0.4l0,0l-0.1-0.4l0-0.1l-0.1-0.4l0,0l-0.1-0.4l0-0.1l-0.1-0.4
		l0,0l-0.1-0.4l0,0l-0.1-0.4l0-0.1l-0.1-0.4l0,0l-0.1-0.4l0-0.1l-0.1-0.4l0-0.1l-0.1-0.4l0-0.1l-0.1-0.4l0,0l-0.1-0.4l0,0l-0.1-0.4
		l0,0l-0.1-0.4l0-0.1l-0.1-0.4l0,0l-0.1-0.4l0,0l-0.2-0.4l0,0l-0.2-0.4l0,0l-0.2-0.4l0,0l-0.2-0.4l0,0l-0.2-0.4l0,0l-0.2-0.4l0-0.1
		l-0.2-0.4l0,0l-0.2-0.4l0-0.1l-0.2-0.4l0-0.1l-0.2-0.4l0,0l-0.2-0.4l0,0l-0.2-0.4l0-0.1l-0.2-0.4l0,0l-0.2-0.4l0,0l-0.2-0.4l0,0
		l-0.2-0.4l0,0l-0.2-0.4l0-0.1l-0.2-0.4l0,0l-0.2-0.4l0,0l-0.2-0.4l0,0l-0.2-0.4l0,0l-0.2-0.3l0-0.1l-0.2-0.4l0,0l-0.2-0.4l0,0
		l-0.2-0.4l0,0l-0.2-0.4l0,0l-0.2-0.3l0-0.1l-0.2-0.3l0,0l-0.2-0.4l0,0l-0.2-0.3l0,0l-0.2-0.3l0-0.1l-0.2-0.3l0,0l-0.2-0.3l0,0
		l-0.2-0.3l0,0l-0.2-0.3l0,0l-0.2-0.3l0,0l-0.2-0.3l0,0l-0.3-0.3l0,0l-0.3-0.3l0,0l-0.3-0.3l0,0l-0.3-0.3l0,0l-0.3-0.3l0,0l-0.3-0.3
		l0,0l-0.3-0.3l0,0l-0.3-0.3l0-0.1l-0.3-0.3l0,0l-0.3-0.3l0,0l-0.3-0.3l0,0l-0.3-0.3l0,0l-0.3-0.3l0,0l-0.3-0.3l0,0l-0.3-0.3l0,0
		l-0.3-0.3l0,0l-0.3-0.3l0,0l-0.3-0.3l0,0l-0.3-0.3l0,0l-0.3-0.3l-0.1,0l-0.3-0.3l0,0l-0.3-0.3l-0.1,0l-0.3-0.3l0,0l-0.3-0.3l0,0
		l-0.3-0.3l0,0l-0.3-0.3l0,0l-0.2-0.1l0,0l-0.2-0.1l0,0l-0.2-0.1l0,0l-0.2-0.1l0,0l-0.2-0.1l0,0l-0.2-0.1l0,0l-0.2-0.1l0,0l-0.2-0.1
		l0,0l-0.2-0.1l0,0l-0.2-0.1l0,0l-0.2-0.1l0,0l-0.2-0.1l0,0l-0.2-0.1l0,0l-0.2-0.1l0,0l-0.2-0.1l0,0l-0.2-0.1l0,0l-0.2-0.1l0,0
		l-0.2-0.1l0,0l-0.2-0.1l0,0L1089,90l0,0l-0.2-0.1l0,0l-0.2-0.1l0,0l-0.2-0.1l0,0l-0.2-0.1l0,0l-0.2-0.1l0,0l-0.2-0.1l0,0l-0.2-0.1
		l0,0l-0.2-0.1l0,0l-0.2-0.1l0,0l-0.2-0.1l0,0l-0.2-0.1l0,0l-0.2-0.1l0,0l-0.2-0.1l0,0l-0.2-0.1l0,0l-0.2-0.1l0,0l-0.2-0.1l0,0
		l-0.2-0.1l0,0l-0.2-0.1l0,0l-0.2-0.1l0,0l-0.2-0.1l0,0l-0.2-0.1l0,0l-0.2-0.1l0,0l-0.2-0.1l0,0L1084,87L970.4,22.1l-0.2-0.1l0,0
		l-0.2-0.1l0,0l-0.2-0.1l0,0l-0.2-0.1l0,0l-0.2-0.1l0,0l-0.2-0.1l0,0l-0.2-0.1l0,0l-0.2-0.1l0,0l-0.2-0.1l0,0l-0.2-0.1l0,0l-0.2-0.1
		l0,0l-0.2-0.1l0,0l-0.2-0.1l0,0l-0.2-0.1l0,0l-0.2-0.1l0,0l-0.2-0.1l0,0l-0.2-0.1l0,0l-0.2-0.1l0,0l-0.2-0.1l0,0l-0.2-0.1l0,0
		l-0.2-0.1l0,0l-0.2-0.1l0,0l-0.2-0.1l0,0l-0.2-0.1l0,0l-0.2-0.1l0,0l-0.2-0.1l0,0l-0.2-0.1l0,0l-0.2-0.1l0,0l-0.2-0.1l0,0l-0.2-0.1
		l0,0l-0.2-0.1l0,0l-0.2-0.1l0,0l-0.2-0.1l0,0l-0.2-0.1l0,0l-0.2-0.1l0,0l-0.2-0.1l0,0l-0.2-0.1l0,0l-0.2-0.1l0,0l-0.2-0.1l0,0
		l-0.2-0.1l0,0l-0.2-0.1l0,0l-0.2-0.1l0,0l-0.2-0.1l0,0l-0.2-0.1l0,0l-0.2-0.1l0,0l-0.2-0.1l0,0l-0.2-0.1l0,0l-0.2-0.1l0,0l-0.2-0.1
		l0,0l-0.2-0.1h0l-0.2-0.1l0,0l-0.2-0.1l0,0l-0.2-0.1l0,0l-0.2-0.1h0l-0.2-0.1l0,0l-0.2-0.1l0,0l-0.2-0.1l0,0l-0.2-0.1h0l-0.2-0.1
		l0,0l-0.2-0.1l0,0l-0.2-0.1h0l-0.2-0.1h0l-0.2-0.1l0,0l-0.2-0.1l0,0l-0.2-0.1h0l-0.2-0.1l0,0l-0.2-0.1l0,0l-0.2-0.1l0,0l-0.2-0.1h0
		l-0.2,0l0,0l-0.2,0l0,0l-0.2,0l0,0l-0.2,0l0,0l-0.2,0h0l-0.2,0h0l-0.2,0l0,0l-0.2-0.1l0,0l-0.2,0l0,0l-0.2,0h0l-0.2,0l0,0l-0.2,0h0
		l-0.2-0.1l0,0l-0.2,0l0,0l-0.2,0l0,0l-0.2,0l0,0l-0.2,0l0,0l-0.2,0h0l-0.2,0l0,0l-0.2,0l0,0l-0.2,0l0,0l-0.2,0l0,0l-0.2,0h0l-0.2,0
		h0l-0.2,0l0,0l-0.2,0h0l-0.2,0h0l-0.2,0h0l-0.2,0l0,0l-0.2,0h0l-0.2,0l0,0l-0.2,0l0,0l-0.2,0h0l-0.2,0h0l-0.2,0h0l-0.2,0h0l-0.2,0
		l0,0l-0.2,0l0,0l-0.2,0h0l-0.2,0h0l-0.2,0l0,0l-0.2,0h0l-0.2,0h0l-0.2,0l0,0l-0.2,0l0,0l-0.2,0h0l-0.2,0h0l-0.2,0h0l-0.2,0h0
		l-0.2,0h0l-0.2,0h0l-0.2,0h0l-0.2,0h0l-0.2,0h0l-0.2,0h-0.3l0,0.2h-1.6l-0.2,0H935l-0.2,0h0l-0.2,0h0l-0.2,0h0l-0.2,0h0l-0.2,0h0
		l-0.2,0h0l-0.2,0h0l-0.2,0h0l-0.2,0h0l-0.2,0h0l-0.2,0h0l-0.2,0l0,0l-0.2,0h0l-0.2,0h0l-0.2,0h0l-0.2,0l0,0l-0.2,0h0l-0.2,0h0
		l-0.2,0h0l-0.2,0h0l-0.2,0h0l-0.2,0h0l-0.2,0h0l-0.2,0l0,0l-0.2,0h0l-0.2,0h0l-0.2,0l0,0l-0.2,0h0l-0.2,0h0l-0.2,0h0l-0.2,0h0
		l-0.2,0l0,0l-0.2,0l0,0l-0.2,0h0l-0.2,0l0,0l-0.2,0l0,0l-0.2,0l0,0l-0.2,0l0,0l-0.2,0l0,0l-0.2,0h0l-0.2,0l0,0l-0.2,0l0,0l-0.2,0h0
		l-0.2,0.1l0,0l-0.2,0l0,0l-0.2,0h0l-0.2,0.1l0,0l-0.2,0.1l0,0l-0.2,0.1l0,0l-0.2,0.1l0,0l-0.2,0.1l0,0l-0.2,0.1l0,0l-0.2,0.1h0
		l-0.2,0.1l0,0l-0.2,0.1l0,0l-0.2,0.1l0,0l-0.2,0.1l0,0l-0.2,0.1l0,0l-0.2,0.1h0L919,16l0,0l-0.2,0.1l0,0l-0.2,0.1l0,0l-0.2,0.1l0,0
		l-0.2,0.1l0,0l-0.2,0.1l0,0l-0.2,0.1l0,0l-0.2,0.1l0,0l-0.2,0.1l0,0l-0.2,0.1l0,0l-0.2,0.1l0,0l-0.2,0.1l0,0l-0.2,0.1l0,0l-0.2,0.1
		l0,0l-0.2,0.1l0,0l-0.2,0.1l0,0l-0.2,0.1l0,0l-0.2,0.1h0l-0.2,0.1l0,0l-0.2,0.1l0,0l-0.2,0.1l0,0l-0.2,0.1l0,0l-0.2,0.1l0,0L913,18
		l0,0l-0.2,0.1l0,0l-0.2,0.1l0,0l-0.2,0.1l0,0l-0.2,0.1l0,0l-0.2,0.1l0,0l-0.2,0.1l0,0l-0.2,0.1l0,0l-0.2,0.1l0,0l-0.2,0.1l0,0
		l-0.2,0.1l0,0l-0.2,0.1l0,0l-0.2,0.1l0,0l-0.2,0.1l0,0l-0.2,0.1l0,0l-0.2,0.1l0,0l-0.2,0.1l0,0l-0.2,0.1l0,0l-0.2,0.1l0,0l-0.2,0.1
		l0,0l-0.2,0.1l0,0l-0.2,0.1l0,0l-0.2,0.1l0,0l-0.2,0.1l0,0l-0.2,0.1l0,0l-0.2,0.1l0,0l-0.2,0.1l0,0l-0.2,0.1l0,0l-0.2,0.1l0,0
		l-0.2,0.1l0,0l-0.2,0.1l0,0l-0.2,0.1l0,0l-0.2,0.1l0,0l-0.2,0.1l0,0l-0.2,0.1l0,0l-0.2,0.1l0,0l-0.2,0.1l0,0l-0.2,0.1l0,0l-0.2,0.1
		l0,0l-0.2,0.1h0l-96,57.5l0,0l-0.2,0.1l0,0l-0.3,0.2l0,0l-0.3,0.2l0,0l-0.3,0.2l0,0l-0.3,0.2l0,0l-0.2,0.2l0,0l-0.3,0.2l0,0
		l-0.3,0.2l0,0l-0.2,0.2l0,0l-0.2,0.2l0,0l-0.2,0.2l0,0l-0.2,0.2l0,0l-0.2,0.2l0,0l-0.2,0.2l0,0l-0.2,0.2l0,0l-0.2,0.2l0,0l-0.2,0.2
		l0,0l-0.2,0.2l0,0l-0.2,0.2l0,0l-0.2,0.2l0,0l-0.2,0.2l0,0l-0.2,0.2l0,0l-0.2,0.2l0,0l-0.2,0.2l0,0l-0.2,0.2l0,0l-0.2,0.2l0,0
		l-0.2,0.2l0,0l-0.2,0.2l0,0l-0.2,0.2l0,0l-0.2,0.2l0,0l-0.2,0.2l0,0l-0.2,0.2l0,0l-0.2,0.2l0,0l-0.2,0.2l0,0l-0.2,0.2l0,0l-0.2,0.2
		l0,0l-0.2,0.2l0,0l-0.2,0.2l0,0l-0.2,0.2l0,0l-0.2,0.2l0,0l-0.2,0.2l0,0l-0.2,0.2l0,0l-0.2,0.2l0,0l-0.2,0.2l0,0l-0.2,0.2l0,0
		l-0.2,0.2l0,0l-0.2,0.2l0,0l-0.2,0.2l0,0l-0.2,0.2l0,0l-0.2,0.2l0,0l-0.2,0.2l0,0l-0.2,0.2l0,0l-0.2,0.2l0,0l-0.2,0.2l0,0l-0.2,0.2
		l0,0l-0.2,0.2l0,0l-0.2,0.2l0,0l-0.2,0.2l0,0l-0.2,0.2l0,0l-0.2,0.2l0,0l-0.2,0.2l0,0l-0.2,0.2l0,0l-0.2,0.2l0,0l-0.2,0.2l0,0
		l-0.2,0.2l0,0l-0.2,0.2l0,0l-0.2,0.2l0,0l-0.2,0.2l0,0l-0.2,0.2l0,0l-0.2,0.2l0,0l-0.2,0.2l0,0l-0.2,0.2l0,0l-0.2,0.2l0,0l-0.2,0.2
		l0,0l-0.2,0.2l0,0l-0.2,0.2l0,0l-0.2,0.2l0,0l-0.2,0.2l0,0l-0.2,0.2l0,0l-0.2,0.2l0,0l-0.2,0.2l0,0l-0.2,0.2l0,0l-0.2,0.2l0,0
		l-0.2,0.2l0,0l-0.2,0.2l0,0l-0.2,0.2l0,0l-0.2,0.2l0,0l-0.2,0.2l0,0l-0.2,0.2l0,0l-0.2,0.2l0,0l-0.2,0.2l0,0l-0.2,0.2l0,0l-0.2,0.2
		l0,0l-0.2,0.2l0,0l-0.2,0.2l0,0l-0.2,0.2l0,0l-0.2,0.2l0,0l-0.2,0.2l0,0l-0.2,0.2l0,0l-0.2,0.2l0,0l-0.2,0.2l0,0l-0.2,0.2l0,0
		l-0.2,0.2l0,0l-0.2,0.2l0,0l-0.2,0.2l0,0l-0.2,0.2l0,0l-0.2,0.2l0,0l-0.2,0.2l0,0l-0.2,0.2l0,0l-0.2,0.2l0,0l-0.2,0.2l0,0l-0.2,0.2
		l0,0l-0.2,0.2l0,0l-0.2,0.2l0,0l-0.2,0.2l0,0l-0.2,0.2l0,0l-0.2,0.2l0,0l-0.2,0.2l0,0l-0.2,0.2l0,0l-0.2,0.2l0,0l-0.2,0.2l0,0
		l-0.2,0.2l0,0l-0.2,0.2l0,0l-0.2,0.2l0,0l-0.2,0.2l0,0l-0.2,0.3l0,0l-0.1,0.3l0,0l-0.2,0.3l0,0l-0.2,0.3l0,0l-0.1,0.2l0,0l-0.1,0.3
		l0,0l-0.1,0.2l0,0l-0.1,0.3l0,0l-0.1,0.3l0,0l-0.1,0.3l0,0l-0.1,0.3l0,0l-0.1,0.3l0,0l-0.1,0.3l0,0l-0.1,0.3l0,0l-0.1,0.3l0,0
		l-0.1,0.3l0,0l-0.1,0.3l0,0l-0.1,0.3l0,0l-0.1,0.3l0,0l-0.1,0.3l0,0l-0.1,0.3l0,0l-0.1,0.3l0,0l-0.1,0.3l0,0l-0.1,0.3l0,0l-0.1,0.3
		l0,0l-0.1,0.3l0,0l-0.1,0.3l0,0l-0.1,0.3l0,0l-0.1,0.3l0,0l-0.1,0.3l0,0l-0.1,0.3l0,0l-0.1,0.3l0,0l-0.1,0.3l0,0l-0.1,0.3l0,0
		l-0.1,0.3l0,0l-0.1,0.3l0,0l-0.1,0.3l0,0l-0.1,0.3l0,0l-0.1,0.3l0,0l-0.1,0.3l0,0l-0.1,0.3l0,0l-0.1,0.3l0,0l-0.1,0.3l0,0l-0.1,0.3
		l0,0l-0.1,0.3l0,0l-0.1,0.3l0,0l-0.1,0.3l0,0l-0.1,0.3l0,0l-0.1,0.3l0,0l-0.1,0.3l0,0l-0.1,0.3v0l-0.1,0.3l0,0l-0.1,0.3l0,0
		l-0.1,0.3l0,0l-0.1,0.3v0l-0.1,0.3l0,0l-0.1,0.3l0,0l-0.1,0.3l0,0l-0.1,0.3l0,0l-0.1,0.3l0,0l-0.1,0.3l0,0l-0.1,0.3v0l-0.1,0.3l0,0
		l-0.1,0.3l0,0l-0.1,0.3l0,0l-0.1,0.3l0,0l-0.1,0.3l0,0l-0.1,0.3l0,0l-0.1,0.3l0,0l-0.1,0.3l0,0l-0.1,0.3l0,0l-0.1,0.3v0l-0.1,0.3v0
		l-0.1,0.3v0l-0.1,0.3l0,0l-0.1,0.3l0,0l-0.1,0.3v0l-0.1,0.3v0l-0.1,0.3l0,0l-0.1,0.3l0,0l-0.1,0.3l0,0l-0.1,0.3v0l-0.1,0.3l0,0
		l-0.1,0.3l0,0l0,0.3l0,0l0,0.3l0,0l-0.1,0.3v0l0,0.3l0,0l0,0.3l0,0l0,0.3v0l0,0.3l0,0l0,0.3v0l0,0.3l0,0l0,0.3v0l0,0.3l0,0l0,0.3v0
		l0,0.3v0l0,0.3v0l0,0.3v0l0,0.3v0l0,0.3v0l0,0.3v0l0,0.3v0l0,0.3v0l0,0.3v0l0,0.3v0l0,0.3v0l0,0.3v0l0,0.3l0,0l0,0.3v0l0,0.3l0,0
		l0,0.3v0l0,0.3v0l0,0.3v0l0,0.3v0l0,0.3v0l0,0.3v0l0,0.3v0l0,0.3v0l0,0.3v0l0,0.3v0l0,0.3v0l0,0.3v0l0,0.3l0,0.3v0.4l0,0.3v0.3
		l0,0.3v121.3l0,0.3v0l0,0.3v0l0,0.3v0l0,0.3v0.1l0,0.3v0l0,0.3v0l0,0.3v0.1l0,0.3v0l0,0.3v0l0,0.3v0l0,0.3v0l0,0.3v0l0,0.3v0l0,0.3
		v0l0,0.3v0l0,0.3v0l0,0.3v0l0,0.2v0l0,0.3l0,0l0,0.3l0,0l0,0.3l0,0l0,0.3l0,0l0,0.3l0,0l0,0.3v0l0,0.2v0l0,0.3v0l0,0.2l0,0l0,0.3
		v0.1l0,0.3v0l0,0.3l0,0l0,0.3l0,0l0,0.2l0,0l0,0.2v0l0,0.3l0,0l0,0.3l0,0l0,0.3v0l0,0.2l0,0l0,0.2v0l0,0.2l0,0l0,0.2l0,0l0,0.2l0,0
		l0,0.2l0,0l0,0.2l0,0l0,0.2l0,0l0,0.2v0l0,0.2v0.1l0,0.2l0,0l0.1,0.2l0,0l0.1,0.2l0,0l0.1,0.2l0,0l0.1,0.2v0l0.1,0.2l0,0l0.1,0.2v0
		l0.1,0.2v0l0.1,0.2l0,0l0.1,0.2v0l0.1,0.2l0,0l0.1,0.2l0,0l0.1,0.2l0,0l0.1,0.2l0,0l0.1,0.2v0l0.1,0.2l0,0l0.1,0.2l0,0l0.1,0.2l0,0
		l0.1,0.2l0,0l0.1,0.2v0l0.1,0.2l0,0l0.1,0.2l0,0l0.1,0.2l0,0l0.1,0.2l0,0l0.1,0.2l0,0l0.1,0.2l0,0l0.1,0.2l0,0l0.1,0.2l0,0l0.1,0.2
		l0,0l0.1,0.2l0,0l0.1,0.2l0,0l0.1,0.2v0l0.1,0.2l0,0l0.1,0.2l0,0l0.1,0.2l0,0l0.1,0.2l0,0l0.1,0.2l0,0l0.1,0.2l0,0l0.1,0.2l0,0
		l0.1,0.2l0,0l0.1,0.2l0,0l0.1,0.2l0,0l0.1,0.2l0,0l0.1,0.2l0,0l0.1,0.2l0,0l0.1,0.2l0,0l0.1,0.2l0,0l0.1,0.2l0,0l0.1,0.2l0,0
		l0.1,0.2l0,0l0.1,0.2l0,0l0.1,0.2l0,0l0.1,0.2l0,0l0.1,0.2l0,0l0.1,0.2l0,0l0.1,0.2l0,0l0.1,0.2l0,0l0.1,0.2l0,0l0.1,0.2l0,0
		l0.1,0.2l0,0l0.1,0.2l0,0l0.1,0.2l0,0l0.1,0.2l0,0l0.1,0.2l0,0l0.1,0.2l0,0l0.1,0.2l0,0l0.1,0.2l0,0l0.1,0.2l0,0l0.1,0.2l0,0
		l0.1,0.2l0,0l0.1,0.2l0,0l0.1,0.2l0,0l0.1,0.2l0,0l0.1,0.2l0,0l0.1,0.2l0,0l0.1,0.2l0,0l0.1,0.2l0,0l0.1,0.2l0,0l0.1,0.2l0,0
		l0.1,0.2l0,0l0.1,0.2l0,0l0.1,0.2l0,0l0.1,0.2l0,0l0.1,0.2l0,0l0.1,0.2l0,0l0.1,0.2l0,0l0.1,0.2l0,0l0.1,0.2l0,0l0.1,0.2l0,0
		l0.1,0.2l0,0l0.1,0.2l0,0l0.1,0.2l0,0l0.1,0.2l0,0l0.1,0.2l0,0l0.1,0.2l0,0l0.1,0.2l0,0l0.1,0.2l0,0l0.1,0.2l0,0l0.1,0.2l0,0
		l0.2,0.2l0,0l0.2,0.2l0,0l0.2,0.2l0,0l0.1,0.2l0,0l0.1,0.2l0,0l0.2,0.2l0,0l0.2,0.2l0,0l0.2,0.2l0,0l0.2,0.2l0,0l0.2,0.2l0,0
		l0.2,0.2l0,0l0.2,0.2l0,0l0.2,0.2l0,0l0.2,0.2l0,0l0.2,0.2l0,0l0.2,0.2l0,0l0.2,0.2l0,0l0.2,0.2l0,0l0.2,0.2l0,0l0.2,0.2l0,0
		l0.2,0.2l0,0l0.2,0.2l0,0l0.2,0.2l0,0l0.2,0.2l0,0l0.2,0.2l0,0l0.2,0.2l0,0l0.2,0.2l0,0l0.2,0.2l0,0l0.2,0.2l0,0l0.2,0.2l0,0
		l0.2,0.2l0,0l0.2,0.2l0,0l0.2,0.2l0,0l0.2,0.2l0,0l0.2,0.2l0,0l0.2,0.2l0,0l0.2,0.2l0,0l0.2,0.2l0,0l0.2,0.2l0,0l0.2,0.2l0,0
		l0.2,0.2l0,0l0.2,0.2l0,0l0.2,0.2l0,0l0.2,0.2l0,0l0.2,0.2l0,0l0.2,0.2l0,0l0.2,0.2l0,0l0.2,0.2l0,0l0.2,0.2l0,0l0.2,0.2l0,0
		l0.2,0.2l0,0l0.2,0.2l0,0l0.2,0.2l0,0l0.2,0.2l0,0l0.2,0.2l0,0l0.2,0.2l0,0l0.2,0.2l0,0l0.2,0.2l0,0l0.2,0.2l0,0l0.2,0.2l0,0
		l0.2,0.2l0,0l0.2,0.2l0,0l0.2,0.2l0,0l0.2,0.2l0,0l0.2,0.2l0,0l0.2,0.2l0,0l0.2,0.2l0,0l0.2,0.2l0,0l0.2,0.2l0,0l0.2,0.2l0,0
		l0.2,0.2l0,0l0.2,0.2l0,0l0.2,0.2l0,0l0.2,0.2l0,0l0.2,0.2l0,0l0.2,0.2l0,0l0.2,0.2l0,0l0.2,0.2l0,0l0.2,0.2l0,0l0.2,0.2l0,0
		l0.2,0.2l0,0l0.2,0.2l0,0l0.2,0.2l0,0l0.2,0.1l0,0l0.2,0.2l0,0l0.2,0.2l0,0l0.2,0.1l0,0l0.2,0.1l0,0l0.2,0.2l0,0l0.2,0.2l0,0
		l0.2,0.2l0,0l0.2,0.2l0,0l0.2,0.1l0,0l0.2,0.2l0,0l0.2,0.2l0,0l0.2,0.1l0,0l0.2,0.1l0,0l0.2,0.1l0,0l0.2,0.1l0,0l0.2,0.1l0,0
		l0.2,0.1l0,0l0.2,0.1l0,0l0.2,0.1l0,0l0.2,0.1l0,0l0.2,0.1l0,0l0.2,0.1l0,0l0.2,0.1l0,0l105,61.2l0,0l0.2,0.1l0,0l0.2,0.1l0,0
		l0.2,0.1l0,0l0.2,0.1l0,0l0.2,0.1l0,0l0.2,0.1l0,0l0.2,0.1l0,0l0.2,0.1l0,0l0.2,0.1l0,0l0.2,0.1l0,0l0.2,0.1l0,0l0.2,0.1l0,0
		l0.2,0.1l0,0l0.2,0.1l0,0l0.2,0.1l0,0l0.2,0.1l0,0l0.2,0.1l0,0l0.2,0.1l0,0l0.2,0.1l0,0l0.2,0.1l0,0l0.2,0.1l0,0l0.2,0.1l0,0
		l0.2,0.1l0,0l0.2,0.1l0,0l0.2,0.1l0,0l0.2,0.1l0,0l0.2,0.1l0,0l0.2,0.1l0,0l0.2,0.1l0,0l0.2,0.1l0,0l0.2,0.1l0,0l0.2,0.1l0,0
		l0.2,0.1l0,0l0.2,0.1l0,0l0.2,0.1l0,0l0.2,0.1l0,0l0.2,0.1l0,0l0.2,0.1l0,0l0.2,0.1l0,0l0.2,0.1l0,0l0.2,0.1l0,0l0.2,0.1l0,0
		l0.2,0.1l0,0l0.2,0.1l0,0l0.2,0.1l0,0l0.2,0.1l0,0l0.2,0.1l0,0l0.2,0.1l0,0l0.2,0.1l0,0l0.2,0.1l0,0l0.2,0.1l0,0l0.2,0.1l0,0
		l0.4,0.1l0,0l0.4,0.1l0,0l0.4,0.1l0,0l0.4,0.1l0,0l0.4,0.1l0,0l0.4,0.1l0,0l0.4,0.1l0,0l0.4,0.1l0,0l0.4,0.1l0,0l0.4,0.1l0,0
		l0.4,0.1l0,0l0.4,0.1l0,0l0.4,0.1l0.1,0l0.4,0.1l0.1,0l0.4,0.1l0,0l0.4,0.1l0,0l0.4,0.1l0.1,0l0.4,0.1l0,0l0.4,0.1l0.1,0l0.4,0.1
		l0.1,0l0.4,0.1l0,0l0.4,0.1l0.1,0l0.4,0.1h0l0.4,0h0.1l0.4,0h0l0.4,0l0.1,0l0.4,0l0,0l0.4,0h0l0.4,0h0l0.4,0l0.1,0l0.4,0h0.1l0.4,0
		h0l0.4,0h0l0.4,0h0.1l0.4,0h0.1l0.4,0h0.1l0.4,0h0.1l0.4,0h1l0.4,0h0l0.4,0h0l0.4,0h0l0.4,0h0.1l0.4,0l0,0l0.4,0l0,0l0.4,0h0l0.4,0
		h0.1l0.4,0l0,0l0.4,0l0.1,0l0.4,0h0l0.4,0h0l0.4,0l0.1,0l0.4,0l0,0l0.4,0l0.1,0l0.4-0.1h0l0.4-0.1l0.1,0l0.4-0.1h0l0.4-0.1l0,0
		l0.4-0.1l0,0l0.4-0.1l0,0l0.4-0.1l0,0l0.4-0.1l0,0l0.4-0.1l0,0l0.4-0.1l0.1,0l0.4-0.1l0.1,0l0.4-0.1l0,0l0.4-0.1l0.1,0l0.4-0.1
		l0.1,0l0.4-0.1l0,0l0.4-0.1l0.1,0l0.4-0.1l0,0l0.4-0.1l0,0l0.4-0.1l0,0l0.4-0.1l0,0l0.4-0.1l0,0l0.2-0.1h0.1l0.2-0.1l0,0l0.2-0.1h0
		l0.2-0.1l0,0l0.2-0.1l0,0l0.2-0.1l0,0l0.2-0.1l0,0l0.2-0.1l0,0l0.2-0.1l0,0l0.2-0.1l0,0l0.2-0.1l0,0l0.2-0.1l0,0l0.2-0.1l0,0
		l0.2-0.1l0,0l0.2-0.1l0,0l0.2-0.1l0,0l0.2-0.1l0,0l0.2-0.1l0,0l0.2-0.1l0,0l0.2-0.1l0,0l0.2-0.1l0,0l0.2-0.1l0,0l0.2-0.1l0,0
		l0.2-0.1l0,0l0.2-0.1l0,0l0.2-0.1l0,0l0.2-0.1l0,0l0.2-0.1l0,0l0.2-0.1l0,0l0.2-0.1l0,0l0.2-0.1l0,0l0.2-0.1l0,0l0.2-0.1l0,0
		l0.2-0.1l0,0l0.2-0.1l0,0l0.2-0.1l0,0l0.2-0.1l0,0l0.2-0.1l0,0l0.2-0.1l0,0l0.2-0.1l0,0l0.2-0.1l0,0l0.2-0.1l0,0l0.2-0.1l0,0
		l0.2-0.1l0,0l0.2-0.1l0,0l0.2-0.1l0,0l0.2-0.1l0,0l0.2-0.1l0,0l0.2-0.1l0,0l0.2-0.1l0,0l0.2-0.1l0,0l0.2-0.1l0,0l116-64.6l0,0
		l0.2-0.1l0,0l0.2-0.1l0,0l0.2-0.1l0,0l0.2-0.1l0,0l0.2-0.1l0,0l0.2-0.1l0,0l0.2-0.1l0,0l0.2-0.1l0,0l0.2-0.1l0,0l0.2-0.1l0,0
		l0.2-0.1l0,0l0.2-0.1l0,0l0.2-0.1l0,0l0.2-0.1l0,0l0.2-0.1l0,0l0.2-0.1l0,0l0.2-0.1l0,0l0.2-0.1l0,0l0.2-0.1l0,0l0.2-0.1l0,0
		l0.2-0.1l0,0l0.2-0.1l0,0l0.2-0.1l0,0l0.2-0.1l0,0l0.2-0.1l0,0l0.2-0.1l0,0l0.2-0.1l0,0l0.2-0.1l0,0l0.2-0.1l0,0l0.2-0.1l0,0
		l0.2-0.1l0,0l0.2-0.1l0,0l0.2-0.1l0,0l0.2-0.1l0,0l0.2-0.1l0,0l0.2-0.1l0,0l0.2-0.1l0,0l0.2-0.1l0,0l0.2-0.1l0,0l0.2-0.1l0,0
		l0.2-0.1l0,0l0.2-0.1l0,0l0.2-0.1l0,0l0.2-0.1l0,0l0.2-0.1l0,0l0.2-0.1l0,0l0.2-0.2l0,0l0.2-0.1l0,0l0.2-0.2l0,0l0.2-0.2l0,0
		l0.2-0.1l0,0l0.2-0.2l0,0l0.2-0.2l0,0l0.2-0.1l0,0l0.2-0.1l0,0l0.2-0.1l0,0l0.2-0.1l0,0l0.2-0.1l0,0l0.2-0.1l0,0l0.2-0.1l0,0
		l0.2-0.1l0,0l0.2-0.1l0,0l0.2-0.2l0,0l0.2-0.2l0,0l0.2-0.1l0,0l0.2-0.2l0,0l0.2-0.2l0,0l0.2-0.2l0,0l0.2-0.2l0,0l0.2-0.2l0,0
		l0.2-0.2l0,0l0.2-0.2l0,0l0.2-0.2l0,0l0.2-0.2l0,0l0.2-0.2l0,0l0.2-0.2l0,0l0.2-0.2l0,0l0.2-0.2l0,0l0.2-0.2l0,0l0.1-0.2l0,0
		l0.2-0.2l0,0l0.1-0.2l0,0l0.1-0.2l0,0l0.2-0.2l0,0l0.1-0.2l0,0l0.1-0.2l0,0l0.1-0.2l0,0l0.2-0.2l0,0l0.1-0.2l0,0l0.1-0.2l0,0
		l0.1-0.2l0,0l0.1-0.2l0,0l0.1-0.2l0,0l0.1-0.2l0,0l0.1-0.2l0,0l0.1-0.2l0,0l0.1-0.2l0,0l0.1-0.2l0,0l0.1-0.2l0,0l0.1-0.2l0,0
		l0.1-0.2l0,0l0.1-0.2l0,0l0.1-0.2l0,0l0.1-0.2l0,0l0.1-0.2l0,0l0.1-0.2l0,0l0.1-0.2l0,0l0.1-0.2l0,0l0.1-0.2l0,0l0.1-0.2l0,0
		l0.1-0.2l0,0l0.1-0.2l0,0l0.1-0.2l0,0l0.1-0.2l0,0l0.1-0.2l0,0l0.1-0.2l0,0l0.1-0.2l0,0l0.1-0.2l0,0l0.1-0.2l0,0l0.1-0.2l0,0
		l0.1-0.2l0,0l0.1-0.2l0,0l0.1-0.2l0,0l0.1-0.2l0,0l0.1-0.2l0,0l0.1-0.2l0,0l0.1-0.2l0,0l0.1-0.2l0,0l0.1-0.2l0,0l0.1-0.2l0,0
		l0.1-0.2l0,0l0.1-0.2l0,0l0.1-0.2l0,0l0.1-0.2l0,0l0.1-0.2l0,0l0.1-0.2l0,0l0.1-0.2l0,0l0.1-0.2l0,0l0.1-0.2l0,0l0.1-0.2l0,0
		l0.1-0.2l0,0l0.1-0.2l0,0l0.1-0.2l0,0l0.1-0.2l0,0l0.1-0.2l0,0l0.1-0.2l0,0l0.1-0.2l0,0l0.1-0.2l0,0l0.1-0.2l0,0l0.1-0.2l0,0
		l0.1-0.2l0,0l0.1-0.2l0,0l0.1-0.2l0,0l0.1-0.2l0,0l0.1-0.2l0,0l0.1-0.2l0,0l0.1-0.2l0,0l0.1-0.2l0,0l0.1-0.2l0,0l0.1-0.2l0,0
		l0.1-0.2l0,0l0.1-0.2l0,0l0.1-0.2l0,0l0.1-0.2l0,0l0.1-0.2l0,0l0.1-0.2l0,0l0.1-0.2l0,0l0.1-0.2l0,0l0.1-0.2l0,0l0.1-0.2l0,0
		l0.1-0.2l0,0l0.1-0.2l0,0l0.1-0.2l0,0l0.1-0.2l0,0l0.1-0.2l0,0l0.1-0.2l0,0l0.1-0.2l0,0l0.1-0.2l0,0l0.1-0.2l0,0l0.1-0.2l0,0
		l0.1-0.2v0l0.1-0.2l0,0l0.1-0.2l0,0l0.1-0.2l0,0l0.1-0.2l0,0l0.1-0.2l0,0l0.1-0.2l0,0l0.1-0.2l0,0l0.1-0.2l0,0l0.1-0.2v0l0.1-0.2
		l0,0l0.1-0.2v0l0.1-0.2v0l0.1-0.2l0,0l0.1-0.2l0,0l0.1-0.2v0l0.1-0.2l0,0l0.1-0.2v0l0.1-0.2l0,0l0.1-0.2l0,0l0.1-0.2v0l0.1-0.2v0
		l0.1-0.2l0,0l0.1-0.2v0l0.1-0.2l0,0l0-0.2l0,0l0.1-0.2l0,0l0-0.2l0,0l0-0.2v0l0-0.2v0l0-0.2v0l0-0.2l0,0l0-0.2v0l0-0.2v0l0-0.2l0,0
		l0-0.2v0l0-0.2l0,0l0-0.2l0,0l0-0.2l0,0l0-0.2l0,0l0-0.2v0l0-0.2l0,0l0-0.2v0l0-0.2v0l0-0.2v0l0-0.2v0l0-0.2v0l0-0.2l0,0l0-0.2v0
		l0-0.2l0,0l0-0.2v0l0-0.2l0,0l0-0.2l0,0l0-0.2v0l0-0.2v0l0-0.2v0l0-0.2v0l0-0.2v0l0-0.2v0l0-0.2v0l0-0.2v0l0-0.2v0l0-0.2l0,0l0-0.2
		v0l0-0.2v0l0-0.2v0l0-0.2v0l0-0.2v0l0-0.2v-0.5l0-0.2V136.3l0-0.2V135.8z M1013.1,284.6c-17.9,19.6-41.6,27.6-71.1,27.6
		c-27,0-48.8-9.6-67.6-26.2c-20.9-18.4-36.1-47-36.1-78.9c0-31.4,11.7-58.5,32.5-78.7c18.2-17.7,45.3-29.2,73.3-29.2
		c33.8,0,68.8,16,90.4,47.5l-31.7,26.8c-13.5-25-32.9-33.5-60.8-34.3c-30.8-0.9-64.8,28.5-62.2,67.8c1.4,21.9,11.7,59.7,61,66.6
		c25.9,3.6,55.4-24,55.4-39h-48.7V197h92.5v7l0,0C1039.9,251.2,1031,265,1013.1,284.6z"/>
	<path class="st0" d="M1323.7,138.7L1323.7,138.7c-37,0-66.9,30-66.9,66.9s30,66.9,66.9,66.9s66.9-30,66.9-66.9
		S1360.7,138.7,1323.7,138.7z"/>
	<path class="st0" d="M1495.8,136.5v-0.3l0-0.2v0l0-0.2v-0.3l0-0.2v0l0-0.2v0l0-0.2v0l0-0.2v0l0-0.2v0l0-0.2v0l0-0.2v0l0-0.2v0
		l0-0.2v0l0-0.2v0l0-0.2v0l0-0.2l0,0l0-0.2v0l0-0.2v0l0-0.2v0l0-0.2v0l0-0.2v0l0-0.2v0l0-0.2l0,0l0-0.2v0l0-0.2v0l0-0.2v0l0-0.2l0,0
		l0-0.2v0l0-0.2l0,0l0-0.2v0l0-0.2l0,0l0-0.2v0l0-0.2v0l0-0.2v0l0-0.2v0l0-0.2l0,0l0-0.2l0,0l0-0.2l0,0l0-0.2l0,0l0-0.2v-0.1
		l-0.1-0.4l0,0l-0.1-0.4l0-0.1l-0.1-0.4l0-0.1l-0.1-0.4l0-0.1l-0.1-0.4l0,0l-0.1-0.4l0-0.1l-0.1-0.4l0-0.1l-0.1-0.4l0-0.1l-0.1-0.4
		l0,0l-0.1-0.4l0,0l-0.1-0.4l0,0l-0.1-0.4l0,0l-0.1-0.4l0,0l-0.1-0.4l0,0l-0.1-0.4l0,0l-0.1-0.4l0-0.1l-0.1-0.4l0-0.1l-0.1-0.4
		l0-0.1l-0.1-0.4l0-0.1l-0.1-0.4l0-0.1l-0.1-0.4l0-0.1l-0.1-0.4l0-0.1l-0.2-0.4l0,0l-0.2-0.4l0,0l-0.2-0.4l0,0l-0.2-0.4l0-0.1
		l-0.2-0.4l0-0.1l-0.2-0.4l0,0l-0.2-0.4l0,0l-0.2-0.4l0,0l-0.2-0.4l0,0l-0.2-0.4l0,0l-0.2-0.4l0,0l-0.2-0.4l0-0.1l-0.2-0.4l0,0
		l-0.2-0.4l0,0l-0.2-0.4l0-0.1l-0.2-0.4l0,0l-0.2-0.4l0-0.1l-0.2-0.4l0,0l-0.2-0.4l0-0.1l-0.2-0.3l0,0l-0.2-0.4l0-0.1l-0.2-0.4l0,0
		l-0.2-0.4l0,0l-0.2-0.3l0,0l-0.2-0.4l0,0l-0.2-0.4l0,0l-0.2-0.3l0-0.1l-0.2-0.3l0,0l-0.2-0.3l0,0l-0.2-0.3l0,0l-0.2-0.3l0-0.1
		l-0.2-0.3l0,0l-0.2-0.3l0,0l-0.2-0.3l0-0.1l-0.2-0.3l0,0l-0.2-0.3l0,0l-0.3-0.3l0,0l-0.3-0.3l0,0l-0.3-0.3l0,0l-0.3-0.3l0,0
		l-0.3-0.3l0,0l-0.3-0.3l0,0l-0.3-0.3l0,0l-0.3-0.3l0,0l-0.3-0.3l0,0l-0.3-0.3l0,0l-0.3-0.3l0,0l-0.3-0.3l0,0l-0.3-0.3l0,0l-0.3-0.3
		l0,0l-0.3-0.3l0,0l-0.3-0.3l0,0l-0.3-0.3l0,0l-0.3-0.3l0,0l-0.3-0.3l0,0l-0.3-0.3l0,0l-0.3-0.3l0,0l-0.3-0.3l0,0l-0.3-0.3l0,0
		l-0.3-0.3l0,0l-0.3-0.3l0,0l-0.3-0.3l0,0l-0.2-0.1l0,0l-0.2-0.1l0,0l-0.2-0.1l0,0l-0.2-0.1l0,0l-0.2-0.1l0,0l-0.2-0.1l0,0l-0.2-0.1
		l0,0l-0.2-0.1l0,0l-0.2-0.1l0,0l-0.2-0.1l0,0l-0.2-0.1l0,0l-0.2-0.1l0,0l-0.2-0.1l0,0l-0.2-0.1l0,0l-0.2-0.1l0,0l-0.2-0.1l0,0
		l-0.2-0.1l0,0l-0.2-0.1l0,0l-0.2-0.1l0,0l-0.2-0.1l0,0l-0.2-0.1l0,0l-0.2-0.1l0,0l-0.2-0.1l0,0l-0.2-0.1l0,0l-0.2-0.1l0,0l-0.2-0.1
		l0,0l-0.2-0.1l0,0l-0.2-0.1l0,0l-0.2-0.1l0,0l-0.2-0.1l0,0l-0.2-0.1l0,0l-0.2-0.1l0,0l-0.2-0.1l0,0l-0.2-0.1l0,0l-0.2-0.1l0,0
		l-0.2-0.1l0,0l-0.2-0.1l0,0l-0.2-0.1l0,0L1468,88l0,0l-0.2-0.1l0,0l-0.2-0.1l0,0l-0.2-0.1l0,0l-0.2-0.1l0,0l-0.2-0.1l-113.7-65
		l-0.2-0.1l0,0l-0.2-0.1l0,0l-0.2-0.1l0,0l-0.2-0.1l0,0l-0.2-0.1l0,0l-0.2-0.1l0,0l-0.2-0.1l0,0l-0.2-0.1l0,0l-0.2-0.1l0,0l-0.2-0.1
		l0,0l-0.2-0.1l0,0l-0.2-0.1l0,0l-0.2-0.1l0,0l-0.2-0.1l0,0l-0.2-0.1l0,0l-0.2-0.1l0,0l-0.2-0.1l0,0l-0.2-0.1l0,0l-0.2-0.1l0,0
		l-0.2-0.1l0,0l-0.2-0.1l0,0l-0.2-0.1l0,0l-0.2-0.1l0,0l-0.2-0.1l0,0l-0.2-0.1l0,0l-0.2-0.1l0,0l-0.2-0.1l0,0l-0.2-0.1l0,0l-0.2-0.1
		l0,0l-0.2-0.1l0,0l-0.2-0.1l0,0l-0.2-0.1l0,0l-0.2-0.1l0,0l-0.2-0.1l0,0l-0.2-0.1l0,0l-0.2-0.1l0,0L1344,18l0,0l-0.2-0.1l0,0
		l-0.2-0.1l0,0l-0.2-0.1l0,0l-0.2-0.1l0,0l-0.2-0.1l0,0l-0.2-0.1l0,0l-0.2-0.1l0,0l-0.2-0.1l0,0l-0.2-0.1h0l-0.2-0.1l0,0l-0.2-0.1
		l0,0l-0.2-0.1l0,0l-0.2-0.1l0,0l-0.2-0.1l0,0l-0.2-0.1l0,0l-0.2-0.1l0,0l-0.2-0.1l0,0l-0.2-0.1l0,0l-0.2-0.1h0l-0.2-0.1h0l-0.2-0.1
		l0,0l-0.2-0.1h0l-0.2-0.1h0l-0.2-0.1h0l-0.2-0.1h0l-0.2-0.1l0,0l-0.2-0.1l0,0l-0.2-0.1l0,0l-0.2-0.1h0l-0.2-0.1l0,0l-0.2-0.1l0,0
		l-0.2,0h0l-0.2-0.1h0l-0.2,0h0l-0.2,0l0,0l-0.2,0l0,0l-0.2-0.1l0,0l-0.2-0.1l0,0l-0.2-0.1l0,0l-0.2-0.1h0l-0.2,0l0,0l-0.2,0h0
		l-0.2,0h0l-0.2,0h0l-0.2,0h0l-0.2,0h0l-0.2,0l0,0l-0.2,0h0l-0.2,0l0,0l-0.2,0h0l-0.2,0h0l-0.2,0h0l-0.2,0h0l-0.2,0h0l-0.2,0h0
		l-0.2,0h0l-0.2,0h0l-0.2,0h0l-0.2,0l0,0l-0.2,0h0l-0.2,0h0l-0.2,0h0l-0.2,0h0l-0.2,0h0l-0.2,0h0l-0.2,0h0l-0.2,0h0l-0.2,0h0l-0.2,0
		h0l-0.2,0h0l-0.2,0h0l-0.2,0h0l-0.2,0h0l-0.2,0h0l-0.2,0h0l-0.2,0h0l-0.2,0h0l-0.2,0h0l-0.2,0h0l-0.2,0h0l-0.2,0h0l-0.2,0h0l-0.2,0
		h0l-0.2,0h0l-0.2,0h0l-0.2,0h0l-0.2,0h-0.3l-0.5-0.2h-0.8l-0.2,0h0l-0.2,0h-0.3l-0.2,0h0l-0.2,0h0l-0.2,0h0l-0.2,0h0l-0.2,0h0
		l-0.2,0h0l-0.2,0h0l-0.2,0h0l-0.2,0h0l-0.2,0l0,0l-0.2,0h0l-0.2,0h0l-0.2,0h0l-0.2,0h0l-0.2,0h0l-0.2,0h0l-0.2,0h0l-0.2,0h0l-0.2,0
		h0l-0.2,0h0l-0.2,0h0l-0.2,0h0l-0.2,0l0,0l-0.2,0h0l-0.2,0h0l-0.2,0h0l-0.2,0h0l-0.2,0l0,0l-0.2,0l0,0l-0.2,0h0l-0.2,0l0,0l-0.2,0
		h0l-0.2,0h0l-0.2,0l0,0l-0.2,0h0l-0.2,0l0,0l-0.2,0l0,0l-0.2,0l0,0l-0.2,0h0l-0.2,0h0l-0.2,0l0,0l-0.2,0.1h0l-0.2,0l0,0l-0.2,0h0
		l-0.2,0h0l-0.2,0l0,0l-0.2,0l0,0l-0.2,0l0,0l-0.2,0l0,0l-0.2,0h0l-0.2,0.1l0,0l-0.2,0.1l0,0l-0.2,0.1l0,0l-0.2,0.1l0,0l-0.2,0.1
		l0,0l-0.2,0.1h0l-0.2,0.1l0,0l-0.2,0.1l0,0l-0.2,0.1l0,0l-0.2,0.1l0,0l-0.2,0.1l0,0l-0.2,0.1l0,0l-0.2,0.1l0,0l-0.2,0.1l0,0
		l-0.2,0.1l0,0l-0.2,0.1l0,0l-0.2,0.1l0,0l-0.2,0.1l0,0l-0.2,0.1l0,0l-0.2,0.1l0,0l-0.2,0.1l0,0l-0.2,0.1l0,0l-0.2,0.1l0,0l-0.2,0.1
		l0,0l-0.2,0.1l0,0l-0.2,0.1l0,0l-0.2,0.1l0,0l-0.2,0.1l0,0l-0.2,0.1l0,0l-0.2,0.1l0,0l-0.2,0.1l0,0l-0.2,0.1l0,0l-0.2,0.1l0,0
		l-0.2,0.1l0,0l-0.2,0.1l0,0l-0.2,0.1l0,0l-0.2,0.1l0,0l-0.2,0.1l0,0l-0.2,0.1l0,0l-0.2,0.1l0,0l-0.2,0.1l0,0l-0.2,0.1l0,0l-0.2,0.1
		l0,0l-0.2,0.1l0,0l-0.2,0.1l0,0l-0.2,0.1l0,0l-0.2,0.1l0,0l-0.2,0.1l0,0l-0.2,0.1l0,0l-0.2,0.1l0,0l-0.2,0.1l0,0l-0.2,0.1l0,0
		l-0.2,0.1l0,0l-0.2,0.1l0,0l-0.2,0.1l0,0l-0.2,0.1l0,0l-0.2,0.1l0,0l-0.2,0.1l0,0l-0.2,0.1l0,0l-0.2,0.1l0,0l-0.2,0.1l0,0l-0.2,0.1
		l0,0l-0.2,0.1l0,0l-0.2,0.1l0,0l-0.2,0.1l0,0l-0.2,0.1l0,0l-0.2,0.1l0,0l-0.2,0.1l0,0l-0.2,0.1l0,0l-0.2,0.1l0,0l-0.2,0.1l0,0
		l-0.2,0.1l0,0l-0.2,0.1l0,0l-0.2,0.1l0,0l-0.2,0.1l0,0l-96,57.6l0,0l-0.2,0.2l0,0l-0.3,0.2l0,0l-0.3,0.2l0,0l-0.3,0.2l0,0l-0.3,0.2
		l0,0l-0.3,0.2l0,0l-0.3,0.2l0,0l-0.3,0.2l0,0l-0.2,0.2l0,0l-0.2,0.2l0,0l-0.2,0.2l0,0l-0.2,0.2l0,0l-0.2,0.2l0,0l-0.2,0.2l0,0
		l-0.2,0.2l0,0l-0.2,0.2l0,0l-0.2,0.2l0,0l-0.2,0.2l0,0l-0.2,0.2l0,0l-0.2,0.2l0,0l-0.2,0.2l0,0l-0.2,0.2l0,0l-0.2,0.2l0,0l-0.2,0.2
		l0,0l-0.2,0.2l0,0l-0.2,0.2l0,0l-0.2,0.2l0,0l-0.2,0.2l0,0l-0.2,0.2l0,0l-0.2,0.2l0,0l-0.2,0.2l0,0l-0.2,0.2l0,0l-0.2,0.2l0,0
		l-0.2,0.2l0,0l-0.2,0.2l0,0l-0.2,0.2l0,0l-0.2,0.2l0,0l-0.2,0.2l0,0l-0.2,0.2l0,0l-0.2,0.2l0,0l-0.2,0.2l0,0l-0.2,0.2l0,0l-0.2,0.2
		l0,0l-0.2,0.2l0,0l-0.2,0.2l0,0l-0.2,0.2l0,0l-0.2,0.2l0,0l-0.2,0.2l0,0l-0.2,0.2l0,0l-0.2,0.2l0,0l-0.2,0.2l0,0l-0.2,0.2l0,0
		l-0.2,0.2l0,0l-0.2,0.2l0,0l-0.2,0.2l0,0l-0.2,0.2l0,0l-0.2,0.2l0,0l-0.2,0.2l0,0l-0.2,0.2l0,0l-0.2,0.2l0,0l-0.2,0.2l0,0l-0.2,0.2
		l0,0l-0.2,0.2l0,0l-0.2,0.2l0,0l-0.2,0.2l0,0l-0.2,0.2l0,0l-0.2,0.2l0,0l-0.2,0.2l0,0l-0.2,0.2l0,0l-0.2,0.2l0,0l-0.2,0.2l0,0
		l-0.2,0.2l0,0l-0.2,0.2l0,0l-0.2,0.2l0,0l-0.2,0.2l0,0l-0.2,0.2l0,0l-0.2,0.2l0,0l-0.2,0.2l0,0l-0.2,0.2l0,0l-0.2,0.2l0,0l-0.2,0.2
		l0,0l-0.2,0.2l0,0l-0.2,0.2l0,0l-0.2,0.2l0,0l-0.2,0.2l0,0l-0.2,0.2l0,0l-0.2,0.2l0,0l-0.2,0.2l0,0l-0.2,0.2l0,0l-0.2,0.2l0,0
		l-0.2,0.2l0,0l-0.2,0.2l0,0l-0.2,0.2l0,0l-0.2,0.2l0,0l-0.2,0.2l0,0l-0.2,0.2l0,0l-0.2,0.2l0,0l-0.2,0.2l0,0l-0.2,0.2l0,0l-0.2,0.2
		l0,0l-0.2,0.2l0,0l-0.2,0.2l0,0l-0.2,0.2l0,0l-0.2,0.2l0,0l-0.2,0.2l0,0l-0.2,0.2l0,0l-0.2,0.2l0,0l-0.2,0.2l0,0l-0.2,0.2l0,0
		l-0.2,0.2l0,0l-0.2,0.2l0,0l-0.2,0.2l0,0l-0.2,0.2l0,0l-0.2,0.2l0,0l-0.2,0.2l0,0l-0.2,0.2l0,0l-0.2,0.2l0,0l-0.2,0.2l0,0l-0.2,0.2
		l0,0l-0.2,0.2l0,0l-0.2,0.2l0,0l-0.2,0.3l0,0l-0.2,0.2l0,0l-0.2,0.3l0,0l-0.2,0.3l0,0l-0.2,0.3l0,0l-0.1,0.2l0,0l-0.2,0.2l0,0
		l-0.2,0.2l0,0l-0.1,0.3l0,0l-0.1,0.3l0,0l-0.1,0.2l0,0l-0.1,0.3l0,0l-0.1,0.3l0,0l-0.1,0.3l0,0l-0.1,0.3l0,0l-0.1,0.3l0,0l-0.1,0.3
		l0,0l-0.1,0.3l0,0l-0.1,0.3l0,0l-0.1,0.3l0,0l-0.1,0.3l0,0l-0.1,0.3l0,0l-0.1,0.3l0,0l-0.1,0.3l0,0l-0.1,0.3l0,0l-0.1,0.3l0,0
		l-0.1,0.3l0,0l-0.1,0.3l0,0l-0.1,0.3l0,0l-0.1,0.3l0,0l-0.1,0.3l0,0l-0.1,0.3l0,0l-0.1,0.3l0,0l-0.1,0.3l0,0l-0.1,0.3l0,0l-0.1,0.3
		l0,0l-0.1,0.3l0,0l-0.1,0.3l0,0l-0.1,0.3l0,0l-0.1,0.3l0,0l-0.1,0.3l0,0l-0.1,0.3l0,0l-0.1,0.3l0,0l-0.1,0.3l0,0l-0.1,0.3l0,0
		l-0.1,0.3l0,0l-0.1,0.3l0,0l-0.1,0.3l0,0l-0.1,0.3l0,0l-0.1,0.3l0,0l-0.1,0.3l0,0l-0.1,0.3l0,0l-0.1,0.3l0,0l-0.1,0.3l0,0l-0.1,0.3
		l0,0l-0.1,0.3v0l-0.1,0.3l0,0l-0.1,0.3l0,0l-0.1,0.3l0,0l-0.1,0.3l0,0l-0.1,0.3v0l-0.1,0.3l0,0l-0.1,0.3l0,0l-0.1,0.3l0,0l-0.1,0.3
		l0,0l-0.1,0.3l0,0l-0.1,0.3l0,0l-0.1,0.3v0l-0.1,0.3l0,0l-0.1,0.3l0,0l-0.1,0.3l0,0l-0.1,0.3l0,0l-0.1,0.3l0,0l-0.1,0.3l0,0
		l-0.1,0.3l0,0l-0.1,0.3v0l-0.1,0.3l0,0l-0.1,0.3l0,0l-0.1,0.3l0,0l-0.1,0.3v0l-0.1,0.3l0,0l-0.1,0.3v0l-0.1,0.3v0l-0.1,0.3l0,0
		l-0.1,0.3v0l-0.1,0.3l0,0l-0.1,0.3v0l-0.1,0.3v0l-0.1,0.3l0,0l-0.1,0.3v0l-0.1,0.3l0,0l-0.1,0.3v0l-0.1,0.3l0,0l-0.1,0.3v0
		l-0.1,0.3v0l-0.1,0.3l0,0l0,0.3v0l0,0.3l0,0l-0.1,0.3l0,0l0,0.3l0,0l0,0.3v0l0,0.3l0,0l0,0.3v0l0,0.3l0,0l0,0.3v0l0,0.3v0l0,0.3v0
		l0,0.3l0,0l0,0.3v0l0,0.3v0l0,0.3v0l0,0.3v0l0,0.3v0l0,0.3v0l0,0.3v0l0,0.3v0l0,0.3v0l0,0.3v0l0,0.3l0,0l0,0.3v0l0,0.3v0l0,0.3v0
		l0,0.3v0l0,0.3v0l0,0.3v0l0,0.3v0l0,0.3v0l0,0.3v0l0,0.3v0l0,0.3v0.7l0,0.3v121.1l0,0.3v0l0,0.3v0l0,0.3v0l0,0.3v0l0,0.3v0l0,0.3v0
		l0,0.3v0l0,0.3v0l0,0.3v0.1l0,0.3v0l0,0.3l0,0l0,0.3v0l0,0.3v0l0,0.3v0l0,0.3v0l0,0.3l0,0.2v0l0,0.3v0l0,0.3v0l0,0.3v0l0,0.3v0
		l0,0.3v0l0,0.3v0l0,0.3v0l0,0.3v0l0,0.3l0,0l0,0.3v0l0,0.3v0l0,0.3l0,0l0,0.2v0l0,0.3v0l0,0.3v0l0,0.2v0l0,0.2l0,0l0,0.3v0l0,0.2v0
		l0,0.3v0l0.1,0.3v0l0,0.2l0,0l0,0.2l0,0l0.1,0.2v0l0.1,0.2l0,0l0.1,0.2v0l0.1,0.2v0l0.1,0.2l0,0l0.1,0.3l0,0l0.1,0.2v0l0.1,0.2v0
		l0.1,0.2l0,0l0.1,0.2l0,0l0.1,0.2l0,0l0.1,0.2l0,0l0.1,0.2l0,0l0.1,0.2l0,0l0.1,0.2l0,0l0.1,0.2l0,0l0.1,0.2l0,0l0.1,0.2l0,0
		l0.1,0.2l0,0l0.1,0.2v0l0.1,0.2l0,0l0.1,0.2l0,0l0.1,0.2l0,0l0.1,0.2l0,0l0.1,0.2l0,0l0.1,0.2v0l0.1,0.2l0,0l0.1,0.2v0l0.1,0.2l0,0
		l0.1,0.2l0,0l0.1,0.2l0,0l0.1,0.2l0,0l0.1,0.2l0,0l0.1,0.2l0,0l0.1,0.2l0,0l0.1,0.2l0,0l0.1,0.2l0,0l0.1,0.2l0,0l0.1,0.2l0,0
		l0.1,0.2l0,0l0.1,0.2l0,0l0.1,0.2l0,0l0.1,0.2l0,0l0.1,0.2v0l0.1,0.2l0,0l0.1,0.2l0,0l0.1,0.2l0,0l0.1,0.2l0,0l0.1,0.2v0l0.1,0.2
		l0,0l0.1,0.2l0,0l0.1,0.2l0,0l0.1,0.2l0,0l0.1,0.2l0,0l0.1,0.2l0,0l0.1,0.2l0,0l0.1,0.2l0,0l0.1,0.2l0,0l0.1,0.2l0,0l0.1,0.2l0,0
		l0.1,0.2l0,0l0.1,0.2l0,0l0.1,0.2l0,0l0.1,0.2l0,0l0.1,0.2l0,0l0.1,0.2l0,0l0.1,0.2l0,0l0.1,0.2l0,0l0.1,0.2l0,0l0.1,0.2l0,0
		l0.1,0.2l0,0l0.1,0.2l0,0l0.1,0.2l0,0l0.1,0.2l0,0l0.1,0.2l0,0l0.1,0.2l0,0l0.1,0.2l0,0l0.1,0.2l0,0l0.1,0.2l0,0l0.1,0.2l0,0
		l0.1,0.2l0,0l0.1,0.2l0,0l0.1,0.2l0,0l0.1,0.2l0,0l0.1,0.2l0,0l0.1,0.2l0,0l0.1,0.2l0,0l0.1,0.2l0,0l0.1,0.2l0,0l0.1,0.2l0,0
		l0.1,0.2l0,0l0.1,0.2l0,0l0.1,0.2l0,0l0.1,0.2l0,0l0.1,0.2l0,0l0.1,0.2l0,0l0.1,0.2l0,0l0.1,0.2l0,0l0.1,0.2l0,0l0.1,0.2l0,0
		l0.1,0.2l0,0l0.1,0.2l0,0l0.1,0.2l0,0l0.1,0.2l0,0l0.1,0.2l0,0l0.1,0.2l0,0l0.1,0.2l0,0l0.1,0.2l0,0l0.2,0.2l0,0l0.2,0.2l0,0
		l0.2,0.2l0,0l0.2,0.2l0,0l0.2,0.2l0,0l0.2,0.2l0,0l0.2,0.2l0,0l0.2,0.2l0,0l0.2,0.2l0,0l0.2,0.2l0,0l0.2,0.2l0,0l0.2,0.2l0,0
		l0.2,0.2l0,0l0.2,0.2l0,0l0.2,0.2l0,0l0.2,0.2l0,0l0.2,0.2l0,0l0.2,0.2l0,0l0.2,0.2l0,0l0.2,0.2l0,0l0.2,0.2l0,0l0.2,0.2l0,0
		l0.2,0.2l0,0l0.2,0.2l0,0l0.2,0.2l0,0l0.2,0.2l0,0l0.2,0.2l0,0l0.2,0.2l0,0l0.2,0.2l0,0l0.2,0.2l0,0l0.2,0.2l0,0l0.2,0.2l0,0
		l0.2,0.2l0,0l0.2,0.2l0,0l0.2,0.2l0,0l0.2,0.2l0,0l0.2,0.2l0,0l0.2,0.2l0,0l0.2,0.2l0,0l0.2,0.2l0,0l0.2,0.2l0,0l0.2,0.2l0,0
		l0.2,0.2l0,0l0.2,0.2l0,0l0.2,0.2l0,0l0.2,0.2l0,0l0.2,0.2l0,0l0.2,0.2l0,0l0.2,0.2l0,0l0.2,0.2l0,0l0.2,0.2l0,0l0.2,0.2l0,0
		l0.2,0.2l0,0l0.2,0.2l0,0l0.2,0.2l0,0l0.2,0.2l0,0l0.2,0.2l0,0l0.2,0.2l0,0l0.2,0.2l0,0l0.2,0.2l0,0l0.2,0.2l0,0l0.2,0.2l0,0
		l0.2,0.2l0,0l0.2,0.2l0,0l0.2,0.2l0,0l0.2,0.2l0,0l0.2,0.2l0,0l0.2,0.2l0,0l0.2,0.2l0,0l0.2,0.2l0,0l0.2,0.2l0,0l0.2,0.2l0,0
		l0.2,0.2l0,0l0.2,0.2l0,0l0.2,0.2l0,0l0.2,0.2l0,0l0.2,0.1l0,0l0.2,0.2l0,0l0.2,0.1l0,0l0.2,0.2l0,0l0.2,0.1l0,0l0.2,0.1l0,0
		l0.2,0.1l0,0l0.2,0.1l0,0l0.2,0.1l0,0l0.2,0.1l0,0l0.2,0.1l0,0l0.2,0.1l0,0l0.2,0.1l0,0l0.2,0.1l0,0l0.2,0.1l0,0l0.2,0.1l0,0
		l0.2,0.1l0,0l0.2,0.2l0,0l0.2,0.1l0,0l0.2,0.1l0,0l0.2,0.1l0,0l0.2,0.1l0,0l0.2,0.1l0,0l0.2,0.1l0,0l0.2,0.1l0,0l0.2,0.1l0,0
		l0.2,0.1l0,0l0.2,0.1l0,0l0.2,0.1h0l104.7,61.2l0,0l0.2,0.1l0,0l0.2,0.1l0,0l0.2,0.1l0,0l0.2,0.1l0,0l0.2,0.1l0,0l0.2,0.1l0,0
		l0.2,0.1l0,0l0.2,0.1l0,0l0.2,0.1l0,0l0.2,0.1l0,0l0.2,0.1l0,0l0.2,0.1l0,0l0.2,0.1l0,0l0.2,0.1l0,0l0.2,0.1l0,0l0.2,0.1l0,0
		l0.2,0.1l0,0l0.2,0.1l0,0l0.2,0.1l0,0l0.2,0.1l0,0l0.2,0.1l0,0l0.2,0.1l0,0l0.2,0.1l0,0l0.2,0.1l0,0l0.2,0.1l0,0l0.2,0.1l0,0
		l0.2,0.1l0,0l0.2,0.1l0,0l0.2,0.1l0,0l0.2,0.1l0,0l0.2,0.1l0,0l0.2,0.1l0,0l0.2,0.1l0,0l0.2,0.1l0,0l0.2,0.1l0,0l0.2,0.1l0,0
		l0.2,0.1l0,0l0.2,0.1l0,0l0.2,0.1l0,0l0.2,0.1l0,0l0.2,0.1l0,0l0.2,0.1l0,0l0.2,0.1l0,0l0.2,0.1l0,0l0.2,0.1l0,0l0.2,0.1l0,0
		l0.2,0.1l0,0l0.2,0.1l0,0l0.2,0.1l0,0l0.2,0.1l0,0l0.2,0.1l0,0l0.2,0.1l0,0l0.4,0.1l0.1,0l0.4,0.1l0.1,0l0.4,0.1l0.1,0l0.4,0.1
		l0.1,0l0.4,0.1l0.1,0l0.4,0.1l0.1,0l0.4,0.1l0.1,0l0.4,0.1l0.1,0l0.4,0.1l0.1,0l0.4,0.1l0.1,0l0.4,0.1l0.1,0l0.4,0.1l0.1,0l0.4,0.1
		l0.1,0l0.4,0.1l0.1,0l0.4,0.1l0.1,0l0.4,0.1l0.1,0l0.4,0.1l0.1,0l0.4,0.1l0.1,0l0.4,0.1l0.1,0l0.4,0.1l0.1,0l0.4,0.1l0.1,0l0.4,0.1
		l0.1,0l0.4,0.1h0.1l0.4,0l0.1,0l0.4,0h0.1l0.4,0h0.1l0.4,0h0.1l0.4,0h0.1l0.4,0h0.1l0.4,0h0.1l0.4,0h0.1l0.4,0h0.1l0.4,0l0.1,0
		l0.4,0h0.1l0.4,0h0.1l0.4,0h0.1l0.4,0h0.1l0.4,0h1.5l0.4,0h0.1l0.4,0h0.1l0.4,0l0.1,0l0.4,0l0.1,0l0.4,0l0.1,0l0.4,0h0l0.4,0h0.1
		l0.4,0l0.1,0l0.4,0l0.1,0l0.4,0l0.1,0l0.4,0l0.1,0l0.4,0l0.1,0l0.4,0h0.1l0.4,0h0.1l0.4-0.1l0.1,0l0.4-0.1l0.1,0l0.4-0.1l0.1,0
		l0.4-0.1l0.1,0l0.4-0.1l0.1,0l0.4-0.1l0.1,0l0.4-0.1l0.1,0l0.4-0.1l0.1,0l0.4-0.1l0.1,0l0.4-0.1l0.1,0l0.4-0.1l0.1,0l0.4-0.1l0.1,0
		l0.4-0.1l0.1,0l0.4-0.1l0.1,0l0.4-0.1l0.1,0l0.4-0.1l0.1,0l0.4-0.1l0.1,0l0.4-0.1l0.1,0l0.4-0.1l0.1,0l0.4-0.1l0.1,0l0.4-0.1l0,0
		l0.2-0.1l0,0l0.2-0.1l0.2-0.1l0,0l0.2-0.1l0,0l0.2-0.1l0,0l0.2-0.1l0,0l0.2-0.1l0,0l0.2-0.1l0,0l0.2-0.1l0,0l0.2-0.1l0,0l0.2-0.1
		l0,0l0.2-0.1l0,0l0.2-0.1l0,0l0.2-0.1l0,0l0.2-0.1l0,0l0.2-0.1l0,0l0.2-0.1l0,0l0.2-0.1l0,0l0.2-0.1l0,0l0.2-0.1l0,0l0.2-0.1l0,0
		l0.2-0.1l0,0l0.2-0.1l0,0l0.2-0.1l0,0l0.2-0.1l0,0l0.2-0.1l0,0l0.2-0.1l0,0l0.2-0.1l0,0l0.2-0.1l0,0l0.2-0.1l0,0l0.2-0.1l0,0
		l0.2-0.1l0,0l0.2-0.1l0,0l0.2-0.1l0,0l0.2-0.1l0,0l0.2-0.1l0,0l0.2-0.1l0,0l0.2-0.1l0,0l0.2-0.1l0,0l0.2-0.1l0,0l0.2-0.1l0,0
		l0.2-0.1l0,0l0.2-0.1l0,0l0.2-0.1l0,0l0.2-0.1l0,0l0.2-0.1l0,0l0.2-0.1l0,0l0.2-0.1l0,0l0.2-0.1l0,0l0.2-0.1l0,0l0.2-0.1l0,0
		l0.2-0.1l0,0l116-64.6l0,0l0.2-0.1l0,0l0.2-0.1l0,0l0.2-0.1l0,0l0.2-0.1l0,0l0.2-0.1l0,0l0.2-0.1l0,0l0.2-0.1l0,0l0.2-0.1l0,0
		l0.2-0.1l0,0l0.2-0.1l0,0l0.2-0.1l0,0l0.2-0.1l0,0l0.2-0.1l0,0l0.2-0.1l0,0l0.2-0.1l0,0l0.2-0.1l0,0l0.2-0.1l0,0l0.2-0.1l0,0
		l0.2-0.1l0,0l0.2-0.1l0,0l0.2-0.1l0,0l0.2-0.1l0,0l0.2-0.1l0,0l0.2-0.1l0,0l0.2-0.1l0,0l0.2-0.1l0,0l0.2-0.1l0,0l0.2-0.1l0,0
		l0.2-0.1l0,0l0.2-0.1l0,0l0.2-0.1l0,0l0.2-0.1l0,0l0.2-0.1l0,0l0.2-0.1l0,0l0.2-0.1l0,0l0.2-0.1l0,0l0.2-0.1l0,0l0.2-0.1l0,0
		l0.2-0.1l0,0l0.2-0.1l0,0l0.2-0.1l0,0l0.2-0.1l0,0l0.2-0.1l0,0l0.2-0.1l0,0l0.2-0.1l0,0l0.2-0.1l0,0l0.2-0.1l0,0l0.2-0.2l0,0
		l0.2-0.2l0,0l0.2-0.2l0,0l0.2-0.1l0,0l0.2-0.1l0,0l0.2-0.1l0,0l0.2-0.2l0,0l0.2-0.2l0,0l0.2-0.2l0,0l0.2-0.2l0,0l0.2-0.2l0,0
		l0.2-0.2l0,0l0.2-0.2l0,0l0.2-0.2l0,0l0.2-0.2l0,0l0.2-0.1l0,0l0.2-0.2l0,0l0.2-0.1l0,0l0.2-0.2l0,0l0.2-0.2l0,0l0.2-0.2l0,0
		l0.2-0.1l0,0l0.2-0.2l0,0l0.2-0.2l0,0l0.2-0.2l0,0l0.2-0.2l0,0l0.2-0.2l0,0l0.2-0.2l0,0l0.2-0.2l0,0l0.2-0.2l0,0l0.2-0.2l0,0
		l0.2-0.2l0,0l0.2-0.2l0,0l0.2-0.2l0,0l0.1-0.2l0,0l0.1-0.2l0,0l0.1-0.2l0,0l0.1-0.2l0,0l0.1-0.2l0,0l0.1-0.2l0,0l0.1-0.2l0,0
		l0.1-0.2l0,0l0.1-0.2l0,0l0.1-0.2l0,0l0.1-0.2l0,0l0.1-0.2l0,0l0.1-0.2l0,0l0.1-0.2l0,0l0.1-0.2l0,0l0.1-0.2l0,0l0.1-0.2l0,0
		l0.1-0.2l0,0l0.1-0.2l0,0l0.1-0.2l0,0l0.1-0.2l0,0l0.1-0.2l0,0l0.1-0.2l0,0l0.1-0.2l0,0l0.1-0.2l0,0l0.1-0.2l0,0l0.1-0.2l0,0
		l0.1-0.2l0,0l0.1-0.2l0,0l0.1-0.2l0,0l0.1-0.2l0,0l0.1-0.2l0,0l0.1-0.2l0,0l0.1-0.2l0,0l0.1-0.2l0,0l0.1-0.2l0,0l0.1-0.2l0,0
		l0.1-0.2l0,0l0.1-0.2l0,0l0.1-0.2l0,0l0.1-0.2l0,0l0.1-0.2l0,0l0.1-0.2l0,0l0.1-0.2l0,0l0.1-0.2l0,0l0.1-0.2l0,0l0.1-0.2l0,0
		l0.1-0.2l0,0l0.1-0.2l0,0l0.1-0.2l0,0l0.1-0.2l0,0l0.1-0.2l0,0l0.1-0.2l0,0l0.1-0.2l0,0l0.1-0.2l0,0l0.1-0.2l0,0l0.1-0.2l0,0
		l0.1-0.2l0,0l0.1-0.2l0,0l0.1-0.2l0,0l0.1-0.2l0,0l0.1-0.2l0,0l0.1-0.2l0,0l0.1-0.2l0,0l0.1-0.2l0,0l0.1-0.2l0,0l0.1-0.2l0,0
		l0.1-0.2l0,0l0.1-0.2l0,0l0.1-0.2l0,0l0.1-0.2l0,0l0.1-0.2l0,0l0.1-0.2l0,0l0.1-0.2l0,0l0.1-0.2l0,0l0.1-0.2l0,0l0.1-0.2l0,0
		l0.1-0.2l0,0l0.1-0.2l0,0l0.1-0.2l0,0l0.1-0.2l0,0l0.1-0.2l0,0l0.1-0.2l0,0l0.1-0.2l0,0l0.1-0.2l0,0l0.1-0.2l0,0l0.1-0.2l0,0
		l0.1-0.2l0,0l0.1-0.2l0,0l0.1-0.2l0,0l0.1-0.2l0,0l0.1-0.2l0,0l0.1-0.2l0,0l0.1-0.2l0,0l0.1-0.2l0,0l0.1-0.2l0,0l0.1-0.2l0,0
		l0.1-0.2l0,0l0.1-0.2l0,0l0.1-0.2l0,0l0.1-0.2l0,0l0.1-0.2l0,0l0.1-0.2l0,0l0.1-0.2l0,0l0.1-0.2v0l0.1-0.2l0,0l0.1-0.2l0,0l0.1-0.2
		l0,0l0.1-0.2l0,0l0.1-0.2v0l0.1-0.2l0,0l0.1-0.2l0,0l0.1-0.2l0,0l0.1-0.2l0,0l0.1-0.2l0,0l0.1-0.2l0,0l0.1-0.2l0,0l0.1-0.2l0,0
		l0.1-0.2l0,0l0.1-0.2l0,0l0.1-0.2v0l0.1-0.2l0,0l0.1-0.2v0l0-0.2l0,0l0.1-0.2v0l0.1-0.2v0l0.1-0.2l0,0l0-0.2l0,0l0.1-0.2v0l0.1-0.2
		l0,0l0-0.2l0,0l0-0.2v0l0-0.2v0l0-0.2v0l0-0.2l0,0l0-0.2v0l0-0.2l0,0l0-0.2l0,0l0-0.2v0l0-0.2l0,0l0-0.2v0l0-0.2l0,0l0-0.2v0l0-0.2
		l0,0l0-0.2v0l0-0.2v0l0-0.2v0l0-0.2v0l0-0.2l0,0l0-0.2l0,0l0-0.2v0l0-0.2v0l0-0.2v0l0-0.2l0,0l0-0.2l0,0l0-0.2v0l0-0.2v0l0-0.2v0
		l0-0.2v0l0-0.2v0l0-0.2v0l0-0.2v0l0-0.2v0l0-0.2v0l0-0.2l0,0l0-0.2v0l0-0.2v0l0-0.2v0l0-0.2v0l0-0.2v-0.3l0-0.2V136.7L1495.8,136.5
		z M1323.7,312.2c-58.8,0-106.5-47.7-106.5-106.5c0-58.8,47.7-106.5,106.5-106.5c58.8,0,106.5,47.7,106.5,106.5
		C1430.2,264.5,1382.5,312.2,1323.7,312.2z"/>
</g>
</svg>
