<svg enable-background="new 0 0 168 60" viewBox="0 0 168 60" xmlns="http://www.w3.org/2000/svg"><g fill="#2d333a"><path d="m42.4 21.3c.3.2.6.4.8.6h.1l5.9-2.5s.1-.1.1-.1v-.1l-5.5-5.4h-.1s-.1 0-.1.1l-1.2 7.4c-.1-.1 0 0 0 0zm-12.2-5c.3.4.5.9.5 1.4 0 0 0 .1.1.1l8.7 3.7h.1c.3-.2.6-.4.9-.5 0 0 .1 0 .1-.1l1.4-8.8v-.1l-5.4-5.4s0 0-.1 0-.1 0-.1.1l-6.1 9.5c-.1.1-.1.1-.1.1zm29.8 13.7-9.3-9.3h-.1l-6.3 2.7s-.1.1-.1.1 0 .1.1.1l15.6 6.6h.1l.1-.1c-.1 0-.1-.1-.1-.1zm-1.6 1.5-15-6.4h-.1c-.4.6-1 .9-1.7 1 0 0-.1 0-.1.1l-1.6 9.9v.1c.6.4.9 1.1 1 1.8 0 .1 0 .1.1.1l9.1 1.9h.1l8.3-8.2c0-.2 0-.2-.1-.3.1 0 .1 0 0 0zm-19.8-8.4-8.2-3.5s-.1 0-.1.1c-.6.9-1.5 1.4-2.5 1.4-.2 0-.3 0-.5-.1s-.1 0-.1.1l-6.7 10.5v.1h.1l18-7.7s.1-.1.1-.1v-.1-.1c0-.2 0-.3.1-.4-.2-.2-.2-.2-.2-.2zm9.8 18.3-8-1.6h-.1c-.3.4-.7.7-1.1.9 0 0-.1.1-.1.1l-1.9 11.7c0 .1 0 .1.1.1h.1.1l11-11v-.1c0-.1 0-.1-.1-.1zm-11.1-.8c-.8-.3-1.3-1-1.5-1.8 0 0 0-.1-.1-.1l-14.7-3s-.1 0-.1.1c-.1.1-.1.2-.2.3v.1l13.4 19.5h.1s.1 0 .1 0l.8-.8s0 0 0-.1l2.2-14.2c.1 0 .1 0 0 0zm-16-6.7s0 .1 0 0l14.7 3.1s.1 0 .1-.1c.4-.8 1.2-1.3 2.1-1.3.1 0 .1 0 .1-.1l1.6-9.7s0-.1-.1-.1c-.1-.1-.2-.2-.3-.3h-.1l-18.1 7.7c-.1 0-.1.1-.1.1 0 .3.1.5.1.7zm-6.2 2.4c-.1-.1-.1-.2-.2-.3 0 0-.1-.1-.1-.1l-6.3 2.7s-.1 0-.1.1 0 .1 0 .1l3.1 3.1h.1s.1 0 .1-.1l3.4-5.5c0 .1 0 .1 0 0zm4.2 1-.1-.1c-.5.2-.9.3-1.4.3-.4 0-.7-.1-1.1-.2s-.1 0-.1.1l-3.7 5.7v.1l16.8 16.8h.1.1l3-2.9v-.1zm-2.4-6.6c.1.1.1.1 0 0l.1.1c.3-.1.5-.1.8-.1s.6.1.9.1.1 0 .1-.1l6.8-10.6v-.1c-.5-.6-.8-1.3-.8-2.1 0-.2 0-.5.1-.7 0-.1 0-.1-.1-.1-.9-.4-8.5-3.6-8.5-3.6h-.1l-6.5 6.5v.1zm.8-18.4s7.7 3.3 8.1 3.4h.1c.5-.4 1.2-.7 1.9-.7.3 0 .7.1 1 .2s.1 0 .1-.1l6.3-9.8v-.1l-5.2-5.2s0 0-.1 0-.1 0-.1 0l-12.1 12.1c-.1.1-.1.1 0 .2-.1 0-.1 0 0 0zm-3 20.3c.2-.4.5-.6.7-.9v-.1c-.1-.1-7-10.1-7-10.1s0 0-.1-.1h-.1l-8 8v.1s0 .1.1.1l14.4 3c-.1 0-.1 0 0 0zm-.7 1.7-12.6-2.7s-.1 0-.1.1 0 .1 0 .1l5.6 5.5h.1l6.9-2.9c.1 0 .1-.1.1-.1z"/><path d="m122 15.1h4.1v26.3h-4.1zm-41.7 7.4c-2.2 0-3.9.8-5.3 2.5l-.1-2.1h-3.9v18.5h4.1v-13.2c.8-1.5 2-2.3 3.7-2.3 1.1 0 1.9.3 2.4.9s.7 1.4.7 2.6v12h4.1v-12.3c0-4.4-1.9-6.6-5.7-6.6zm17.6 0c-1.6 0-3 .4-4.2 1.2-1.3.8-2.2 1.9-3 3.4-.7 1.5-1 3.1-1 4.9v.5c0 2.7.8 5 2.4 6.6 1.6 1.7 3.7 2.5 6.3 2.5 1.5 0 2.9-.3 4.1-.9s2.2-1.5 2.9-2.6l-2.2-2.1c-1.2 1.5-2.7 2.3-4.6 2.3-1.3 0-2.4-.5-3.3-1.3-.9-.9-1.4-2.1-1.5-3.6h11.9v-1.7c0-2.9-.7-5.2-2-6.8-1.5-1.6-3.4-2.4-5.8-2.4zm3.7 7.9h-7.8c.2-1.4.6-2.5 1.3-3.3s1.6-1.2 2.7-1.2 2 .4 2.6 1.1 1 1.8 1.1 3.2zm13.2 7.4c-.3-.3-.4-.8-.4-1.5v-10.4h3.2v-3.1h-3.2v-4.5h-4.1v4.5h-3v3.1h3v10.5c0 3.5 1.6 5.3 4.7 5.3.9 0 1.8-.1 2.7-.4v-3.2c-.5.1-1 .2-1.4.2-.7 0-1.2-.2-1.5-.5zm17.5-14.9h4.1v18.5h-4.1zm27.2 12.5-3.8-12.6h-4.4l6.4 18.4-.6 1.6c-.3.9-.7 1.5-1.2 1.9s-1.3.6-2.3.6l-.8-.1v3.2c.7.2 1.4.3 2 .3 2.6 0 4.5-1.6 5.7-4.7l7.2-21.3h-4.4zm-15.1-19c-1.1 1.1-1.7 2.7-1.7 4.8v1.7h-2.7v3.1h2.8v15.4h4.1v-15.5h3.7v-3.1h-3.7v-1.6c0-2 1-3.1 2.9-3.1.6 0 1.1.1 1.6.1l.1-3.3c-.8-.2-1.6-.3-2.3-.3-2.1.1-3.7.7-4.8 1.8zm-8-1.7v3.6h-4.1v-3.6z"/></g></svg>