<?xml version="1.0" encoding="utf-8"?>
<!-- Generator: Adobe Illustrator 22.0.1, SVG Export Plug-In . SVG Version: 6.00 Build 0)  -->
<svg version="1.1" id="Layer_1" xmlns="http://www.w3.org/2000/svg" xmlns:xlink="http://www.w3.org/1999/xlink" x="0px" y="0px"
	 viewBox="0 0 52.3 20.9" style="enable-background:new 0 0 52.3 20.9;" xml:space="preserve">
<style type="text/css">
	.st0{fill:#2D333A;}
</style>
<g>
	<path class="st0" d="M10.5,0.1c-0.6-0.3-1.4,0-1.6,0.6L0.1,19.1c-0.3,0.6-0.1,1.3,0.5,1.6c0.2,0.1,0.4,0.1,0.5,0.1
		c0.4,0,0.9-0.2,1.1-0.7L11,1.7C11.3,1.1,11.1,0.4,10.5,0.1z"/>
	<path class="st0" d="M41.3,4.2c-0.6-0.3-1.3,0-1.6,0.6l-6.3,13.3c-0.1,0.2-0.2,0.3-0.3,0.4c-0.1,0-0.2-0.1-0.3-0.3l-1.9-4
		c-0.6-1-1.4-1.5-2.4-1.5c-0.9,0-1.8,0.7-2.3,1.7l-1.7,3.7c-0.1,0.1-0.1,0.2-0.2,0.3c0-0.1-0.1-0.2-0.1-0.3l-3-6.2
		c-0.3-0.6-1-0.8-1.6-0.5s-0.8,1-0.5,1.6l3,6.3c0.5,1.1,1.4,1.6,2.3,1.6l0,0c0.9,0,1.8-0.5,2.3-1.6l1.7-3.8c0.1-0.3,0.3-0.4,0.3-0.4
		s0.1,0.1,0.3,0.4l1.9,4c0.6,0.9,1.4,1.5,2.3,1.5h0.1c0.9-0.1,1.8-0.7,2.3-1.7L41.9,6C42.1,5.2,41.9,4.5,41.3,4.2z"/>
	<path class="st0" d="M52.1,19.1L43.4,0.7c-0.3-0.6-1-0.8-1.6-0.5s-0.8,1-0.5,1.6L50,20.2c0.2,0.4,0.6,0.7,1.1,0.7
		c0.2,0,0.4,0,0.5-0.1C52.2,20.4,52.4,19.7,52.1,19.1z"/>
	<path class="st0" d="M22.6,2.5c0.1,0.1,0.1,0.1,0.2,0.3l4.1,8.6c0.3,0.6,1.1,0.7,1.7,0.4s0.7-1.1,0.4-1.7l-4.1-8.6
		c-0.6-1-1.5-1.5-2.4-1.5c-0.9,0.1-1.7,0.7-2.2,1.8l-7.7,16.3c-0.1,0.1-0.1,0.2-0.1,0.3c0-0.1-0.1-0.1-0.2-0.3l-3-6.2
		c-0.3-0.6-1.1-0.8-1.6-0.5C7,11.7,6.8,12.5,7.1,13l3,6.2c0.6,1,1.4,1.6,2.3,1.6h0.1c0.9,0,1.7-0.7,2.2-1.8l7.7-16.3
		C22.5,2.6,22.5,2.5,22.6,2.5z"/>
	<path class="st0" d="M46,14.2c-0.6-0.3-1.3-0.1-1.6,0.5l-1.6,3.4c-0.1,0.2-0.2,0.3-0.2,0.3c-0.1,0-0.1-0.1-0.2-0.3l-1.6-3.4
		c-0.3-0.6-1-0.8-1.6-0.5s-0.8,1-0.5,1.6l1.6,3.4c0.6,1,1.4,1.6,2.3,1.6c0.9,0,1.8-0.6,2.3-1.6l1.6-3.4C46.8,15.2,46.6,14.5,46,14.2
		z"/>
</g>
</svg>
