<?xml version="1.0" encoding="utf-8"?>
<!-- Generator: Adobe Illustrator 22.0.1, SVG Export Plug-In . SVG Version: 6.00 Build 0)  -->
<svg version="1.1" id="Layer_1" xmlns="http://www.w3.org/2000/svg" xmlns:xlink="http://www.w3.org/1999/xlink" x="0px" y="0px"
	 viewBox="0 0 444.4 128.2" style="enable-background:new 0 0 444.4 128.2;" xml:space="preserve">
<style type="text/css">
	.st0{fill:#2D333A;}
</style>
<g id="Layer_1_1_">
</g>
<g id="Layer_3">
</g>
<g id="Layer_4">
</g>
<g id="Layer_2_1_">
	<g>
		<path class="st0" d="M201.9,35.7c3.9,1.7,4.2,3,1.1,8.8c-3.1,6-3.9,6.3-7.7,4.8c-4.8-2.1-11-3.6-15-3.6c-6.5,0-10.9,2.3-10.9,5.9
			c0,11.7,37.4,5.4,37.4,30.4c0,12.6-10.8,21-27,21c-8.5,0-19-2.8-26.3-6.5c-3.6-1.8-3.8-2.9-0.7-8.9c2.7-5.3,3.6-5.8,7.5-4.2
			c6.2,2.7,14,4.8,19.3,4.8c6,0,9.9-2.4,9.9-6c0-11.4-38.1-6-38.1-30.2c0-12.9,10.7-21.5,26.8-21.5
			C185.8,30.4,195.3,32.7,201.9,35.7z"/>
		<path class="st0" d="M232.1,6v93.2c0,1.4-1.5,2.9-3.6,2.9h-9.8c-2.1,0-3.6-1.5-3.6-2.9V6c0-4.6,1.3-5,8.5-5
			C231.8,0.9,232.1,1.5,232.1,6z"/>
		<path class="st0" d="M301.8,58.4v40.1c0,2.1-1.5,3.6-3.6,3.6h-9.7c-2.2,0-3.8-1.6-3.6-3.8L285,94c-5.3,5.8-12.8,8.9-20.3,8.9
			c-14.6,0-24.4-8.5-24.4-21.1c0-13.4,11.1-22.5,27.7-22.5c6.3,0,12.1,1.1,16.8,3.1v-4.6c0-7.4-5.8-11.8-15.7-11.8
			c-4.6,0-10.3,1.8-14.8,4.5c-3.5,2-4.3,1.8-8.1-3.8c-3.7-5.6-3.6-6.7,0-9c6.8-4.4,16.1-7.2,24.6-7.2
			C289.8,30.4,301.8,40.8,301.8,58.4z M256.6,81.6c0,4.8,4,8,10.2,8c7.4,0,14.1-3.6,18-9.6v-6.3c-3.9-1.5-8.7-2.3-12.9-2.3
			C262.7,71.4,256.6,75.7,256.6,81.6z"/>
		<path class="st0" d="M368.3,35.8c3.6,2.1,3.7,3.2-0.2,9.2c-3.7,5.7-4.3,6-8.2,4c-3-1.6-7.7-2.9-11.7-2.9
			c-12.3,0-20.5,8.1-20.5,20.3c0,12.7,8.2,21.2,20.5,21.2c4.3,0,9.6-1.6,13.1-3.6c3.6-2.1,4.3-1.9,8.1,3.6c3.4,5.1,3.3,6.3,0.3,8.5
			c-5.5,3.8-14.1,6.7-21.7,6.7c-22.7,0-37.9-14.6-37.9-36.4c0-21.7,15.2-36.1,38.1-36.1C355,30.4,363.2,32.8,368.3,35.8z"/>
		<path class="st0" d="M442.5,93.3c2.8,3.6,1.7,4.9-5.4,7.5c-7.2,2.6-8.2,2.5-10.8-0.9L406,72.8l-9.1,8.8v17.6
			c0,1.4-1.5,2.9-3.6,2.9h-9.9c-2.1,0-3.6-1.5-3.6-2.9V6c0-4.6,1.3-5,8.5-5c8.2,0,8.5,0.6,8.5,5v53l27.8-26.7
			c3.1-2.9,4.8-2.7,10.2,0.9c6,3.9,6.5,5,3.6,7.8l-20.7,20.2L442.5,93.3z"/>
	</g>
	<g>
		
			<rect x="54.3" y="56.5" transform="matrix(0.9482 -0.3176 0.3176 0.9482 -17.3768 23.4177)" class="st0" width="17.6" height="17"/>
		<g>
			
				<rect x="54.3" y="56.5" transform="matrix(0.9482 -0.3176 0.3176 0.9482 -17.3768 23.4177)" class="st0" width="17.6" height="17"/>
			<path class="st0" d="M120.4,47.7c-12.9-43-31.5-53-74.5-40.1s-53,31.5-40.1,74.5s31.5,53,74.5,40.1S133.3,90.7,120.4,47.7z
				 M98.7,75.6l-8.1,2.7l2.8,8.4c1.1,3.4-0.7,7.1-4.1,8.2c-0.7,0.2-1.5,0.4-2.2,0.3c-2.6-0.1-5.1-1.8-6-4.4l-2.8-8.4L61.6,88
				l2.8,8.4c1.1,3.4-0.7,7.1-4.1,8.2c-0.7,0.2-1.5,0.4-2.2,0.3c-2.6-0.1-5.1-1.8-6-4.4l-2.8-8.4l-8.1,2.7c-0.7,0.2-1.5,0.4-2.2,0.3
				c-2.6-0.1-5.1-1.8-6-4.4c-1.1-3.4,0.7-7.1,4.1-8.2l8.1-2.7l-5.4-16.1l-8.1,2.7c-0.7,0.2-1.5,0.4-2.2,0.3c-2.6-0.1-5.1-1.8-6-4.4
				c-1.1-3.4,0.7-7.1,4.1-8.2l8.1-2.7L32.9,43c-1.1-3.4,0.7-7.1,4.1-8.2s7.1,0.7,8.2,4.1l2.8,8.4l16.7-5.6l-2.8-8.4
				c-1.1-3.4,0.7-7.1,4.1-8.2s7.1,0.7,8.2,4.1l2.8,8.4l8.1-2.7c3.4-1.1,7.1,0.7,8.2,4.1c1.1,3.4-0.7,7.1-4.1,8.2l-8.1,2.7L86.5,66
				l8.1-2.7c3.4-1.1,7.1,0.7,8.2,4.1C103.9,70.8,102.1,74.5,98.7,75.6z"/>
		</g>
	</g>
</g>
</svg>
