<?xml version="1.0" encoding="utf-8"?>
<!-- Generator: Adobe Illustrator 22.0.1, SVG Export Plug-In . SVG Version: 6.00 Build 0)  -->
<svg version="1.1" id="Layer_1" xmlns="http://www.w3.org/2000/svg" xmlns:xlink="http://www.w3.org/1999/xlink" x="0px" y="0px"
	 viewBox="0 0 559 168" style="enable-background:new 0 0 559 168;" xml:space="preserve">
<style type="text/css">
	.st0{filter:url(#Adobe_OpacityMaskFilter);}
	.st1{fill:#FFFFFF;}
	.st2{mask:url(#spotify_logo_rgb_black-b_1_);fill:#2D333A;}
	.st3{fill:#2D333A;}
</style>
<g>
	<defs>
		<filter id="Adobe_OpacityMaskFilter" filterUnits="userSpaceOnUse" x="0" y="0.5" width="167.5" height="167.5">
			<feColorMatrix  type="matrix" values="1 0 0 0 0  0 1 0 0 0  0 0 1 0 0  0 0 0 1 0"/>
		</filter>
	</defs>
	<mask maskUnits="userSpaceOnUse" x="0" y="0.5" width="167.5" height="167.5" id="spotify_logo_rgb_black-b_1_">
		<g class="st0">
			<polygon id="spotify_logo_rgb_black-a_1_" class="st1" points="167.5,167.9 0,167.9 0,84.2 0,0.5 167.5,0.5 			"/>
		</g>
	</mask>
	<path class="st2" d="M133.3,74.8c-27-16-71.5-17.5-97.3-9.7c-4.1,1.3-8.5-1.1-9.8-5.2c-1.3-4.1,1.1-8.5,5.2-9.8
		c29.6-9,78.8-7.2,109.8,11.2c3.7,2.2,4.9,7,2.7,10.7C141.8,75.7,137,77,133.3,74.8z M132.4,98.5c-1.9,3.1-5.9,4-9,2.2
		C100.9,86.8,66.6,82.8,40,90.9c-3.5,1-7.1-0.9-8.1-4.3c-1-3.5,0.9-7.1,4.4-8.1c30.4-9.2,68.2-4.8,94.1,11.1
		C133.3,91.4,134.3,95.4,132.4,98.5z M122.1,121.3c-1.5,2.5-4.7,3.2-7.2,1.7c-19.7-12-44.4-14.7-73.6-8.1c-2.8,0.6-5.6-1.1-6.2-3.9
		c-0.6-2.8,1.1-5.6,3.9-6.2c31.9-7.3,59.3-4.2,81.3,9.3C122.9,115.6,123.7,118.8,122.1,121.3z M83.7,0.5C37.5,0.5,0,38,0,84.3
		C0,130.5,37.5,168,83.7,168c46.3,0,83.7-37.5,83.7-83.7C167.5,38,130,0.5,83.7,0.5L83.7,0.5z"/>
	<path class="st3" d="M227.8,77.8c-14.5-3.4-17-5.9-17-11c0-4.8,4.5-8,11.2-8c6.5,0,13,2.5,19.8,7.5c0.2,0.2,0.5,0.2,0.7,0.2
		c0.3,0,0.5-0.2,0.6-0.4l7.1-10c0.3-0.4,0.2-1-0.2-1.3c-8.1-6.5-17.2-9.6-27.8-9.6c-15.6,0-26.5,9.4-26.5,22.8
		c0,14.4,9.4,19.5,25.7,23.4c13.8,3.2,16.2,5.9,16.2,10.6c0,5.3-4.7,8.6-12.3,8.6c-8.4,0-15.3-2.8-23-9.5c-0.2-0.2-0.5-0.2-0.7-0.2
		c-0.3,0-0.5,0.1-0.6,0.3l-7.9,9.4c-0.3,0.4-0.3,1,0.1,1.3c9,8,20,12.2,31.9,12.2c16.8,0,27.7-9.2,27.7-23.4
		C252.6,88.8,245.5,82.1,227.8,77.8 M302.9,93.9c0,10.2-6.3,17.2-15.2,17.2c-8.9,0-15.5-7.4-15.5-17.2c0-9.8,6.7-17.2,15.5-17.2
		C296.5,76.7,302.9,83.9,302.9,93.9z M290.7,63.6c-7.3,0-13.3,2.9-18.2,8.8v-6.6c0-0.5-0.4-0.9-0.9-0.9h-12.9
		c-0.5,0-0.9,0.4-0.9,0.9v73.6c0,0.5,0.4,0.9,0.9,0.9h12.9c0.5,0,0.9-0.4,0.9-0.9v-23.2c4.9,5.5,10.9,8.2,18.2,8.2
		c13.5,0,27.3-10.4,27.3-30.4C318,74,304.2,63.6,290.7,63.6L290.7,63.6z M353.1,111.3c-9.3,0-16.3-7.5-16.3-17.3
		c0-9.9,6.8-17.1,16.1-17.1c9.3,0,16.4,7.5,16.4,17.4C369.3,104.1,362.5,111.3,353.1,111.3z M353.1,63.6C335.7,63.6,322,77,322,94.2
		c0,17,13.6,30.3,30.9,30.3c17.5,0,31.2-13.4,31.2-30.5C384.1,76.9,370.5,63.6,353.1,63.6L353.1,63.6z M421.4,64.7h-14.2V50.2
		c0-0.5-0.4-0.9-0.9-0.9h-12.9c-0.5,0-0.9,0.4-0.9,0.9v14.6h-6.2c-0.5,0-0.9,0.4-0.9,0.9v11.1c0,0.5,0.4,0.9,0.9,0.9h6.2v28.8
		c0,11.6,5.8,17.5,17.2,17.5c4.6,0,8.5-1,12.1-3c0.3-0.2,0.5-0.5,0.5-0.8v-10.6c0-0.3-0.2-0.6-0.4-0.8c-0.3-0.2-0.6-0.2-0.9,0
		c-2.5,1.3-4.9,1.8-7.6,1.8c-4.2,0-6-1.9-6-6.1V77.8h14.2c0.5,0,0.9-0.4,0.9-0.9V65.7C422.3,65.2,421.9,64.7,421.4,64.7 M471,64.8
		V63c0-5.3,2-7.6,6.5-7.6c2.7,0,4.9,0.5,7.3,1.3c0.3,0.1,0.6,0,0.9-0.1c0.2-0.2,0.4-0.5,0.4-0.8V44.9c0-0.4-0.3-0.8-0.7-0.9
		c-2.6-0.8-5.8-1.5-10.8-1.5c-12,0-18.3,6.7-18.3,19.5v2.7h-6.2c-0.5,0-0.9,0.4-0.9,0.9v11.2c0,0.5,0.4,0.9,0.9,0.9h6.2v44.4
		c0,0.5,0.4,0.9,0.9,0.9h12.9c0.5,0,0.9-0.4,0.9-0.9V77.8h12.1l18.5,44.4c-2.1,4.7-4.2,5.6-7,5.6c-2.3,0-4.7-0.7-7.1-2
		c-0.2-0.1-0.5-0.1-0.8-0.1c-0.2,0.1-0.5,0.3-0.6,0.5l-4.4,9.6c-0.2,0.5,0,1,0.4,1.2c4.6,2.5,8.7,3.5,13.8,3.5
		c9.6,0,14.8-4.5,19.5-16.4l22.5-58c0.1-0.3,0.1-0.6-0.1-0.9c-0.2-0.3-0.5-0.4-0.8-0.4h-13.5c-0.4,0-0.8,0.3-0.9,0.6l-13.8,39.4
		L494,65.4c-0.1-0.4-0.5-0.6-0.9-0.6H471 M442.3,64.7h-12.9c-0.5,0-0.9,0.4-0.9,0.9v56.5c0,0.5,0.4,0.9,0.9,0.9h12.9
		c0.5,0,0.9-0.4,0.9-0.9V65.7C443.2,65.2,442.8,64.7,442.3,64.7 M435.8,39c-5.1,0-9.3,4.2-9.3,9.3c0,5.1,4.2,9.3,9.3,9.3
		c5.1,0,9.3-4.2,9.3-9.3C445.1,43.2,441,39,435.8,39 M549.8,70.4h-2.4v3h2.4c1.2,0,1.9-0.6,1.9-1.5C551.7,70.9,551,70.4,549.8,70.4z
		 M551.3,74.7l2.6,3.6h-2.2l-2.3-3.3h-2v3.3h-1.8v-9.6h4.3c2.2,0,3.7,1.1,3.7,3.1C553.6,73.3,552.6,74.3,551.3,74.7z M549.3,65.5
		c-4.7,0-8.2,3.7-8.2,8.3c0,4.5,3.5,8.2,8.2,8.2c4.7,0,8.2-3.7,8.2-8.3C557.5,69.2,554,65.5,549.3,65.5z M549.3,82.9
		c-5.1,0-9.1-4.1-9.1-9.1s4-9.2,9.2-9.2c5.1,0,9.1,4.1,9.1,9.1C558.4,78.7,554.4,82.9,549.3,82.9L549.3,82.9z"/>
</g>
</svg>
