<svg enable-background="new 0 0 251 204.6" viewBox="0 0 251 204.6" xmlns="http://www.w3.org/2000/svg"><path d="m-74.6-97.7h400v400h-400z" fill="none"/><path d="m79 203.9c94.4 0 146-78.2 146-145.9 0-2.2 0-4.4-.1-6.6 10-7.3 18.7-16.3 25.6-26.5-9.4 4.1-19.3 6.9-29.5 8.1 10.7-6.4 18.7-16.5 22.5-28.4-10.1 6-21.1 10.2-32.6 12.4-19.4-20.7-51.9-21.7-72.6-2.3-13.3 12.5-19 31.2-14.8 49-41.2-2.1-79.7-21.5-105.7-53.6-13.6 23.5-6.7 53.4 15.9 68.5-8.2-.2-16.1-2.4-23.3-6.4v.6c0 24.4 17.2 45.4 41.2 50.3-7.6 2.1-15.5 2.4-23.2.9 6.7 20.9 26 35.2 47.9 35.6-18.2 14.3-40.6 22-63.7 22-4.1 0-8.2-.3-12.2-.7 23.4 15 50.7 23 78.6 23" fill="#2d333a"/></svg>